<svg id="Grupo_982075" data-name="Grupo 982075" xmlns="http://www.w3.org/2000/svg" xmlns:xlink="http://www.w3.org/1999/xlink" width="82.982" height="83.874" viewBox="0 0 82.982 83.874">
  <defs>
    <clipPath id="clip-path">
      <rect id="Rectángulo_58313" data-name="Rectángulo 58313" width="49.251" height="49.289" fill="#12263f"/>
    </clipPath>
  </defs>
  <ellipse id="Elipse_4870" data-name="Elipse 4870" cx="41.491" cy="41.937" rx="41.491" ry="41.937" transform="translate(0 0)" fill="#4adbd1"/>
  <g id="Grupo_180438" data-name="Grupo 180438" transform="translate(19.604 14.625)">
    <g id="Grupo_180436" data-name="Grupo 180436" clip-path="url(#clip-path)">
      <path id="Trazado_231945" data-name="Trazado 231945" d="M49.251,34.4v14.89H29.538V47.633H0V.015C.129.009.229,0,.329,0Q14.522,0,28.715.01a.965.965,0,0,1,.613.26q4.08,4.05,8.128,8.134a1.112,1.112,0,0,1,.281.706c.022,1.968.013,3.936.013,5.9v.62c1.981-.142,3.86-.026,5.4,1.341a5.653,5.653,0,0,1,1.971,5.095,5.444,5.444,0,0,1-1.968,3.66A5.774,5.774,0,0,1,37.782,26.9v1.031c1.4,0,2.764,0,4.129,0a7.359,7.359,0,0,1,6.923,4.943c.171.5.28,1.015.417,1.524M1.655,1.658V45.966H29.533v-.587c0-3.354-.026-6.709.008-10.062a7.063,7.063,0,0,1,3.705-6.374A21.18,21.18,0,0,1,36.1,27.79a8.95,8.95,0,0,1,.008-1.037,1.14,1.14,0,0,0-.492-1.079,5.439,5.439,0,0,1-1.975-4.227c-.023-1.78-.005-3.56-.005-5.339v-.527h2.422V9.838h-8.19V1.658ZM39.409,46.363c-1.036-1.035-2.005-2.023-3-2.984a.879.879,0,0,1-.3-.856c.437-2.765.848-5.535,1.3-8.3.324-1.966.349-1.962-.56-3.777l-.116-.228c-.333-.666-.333-.666-1.079-.486a5.721,5.721,0,0,0-4.474,5.643c-.012,3.935,0,7.871,0,11.807,0,.146.02.293.029.43H47.607v-.581q0-5.672,0-11.345a9.722,9.722,0,0,0-.1-1.378,5.685,5.685,0,0,0-4.824-4.641.578.578,0,0,0-.458.234c-.361.658-.69,1.334-1.007,2.014a1,1,0,0,0-.077.534c.25,1.723.513,3.445.776,5.166.253,1.654.518,3.306.758,4.961a.818.818,0,0,1-.122.605c-1.016,1.061-2.061,2.1-3.138,3.179M35.3,20.587c0,.31-.011.614,0,.916a4.112,4.112,0,0,0,2.85,3.746,4.026,4.026,0,0,0,4.413-1.336c.829-1.109.732-.929-.194-1.712-2.056-1.739-4.518-1.778-7.07-1.614m4.108,23.4c.452-.479.863-.867,1.211-1.306a1.052,1.052,0,0,0,.209-.71c-.158-1.232-.36-2.458-.55-3.686q-.422-2.739-.848-5.483c-.048.017-.073.021-.074.028q-.728,4.639-1.444,9.28a.632.632,0,0,0,.135.458c.409.457.846.889,1.36,1.419M34.656,8.19,29.592,3.117V8.19Zm3.715,21.449L39.4,31.693l1.008-2.054Z" transform="translate(0 0.001)" fill="#12263f"/>
      <rect id="Rectángulo_58305" data-name="Rectángulo 58305" width="18.014" height="1.586" transform="translate(13.129 16.452)" fill="#12263f"/>
      <rect id="Rectángulo_58306" data-name="Rectángulo 58306" width="18.014" height="1.586" transform="translate(13.129 19.738)" fill="#12263f"/>
      <rect id="Rectángulo_58307" data-name="Rectángulo 58307" width="14.729" height="1.596" transform="translate(13.133 26.305)" fill="#12263f"/>
      <rect id="Rectángulo_58308" data-name="Rectángulo 58308" width="14.728" height="1.587" transform="translate(13.147 29.605)" fill="#12263f"/>
      <rect id="Rectángulo_58309" data-name="Rectángulo 58309" width="13.907" height="1.587" transform="translate(13.129 36.168)" fill="#12263f"/>
      <rect id="Rectángulo_58310" data-name="Rectángulo 58310" width="13.925" height="1.58" transform="translate(13.126 39.458)" fill="#12263f"/>
      <path id="Trazado_231946" data-name="Trazado 231946" d="M46.35,255.4l-1.8-1.892-1.825,2.013L41.5,254.277l1.9-1.833-1.985-1.837,1.234-1.217,1.825,1.912,1.844-1.992,1.215,1.243-1.929,1.826,2.039,1.834L46.35,255.4" transform="translate(-37.155 -223.661)" fill="#12263f"/>
      <path id="Trazado_231947" data-name="Trazado 231947" d="M41.469,349.933l1.9-1.742-1.983-1.817,1.3-1.153,1.776,1.875L46.3,345.08l1.148,1.305L45.58,348.15,47.6,350l-1.328,1.116-1.75-1.829-1.834,2-1.215-1.354" transform="translate(-37.129 -309.578)" fill="#12263f"/>
      <rect id="Rectángulo_58311" data-name="Rectángulo 58311" width="12.264" height="1.59" transform="translate(13.145 6.601)" fill="#12263f"/>
      <rect id="Rectángulo_58312" data-name="Rectángulo 58312" width="12.264" height="1.586" transform="translate(13.129 9.88)" fill="#12263f"/>
      <path id="Trazado_231948" data-name="Trazado 231948" d="M44.078,67.5l.961,1.15,2.668-2.816L48.9,66.992l-3.777,3.776-2.136-2.145,1.093-1.12" transform="translate(-38.563 -59.064)" fill="#12263f"/>
      <path id="Trazado_231949" data-name="Trazado 231949" d="M44.723,166.795l-2.141-2.148L43.79,163.5l.9,1.149,2.713-2.778,1.1,1.146-3.783,3.782" transform="translate(-38.201 -145.214)" fill="#12263f"/>
    </g>
  </g>
</svg>
