<svg id="Grupo_982076" data-name="Grupo 982076" xmlns="http://www.w3.org/2000/svg" xmlns:xlink="http://www.w3.org/1999/xlink" width="82.982" height="83.874" viewBox="0 0 82.982 83.874">
  <defs>
    <clipPath id="clip-path">
      <rect id="Rectángulo_52815" data-name="Rectángulo 52815" width="41.003" height="49.208" fill="#12263f"/>
    </clipPath>
  </defs>
  <ellipse id="Elipse_4870" data-name="Elipse 4870" cx="41.491" cy="41.937" rx="41.491" ry="41.937" transform="translate(0 0)" fill="#f4a338"/>
  <g id="Grupo_180439" data-name="Grupo 180439" transform="translate(20.989 17.333)">
    <g id="Grupo_173668" data-name="Grupo 173668" clip-path="url(#clip-path)">
      <path id="Trazado_214794" data-name="Trazado 214794" d="M0,59.805V37.457a2.744,2.744,0,0,1,3.023-1.964c2.731.062,5.464.018,8.2.018h.547a9.756,9.756,0,0,1,3.743-10.4,9.29,9.29,0,0,1,10.375-.741c4.368,2.394,5.891,6.247,4.989,11.122h2.289c-.624-2.059-.312-3.366,1.016-4.305a3.265,3.265,0,0,1,3.871.06,3.222,3.222,0,0,1,1.159,1.648,3.276,3.276,0,0,1-.279,2.562A2.745,2.745,0,0,1,41,38.528c-.035,6.868-.015,13.736-.016,20.6a2.437,2.437,0,0,1-2.62,2.618q-4.56,0-9.119,0H28.6c.4.6.742,1.119,1.09,1.637.361.538.616,1.277,1.122,1.553s1.262.082,1.908.094h.051a2.431,2.431,0,0,1,2.478,2.5c0,.393,0,.786,0,1.179,0,1.034-.2,1.234-1.21,1.234H6.937c-.12,0-.239,0-.359,0a.789.789,0,0,1-.834-.835c-.013-.546-.007-1.093,0-1.64a2.348,2.348,0,0,1,1.788-2.332,4.916,4.916,0,0,1,1.673-.09,1.427,1.427,0,0,0,1.579-.857c.463-.823,1.036-1.584,1.611-2.445h-.659q-4.56,0-9.119,0a3.271,3.271,0,0,1-.759-.075A2.6,2.6,0,0,1,0,59.805m1.7-1.335c-.2,1.121.04,1.661,1.316,1.658q17.6-.036,35.191-.015c.864,0,1.147-.276,1.147-1.123q0-10.351,0-20.7c0-.861-.276-1.139-1.13-1.14-2.459,0-4.918.01-7.376-.011a.8.8,0,0,0-.857.5,9.819,9.819,0,0,1-17.423-.13c-.117-.219-.214-.374-.522-.373-3.142.015-6.283.006-9.425.012a.864.864,0,0,0-.977.98c-.01.888,0,1.777,0,2.665,0,.419,0,.838,0,1.278,1.46,0,2.842,0,4.224,0a.82.82,0,0,1,.938.9c.013.234,0,.468,0,.742.714,0,1.361,0,2.007,0a11.848,11.848,0,0,1,1.738.042c2.389.378,4.767.823,7.156,1.2a3.51,3.51,0,0,1,3.136,2.327,9.5,9.5,0,0,1,.223.93c.352.04.693.06,1.028.119a1.773,1.773,0,0,0,1.644-.579c1.417-1.359,2.884-2.665,4.333-3.991a3.2,3.2,0,0,1,2.989-.8,3.091,3.091,0,0,1,2.429,2.311,3.165,3.165,0,0,1-.941,3.363q-3.606,3.345-7.242,6.656a5.822,5.822,0,0,1-4.107,1.545c-4.61-.017-9.22-.006-13.83-.006h-.6c0,.185,0,.287,0,.389-.009,1.072-.187,1.251-1.244,1.251H1.7M13.116,33.035a8.2,8.2,0,1,0,8.133-8.188,8.236,8.236,0,0,0-8.133,8.188M6.786,55.194h.541c4.577,0,9.154-.009,13.731.006a4.658,4.658,0,0,0,3.377-1.332c1.113-1.06,2.261-2.083,3.393-3.123,1.182-1.086,2.37-2.167,3.543-3.263a1.667,1.667,0,0,0,.462-1.916,1.481,1.481,0,0,0-1.373-.986,1.712,1.712,0,0,0-1.335.532c-1.516,1.4-3.044,2.8-4.56,4.2a2.536,2.536,0,0,1-1.993.754c-.51-.04-1.023-.059-1.531-.119a.648.648,0,0,0-.668.326A3.072,3.072,0,0,1,17.3,51.608c-1.886-.288-3.763-.632-5.642-.965a.851.851,0,0,1-.791-1.045.872.872,0,0,1,1.117-.617q2.691.484,5.383.964a1.634,1.634,0,0,0,1.942-1.31,1.594,1.594,0,0,0-1.339-1.862c-2.129-.388-4.271-.705-6.388-1.145a23.315,23.315,0,0,0-4.8-.27Zm5.436,9.812H28.767c-.714-1.073-1.385-2.093-2.076-3.1a.535.535,0,0,0-.391-.148q-5.809-.012-11.617,0a.491.491,0,0,0-.357.117c-.7,1.019-1.382,2.051-2.1,3.133M5.09,43.749H1.665V56.811H5.09ZM7.381,68.28H33.586c.1-1.381-.106-1.608-1.436-1.608H8.685a4.1,4.1,0,0,0-.512.008.825.825,0,0,0-.788.8c-.025.252,0,.509,0,.8M37.707,33.842A1.637,1.637,0,1,0,36.1,35.507a1.679,1.679,0,0,0,1.611-1.664" transform="translate(0 -20.747)" fill="#12263f"/>
      <path id="Trazado_214795" data-name="Trazado 214795" d="M344.218,0a1.189,1.189,0,0,1,.519,1.131c-.021,2.046-.013,4.092-.006,6.138,0,.4-.116.754-.5.847a1.151,1.151,0,0,1-.838-.138.975.975,0,0,1-.284-.71c-.021-2.114,0-4.228-.02-6.342A1.11,1.11,0,0,1,343.6,0Z" transform="translate(-307.84)" fill="#12263f"/>
      <path id="Trazado_214796" data-name="Trazado 214796" d="M296.321,0a1.176,1.176,0,0,1,.519,1.13c-.027,1.209-.007,2.419-.01,3.629,0,.638-.313.995-.843.979-.509-.014-.789-.357-.791-.98,0-1.21.017-2.42-.01-3.629A1.172,1.172,0,0,1,295.707,0Z" transform="translate(-264.862)" fill="#12263f"/>
      <path id="Trazado_214797" data-name="Trazado 214797" d="M112.777,0a1.168,1.168,0,0,1,.519,1.129c-.03.953,0,1.907-.01,2.861,0,.595-.327.942-.842.928-.491-.014-.787-.354-.79-.928-.005-.954.02-1.908-.01-2.861A1.163,1.163,0,0,1,112.162,0Z" transform="translate(-100.173)" fill="#12263f"/>
      <path id="Trazado_214798" data-name="Trazado 214798" d="M56.81,0a1.128,1.128,0,0,1,.517,1.127c-.032.44,0,.884-.01,1.326a.814.814,0,1,1-1.628,0,9.468,9.468,0,0,1,.02-1.629c.044-.292.317-.55.487-.824Z" transform="translate(-49.944)" fill="#12263f"/>
      <path id="Trazado_214799" data-name="Trazado 214799" d="M38.5,51.219a3.277,3.277,0,1,1-3.255-3.3,3.256,3.256,0,0,1,3.255,3.3m-1.641-.025a1.637,1.637,0,1,0-1.635,1.639,1.675,1.675,0,0,0,1.635-1.639" transform="translate(-28.66 -42.996)" fill="#12263f"/>
      <path id="Trazado_231950" data-name="Trazado 231950" d="M44.991,68.894,46.754,71l4.9-5.168,2.187,2.12-6.933,6.93L42.985,70.95l2.006-2.056" transform="translate(-27.14 -58.33)" fill="#12263f"/>
    </g>
  </g>
</svg>
