<svg xmlns="http://www.w3.org/2000/svg" width="673" height="98" viewBox="0 0 673 98">
  <g id="Grupo_986117" data-name="Grupo 986117" transform="translate(6572 6188)">
    <g id="Trazado_659594" data-name="Trazado 659594" transform="translate(-6572 -6186)" fill="none">
      <path d="M157.5,0C244.485,0,315,21.49,315,48S244.485,96,157.5,96,0,74.51,0,48,70.515,0,157.5,0Z" stroke="none"/>
      <path d="M 157.5 3 C 136.3654174804688 3 115.8680877685547 4.260833740234375 96.57742309570312 6.747459411621094 C 87.31883239746094 7.94091796875 78.39212036132812 9.417457580566406 70.04525756835938 11.13600158691406 C 61.79583740234375 12.83450317382812 54.04409790039062 14.78341674804688 47.0052490234375 16.92858123779297 C 40.00003051757812 19.06349945068359 33.65020751953125 21.40812683105469 28.13211059570312 23.89737701416016 C 22.62637329101562 26.38104248046875 17.91571044921875 29.02312469482422 14.13092041015625 31.75020599365234 C 10.40042114257812 34.43816757202148 7.5606689453125 37.21333312988281 5.69049072265625 39.99866485595703 C 3.90521240234375 42.65754318237305 3 45.34958267211914 3 48 C 3 50.65041732788086 3.90521240234375 53.34245681762695 5.69049072265625 56.00133514404297 C 7.5606689453125 58.78666687011719 10.40042114257812 61.56183242797852 14.13092041015625 64.24979400634766 C 17.91571044921875 66.97687530517578 22.62637329101562 69.61895751953125 28.13211059570312 72.10262298583984 C 33.65020751953125 74.59187316894531 40.00003051757812 76.93650054931641 47.0052490234375 79.07141876220703 C 54.04409790039062 81.21658325195312 61.79583740234375 83.16549682617188 70.04525756835938 84.86399841308594 C 78.39212036132812 86.58254241943359 87.31883239746094 88.05908203125 96.57742309570312 89.25254058837891 C 115.8680877685547 91.73916625976562 136.3654174804688 93 157.5 93 C 178.6345825195312 93 199.1319274902344 91.73916625976562 218.4225769042969 89.25254058837891 C 227.6811676025391 88.05908203125 236.6078796386719 86.58254241943359 244.9547424316406 84.86399841308594 C 253.2041625976562 83.16549682617188 260.9559326171875 81.21658325195312 267.9947509765625 79.07141876220703 C 274.9999694824219 76.93650054931641 281.3497924804688 74.59187316894531 286.8678588867188 72.10262298583984 C 292.3736267089844 69.61895751953125 297.0842895507812 66.97687530517578 300.8690795898438 64.24979400634766 C 304.5995788574219 61.56183242797852 307.4393310546875 58.78666687011719 309.3095092773438 56.00133514404297 C 311.0947875976562 53.34245681762695 312 50.65041732788086 312 48 C 312 45.34958267211914 311.0947875976562 42.65754318237305 309.3095092773438 39.99866485595703 C 307.4393310546875 37.21333312988281 304.5995788574219 34.43816757202148 300.8690795898438 31.75020599365234 C 297.0842895507812 29.02312469482422 292.3736267089844 26.38104248046875 286.8678588867188 23.89737701416016 C 281.3497924804688 21.40812683105469 274.9999694824219 19.06349945068359 267.9947509765625 16.92858123779297 C 260.9559326171875 14.78341674804688 253.2041625976562 12.83450317382812 244.9547424316406 11.13600158691406 C 236.6078796386719 9.417457580566406 227.6811676025391 7.94091796875 218.4225769042969 6.747459411621094 C 199.1319274902344 4.260833740234375 178.6345825195312 3 157.5 3 M 157.5 0 C 244.4848327636719 0 315 21.49033355712891 315 48 C 315 74.50966644287109 244.4848327636719 96 157.5 96 C 70.51516723632812 96 0 74.50966644287109 0 48 C 0 21.49033355712891 70.51516723632812 0 157.5 0 Z" stroke="none" fill="#12263f"/>
    </g>
    <g id="Trazado_659595" data-name="Trazado 659595" transform="translate(-6214 -6188)" fill="none">
      <path d="M157.5,0C244.485,0,315,21.49,315,48S244.485,96,157.5,96,0,74.51,0,48,70.515,0,157.5,0Z" stroke="none"/>
      <path d="M 157.5 3 C 136.3654174804688 3 115.8680877685547 4.260833740234375 96.57742309570312 6.747459411621094 C 87.31883239746094 7.94091796875 78.39212036132812 9.417457580566406 70.04525756835938 11.13600158691406 C 61.79583740234375 12.83450317382812 54.04409790039062 14.78341674804688 47.0052490234375 16.92858123779297 C 40.00003051757812 19.06349945068359 33.65020751953125 21.40812683105469 28.13211059570312 23.89737701416016 C 22.62637329101562 26.38104248046875 17.91571044921875 29.02312469482422 14.13092041015625 31.75020599365234 C 10.40042114257812 34.43816757202148 7.5606689453125 37.21333312988281 5.69049072265625 39.99866485595703 C 3.90521240234375 42.65754318237305 3 45.34958267211914 3 48 C 3 50.65041732788086 3.90521240234375 53.34245681762695 5.69049072265625 56.00133514404297 C 7.5606689453125 58.78666687011719 10.40042114257812 61.56183242797852 14.13092041015625 64.24979400634766 C 17.91571044921875 66.97687530517578 22.62637329101562 69.61895751953125 28.13211059570312 72.10262298583984 C 33.65020751953125 74.59187316894531 40.00003051757812 76.93650054931641 47.0052490234375 79.07141876220703 C 54.04409790039062 81.21658325195312 61.79583740234375 83.16549682617188 70.04525756835938 84.86399841308594 C 78.39212036132812 86.58254241943359 87.31883239746094 88.05908203125 96.57742309570312 89.25254058837891 C 115.8680877685547 91.73916625976562 136.3654174804688 93 157.5 93 C 178.6345825195312 93 199.1319274902344 91.73916625976562 218.4225769042969 89.25254058837891 C 227.6811676025391 88.05908203125 236.6078796386719 86.58254241943359 244.9547424316406 84.86399841308594 C 253.2041625976562 83.16549682617188 260.9559326171875 81.21658325195312 267.9947509765625 79.07141876220703 C 274.9999694824219 76.93650054931641 281.3497924804688 74.59187316894531 286.8678588867188 72.10262298583984 C 292.3736267089844 69.61895751953125 297.0842895507812 66.97687530517578 300.8690795898438 64.24979400634766 C 304.5995788574219 61.56183242797852 307.4393310546875 58.78666687011719 309.3095092773438 56.00133514404297 C 311.0947875976562 53.34245681762695 312 50.65041732788086 312 48 C 312 45.34958267211914 311.0947875976562 42.65754318237305 309.3095092773438 39.99866485595703 C 307.4393310546875 37.21333312988281 304.5995788574219 34.43816757202148 300.8690795898438 31.75020599365234 C 297.0842895507812 29.02312469482422 292.3736267089844 26.38104248046875 286.8678588867188 23.89737701416016 C 281.3497924804688 21.40812683105469 274.9999694824219 19.06349945068359 267.9947509765625 16.92858123779297 C 260.9559326171875 14.78341674804688 253.2041625976562 12.83450317382812 244.9547424316406 11.13600158691406 C 236.6078796386719 9.417457580566406 227.6811676025391 7.94091796875 218.4225769042969 6.747459411621094 C 199.1319274902344 4.260833740234375 178.6345825195312 3 157.5 3 M 157.5 0 C 244.4848327636719 0 315 21.49033355712891 315 48 C 315 74.50966644287109 244.4848327636719 96 157.5 96 C 70.51516723632812 96 0 74.50966644287109 0 48 C 0 21.49033355712891 70.51516723632812 0 157.5 0 Z" stroke="none" fill="#12263f"/>
    </g>
    <path id="Trazado_659596" data-name="Trazado 659596" d="M10.934,15.321a3.9,3.9,0,0,1-1.815,1.393,7.331,7.331,0,0,1-2.711.461,5.258,5.258,0,0,1-2.777-.734,4.889,4.889,0,0,1-1.876-2.087,7.21,7.21,0,0,1-.681-3.138V10.1A6.73,6.73,0,0,1,2.421,5.618,4.7,4.7,0,0,1,6.214,4.027,4.856,4.856,0,0,1,9.439,5.051a4.461,4.461,0,0,1,1.494,2.9H9.246A2.79,2.79,0,0,0,6.223,5.407,2.987,2.987,0,0,0,3.652,6.6a5.82,5.82,0,0,0-.883,3.453V11.1a5.454,5.454,0,0,0,.984,3.426A3.191,3.191,0,0,0,6.416,15.8a5.882,5.882,0,0,0,1.661-.21,2.569,2.569,0,0,0,1.178-.71V12.008H6.293v-1.38h4.641Zm6.5,1.854a4.155,4.155,0,0,1-3.146-1.27,4.714,4.714,0,0,1-1.213-3.4v-.3a5.707,5.707,0,0,1,.541-2.527,4.217,4.217,0,0,1,1.512-1.74,3.8,3.8,0,0,1,2.1-.628,3.562,3.562,0,0,1,2.883,1.222,5.289,5.289,0,0,1,1.028,3.5v.677H14.7a3.38,3.38,0,0,0,.822,2.272,2.583,2.583,0,0,0,2,.866,2.832,2.832,0,0,0,1.459-.352,3.666,3.666,0,0,0,1.046-.932l.993.773A3.993,3.993,0,0,1,17.438,17.176Zm-.2-8.525a2.169,2.169,0,0,0-1.652.716,3.482,3.482,0,0,0-.826,2.008h4.764v-.123a3.1,3.1,0,0,0-.668-1.92A2.042,2.042,0,0,0,17.235,8.65Zm7.33-1.16.053,1.2a3.465,3.465,0,0,1,2.848-1.371q3.015,0,3.041,3.4V17H28.881V10.707a2.189,2.189,0,0,0-.47-1.521,1.884,1.884,0,0,0-1.437-.492,2.347,2.347,0,0,0-1.389.422,2.865,2.865,0,0,0-.932,1.107V17H23.027V7.49Zm12.34,9.686a4.155,4.155,0,0,1-3.146-1.27,4.714,4.714,0,0,1-1.213-3.4v-.3a5.707,5.707,0,0,1,.541-2.527A4.217,4.217,0,0,1,34.6,7.943a3.8,3.8,0,0,1,2.1-.628,3.562,3.562,0,0,1,2.883,1.222,5.289,5.289,0,0,1,1.028,3.5v.677H34.172a3.38,3.38,0,0,0,.822,2.272,2.583,2.583,0,0,0,2,.866,2.832,2.832,0,0,0,1.459-.352,3.666,3.666,0,0,0,1.046-.932l.993.773A3.993,3.993,0,0,1,36.905,17.176ZM36.7,8.65a2.169,2.169,0,0,0-1.652.716,3.482,3.482,0,0,0-.826,2.008h4.764v-.123a3.1,3.1,0,0,0-.668-1.92A2.042,2.042,0,0,0,36.7,8.65Zm10.389.3a4.873,4.873,0,0,0-.8-.062,2.143,2.143,0,0,0-2.171,1.362V17H42.5V7.49h1.582l.026,1.1a2.532,2.532,0,0,1,2.268-1.274,1.661,1.661,0,0,1,.721.123ZM54.105,17a3.416,3.416,0,0,1-.229-1,3.628,3.628,0,0,1-2.707,1.178,3.357,3.357,0,0,1-2.307-.8,2.573,2.573,0,0,1-.9-2.017,2.688,2.688,0,0,1,1.129-2.307,5.325,5.325,0,0,1,3.177-.822h1.582v-.747a1.826,1.826,0,0,0-.51-1.358,2.049,2.049,0,0,0-1.5-.505,2.371,2.371,0,0,0-1.459.439,1.3,1.3,0,0,0-.589,1.063H48.155a2.244,2.244,0,0,1,.505-1.375A3.449,3.449,0,0,1,50.032,7.7a4.613,4.613,0,0,1,1.9-.387,3.759,3.759,0,0,1,2.575.822,2.964,2.964,0,0,1,.967,2.263v4.377a5.351,5.351,0,0,0,.334,2.083V17Zm-2.7-1.239a2.858,2.858,0,0,0,1.45-.4,2.392,2.392,0,0,0,.993-1.028V12.386H52.576q-2.988,0-2.988,1.749a1.48,1.48,0,0,0,.51,1.2A1.959,1.959,0,0,0,51.407,15.761ZM62.622,8.949a4.873,4.873,0,0,0-.8-.062,2.143,2.143,0,0,0-2.171,1.362V17H58.025V7.49h1.582l.026,1.1A2.532,2.532,0,0,1,61.9,7.314a1.661,1.661,0,0,1,.721.123ZM69.372,17V8.747h-1.5V7.49h1.5V6.515a3.238,3.238,0,0,1,.817-2.364A3.088,3.088,0,0,1,72.5,3.315a4.293,4.293,0,0,1,1.116.148l-.088,1.311A4.67,4.67,0,0,0,72.65,4.7a1.586,1.586,0,0,0-1.222.463A1.877,1.877,0,0,0,71,6.485V7.49h2.03V8.747H71V17Zm11.32,0a3.416,3.416,0,0,1-.229-1,3.628,3.628,0,0,1-2.707,1.178,3.357,3.357,0,0,1-2.307-.8,2.573,2.573,0,0,1-.9-2.017,2.688,2.688,0,0,1,1.129-2.307,5.325,5.325,0,0,1,3.177-.822h1.582v-.747a1.826,1.826,0,0,0-.51-1.358,2.049,2.049,0,0,0-1.5-.505,2.371,2.371,0,0,0-1.459.439,1.3,1.3,0,0,0-.589,1.063H74.742a2.244,2.244,0,0,1,.505-1.375A3.449,3.449,0,0,1,76.619,7.7a4.613,4.613,0,0,1,1.9-.387,3.759,3.759,0,0,1,2.575.822,2.964,2.964,0,0,1,.967,2.263v4.377a5.351,5.351,0,0,0,.334,2.083V17Zm-2.7-1.239a2.858,2.858,0,0,0,1.45-.4,2.392,2.392,0,0,0,.993-1.028V12.386H79.163q-2.988,0-2.988,1.749a1.48,1.48,0,0,0,.51,1.2A1.959,1.959,0,0,0,77.994,15.761Zm10.433.088a2.342,2.342,0,0,0,1.521-.527A1.855,1.855,0,0,0,90.668,14h1.538a2.949,2.949,0,0,1-.562,1.556,3.7,3.7,0,0,1-1.384,1.178,3.994,3.994,0,0,1-1.833.439,3.918,3.918,0,0,1-3.089-1.3,5.163,5.163,0,0,1-1.147-3.546v-.272a5.725,5.725,0,0,1,.51-2.47,3.883,3.883,0,0,1,1.463-1.679,4.157,4.157,0,0,1,2.254-.6,3.814,3.814,0,0,1,2.659.958,3.424,3.424,0,0,1,1.129,2.487H90.668a2.241,2.241,0,0,0-.7-1.516,2.174,2.174,0,0,0-1.551-.593,2.276,2.276,0,0,0-1.92.892,4.19,4.19,0,0,0-.681,2.58v.308a4.106,4.106,0,0,0,.677,2.531A2.287,2.287,0,0,0,88.427,15.849ZM96.24,5.188v2.3h1.775V8.747H96.24v5.9a1.32,1.32,0,0,0,.237.858,1,1,0,0,0,.809.286,3.937,3.937,0,0,0,.773-.105V17a4.742,4.742,0,0,1-1.248.175,2.025,2.025,0,0,1-1.644-.659,2.832,2.832,0,0,1-.554-1.872v-5.9H92.883V7.49h1.731v-2.3Zm9.545,10.872A3.454,3.454,0,0,1,103,17.176a2.956,2.956,0,0,1-2.316-.883,3.823,3.823,0,0,1-.8-2.615V7.49H101.5v6.144q0,2.162,1.758,2.162a2.434,2.434,0,0,0,2.479-1.389V7.49h1.626V17H105.82Zm8.648-7.11a4.873,4.873,0,0,0-.8-.062,2.143,2.143,0,0,0-2.171,1.362V17h-1.626V7.49h1.582l.026,1.1a2.532,2.532,0,0,1,2.268-1.274,1.661,1.661,0,0,1,.721.123ZM121.447,17a3.416,3.416,0,0,1-.229-1,3.628,3.628,0,0,1-2.707,1.178,3.357,3.357,0,0,1-2.307-.8,2.573,2.573,0,0,1-.9-2.017,2.688,2.688,0,0,1,1.129-2.307,5.325,5.325,0,0,1,3.177-.822h1.582v-.747a1.826,1.826,0,0,0-.51-1.358,2.049,2.049,0,0,0-1.5-.505,2.371,2.371,0,0,0-1.459.439,1.3,1.3,0,0,0-.589,1.063H115.5A2.244,2.244,0,0,1,116,8.751a3.449,3.449,0,0,1,1.371-1.05,4.613,4.613,0,0,1,1.9-.387,3.759,3.759,0,0,1,2.575.822,2.964,2.964,0,0,1,.967,2.263v4.377a5.351,5.351,0,0,0,.334,2.083V17Zm-2.7-1.239a2.858,2.858,0,0,0,1.45-.4,2.392,2.392,0,0,0,.993-1.028V12.386h-1.274q-2.988,0-2.988,1.749a1.48,1.48,0,0,0,.51,1.2A1.959,1.959,0,0,0,118.749,15.761Z" transform="translate(-6467 -6150)" fill="#12263f"/>
    <path id="Trazado_659597" data-name="Trazado 659597" d="M8.719,11.085H3.173V15.62H9.615V17H1.485V4.2H9.527v1.38H3.173V9.705H8.719ZM13,7.49l.053,1.2A3.465,3.465,0,0,1,15.9,7.314q3.015,0,3.041,3.4V17H17.314V10.707a2.189,2.189,0,0,0-.47-1.521,1.884,1.884,0,0,0-1.437-.492,2.347,2.347,0,0,0-1.389.422,2.865,2.865,0,0,0-.932,1.107V17H11.461V7.49Zm11.531,7.3,2.355-7.3h1.661L25.137,17H23.9L20.452,7.49h1.661ZM31.878,17H30.252V7.49h1.626ZM30.12,4.968a.971.971,0,0,1,.242-.668.907.907,0,0,1,.716-.272A.922.922,0,0,1,31.8,4.3a.96.96,0,0,1,.246.668.929.929,0,0,1-.246.659.938.938,0,0,1-.721.264.924.924,0,0,1-.716-.264A.938.938,0,0,1,30.12,4.968ZM40.351,17a3.416,3.416,0,0,1-.229-1,3.628,3.628,0,0,1-2.707,1.178,3.357,3.357,0,0,1-2.307-.8,2.573,2.573,0,0,1-.9-2.017,2.688,2.688,0,0,1,1.129-2.307,5.325,5.325,0,0,1,3.177-.822H40.1v-.747a1.826,1.826,0,0,0-.51-1.358,2.049,2.049,0,0,0-1.5-.505,2.371,2.371,0,0,0-1.459.439,1.3,1.3,0,0,0-.589,1.063H34.4a2.244,2.244,0,0,1,.505-1.375A3.449,3.449,0,0,1,36.277,7.7a4.613,4.613,0,0,1,1.9-.387,3.759,3.759,0,0,1,2.575.822,2.964,2.964,0,0,1,.967,2.263v4.377a5.351,5.351,0,0,0,.334,2.083V17Zm-2.7-1.239a2.858,2.858,0,0,0,1.45-.4,2.392,2.392,0,0,0,.993-1.028V12.386H38.821q-2.988,0-2.988,1.749a1.48,1.48,0,0,0,.51,1.2A1.959,1.959,0,0,0,37.652,15.761ZM48.867,8.949a4.873,4.873,0,0,0-.8-.062A2.143,2.143,0,0,0,45.9,10.25V17H44.271V7.49h1.582l.026,1.1a2.532,2.532,0,0,1,2.268-1.274,1.661,1.661,0,0,1,.721.123ZM55.617,17V8.747h-1.5V7.49h1.5V6.515a3.238,3.238,0,0,1,.817-2.364,3.088,3.088,0,0,1,2.312-.835,4.293,4.293,0,0,1,1.116.148l-.088,1.311A4.67,4.67,0,0,0,58.9,4.7a1.586,1.586,0,0,0-1.222.463,1.877,1.877,0,0,0-.431,1.327V7.49h2.03V8.747h-2.03V17Zm11.32,0a3.416,3.416,0,0,1-.229-1A3.628,3.628,0,0,1,64,17.176a3.357,3.357,0,0,1-2.307-.8,2.573,2.573,0,0,1-.9-2.017,2.688,2.688,0,0,1,1.129-2.307,5.325,5.325,0,0,1,3.177-.822h1.582v-.747a1.826,1.826,0,0,0-.51-1.358,2.049,2.049,0,0,0-1.5-.505,2.371,2.371,0,0,0-1.459.439,1.3,1.3,0,0,0-.589,1.063H60.987a2.244,2.244,0,0,1,.505-1.375A3.449,3.449,0,0,1,62.864,7.7a4.613,4.613,0,0,1,1.9-.387,3.759,3.759,0,0,1,2.575.822,2.964,2.964,0,0,1,.967,2.263v4.377a5.351,5.351,0,0,0,.334,2.083V17Zm-2.7-1.239a2.858,2.858,0,0,0,1.45-.4,2.392,2.392,0,0,0,.993-1.028V12.386H65.408q-2.988,0-2.988,1.749a1.48,1.48,0,0,0,.51,1.2A1.959,1.959,0,0,0,64.239,15.761Zm10.433.088a2.342,2.342,0,0,0,1.521-.527A1.855,1.855,0,0,0,76.913,14h1.538a2.949,2.949,0,0,1-.562,1.556A3.7,3.7,0,0,1,76.5,16.736a3.994,3.994,0,0,1-1.833.439,3.918,3.918,0,0,1-3.089-1.3,5.163,5.163,0,0,1-1.147-3.546v-.272a5.725,5.725,0,0,1,.51-2.47,3.883,3.883,0,0,1,1.463-1.679,4.157,4.157,0,0,1,2.254-.6,3.814,3.814,0,0,1,2.659.958,3.424,3.424,0,0,1,1.129,2.487H76.913a2.241,2.241,0,0,0-.7-1.516,2.174,2.174,0,0,0-1.551-.593,2.276,2.276,0,0,0-1.92.892,4.19,4.19,0,0,0-.681,2.58v.308a4.106,4.106,0,0,0,.677,2.531A2.287,2.287,0,0,0,74.672,15.849ZM82.485,5.188v2.3h1.775V8.747H82.485v5.9a1.32,1.32,0,0,0,.237.858,1,1,0,0,0,.809.286,3.937,3.937,0,0,0,.773-.105V17a4.742,4.742,0,0,1-1.248.175,2.025,2.025,0,0,1-1.644-.659,2.832,2.832,0,0,1-.554-1.872v-5.9H79.128V7.49h1.731v-2.3ZM92.03,16.06a3.454,3.454,0,0,1-2.786,1.116,2.956,2.956,0,0,1-2.316-.883,3.823,3.823,0,0,1-.8-2.615V7.49H87.75v6.144q0,2.162,1.758,2.162a2.434,2.434,0,0,0,2.479-1.389V7.49h1.626V17H92.065Zm8.648-7.11a4.873,4.873,0,0,0-.8-.062,2.143,2.143,0,0,0-2.171,1.362V17H96.082V7.49h1.582l.026,1.1a2.532,2.532,0,0,1,2.268-1.274,1.661,1.661,0,0,1,.721.123ZM107.692,17a3.416,3.416,0,0,1-.229-1,3.628,3.628,0,0,1-2.707,1.178,3.357,3.357,0,0,1-2.307-.8,2.573,2.573,0,0,1-.9-2.017,2.688,2.688,0,0,1,1.129-2.307,5.325,5.325,0,0,1,3.177-.822h1.582v-.747a1.826,1.826,0,0,0-.51-1.358,2.049,2.049,0,0,0-1.5-.505,2.371,2.371,0,0,0-1.459.439,1.3,1.3,0,0,0-.589,1.063h-1.635a2.244,2.244,0,0,1,.505-1.375,3.449,3.449,0,0,1,1.371-1.05,4.613,4.613,0,0,1,1.9-.387,3.759,3.759,0,0,1,2.575.822,2.964,2.964,0,0,1,.967,2.263v4.377a5.351,5.351,0,0,0,.334,2.083V17Zm-2.7-1.239a2.858,2.858,0,0,0,1.45-.4,2.392,2.392,0,0,0,.993-1.028V12.386h-1.274q-2.988,0-2.988,1.749a1.48,1.48,0,0,0,.51,1.2A1.959,1.959,0,0,0,104.994,15.761Z" transform="translate(-6109 -6150)" fill="#12263f"/>
  </g>
</svg>
