<svg xmlns="http://www.w3.org/2000/svg" width="630.613" height="297" viewBox="0 0 630.613 297">
  <g id="Grupo_986126" data-name="Grupo 986126" transform="translate(3292.187 2234)">
    <g id="Grupo_141433" data-name="Grupo 141433" transform="translate(-3287 -2183.65)">
      <g id="Elipse_4826" data-name="Elipse 4826" transform="translate(3 -0.35)" fill="none" stroke="#2e8b85" stroke-width="3">
        <ellipse cx="29.5" cy="30" rx="29.5" ry="30" stroke="none"/>
        <ellipse cx="29.5" cy="30" rx="28" ry="28.5" fill="none"/>
      </g>
      <line id="Línea_235" data-name="Línea 235" y1="68" transform="translate(32 59.65)" fill="none" stroke="#2e8b85" stroke-width="3"/>
      <line id="Línea_236" data-name="Línea 236" y1="38" x2="32" transform="translate(0 127.65)" fill="none" stroke="#2e8b85" stroke-width="3"/>
      <line id="Línea_237" data-name="Línea 237" x1="33" y1="38" transform="translate(32 127.65)" fill="none" stroke="#2e8b85" stroke-width="3"/>
      <line id="Línea_238" data-name="Línea 238" x2="60.41" transform="translate(2.517 89.611)" fill="none" stroke="#2e8b85" stroke-width="3"/>
    </g>
    <g id="Trazado_659643" data-name="Trazado 659643" transform="translate(-3205 -2234)" fill="none">
      <path d="M0,0H437V297H0Z" stroke="none"/>
      <path d="M 2 2 L 2 295 L 435 295 L 435 2 L 2 2 M 0 0 L 437 0 L 437 297 L 0 297 L 0 0 Z" stroke="none" fill="#12263f"/>
    </g>
    <g id="Grupo_141432" data-name="Grupo 141432" transform="translate(-2741.873 -2180.746)">
      <g id="Elipse_4826-2" data-name="Elipse 4826" transform="translate(2.873 -0.254)" fill="none" stroke="#4adbd1" stroke-width="3">
        <ellipse cx="29.5" cy="30" rx="29.5" ry="30" stroke="none"/>
        <ellipse cx="29.5" cy="30" rx="28" ry="28.5" fill="none"/>
      </g>
      <line id="Línea_235-2" data-name="Línea 235" y1="68" transform="translate(31.873 59.746)" fill="none" stroke="#4adbd1" stroke-width="3"/>
      <line id="Línea_236-2" data-name="Línea 236" y1="38" x2="32" transform="translate(-0.127 127.746)" fill="none" stroke="#4adbd1" stroke-width="3"/>
      <line id="Línea_237-2" data-name="Línea 237" x1="33" y1="38" transform="translate(31.873 127.746)" fill="none" stroke="#4adbd1" stroke-width="3"/>
      <line id="Línea_238-2" data-name="Línea 238" x2="60.41" transform="translate(2.496 89.301)" fill="none" stroke="#4adbd1" stroke-width="3"/>
    </g>
    <g id="Trazado_659644" data-name="Trazado 659644" transform="translate(-3168 -2221)" fill="none">
      <path d="M113.5,0C176.184,0,227,18.356,227,41S176.184,82,113.5,82,0,63.644,0,41,50.816,0,113.5,0Z" stroke="none"/>
      <path d="M 113.5 3 C 98.32878112792969 3 83.6171875 4.072441101074219 69.77378845214844 6.18756103515625 C 56.45077514648438 8.223159790039062 44.50309753417969 11.13096618652344 34.26261901855469 14.83015441894531 C 29.26190185546875 16.6365966796875 24.73193359375 18.6189079284668 20.79859924316406 20.72206115722656 C 16.8895263671875 22.81221771240234 13.54827880859375 25.03284454345703 10.86769104003906 27.32218933105469 C 5.647064208984375 31.78087615966797 3 36.38275146484375 3 41 C 3 45.61724853515625 5.647064208984375 50.21912384033203 10.86769104003906 54.67781066894531 C 13.54827880859375 56.96715545654297 16.8895263671875 59.18778228759766 20.79859924316406 61.27793884277344 C 24.73193359375 63.38109588623047 29.26190185546875 65.3634033203125 34.26261901855469 67.16984558105469 C 44.50309753417969 70.86903381347656 56.45077514648438 73.77684020996094 69.77378845214844 75.81243896484375 C 83.6171875 77.92756652832031 98.32878112792969 79 113.5 79 C 128.6712188720703 79 143.3828125 77.92756652832031 157.2262268066406 75.81243896484375 C 170.5492248535156 73.77684020996094 182.4969024658203 70.86903381347656 192.7373657226562 67.16984558105469 C 197.7380981445312 65.3634033203125 202.26806640625 63.38109588623047 206.2014007568359 61.27793884277344 C 210.1104736328125 59.18778228759766 213.4517211914062 56.96715545654297 216.1323089599609 54.67781066894531 C 221.3529357910156 50.21912384033203 224 45.61724853515625 224 41 C 224 36.38275146484375 221.3529357910156 31.78087615966797 216.1323089599609 27.32218933105469 C 213.4517211914062 25.03284454345703 210.1104736328125 22.81221771240234 206.2014007568359 20.72206115722656 C 202.26806640625 18.6189079284668 197.7380981445312 16.6365966796875 192.7373657226562 14.83015441894531 C 182.4969024658203 11.13096618652344 170.5492248535156 8.223159790039062 157.2262268066406 6.18756103515625 C 143.3828125 4.072441101074219 128.6712188720703 3 113.5 3 M 113.5 0 C 176.1843109130859 0 227 18.3563117980957 227 41 C 227 63.6436882019043 176.1843109130859 82 113.5 82 C 50.81568908691406 82 0 63.6436882019043 0 41 C 0 18.3563117980957 50.81568908691406 0 113.5 0 Z" stroke="none" fill="#12263f"/>
    </g>
    <g id="Trazado_659645" data-name="Trazado 659645" transform="translate(-3168 -2123)" fill="none">
      <path d="M113.5,0C176.184,0,227,18.8,227,42S176.184,84,113.5,84,0,65.2,0,42,50.816,0,113.5,0Z" stroke="none"/>
      <path d="M 113.5 3 C 98.33244323730469 3 83.62443542480469 4.098342895507812 69.78459167480469 6.26446533203125 C 56.46556091308594 8.349128723144531 44.52162170410156 11.32687377929688 34.28453063964844 15.11505889892578 C 29.28559875488281 16.96487426757812 24.75721740722656 18.99484252929688 20.82518005371094 21.14856338500977 C 16.91671752929688 23.28937530517578 13.57562255859375 25.56409454345703 10.89474487304688 27.90956115722656 C 5.65618896484375 32.4926872253418 3 37.23340606689453 3 42 C 3 46.76659393310547 5.65618896484375 51.5073127746582 10.89474487304688 56.09043884277344 C 13.57562255859375 58.43590545654297 16.91671752929688 60.71062469482422 20.82518005371094 62.85143661499023 C 24.75721740722656 65.00515747070312 29.28559875488281 67.03512573242188 34.28453063964844 68.88493347167969 C 44.52162170410156 72.67312622070312 56.46556091308594 75.65087890625 69.78459167480469 77.73553466796875 C 83.62443542480469 79.90165710449219 98.33244323730469 81 113.5 81 C 128.6675720214844 81 143.3755645751953 79.90165710449219 157.2154083251953 77.73553466796875 C 170.5344390869141 75.65087890625 182.4783782958984 72.67312622070312 192.7154693603516 68.88493347167969 C 197.7144012451172 67.03512573242188 202.2427825927734 65.00515747070312 206.1748046875 62.85143661499023 C 210.0832824707031 60.71062469482422 213.4243774414062 58.43590545654297 216.1052551269531 56.09043884277344 C 221.3438110351562 51.5073127746582 224 46.76659393310547 224 42 C 224 37.23340606689453 221.3438110351562 32.4926872253418 216.1052551269531 27.90956115722656 C 213.4243774414062 25.56409454345703 210.0832824707031 23.28937530517578 206.1748046875 21.14856338500977 C 202.2427825927734 18.99484252929688 197.7144012451172 16.96487426757812 192.7154693603516 15.11505889892578 C 182.4783782958984 11.32687377929688 170.5344390869141 8.349128723144531 157.2154083251953 6.26446533203125 C 143.3755645751953 4.098342895507812 128.6675720214844 3 113.5 3 M 113.5 0 C 176.1843109130859 0 227 18.80403137207031 227 42 C 227 65.19596862792969 176.1843109130859 84 113.5 84 C 50.81568908691406 84 0 65.19596862792969 0 42 C 0 18.80403137207031 50.81568908691406 0 113.5 0 Z" stroke="none" fill="#12263f"/>
    </g>
    <g id="Trazado_659646" data-name="Trazado 659646" transform="translate(-3003 -2029)" fill="none">
      <path d="M112.5,0C174.632,0,225,18.58,225,41.5S174.632,83,112.5,83,0,64.42,0,41.5,50.368,0,112.5,0Z" stroke="none"/>
      <path d="M 112.5 3 C 97.46697235107422 3 82.88946533203125 4.085189819335938 69.17240905761719 6.22540283203125 C 55.97196960449219 8.2850341796875 44.13447570800781 11.22702789306641 33.98875427246094 14.96968841552734 C 29.03485107421875 16.79712677001953 24.54737854003906 18.80246734619141 20.65093994140625 20.93000030517578 C 16.77853393554688 23.04446792602539 13.46844482421875 25.29100036621094 10.81265258789062 27.60725021362305 C 5.628555297851562 32.12856292724609 3 36.80278015136719 3 41.5 C 3 46.19721984863281 5.628555297851562 50.87143707275391 10.81265258789062 55.39274978637695 C 13.46844482421875 57.70899963378906 16.77853393554688 59.95553207397461 20.65093994140625 62.06999969482422 C 24.54737854003906 64.19753265380859 29.03485107421875 66.20287322998047 33.98875427246094 68.03031158447266 C 44.13447570800781 71.77296447753906 55.97196960449219 74.7149658203125 69.17240905761719 76.77459716796875 C 82.88946533203125 78.91481018066406 97.46697235107422 80 112.5 80 C 127.5330276489258 80 142.1105346679688 78.91481018066406 155.8275909423828 76.77459716796875 C 169.0280303955078 74.7149658203125 180.8655395507812 71.77296447753906 191.0112457275391 68.03031158447266 C 195.9651489257812 66.20287322998047 200.4526214599609 64.19753265380859 204.3490600585938 62.06999969482422 C 208.2214660644531 59.95553207397461 211.5315551757812 57.70899963378906 214.1873474121094 55.39274978637695 C 219.3714447021484 50.87143707275391 222 46.19721984863281 222 41.5 C 222 36.80278015136719 219.3714447021484 32.12856292724609 214.1873474121094 27.60725021362305 C 211.5315551757812 25.29100036621094 208.2214660644531 23.04446792602539 204.3490600585938 20.93000030517578 C 200.4526214599609 18.80246734619141 195.9651489257812 16.79712677001953 191.0112457275391 14.96968841552734 C 180.8655395507812 11.22702789306641 169.0280303955078 8.2850341796875 155.8275909423828 6.22540283203125 C 142.1105346679688 4.085189819335938 127.5330276489258 3 112.5 3 M 112.5 0 C 174.6320343017578 0 225 18.58018493652344 225 41.5 C 225 64.41981506347656 174.6320343017578 83 112.5 83 C 50.36796569824219 83 0 64.41981506347656 0 41.5 C 0 18.58018493652344 50.36796569824219 0 112.5 0 Z" stroke="none" fill="#12263f"/>
    </g>
    <path id="Trazado_659647" data-name="Trazado 659647" d="M10.934,15.321a3.9,3.9,0,0,1-1.815,1.393,7.331,7.331,0,0,1-2.711.461,5.258,5.258,0,0,1-2.777-.734,4.889,4.889,0,0,1-1.876-2.087,7.21,7.21,0,0,1-.681-3.138V10.1A6.73,6.73,0,0,1,2.421,5.618,4.7,4.7,0,0,1,6.214,4.027,4.856,4.856,0,0,1,9.439,5.051a4.461,4.461,0,0,1,1.494,2.9H9.246A2.79,2.79,0,0,0,6.223,5.407,2.987,2.987,0,0,0,3.652,6.6a5.82,5.82,0,0,0-.883,3.453V11.1a5.454,5.454,0,0,0,.984,3.426A3.191,3.191,0,0,0,6.416,15.8a5.882,5.882,0,0,0,1.661-.21,2.569,2.569,0,0,0,1.178-.71V12.008H6.293v-1.38h4.641Zm6.5,1.854a4.155,4.155,0,0,1-3.146-1.27,4.714,4.714,0,0,1-1.213-3.4v-.3a5.707,5.707,0,0,1,.541-2.527,4.217,4.217,0,0,1,1.512-1.74,3.8,3.8,0,0,1,2.1-.628,3.562,3.562,0,0,1,2.883,1.222,5.289,5.289,0,0,1,1.028,3.5v.677H14.7a3.38,3.38,0,0,0,.822,2.272,2.583,2.583,0,0,0,2,.866,2.832,2.832,0,0,0,1.459-.352,3.666,3.666,0,0,0,1.046-.932l.993.773A3.993,3.993,0,0,1,17.438,17.176Zm-.2-8.525a2.169,2.169,0,0,0-1.652.716,3.482,3.482,0,0,0-.826,2.008h4.764v-.123a3.1,3.1,0,0,0-.668-1.92A2.042,2.042,0,0,0,17.235,8.65Zm7.33-1.16.053,1.2a3.465,3.465,0,0,1,2.848-1.371q3.015,0,3.041,3.4V17H28.881V10.707a2.189,2.189,0,0,0-.47-1.521,1.884,1.884,0,0,0-1.437-.492,2.347,2.347,0,0,0-1.389.422,2.865,2.865,0,0,0-.932,1.107V17H23.027V7.49Zm12.34,9.686a4.155,4.155,0,0,1-3.146-1.27,4.714,4.714,0,0,1-1.213-3.4v-.3a5.707,5.707,0,0,1,.541-2.527A4.217,4.217,0,0,1,34.6,7.943a3.8,3.8,0,0,1,2.1-.628,3.562,3.562,0,0,1,2.883,1.222,5.289,5.289,0,0,1,1.028,3.5v.677H34.172a3.38,3.38,0,0,0,.822,2.272,2.583,2.583,0,0,0,2,.866,2.832,2.832,0,0,0,1.459-.352,3.666,3.666,0,0,0,1.046-.932l.993.773A3.993,3.993,0,0,1,36.905,17.176ZM36.7,8.65a2.169,2.169,0,0,0-1.652.716,3.482,3.482,0,0,0-.826,2.008h4.764v-.123a3.1,3.1,0,0,0-.668-1.92A2.042,2.042,0,0,0,36.7,8.65Zm10.389.3a4.873,4.873,0,0,0-.8-.062,2.143,2.143,0,0,0-2.171,1.362V17H42.5V7.49h1.582l.026,1.1a2.532,2.532,0,0,1,2.268-1.274,1.661,1.661,0,0,1,.721.123ZM54.105,17a3.416,3.416,0,0,1-.229-1,3.628,3.628,0,0,1-2.707,1.178,3.357,3.357,0,0,1-2.307-.8,2.573,2.573,0,0,1-.9-2.017,2.688,2.688,0,0,1,1.129-2.307,5.325,5.325,0,0,1,3.177-.822h1.582v-.747a1.826,1.826,0,0,0-.51-1.358,2.049,2.049,0,0,0-1.5-.505,2.371,2.371,0,0,0-1.459.439,1.3,1.3,0,0,0-.589,1.063H48.155a2.244,2.244,0,0,1,.505-1.375A3.449,3.449,0,0,1,50.032,7.7a4.613,4.613,0,0,1,1.9-.387,3.759,3.759,0,0,1,2.575.822,2.964,2.964,0,0,1,.967,2.263v4.377a5.351,5.351,0,0,0,.334,2.083V17Zm-2.7-1.239a2.858,2.858,0,0,0,1.45-.4,2.392,2.392,0,0,0,.993-1.028V12.386H52.576q-2.988,0-2.988,1.749a1.48,1.48,0,0,0,.51,1.2A1.959,1.959,0,0,0,51.407,15.761ZM62.622,8.949a4.873,4.873,0,0,0-.8-.062,2.143,2.143,0,0,0-2.171,1.362V17H58.025V7.49h1.582l.026,1.1A2.532,2.532,0,0,1,61.9,7.314a1.661,1.661,0,0,1,.721.123ZM69.372,17V8.747h-1.5V7.49h1.5V6.515a3.238,3.238,0,0,1,.817-2.364A3.088,3.088,0,0,1,72.5,3.315a4.293,4.293,0,0,1,1.116.148l-.088,1.311A4.67,4.67,0,0,0,72.65,4.7a1.586,1.586,0,0,0-1.222.463A1.877,1.877,0,0,0,71,6.485V7.49h2.03V8.747H71V17Zm11.32,0a3.416,3.416,0,0,1-.229-1,3.628,3.628,0,0,1-2.707,1.178,3.357,3.357,0,0,1-2.307-.8,2.573,2.573,0,0,1-.9-2.017,2.688,2.688,0,0,1,1.129-2.307,5.325,5.325,0,0,1,3.177-.822h1.582v-.747a1.826,1.826,0,0,0-.51-1.358,2.049,2.049,0,0,0-1.5-.505,2.371,2.371,0,0,0-1.459.439,1.3,1.3,0,0,0-.589,1.063H74.742a2.244,2.244,0,0,1,.505-1.375A3.449,3.449,0,0,1,76.619,7.7a4.613,4.613,0,0,1,1.9-.387,3.759,3.759,0,0,1,2.575.822,2.964,2.964,0,0,1,.967,2.263v4.377a5.351,5.351,0,0,0,.334,2.083V17Zm-2.7-1.239a2.858,2.858,0,0,0,1.45-.4,2.392,2.392,0,0,0,.993-1.028V12.386H79.163q-2.988,0-2.988,1.749a1.48,1.48,0,0,0,.51,1.2A1.959,1.959,0,0,0,77.994,15.761Zm10.433.088a2.342,2.342,0,0,0,1.521-.527A1.855,1.855,0,0,0,90.668,14h1.538a2.949,2.949,0,0,1-.562,1.556,3.7,3.7,0,0,1-1.384,1.178,3.994,3.994,0,0,1-1.833.439,3.918,3.918,0,0,1-3.089-1.3,5.163,5.163,0,0,1-1.147-3.546v-.272a5.725,5.725,0,0,1,.51-2.47,3.883,3.883,0,0,1,1.463-1.679,4.157,4.157,0,0,1,2.254-.6,3.814,3.814,0,0,1,2.659.958,3.424,3.424,0,0,1,1.129,2.487H90.668a2.241,2.241,0,0,0-.7-1.516,2.174,2.174,0,0,0-1.551-.593,2.276,2.276,0,0,0-1.92.892,4.19,4.19,0,0,0-.681,2.58v.308a4.106,4.106,0,0,0,.677,2.531A2.287,2.287,0,0,0,88.427,15.849ZM96.24,5.188v2.3h1.775V8.747H96.24v5.9a1.32,1.32,0,0,0,.237.858,1,1,0,0,0,.809.286,3.937,3.937,0,0,0,.773-.105V17a4.742,4.742,0,0,1-1.248.175,2.025,2.025,0,0,1-1.644-.659,2.832,2.832,0,0,1-.554-1.872v-5.9H92.883V7.49h1.731v-2.3Zm9.545,10.872A3.454,3.454,0,0,1,103,17.176a2.956,2.956,0,0,1-2.316-.883,3.823,3.823,0,0,1-.8-2.615V7.49H101.5v6.144q0,2.162,1.758,2.162a2.434,2.434,0,0,0,2.479-1.389V7.49h1.626V17H105.82Zm8.648-7.11a4.873,4.873,0,0,0-.8-.062,2.143,2.143,0,0,0-2.171,1.362V17h-1.626V7.49h1.582l.026,1.1a2.532,2.532,0,0,1,2.268-1.274,1.661,1.661,0,0,1,.721.123ZM121.447,17a3.416,3.416,0,0,1-.229-1,3.628,3.628,0,0,1-2.707,1.178,3.357,3.357,0,0,1-2.307-.8,2.573,2.573,0,0,1-.9-2.017,2.688,2.688,0,0,1,1.129-2.307,5.325,5.325,0,0,1,3.177-.822h1.582v-.747a1.826,1.826,0,0,0-.51-1.358,2.049,2.049,0,0,0-1.5-.505,2.371,2.371,0,0,0-1.459.439,1.3,1.3,0,0,0-.589,1.063H115.5A2.244,2.244,0,0,1,116,8.751a3.449,3.449,0,0,1,1.371-1.05,4.613,4.613,0,0,1,1.9-.387,3.759,3.759,0,0,1,2.575.822,2.964,2.964,0,0,1,.967,2.263v4.377a5.351,5.351,0,0,0,.334,2.083V17Zm-2.7-1.239a2.858,2.858,0,0,0,1.45-.4,2.392,2.392,0,0,0,.993-1.028V12.386h-1.274q-2.988,0-2.988,1.749a1.48,1.48,0,0,0,.51,1.2A1.959,1.959,0,0,0,118.749,15.761Z" transform="translate(-3120 -2192)" fill="#12263f"/>
    <path id="Trazado_659648" data-name="Trazado 659648" d="M8.719,11.085H3.173V15.62H9.615V17H1.485V4.2H9.527v1.38H3.173V9.705H8.719ZM13,7.49l.053,1.2A3.465,3.465,0,0,1,15.9,7.314q3.015,0,3.041,3.4V17H17.314V10.707a2.189,2.189,0,0,0-.47-1.521,1.884,1.884,0,0,0-1.437-.492,2.347,2.347,0,0,0-1.389.422,2.865,2.865,0,0,0-.932,1.107V17H11.461V7.49Zm11.531,7.3,2.355-7.3h1.661L25.137,17H23.9L20.452,7.49h1.661ZM31.878,17H30.252V7.49h1.626ZM30.12,4.968a.971.971,0,0,1,.242-.668.907.907,0,0,1,.716-.272A.922.922,0,0,1,31.8,4.3a.96.96,0,0,1,.246.668.929.929,0,0,1-.246.659.938.938,0,0,1-.721.264.924.924,0,0,1-.716-.264A.938.938,0,0,1,30.12,4.968ZM40.351,17a3.416,3.416,0,0,1-.229-1,3.628,3.628,0,0,1-2.707,1.178,3.357,3.357,0,0,1-2.307-.8,2.573,2.573,0,0,1-.9-2.017,2.688,2.688,0,0,1,1.129-2.307,5.325,5.325,0,0,1,3.177-.822H40.1v-.747a1.826,1.826,0,0,0-.51-1.358,2.049,2.049,0,0,0-1.5-.505,2.371,2.371,0,0,0-1.459.439,1.3,1.3,0,0,0-.589,1.063H34.4a2.244,2.244,0,0,1,.505-1.375A3.449,3.449,0,0,1,36.277,7.7a4.613,4.613,0,0,1,1.9-.387,3.759,3.759,0,0,1,2.575.822,2.964,2.964,0,0,1,.967,2.263v4.377a5.351,5.351,0,0,0,.334,2.083V17Zm-2.7-1.239a2.858,2.858,0,0,0,1.45-.4,2.392,2.392,0,0,0,.993-1.028V12.386H38.821q-2.988,0-2.988,1.749a1.48,1.48,0,0,0,.51,1.2A1.959,1.959,0,0,0,37.652,15.761ZM48.867,8.949a4.873,4.873,0,0,0-.8-.062A2.143,2.143,0,0,0,45.9,10.25V17H44.271V7.49h1.582l.026,1.1a2.532,2.532,0,0,1,2.268-1.274,1.661,1.661,0,0,1,.721.123ZM55.617,17V8.747h-1.5V7.49h1.5V6.515a3.238,3.238,0,0,1,.817-2.364,3.088,3.088,0,0,1,2.312-.835,4.293,4.293,0,0,1,1.116.148l-.088,1.311A4.67,4.67,0,0,0,58.9,4.7a1.586,1.586,0,0,0-1.222.463,1.877,1.877,0,0,0-.431,1.327V7.49h2.03V8.747h-2.03V17Zm11.32,0a3.416,3.416,0,0,1-.229-1A3.628,3.628,0,0,1,64,17.176a3.357,3.357,0,0,1-2.307-.8,2.573,2.573,0,0,1-.9-2.017,2.688,2.688,0,0,1,1.129-2.307,5.325,5.325,0,0,1,3.177-.822h1.582v-.747a1.826,1.826,0,0,0-.51-1.358,2.049,2.049,0,0,0-1.5-.505,2.371,2.371,0,0,0-1.459.439,1.3,1.3,0,0,0-.589,1.063H60.987a2.244,2.244,0,0,1,.505-1.375A3.449,3.449,0,0,1,62.864,7.7a4.613,4.613,0,0,1,1.9-.387,3.759,3.759,0,0,1,2.575.822,2.964,2.964,0,0,1,.967,2.263v4.377a5.351,5.351,0,0,0,.334,2.083V17Zm-2.7-1.239a2.858,2.858,0,0,0,1.45-.4,2.392,2.392,0,0,0,.993-1.028V12.386H65.408q-2.988,0-2.988,1.749a1.48,1.48,0,0,0,.51,1.2A1.959,1.959,0,0,0,64.239,15.761Zm10.433.088a2.342,2.342,0,0,0,1.521-.527A1.855,1.855,0,0,0,76.913,14h1.538a2.949,2.949,0,0,1-.562,1.556A3.7,3.7,0,0,1,76.5,16.736a3.994,3.994,0,0,1-1.833.439,3.918,3.918,0,0,1-3.089-1.3,5.163,5.163,0,0,1-1.147-3.546v-.272a5.725,5.725,0,0,1,.51-2.47,3.883,3.883,0,0,1,1.463-1.679,4.157,4.157,0,0,1,2.254-.6,3.814,3.814,0,0,1,2.659.958,3.424,3.424,0,0,1,1.129,2.487H76.913a2.241,2.241,0,0,0-.7-1.516,2.174,2.174,0,0,0-1.551-.593,2.276,2.276,0,0,0-1.92.892,4.19,4.19,0,0,0-.681,2.58v.308a4.106,4.106,0,0,0,.677,2.531A2.287,2.287,0,0,0,74.672,15.849ZM82.485,5.188v2.3h1.775V8.747H82.485v5.9a1.32,1.32,0,0,0,.237.858,1,1,0,0,0,.809.286,3.937,3.937,0,0,0,.773-.105V17a4.742,4.742,0,0,1-1.248.175,2.025,2.025,0,0,1-1.644-.659,2.832,2.832,0,0,1-.554-1.872v-5.9H79.128V7.49h1.731v-2.3ZM92.03,16.06a3.454,3.454,0,0,1-2.786,1.116,2.956,2.956,0,0,1-2.316-.883,3.823,3.823,0,0,1-.8-2.615V7.49H87.75v6.144q0,2.162,1.758,2.162a2.434,2.434,0,0,0,2.479-1.389V7.49h1.626V17H92.065Zm8.648-7.11a4.873,4.873,0,0,0-.8-.062,2.143,2.143,0,0,0-2.171,1.362V17H96.082V7.49h1.582l.026,1.1a2.532,2.532,0,0,1,2.268-1.274,1.661,1.661,0,0,1,.721.123ZM107.692,17a3.416,3.416,0,0,1-.229-1,3.628,3.628,0,0,1-2.707,1.178,3.357,3.357,0,0,1-2.307-.8,2.573,2.573,0,0,1-.9-2.017,2.688,2.688,0,0,1,1.129-2.307,5.325,5.325,0,0,1,3.177-.822h1.582v-.747a1.826,1.826,0,0,0-.51-1.358,2.049,2.049,0,0,0-1.5-.505,2.371,2.371,0,0,0-1.459.439,1.3,1.3,0,0,0-.589,1.063h-1.635a2.244,2.244,0,0,1,.505-1.375,3.449,3.449,0,0,1,1.371-1.05,4.613,4.613,0,0,1,1.9-.387,3.759,3.759,0,0,1,2.575.822,2.964,2.964,0,0,1,.967,2.263v4.377a5.351,5.351,0,0,0,.334,2.083V17Zm-2.7-1.239a2.858,2.858,0,0,0,1.45-.4,2.392,2.392,0,0,0,.993-1.028V12.386h-1.274q-2.988,0-2.988,1.749a1.48,1.48,0,0,0,.51,1.2A1.959,1.959,0,0,0,104.994,15.761Z" transform="translate(-3120 -2092)" fill="#12263f"/>
    <path id="Trazado_659649" data-name="Trazado 659649" d="M8.477,9.842a3.662,3.662,0,0,1-1.166,2.437,3.82,3.82,0,0,1-2.608.858,3.507,3.507,0,0,1-2.827-1.265A5.088,5.088,0,0,1,.813,8.488V7.531a5.671,5.671,0,0,1,.5-2.44,3.7,3.7,0,0,1,1.4-1.617A3.911,3.911,0,0,1,4.819,2.91,3.6,3.6,0,0,1,7.362,3.8,3.706,3.706,0,0,1,8.477,6.246H7.157a2.86,2.86,0,0,0-.742-1.728,2.244,2.244,0,0,0-1.6-.535,2.348,2.348,0,0,0-1.972.93,4.271,4.271,0,0,0-.714,2.648v.965a4.391,4.391,0,0,0,.677,2.579,2.187,2.187,0,0,0,1.894.958,2.526,2.526,0,0,0,1.678-.5,2.75,2.75,0,0,0,.776-1.726Zm1.258-.608a4.369,4.369,0,0,1,.427-1.955,3.187,3.187,0,0,1,1.189-1.34,3.238,3.238,0,0,1,1.74-.472,3.119,3.119,0,0,1,2.444,1.046,4.024,4.024,0,0,1,.933,2.782v.089a4.407,4.407,0,0,1-.414,1.938,3.14,3.14,0,0,1-1.183,1.336,3.275,3.275,0,0,1-1.767.479,3.111,3.111,0,0,1-2.437-1.046,4,4,0,0,1-.933-2.769Zm1.271.15a3.164,3.164,0,0,0,.571,1.976,1.934,1.934,0,0,0,3.059-.01A3.46,3.46,0,0,0,15.2,9.233a3.159,3.159,0,0,0-.578-1.972,1.836,1.836,0,0,0-1.535-.755,1.816,1.816,0,0,0-1.511.745A3.435,3.435,0,0,0,11.006,9.384ZM19.243,5.6l.034.82a2.732,2.732,0,0,1,2.194-.957,2.115,2.115,0,0,1,2.112,1.189,2.8,2.8,0,0,1,.96-.861,2.837,2.837,0,0,1,1.4-.328q2.434,0,2.475,2.577V13H27.152V8.119a1.7,1.7,0,0,0-.362-1.186,1.6,1.6,0,0,0-1.217-.393,1.677,1.677,0,0,0-1.169.42,1.706,1.706,0,0,0-.54,1.131V13H22.593V8.153A1.411,1.411,0,0,0,21.014,6.54a1.692,1.692,0,0,0-1.7,1.06V13H18.047V5.6Zm14.15,7.533a3.232,3.232,0,0,1-2.447-.988A3.666,3.666,0,0,1,30,9.507V9.274a4.438,4.438,0,0,1,.42-1.965A3.28,3.28,0,0,1,31.6,5.956a2.956,2.956,0,0,1,1.637-.489,2.77,2.77,0,0,1,2.242.95,4.114,4.114,0,0,1,.8,2.721v.526H31.268a2.629,2.629,0,0,0,.639,1.767,2.009,2.009,0,0,0,1.555.673,2.2,2.2,0,0,0,1.135-.273,2.851,2.851,0,0,0,.813-.725l.772.6A3.106,3.106,0,0,1,33.394,13.137Zm-.157-6.631a1.687,1.687,0,0,0-1.285.557,2.708,2.708,0,0,0-.643,1.562h3.705v-.1a2.409,2.409,0,0,0-.52-1.494A1.588,1.588,0,0,0,33.236,6.506Zm8.08.232a3.79,3.79,0,0,0-.622-.048,1.667,1.667,0,0,0-1.688,1.06V13H37.741V5.6h1.23l.021.854a1.969,1.969,0,0,1,1.764-.991,1.292,1.292,0,0,1,.561.1Zm4,5.366a1.822,1.822,0,0,0,1.183-.41,1.443,1.443,0,0,0,.561-1.025h1.2a2.293,2.293,0,0,1-.437,1.21,2.881,2.881,0,0,1-1.077.916,3.107,3.107,0,0,1-1.425.342,3.047,3.047,0,0,1-2.4-1.008,4.016,4.016,0,0,1-.892-2.758V9.158a4.453,4.453,0,0,1,.4-1.921,3.02,3.02,0,0,1,1.138-1.306,3.233,3.233,0,0,1,1.753-.465,2.966,2.966,0,0,1,2.068.745,2.663,2.663,0,0,1,.878,1.935h-1.2a1.743,1.743,0,0,0-.543-1.179,1.691,1.691,0,0,0-1.207-.461,1.77,1.77,0,0,0-1.494.694,3.259,3.259,0,0,0-.53,2.006v.239a3.194,3.194,0,0,0,.526,1.969A1.779,1.779,0,0,0,45.315,12.1Zm5.735.9H49.786V5.6h1.265ZM49.684,3.642a.755.755,0,0,1,.188-.52.706.706,0,0,1,.557-.212.717.717,0,0,1,.561.212.747.747,0,0,1,.191.52.722.722,0,0,1-.191.513.73.73,0,0,1-.561.205.718.718,0,0,1-.557-.205A.73.73,0,0,1,49.684,3.642ZM57.641,13a2.657,2.657,0,0,1-.178-.779,2.822,2.822,0,0,1-2.105.916,2.611,2.611,0,0,1-1.794-.619,2,2,0,0,1-.7-1.569,2.091,2.091,0,0,1,.878-1.794,4.142,4.142,0,0,1,2.471-.639h1.23V7.935a1.42,1.42,0,0,0-.4-1.056,1.593,1.593,0,0,0-1.169-.393,1.844,1.844,0,0,0-1.135.342,1.007,1.007,0,0,0-.458.827H53.013a1.745,1.745,0,0,1,.393-1.07,2.683,2.683,0,0,1,1.066-.817,3.588,3.588,0,0,1,1.48-.3,2.924,2.924,0,0,1,2,.639,2.306,2.306,0,0,1,.752,1.76v3.4a4.162,4.162,0,0,0,.26,1.62V13Zm-2.1-.964a2.223,2.223,0,0,0,1.128-.308,1.861,1.861,0,0,0,.772-.8V9.411h-.991q-2.324,0-2.324,1.36a1.151,1.151,0,0,0,.4.93A1.524,1.524,0,0,0,55.542,12.036ZM61.886,5.6l.041.93a2.7,2.7,0,0,1,2.215-1.066q2.345,0,2.365,2.646V13H65.242V8.105a1.7,1.7,0,0,0-.366-1.183,1.466,1.466,0,0,0-1.118-.383,1.825,1.825,0,0,0-1.08.328,2.228,2.228,0,0,0-.725.861V13H60.689V5.6ZM70.13,3.813V5.6h1.381v.978H70.13v4.593a1.027,1.027,0,0,0,.185.667.777.777,0,0,0,.629.222,3.062,3.062,0,0,0,.6-.082V13a3.688,3.688,0,0,1-.971.136,1.575,1.575,0,0,1-1.278-.513,2.2,2.2,0,0,1-.431-1.456V6.581H67.519V5.6h1.347V3.813Zm5.927,9.324a3.232,3.232,0,0,1-2.447-.988,3.666,3.666,0,0,1-.943-2.642V9.274a4.438,4.438,0,0,1,.42-1.965,3.28,3.28,0,0,1,1.176-1.354A2.956,2.956,0,0,1,75.9,5.467a2.77,2.77,0,0,1,2.242.95,4.114,4.114,0,0,1,.8,2.721v.526H73.931a2.629,2.629,0,0,0,.639,1.767,2.009,2.009,0,0,0,1.555.673,2.2,2.2,0,0,0,1.135-.273,2.851,2.851,0,0,0,.813-.725l.772.6A3.106,3.106,0,0,1,76.057,13.137ZM75.9,6.506a1.687,1.687,0,0,0-1.285.557,2.708,2.708,0,0,0-.643,1.562h3.705v-.1a2.409,2.409,0,0,0-.52-1.494A1.588,1.588,0,0,0,75.9,6.506Z" transform="translate(-3293 -2011)" fill="#12263f"/>
    <path id="Trazado_659650" data-name="Trazado 659650" d="M4.088,8.563A6.172,6.172,0,0,1,1.63,7.371,2.279,2.279,0,0,1,.861,5.624,2.408,2.408,0,0,1,1.8,3.679,3.736,3.736,0,0,1,4.245,2.91a4.078,4.078,0,0,1,1.829.4A3.007,3.007,0,0,1,7.318,4.4a2.8,2.8,0,0,1,.441,1.524H6.439A1.82,1.82,0,0,0,5.865,4.5a2.335,2.335,0,0,0-1.62-.518,2.391,2.391,0,0,0-1.514.428A1.428,1.428,0,0,0,2.188,5.6,1.285,1.285,0,0,0,2.7,6.63,5.062,5.062,0,0,0,4.46,7.4,8.152,8.152,0,0,1,6.4,8.17a2.946,2.946,0,0,1,1.039.981,2.5,2.5,0,0,1,.338,1.319,2.326,2.326,0,0,1-.943,1.938,4.022,4.022,0,0,1-2.522.728A4.678,4.678,0,0,1,2.4,12.744a3.221,3.221,0,0,1-1.371-1.077,2.627,2.627,0,0,1-.482-1.552H1.866a1.714,1.714,0,0,0,.667,1.425,2.806,2.806,0,0,0,1.781.523,2.58,2.58,0,0,0,1.593-.424,1.377,1.377,0,0,0,.554-1.155,1.351,1.351,0,0,0-.513-1.131A5.911,5.911,0,0,0,4.088,8.563ZM10.637,13H9.372V5.6h1.265ZM9.27,3.642a.755.755,0,0,1,.188-.52.706.706,0,0,1,.557-.212.717.717,0,0,1,.561.212.747.747,0,0,1,.191.52.722.722,0,0,1-.191.513.73.73,0,0,1-.561.205.718.718,0,0,1-.557-.205A.73.73,0,0,1,9.27,3.642Zm7.7,7.4a.931.931,0,0,0-.386-.8,3.718,3.718,0,0,0-1.347-.489,6.367,6.367,0,0,1-1.524-.492,2.169,2.169,0,0,1-.834-.684,1.635,1.635,0,0,1-.27-.943A1.919,1.919,0,0,1,13.375,6.1a3,3,0,0,1,1.965-.629,3.091,3.091,0,0,1,2.041.649,2.063,2.063,0,0,1,.783,1.661H16.892a1.142,1.142,0,0,0-.441-.9,1.652,1.652,0,0,0-1.111-.376,1.729,1.729,0,0,0-1.08.3.947.947,0,0,0-.39.786.767.767,0,0,0,.362.69,4.458,4.458,0,0,0,1.309.444,6.821,6.821,0,0,1,1.535.506,2.239,2.239,0,0,1,.872.708,1.74,1.74,0,0,1,.284,1.008,1.893,1.893,0,0,1-.793,1.589,3.326,3.326,0,0,1-2.058.6,3.725,3.725,0,0,1-1.572-.314,2.557,2.557,0,0,1-1.07-.878,2.117,2.117,0,0,1-.386-1.22h1.265a1.309,1.309,0,0,0,.509,1.008,1.976,1.976,0,0,0,1.254.373,2.039,2.039,0,0,0,1.152-.291A.893.893,0,0,0,16.967,11.038Zm4.628-7.226V5.6h1.381v.978H21.595v4.593a1.027,1.027,0,0,0,.185.667.777.777,0,0,0,.629.222,3.062,3.062,0,0,0,.6-.082V13a3.688,3.688,0,0,1-.971.136,1.575,1.575,0,0,1-1.278-.513,2.2,2.2,0,0,1-.431-1.456V6.581H18.983V5.6H20.33V3.813Zm5.927,9.324a3.232,3.232,0,0,1-2.447-.988,3.666,3.666,0,0,1-.943-2.642V9.274a4.438,4.438,0,0,1,.42-1.965,3.28,3.28,0,0,1,1.176-1.354,2.956,2.956,0,0,1,1.637-.489,2.77,2.77,0,0,1,2.242.95,4.114,4.114,0,0,1,.8,2.721v.526H25.4a2.629,2.629,0,0,0,.639,1.767,2.009,2.009,0,0,0,1.555.673,2.2,2.2,0,0,0,1.135-.273,2.851,2.851,0,0,0,.813-.725l.772.6A3.106,3.106,0,0,1,27.521,13.137Zm-.157-6.631a1.687,1.687,0,0,0-1.285.557,2.708,2.708,0,0,0-.643,1.562h3.705v-.1a2.409,2.409,0,0,0-.52-1.494A1.588,1.588,0,0,0,27.364,6.506Zm5.694-.9.034.82a2.732,2.732,0,0,1,2.194-.957A2.115,2.115,0,0,1,37.4,6.656a2.8,2.8,0,0,1,.96-.861,2.837,2.837,0,0,1,1.4-.328q2.434,0,2.475,2.577V13H40.968V8.119a1.7,1.7,0,0,0-.362-1.186,1.6,1.6,0,0,0-1.217-.393,1.677,1.677,0,0,0-1.169.42,1.706,1.706,0,0,0-.54,1.131V13H36.408V8.153A1.411,1.411,0,0,0,34.829,6.54a1.692,1.692,0,0,0-1.7,1.06V13H31.862V5.6ZM48.706,13a2.657,2.657,0,0,1-.178-.779,2.822,2.822,0,0,1-2.105.916,2.611,2.611,0,0,1-1.794-.619,2,2,0,0,1-.7-1.569,2.091,2.091,0,0,1,.878-1.794,4.142,4.142,0,0,1,2.471-.639h1.23V7.935a1.42,1.42,0,0,0-.4-1.056,1.593,1.593,0,0,0-1.169-.393,1.844,1.844,0,0,0-1.135.342,1.007,1.007,0,0,0-.458.827H44.078a1.745,1.745,0,0,1,.393-1.07,2.683,2.683,0,0,1,1.066-.817,3.588,3.588,0,0,1,1.48-.3,2.924,2.924,0,0,1,2,.639,2.306,2.306,0,0,1,.752,1.76v3.4a4.162,4.162,0,0,0,.26,1.62V13Zm-2.1-.964a2.223,2.223,0,0,0,1.128-.308,1.861,1.861,0,0,0,.772-.8V9.411h-.991q-2.324,0-2.324,1.36a1.151,1.151,0,0,0,.4.93A1.524,1.524,0,0,0,46.607,12.036Zm11.683,1.1a3.232,3.232,0,0,1-2.447-.988A3.666,3.666,0,0,1,54.9,9.507V9.274a4.438,4.438,0,0,1,.42-1.965A3.28,3.28,0,0,1,56.5,5.956a2.956,2.956,0,0,1,1.637-.489,2.77,2.77,0,0,1,2.242.95,4.114,4.114,0,0,1,.8,2.721v.526H56.164a2.629,2.629,0,0,0,.639,1.767,2.009,2.009,0,0,0,1.555.673,2.2,2.2,0,0,0,1.135-.273,2.851,2.851,0,0,0,.813-.725l.772.6A3.106,3.106,0,0,1,58.29,13.137Zm-.157-6.631a1.687,1.687,0,0,0-1.285.557,2.708,2.708,0,0,0-.643,1.562H59.91v-.1a2.409,2.409,0,0,0-.52-1.494A1.588,1.588,0,0,0,58.133,6.506Zm6.986,1.8L66.76,5.6h1.477l-2.42,3.657L68.312,13H66.849L65.14,10.231,63.431,13h-1.47l2.5-3.739L62.036,5.6H63.5Zm6.173-4.491V5.6h1.381v.978H71.292v4.593a1.027,1.027,0,0,0,.185.667.777.777,0,0,0,.629.222,3.062,3.062,0,0,0,.6-.082V13a3.688,3.688,0,0,1-.971.136,1.575,1.575,0,0,1-1.278-.513,2.2,2.2,0,0,1-.431-1.456V6.581H68.681V5.6h1.347V3.813Zm5.927,9.324a3.232,3.232,0,0,1-2.447-.988,3.666,3.666,0,0,1-.943-2.642V9.274a4.438,4.438,0,0,1,.42-1.965,3.28,3.28,0,0,1,1.176-1.354,2.956,2.956,0,0,1,1.637-.489,2.77,2.77,0,0,1,2.242.95,4.114,4.114,0,0,1,.8,2.721v.526H75.093a2.629,2.629,0,0,0,.639,1.767,2.009,2.009,0,0,0,1.555.673,2.2,2.2,0,0,0,1.135-.273,2.851,2.851,0,0,0,.813-.725l.772.6A3.106,3.106,0,0,1,77.219,13.137Zm-.157-6.631a1.687,1.687,0,0,0-1.285.557,2.708,2.708,0,0,0-.643,1.562h3.705v-.1a2.409,2.409,0,0,0-.52-1.494A1.588,1.588,0,0,0,77.062,6.506Zm8.08.232a3.79,3.79,0,0,0-.622-.048,1.667,1.667,0,0,0-1.688,1.06V13H81.566V5.6H82.8l.021.854a1.969,1.969,0,0,1,1.764-.991,1.292,1.292,0,0,1,.561.1ZM87.5,5.6l.041.93a2.7,2.7,0,0,1,2.215-1.066q2.345,0,2.365,2.646V13H90.856V8.105a1.7,1.7,0,0,0-.366-1.183,1.466,1.466,0,0,0-1.118-.383,1.825,1.825,0,0,0-1.08.328,2.228,2.228,0,0,0-.725.861V13H86.3V5.6Zm6.193,3.63a4.369,4.369,0,0,1,.427-1.955,3.187,3.187,0,0,1,1.189-1.34,3.238,3.238,0,0,1,1.74-.472,3.119,3.119,0,0,1,2.444,1.046,4.024,4.024,0,0,1,.933,2.782v.089a4.407,4.407,0,0,1-.414,1.938,3.14,3.14,0,0,1-1.183,1.336,3.275,3.275,0,0,1-1.767.479,3.111,3.111,0,0,1-2.437-1.046,4,4,0,0,1-.933-2.769Zm1.271.15a3.164,3.164,0,0,0,.571,1.976,1.934,1.934,0,0,0,3.059-.01,3.46,3.46,0,0,0,.567-2.116,3.159,3.159,0,0,0-.578-1.972,1.836,1.836,0,0,0-1.535-.755,1.816,1.816,0,0,0-1.511.745A3.435,3.435,0,0,0,94.965,9.384Z" transform="translate(-2762 -2011)" fill="#12263f"/>
    <path id="Trazado_659651" data-name="Trazado 659651" d="M21.028,11.085H15.482V15.62h6.442V17h-8.13V4.2h8.042v1.38H15.482V9.705h5.546Zm4.28-3.595.053,1.2a3.465,3.465,0,0,1,2.848-1.371q3.015,0,3.041,3.4V17H29.624V10.707a2.189,2.189,0,0,0-.47-1.521,1.884,1.884,0,0,0-1.437-.492,2.347,2.347,0,0,0-1.389.422,2.865,2.865,0,0,0-.932,1.107V17H23.77V7.49Zm11.531,7.3,2.355-7.3h1.661L37.446,17H36.207L32.761,7.49h1.661ZM44.187,17H42.561V7.49h1.626ZM42.429,4.968a.971.971,0,0,1,.242-.668.907.907,0,0,1,.716-.272.922.922,0,0,1,.721.272.96.96,0,0,1,.246.668.929.929,0,0,1-.246.659.938.938,0,0,1-.721.264.924.924,0,0,1-.716-.264A.938.938,0,0,1,42.429,4.968ZM52.66,17a3.416,3.416,0,0,1-.229-1,3.628,3.628,0,0,1-2.707,1.178,3.357,3.357,0,0,1-2.307-.8,2.573,2.573,0,0,1-.9-2.017,2.688,2.688,0,0,1,1.129-2.307,5.325,5.325,0,0,1,3.177-.822H52.4v-.747a1.826,1.826,0,0,0-.51-1.358,2.049,2.049,0,0,0-1.5-.505,2.371,2.371,0,0,0-1.459.439,1.3,1.3,0,0,0-.589,1.063H46.709a2.244,2.244,0,0,1,.505-1.375A3.449,3.449,0,0,1,48.586,7.7a4.613,4.613,0,0,1,1.9-.387,3.759,3.759,0,0,1,2.575.822,2.964,2.964,0,0,1,.967,2.263v4.377a5.351,5.351,0,0,0,.334,2.083V17Zm-2.7-1.239a2.858,2.858,0,0,0,1.45-.4,2.392,2.392,0,0,0,.993-1.028V12.386H51.13q-2.988,0-2.988,1.749a1.48,1.48,0,0,0,.51,1.2A1.959,1.959,0,0,0,49.961,15.761ZM61.176,8.949a4.873,4.873,0,0,0-.8-.062,2.143,2.143,0,0,0-2.171,1.362V17H56.58V7.49h1.582l.026,1.1a2.532,2.532,0,0,1,2.268-1.274,1.661,1.661,0,0,1,.721.123ZM67.926,17V8.747h-1.5V7.49h1.5V6.515a3.238,3.238,0,0,1,.817-2.364,3.088,3.088,0,0,1,2.312-.835,4.293,4.293,0,0,1,1.116.148l-.088,1.311A4.67,4.67,0,0,0,71.2,4.7a1.586,1.586,0,0,0-1.222.463,1.877,1.877,0,0,0-.431,1.327V7.49h2.03V8.747h-2.03V17Zm11.32,0a3.416,3.416,0,0,1-.229-1,3.628,3.628,0,0,1-2.707,1.178A3.357,3.357,0,0,1,74,16.38a2.573,2.573,0,0,1-.9-2.017,2.688,2.688,0,0,1,1.129-2.307,5.325,5.325,0,0,1,3.177-.822h1.582v-.747a1.826,1.826,0,0,0-.51-1.358,2.049,2.049,0,0,0-1.5-.505,2.371,2.371,0,0,0-1.459.439,1.3,1.3,0,0,0-.589,1.063H73.3A2.244,2.244,0,0,1,73.8,8.751,3.449,3.449,0,0,1,75.173,7.7a4.613,4.613,0,0,1,1.9-.387,3.759,3.759,0,0,1,2.575.822,2.964,2.964,0,0,1,.967,2.263v4.377a5.351,5.351,0,0,0,.334,2.083V17Zm-2.7-1.239a2.858,2.858,0,0,0,1.45-.4,2.392,2.392,0,0,0,.993-1.028V12.386H77.717q-2.988,0-2.988,1.749a1.48,1.48,0,0,0,.51,1.2A1.959,1.959,0,0,0,76.548,15.761Zm10.433.088a2.342,2.342,0,0,0,1.521-.527A1.855,1.855,0,0,0,89.222,14H90.76a2.949,2.949,0,0,1-.562,1.556,3.7,3.7,0,0,1-1.384,1.178,3.994,3.994,0,0,1-1.833.439,3.918,3.918,0,0,1-3.089-1.3,5.163,5.163,0,0,1-1.147-3.546v-.272a5.725,5.725,0,0,1,.51-2.47,3.883,3.883,0,0,1,1.463-1.679,4.157,4.157,0,0,1,2.254-.6,3.814,3.814,0,0,1,2.659.958A3.424,3.424,0,0,1,90.76,10.76H89.222a2.241,2.241,0,0,0-.7-1.516,2.174,2.174,0,0,0-1.551-.593,2.276,2.276,0,0,0-1.92.892,4.19,4.19,0,0,0-.681,2.58v.308a4.106,4.106,0,0,0,.677,2.531A2.287,2.287,0,0,0,86.981,15.849ZM94.794,5.188v2.3H96.57V8.747H94.794v5.9a1.32,1.32,0,0,0,.237.858,1,1,0,0,0,.809.286,3.937,3.937,0,0,0,.773-.105V17a4.742,4.742,0,0,1-1.248.175,2.025,2.025,0,0,1-1.644-.659,2.832,2.832,0,0,1-.554-1.872v-5.9H91.437V7.49h1.731v-2.3Zm9.545,10.872a3.454,3.454,0,0,1-2.786,1.116,2.956,2.956,0,0,1-2.316-.883,3.823,3.823,0,0,1-.8-2.615V7.49h1.626v6.144q0,2.162,1.758,2.162a2.434,2.434,0,0,0,2.479-1.389V7.49h1.626V17h-1.547Zm8.648-7.11a4.873,4.873,0,0,0-.8-.062,2.143,2.143,0,0,0-2.171,1.362V17h-1.626V7.49h1.582l.026,1.1a2.532,2.532,0,0,1,2.268-1.274,1.661,1.661,0,0,1,.721.123ZM120,17a3.416,3.416,0,0,1-.229-1,3.628,3.628,0,0,1-2.707,1.178,3.357,3.357,0,0,1-2.307-.8,2.573,2.573,0,0,1-.9-2.017,2.688,2.688,0,0,1,1.129-2.307,5.325,5.325,0,0,1,3.177-.822h1.582v-.747a1.826,1.826,0,0,0-.51-1.358,2.049,2.049,0,0,0-1.5-.505,2.371,2.371,0,0,0-1.459.439,1.3,1.3,0,0,0-.589,1.063h-1.635a2.244,2.244,0,0,1,.505-1.375,3.449,3.449,0,0,1,1.371-1.05,4.613,4.613,0,0,1,1.9-.387,3.759,3.759,0,0,1,2.575.822,2.964,2.964,0,0,1,.967,2.263v4.377a5.351,5.351,0,0,0,.334,2.083V17Zm-2.7-1.239a2.858,2.858,0,0,0,1.45-.4,2.392,2.392,0,0,0,.993-1.028V12.386h-1.274q-2.988,0-2.988,1.749a1.48,1.48,0,0,0,.51,1.2A1.959,1.959,0,0,0,117.3,15.761ZM46.793,40.849a2.342,2.342,0,0,0,1.521-.527A1.855,1.855,0,0,0,49.034,39h1.538a2.949,2.949,0,0,1-.562,1.556,3.7,3.7,0,0,1-1.384,1.178,3.994,3.994,0,0,1-1.833.439,3.918,3.918,0,0,1-3.089-1.3,5.163,5.163,0,0,1-1.147-3.546v-.272a5.725,5.725,0,0,1,.51-2.47,3.883,3.883,0,0,1,1.463-1.679,4.157,4.157,0,0,1,2.254-.6,3.814,3.814,0,0,1,2.659.958,3.424,3.424,0,0,1,1.129,2.487H49.034a2.241,2.241,0,0,0-.7-1.516,2.174,2.174,0,0,0-1.551-.593,2.276,2.276,0,0,0-1.92.892,4.19,4.19,0,0,0-.681,2.58v.308a4.106,4.106,0,0,0,.677,2.531A2.287,2.287,0,0,0,46.793,40.849Zm5.177-3.691a5.617,5.617,0,0,1,.549-2.514,4.1,4.1,0,0,1,1.529-1.723,4.163,4.163,0,0,1,2.237-.606,4.01,4.01,0,0,1,3.142,1.345,5.174,5.174,0,0,1,1.2,3.577v.114a5.666,5.666,0,0,1-.532,2.492,4.038,4.038,0,0,1-1.521,1.718,4.211,4.211,0,0,1-2.272.615,4,4,0,0,1-3.133-1.345,5.147,5.147,0,0,1-1.2-3.56Zm1.635.193a4.068,4.068,0,0,0,.734,2.54,2.487,2.487,0,0,0,3.933-.013A4.449,4.449,0,0,0,59,37.157a4.061,4.061,0,0,0-.743-2.536,2.361,2.361,0,0,0-1.973-.971,2.335,2.335,0,0,0-1.942.958A4.416,4.416,0,0,0,53.6,37.351Zm13.658-3.4a4.873,4.873,0,0,0-.8-.062,2.143,2.143,0,0,0-2.171,1.362V42H62.666V32.49h1.582l.026,1.1a2.532,2.532,0,0,1,2.268-1.274,1.661,1.661,0,0,1,.721.123Zm6.091,0a4.873,4.873,0,0,0-.8-.062,2.143,2.143,0,0,0-2.171,1.362V42H68.757V32.49h1.582l.026,1.1a2.532,2.532,0,0,1,2.268-1.274,1.661,1.661,0,0,1,.721.123Zm5.273,8.227a4.155,4.155,0,0,1-3.146-1.27,4.714,4.714,0,0,1-1.213-3.4v-.3a5.707,5.707,0,0,1,.541-2.527,4.217,4.217,0,0,1,1.512-1.74,3.8,3.8,0,0,1,2.1-.628,3.562,3.562,0,0,1,2.883,1.222,5.289,5.289,0,0,1,1.028,3.5v.677H75.894a3.38,3.38,0,0,0,.822,2.272,2.583,2.583,0,0,0,2,.866,2.832,2.832,0,0,0,1.459-.352,3.666,3.666,0,0,0,1.046-.932l.993.773A3.993,3.993,0,0,1,78.627,42.176Zm-.2-8.525a2.169,2.169,0,0,0-1.652.716,3.482,3.482,0,0,0-.826,2.008H80.71v-.123a3.1,3.1,0,0,0-.668-1.92A2.042,2.042,0,0,0,78.425,33.65Zm5.361,3.507a5.617,5.617,0,0,1,.549-2.514,4.1,4.1,0,0,1,1.529-1.723,4.163,4.163,0,0,1,2.237-.606,4.01,4.01,0,0,1,3.142,1.345,5.174,5.174,0,0,1,1.2,3.577v.114a5.666,5.666,0,0,1-.532,2.492,4.038,4.038,0,0,1-1.521,1.718,4.211,4.211,0,0,1-2.272.615,4,4,0,0,1-3.133-1.345,5.147,5.147,0,0,1-1.2-3.56Zm1.635.193a4.068,4.068,0,0,0,.734,2.54,2.487,2.487,0,0,0,3.933-.013,4.449,4.449,0,0,0,.729-2.72,4.061,4.061,0,0,0-.743-2.536A2.361,2.361,0,0,0,88.1,33.65a2.335,2.335,0,0,0-1.942.958A4.416,4.416,0,0,0,85.421,37.351Z" transform="translate(-2960 -2006)" fill="#12263f"/>
    <path id="Trazado_659652" data-name="Trazado 659652" d="M0,42,54,0" transform="translate(-3222 -2174)" fill="none" stroke="#afafaf" stroke-width="3"/>
    <path id="Trazado_659653" data-name="Trazado 659653" d="M0,0,54,43" transform="translate(-3222 -2119)" fill="none" stroke="#afafaf" stroke-width="3"/>
    <path id="Trazado_659654" data-name="Trazado 659654" d="M0,0H191.22" transform="translate(-2941.333 -2080.419)" fill="none" stroke="#afafaf" stroke-width="3"/>
    <path id="Trazado_659655" data-name="Trazado 659655" d="M8.683,0l8.683,14.97H0Z" transform="matrix(0.914, -0.407, 0.407, 0.914, -2985.452, -2052.676)" fill="#f4a338"/>
    <path id="Trazado_659656" data-name="Trazado 659656" d="M0,0,13,27" transform="translate(-2972 -2045)" fill="none" stroke="#f4a338" stroke-width="2" stroke-dasharray="3"/>
    <path id="Trazado_659657" data-name="Trazado 659657" d="M1.8-4.4,6.084-2.673v1.34L.492-3.924v-1L6.084-7.506v1.34Zm7.116,0L13.2-2.673v1.34L7.608-3.924v-1L13.2-7.506v1.34ZM17.555.144A2.4,2.4,0,0,1,15.446-.892a3.556,3.556,0,0,1-.455-2.663l.048-.3a4.626,4.626,0,0,1,1.3-2.659,3.152,3.152,0,0,1,2.239-1.019,2.142,2.142,0,0,1,1.948.911,3.377,3.377,0,0,1,.355,2.4l-.137.842H16.283a2.955,2.955,0,0,0,.208,1.795,1.278,1.278,0,0,0,1.227.666,3.141,3.141,0,0,0,1.128-.2,3.171,3.171,0,0,0,.916-.527l.376.876a3.383,3.383,0,0,1-1.066.65A4.064,4.064,0,0,1,17.555.144Zm.854-6.617A1.537,1.537,0,0,0,17.3-5.9a3.333,3.333,0,0,0-.769,1.422l.021.041h3.042l.027-.178a2.069,2.069,0,0,0-.157-1.343A1.1,1.1,0,0,0,18.409-6.474Zm6.357,1.8L26.612-7.4H28.15l-2.8,3.657L27.022,0H25.512L24.493-2.8,22.579,0H21.055l2.878-3.739L22.3-7.4h1.518Zm7.027-4.512L31.432-7.4H32.71l-.2,1H31.233l-.9,4.491a.979.979,0,0,0,.034.749.575.575,0,0,0,.485.195,2.832,2.832,0,0,0,.379-.031,3.14,3.14,0,0,0,.352-.065l-.007.923a1.813,1.813,0,0,1-.564.2A3.425,3.425,0,0,1,30.3.144a1.306,1.306,0,0,1-1.1-.506,1.892,1.892,0,0,1-.174-1.545l.9-4.491h-1.08l.2-1h1.08l.362-1.784ZM35.854.144A2.4,2.4,0,0,1,33.746-.892a3.556,3.556,0,0,1-.455-2.663l.048-.3a4.626,4.626,0,0,1,1.3-2.659,3.152,3.152,0,0,1,2.239-1.019,2.142,2.142,0,0,1,1.948.911,3.377,3.377,0,0,1,.355,2.4l-.137.842H34.583a2.955,2.955,0,0,0,.208,1.795,1.278,1.278,0,0,0,1.227.666,3.141,3.141,0,0,0,1.128-.2,3.171,3.171,0,0,0,.916-.527l.376.876a3.383,3.383,0,0,1-1.066.65A4.064,4.064,0,0,1,35.854.144Zm.854-6.617A1.537,1.537,0,0,0,35.6-5.9a3.333,3.333,0,0,0-.769,1.422l.021.041h3.042l.027-.178a2.069,2.069,0,0,0-.157-1.343A1.1,1.1,0,0,0,36.709-6.474Zm5.694.1a3.229,3.229,0,0,1,1.022-.858,2.617,2.617,0,0,1,1.227-.3,1.776,1.776,0,0,1,1.552.711,2.767,2.767,0,0,1,.219,2.153L45.486,0H44.167l.93-4.642a2.019,2.019,0,0,0-.055-1.418,1.149,1.149,0,0,0-1.012-.379,1.8,1.8,0,0,0-.95.291,2.928,2.928,0,0,0-.827.776L41.18,0H39.86l1.477-7.4H42.52ZM47.8-3.7A6.2,6.2,0,0,1,49.01-6.569a2.691,2.691,0,0,1,2.136-.964,2.227,2.227,0,0,1,1.029.236,2.007,2.007,0,0,1,.755.667l.807-4.033h1.319L52.924,0H51.789l.048-.711a2.824,2.824,0,0,1-.906.639,2.655,2.655,0,0,1-1.07.215A1.944,1.944,0,0,1,48.067-.923a3.721,3.721,0,0,1-.291-2.632Zm1.3.144a3.078,3.078,0,0,0,.089,1.89,1.228,1.228,0,0,0,1.23.714,1.485,1.485,0,0,0,.872-.27A2.708,2.708,0,0,0,52-1.989l.7-3.493a1.567,1.567,0,0,0-.537-.7,1.482,1.482,0,0,0-.892-.26,1.616,1.616,0,0,0-1.357.742,5.046,5.046,0,0,0-.783,2ZM59.247-1.966a.826.826,0,0,0-.185-.736,2.335,2.335,0,0,0-1.08-.491,4.118,4.118,0,0,1-1.774-.8,1.405,1.405,0,0,1-.42-1.367,2.38,2.38,0,0,1,.964-1.555,3.168,3.168,0,0,1,1.976-.619,2.337,2.337,0,0,1,1.791.67,1.746,1.746,0,0,1,.451,1.606l-.021.041H59.685a1.073,1.073,0,0,0-.219-.878,1.082,1.082,0,0,0-.9-.379,1.508,1.508,0,0,0-1,.319,1.213,1.213,0,0,0-.451.758.768.768,0,0,0,.161.7,2.464,2.464,0,0,0,1.07.446,4.06,4.06,0,0,1,1.818.816,1.459,1.459,0,0,1,.417,1.382,2.353,2.353,0,0,1-1,1.607,3.459,3.459,0,0,1-2.051.59A2.513,2.513,0,0,1,55.59-.581a1.806,1.806,0,0,1-.479-1.668l.014-.041H56.39A1.093,1.093,0,0,0,56.7-1.246a1.508,1.508,0,0,0,1,.33,1.811,1.811,0,0,0,1.049-.293A1.112,1.112,0,0,0,59.247-1.966Zm7.588-2.478L62.316-6.214v-1.3l5.838,2.584v1L62.316-1.34V-2.652Zm7.314,0L69.631-6.214v-1.3l5.838,2.584v1L69.631-1.34V-2.652Z" transform="translate(-2955 -2037)" fill="#12263f"/>
  </g>
</svg>
