<svg xmlns="http://www.w3.org/2000/svg" width="118.252" height="43.32" viewBox="0 0 118.252 43.32">
  <g id="Grupo_986120" data-name="Grupo 986120" transform="translate(5626.297 3711.234)">
    <path id="Trazado_659621" data-name="Trazado 659621" d="M2.578-6.289,8.691-3.818V-1.9L.7-5.605V-7.031l7.988-3.691v1.914Zm10.166,0,6.113,2.471V-1.9l-7.988-3.7V-7.031l7.988-3.691v1.914ZM22.861,0H20.977l2.109-10.566h1.885Zm2.656-13.271H23.633l.391-1.963h1.885Zm3.789,4.16a4.613,4.613,0,0,1,1.46-1.226,3.739,3.739,0,0,1,1.753-.425,2.537,2.537,0,0,1,2.217,1.016,3.952,3.952,0,0,1,.313,3.076L33.711,0H31.826l1.328-6.631a2.885,2.885,0,0,0-.078-2.026A1.641,1.641,0,0,0,31.631-9.2a2.566,2.566,0,0,0-1.357.415,4.183,4.183,0,0,0-1.182,1.108L27.559,0H25.674l2.109-10.566h1.689Zm11.465,7.8A2.59,2.59,0,0,0,42.378-1.9a2.241,2.241,0,0,0,.9-1.438h1.689l.02.059A3.706,3.706,0,0,1,43.467-.825a4.67,4.67,0,0,1-2.93,1.03A3.289,3.289,0,0,1,37.52-1.318a5.315,5.315,0,0,1-.586-3.76L37-5.488a6.982,6.982,0,0,1,1.733-3.8,4.636,4.636,0,0,1,3.55-1.47,3.3,3.3,0,0,1,2.632,1.1,3.055,3.055,0,0,1,.659,2.69l-.02.049H43.848a2.09,2.09,0,0,0-.332-1.67,1.727,1.727,0,0,0-1.465-.654,2.481,2.481,0,0,0-2.119,1.1A6.1,6.1,0,0,0,38.9-5.493l-.068.41a5.388,5.388,0,0,0,.137,2.726A1.714,1.714,0,0,0,40.771-1.309ZM48.408,0H46.523L49.57-15.234h1.885Zm9.15,0,.166-1.445A4.385,4.385,0,0,1,56.3-.215a3.678,3.678,0,0,1-1.743.42A2.483,2.483,0,0,1,52.319-.918a4.665,4.665,0,0,1-.269-3.418l1.24-6.23h1.885l-1.25,6.25a4.073,4.073,0,0,0-.039,2.378,1.352,1.352,0,0,0,1.3.581,2.981,2.981,0,0,0,1.577-.43,3.7,3.7,0,0,0,1.2-1.191l1.514-7.588h1.885L59.248,0Zm5.01-5.283a8.864,8.864,0,0,1,1.724-4.1,3.845,3.845,0,0,1,3.052-1.377,3.182,3.182,0,0,1,1.47.337,2.867,2.867,0,0,1,1.079.952l1.152-5.762H72.93L69.883,0H68.262l.068-1.016A4.034,4.034,0,0,1,67.036-.1a3.793,3.793,0,0,1-1.528.308,2.778,2.778,0,0,1-2.563-1.523,5.316,5.316,0,0,1-.415-3.76Zm1.855.205a4.4,4.4,0,0,0,.127,2.7,1.755,1.755,0,0,0,1.758,1.021,2.121,2.121,0,0,0,1.245-.386,3.868,3.868,0,0,0,1.011-1.1l1-4.99a2.239,2.239,0,0,0-.767-1A2.116,2.116,0,0,0,67.52-9.2a2.309,2.309,0,0,0-1.938,1.06,7.209,7.209,0,0,0-1.118,2.856ZM76.875.205a3.424,3.424,0,0,1-3.013-1.479,5.08,5.08,0,0,1-.649-3.8l.068-.43a6.608,6.608,0,0,1,1.851-3.8,4.5,4.5,0,0,1,3.2-1.455,3.06,3.06,0,0,1,2.783,1.3,4.824,4.824,0,0,1,.508,3.433l-.2,1.2H75.059a4.221,4.221,0,0,0,.3,2.564,1.826,1.826,0,0,0,1.753.952A4.488,4.488,0,0,0,78.721-1.6a4.53,4.53,0,0,0,1.309-.753L80.566-1.1a4.832,4.832,0,0,1-1.523.929A5.806,5.806,0,0,1,76.875.205ZM78.1-9.248a2.2,2.2,0,0,0-1.587.82A4.761,4.761,0,0,0,75.41-6.4l.029.059h4.346l.039-.254A2.956,2.956,0,0,0,79.6-8.511,1.568,1.568,0,0,0,78.1-9.248Zm11.768,2.9L83.408-8.877v-1.855l8.34,3.691v1.426l-8.34,3.7V-3.789Zm10.449,0L93.857-8.877v-1.855l8.34,3.691v1.426l-8.34,3.7V-3.789ZM14.461,23.643H1.414V22.168H14.461Zm15.615,0H17.029V22.168H30.076Zm15.615,0H32.645V22.168H45.691Zm15.615,0H48.26V22.168H61.306Zm15.615,0H63.875V22.168H76.922Zm15.615,0H79.49V22.168H92.537Zm15.615,0H95.105V22.168h13.047Zm8.918.01-6.455-2.529V19.268l8.34,3.691v1.426l-8.34,3.7V26.211Z" transform="translate(-5627 -3696)" fill="#12263f"/>
  </g>
</svg>
