<?xml version="1.0" encoding="utf-8"?>
<!-- Generator: Adobe Illustrator 27.1.1, SVG Export Plug-In . SVG Version: 6.00 Build 0)  -->
<svg version="1.1" id="Layer_1" xmlns="http://www.w3.org/2000/svg" xmlns:xlink="http://www.w3.org/1999/xlink" x="0px" y="0px"
	 viewBox="0 0 1022.3 285" style="enable-background:new 0 0 1022.3 285;" xml:space="preserve">
<style type="text/css">
	.st0{fill:none;}
	.st1{fill:none;stroke:#2E8B85;stroke-width:3;}
	.st2{fill:none;stroke:#4ADBD1;stroke-width:3;}
	.st3{fill:#12263F;}
	.st4{fill:none;stroke:#AFAFAF;stroke-width:3;}
</style>
<g>
	<g id="Grupo_986117" transform="translate(-283.852 -5953)">
		<g id="Grupo_141428" transform="translate(-758 2635)">
			<g id="Elipse_4826" transform="translate(1046 3356)">
				<ellipse class="st0" cx="34.5" cy="35" rx="34.5" ry="35"/>
				<ellipse class="st1" cx="34.5" cy="35" rx="33" ry="33.5"/>
			</g>
			<line id="Línea_235" class="st1" x1="1080" y1="3504" x2="1080" y2="3426"/>
			<line id="Línea_236" class="st1" x1="1043" y1="3548" x2="1080" y2="3504"/>
			<line id="Línea_237" class="st1" x1="1118" y1="3548" x2="1080" y2="3504"/>
			<line id="Línea_238" class="st1" x1="1045.9" y1="3459.8" x2="1115.7" y2="3459.8"/>
		</g>
		<g id="Grupo_141430" transform="translate(187 2635)">
			<g id="Elipse_4826-2" transform="translate(1046 3356)">
				<ellipse class="st0" cx="34.5" cy="35" rx="34.5" ry="35"/>
				<ellipse class="st2" cx="34.5" cy="35" rx="33" ry="33.5"/>
			</g>
			<line id="Línea_235-2" class="st2" x1="1080" y1="3504" x2="1080" y2="3426"/>
			<line id="Línea_236-2" class="st2" x1="1043" y1="3548" x2="1080" y2="3504"/>
			<line id="Línea_237-2" class="st2" x1="1118" y1="3548" x2="1080" y2="3504"/>
			<line id="Línea_238-2" class="st2" x1="1045.9" y1="3459.8" x2="1115.7" y2="3459.8"/>
		</g>
		<g id="Trazado_659594" transform="translate(495 5953)">
			<path class="st0" d="M0,0h610v285H0V0z"/>
			<path class="st3" d="M3,3v279h604V3H3 M0,0h610v285H0V0z"/>
		</g>
		<g id="Trazado_659595" transform="translate(643 5978)">
			<path class="st0" d="M157.5,0C244.5,0,315,21.5,315,48s-70.5,48-157.5,48S0,74.5,0,48S70.5,0,157.5,0z"/>
			<path class="st3" d="M157.5,3c-21.1,0-41.6,1.3-60.9,3.7C87.3,7.9,78.4,9.4,70,11.1c-8.2,1.7-16,3.6-23,5.8
				c-7,2.1-13.4,4.5-18.9,7c-5.5,2.5-10.2,5.1-14,7.9c-3.7,2.7-6.6,5.5-8.4,8.2C3.9,42.7,3,45.3,3,48s0.9,5.3,2.7,8
				c1.9,2.8,4.7,5.6,8.4,8.2c3.8,2.7,8.5,5.4,14,7.9c5.5,2.5,11.9,4.8,18.9,7c7,2.1,14.8,4.1,23,5.8c8.3,1.7,17.3,3.2,26.5,4.4
				c19.3,2.5,39.8,3.7,60.9,3.7s41.6-1.3,60.9-3.7c9.3-1.2,18.2-2.7,26.5-4.4c8.2-1.7,16-3.6,23-5.8c7-2.1,13.4-4.5,18.9-7
				c5.5-2.5,10.2-5.1,14-7.9c3.7-2.7,6.6-5.5,8.4-8.2c1.8-2.7,2.7-5.4,2.7-8s-0.9-5.3-2.7-8c-1.9-2.8-4.7-5.6-8.4-8.2
				c-3.8-2.7-8.5-5.4-14-7.9c-5.5-2.5-11.9-4.8-18.9-7c-7-2.1-14.8-4.1-23-5.8c-8.3-1.7-17.3-3.2-26.5-4.4
				C199.1,4.3,178.6,3,157.5,3 M157.5,0C244.5,0,315,21.5,315,48s-70.5,48-157.5,48S0,74.5,0,48S70.5,0,157.5,0z"/>
		</g>
		<g id="Trazado_659596" transform="translate(643 6112)">
			<path class="st0" d="M157.5,0C244.5,0,315,21.5,315,48s-70.5,48-157.5,48S0,74.5,0,48S70.5,0,157.5,0z"/>
			<path class="st3" d="M157.5,3c-21.1,0-41.6,1.3-60.9,3.7C87.3,7.9,78.4,9.4,70,11.1c-8.2,1.7-16,3.6-23,5.8
				c-7,2.1-13.4,4.5-18.9,7c-5.5,2.5-10.2,5.1-14,7.9c-3.7,2.7-6.6,5.5-8.4,8.2C3.9,42.7,3,45.3,3,48s0.9,5.3,2.7,8
				c1.9,2.8,4.7,5.6,8.4,8.2c3.8,2.7,8.5,5.4,14,7.9c5.5,2.5,11.9,4.8,18.9,7c7,2.1,14.8,4.1,23,5.8c8.3,1.7,17.3,3.2,26.5,4.4
				c19.3,2.5,39.8,3.7,60.9,3.7s41.6-1.3,60.9-3.7c9.3-1.2,18.2-2.7,26.5-4.4c8.2-1.7,16-3.6,23-5.8c7-2.1,13.4-4.5,18.9-7
				c5.5-2.5,10.2-5.1,14-7.9c3.7-2.7,6.6-5.5,8.4-8.2c1.8-2.7,2.7-5.4,2.7-8s-0.9-5.3-2.7-8c-1.9-2.8-4.7-5.6-8.4-8.2
				c-3.8-2.7-8.5-5.4-14-7.9c-5.5-2.5-11.9-4.8-18.9-7c-7-2.1-14.8-4.1-23-5.8c-8.3-1.7-17.3-3.2-26.5-4.4
				C199.1,4.3,178.6,3,157.5,3 M157.5,0C244.5,0,315,21.5,315,48s-70.5,48-157.5,48S0,74.5,0,48S70.5,0,157.5,0z"/>
		</g>
		<path id="Trazado_659597" class="st3" d="M758.9,6029.3c-0.5,0.6-1.1,1.1-1.8,1.4c-0.9,0.3-1.8,0.5-2.7,0.5c-1,0-1.9-0.2-2.8-0.7
			c-0.8-0.5-1.5-1.2-1.9-2.1c-0.5-1-0.7-2.1-0.7-3.1v-1.1c-0.1-1.6,0.4-3.2,1.3-4.5c1-1.1,2.4-1.7,3.8-1.6c1.2-0.1,2.3,0.3,3.2,1
			c0.8,0.7,1.4,1.8,1.5,2.9h-1.7c-0.1-1.5-1.5-2.7-3-2.5c0,0,0,0,0,0c-1-0.1-2,0.4-2.6,1.2c-0.6,1-1,2.2-0.9,3.5v1
			c-0.1,1.2,0.3,2.4,1,3.4c0.6,0.8,1.6,1.3,2.7,1.3c0.6,0,1.1-0.1,1.7-0.2c0.4-0.1,0.9-0.4,1.2-0.7v-2.9h-3v-1.4h4.6V6029.3z
			 M765.4,6031.2c-1.2,0-2.3-0.4-3.1-1.3c-0.8-0.9-1.3-2.2-1.2-3.4v-0.3c0-0.9,0.2-1.7,0.5-2.5c0.3-0.7,0.9-1.3,1.5-1.7
			c0.6-0.4,1.4-0.6,2.1-0.6c1.1-0.1,2.2,0.4,2.9,1.2c0.7,1,1.1,2.2,1,3.5v0.7h-6.4c0,0.8,0.3,1.6,0.8,2.3c0.5,0.6,1.2,0.9,2,0.9
			c0.5,0,1-0.1,1.5-0.4c0.4-0.2,0.8-0.6,1-0.9l1,0.8C768.2,6030.6,766.9,6031.3,765.4,6031.2L765.4,6031.2z M765.2,6022.6
			c-0.6,0-1.2,0.2-1.7,0.7c-0.5,0.6-0.8,1.3-0.8,2h4.8v-0.1c0-0.7-0.2-1.4-0.7-1.9C766.4,6022.9,765.8,6022.6,765.2,6022.6
			L765.2,6022.6z M772.6,6021.5l0.1,1.2c0.7-0.9,1.7-1.4,2.8-1.4c2,0,3,1.1,3,3.4v6.3h-1.6v-6.3c0-0.5-0.1-1.1-0.5-1.5
			c-0.4-0.4-0.9-0.5-1.4-0.5c-0.5,0-1,0.1-1.4,0.4c-0.4,0.3-0.7,0.7-0.9,1.1v6.8H771v-9.5H772.6z M784.9,6031.2
			c-1.2,0-2.3-0.4-3.1-1.3c-0.8-0.9-1.3-2.2-1.2-3.4v-0.3c0-0.9,0.2-1.7,0.5-2.5c0.3-0.7,0.9-1.3,1.5-1.7c0.6-0.4,1.4-0.6,2.1-0.6
			c1.1-0.1,2.2,0.4,2.9,1.2c0.7,1,1.1,2.2,1,3.5v0.7h-6.4c0,0.8,0.3,1.6,0.8,2.3c0.5,0.6,1.2,0.9,2,0.9c0.5,0,1-0.1,1.5-0.4
			c0.4-0.2,0.8-0.6,1-0.9l1,0.8C787.7,6030.6,786.3,6031.3,784.9,6031.2L784.9,6031.2z M784.7,6022.6c-0.6,0-1.2,0.2-1.7,0.7
			c-0.5,0.6-0.8,1.3-0.8,2h4.8v-0.1c0-0.7-0.2-1.4-0.7-1.9C785.9,6022.9,785.3,6022.6,784.7,6022.6z M795.1,6023
			c-0.3,0-0.5-0.1-0.8-0.1c-0.9-0.1-1.8,0.5-2.2,1.4v6.8h-1.6v-9.5h1.6l0,1.1c0.5-0.8,1.3-1.3,2.3-1.3c0.2,0,0.5,0,0.7,0.1
			L795.1,6023z M802.1,6031c-0.1-0.3-0.2-0.7-0.2-1c-0.7,0.8-1.7,1.2-2.7,1.2c-0.8,0-1.7-0.3-2.3-0.8c-0.6-0.5-0.9-1.2-0.9-2
			c0-0.9,0.4-1.8,1.1-2.3c0.9-0.6,2.1-0.9,3.2-0.8h1.6v-0.7c0-0.5-0.2-1-0.5-1.4c-0.4-0.4-1-0.5-1.5-0.5c-0.5,0-1,0.1-1.5,0.4
			c-0.4,0.2-0.6,0.6-0.6,1.1h-1.6c0-0.5,0.2-1,0.5-1.4c0.4-0.5,0.8-0.8,1.4-1c0.6-0.3,1.2-0.4,1.9-0.4c0.9-0.1,1.8,0.2,2.6,0.8
			c0.6,0.6,1,1.4,1,2.3v4.4c0,0.7,0.1,1.4,0.3,2.1v0.1H802.1z M799.4,6029.8c0.5,0,1-0.1,1.4-0.4c0.4-0.2,0.8-0.6,1-1v-1.9h-1.3
			c-2,0-3,0.6-3,1.7c0,0.5,0.2,0.9,0.5,1.2C798.5,6029.6,798.9,6029.8,799.4,6029.8L799.4,6029.8z M810.6,6022.9
			c-0.3,0-0.5-0.1-0.8-0.1c-0.9-0.1-1.8,0.5-2.2,1.4v6.8H806v-9.5h1.6l0,1.1c0.5-0.8,1.3-1.3,2.3-1.3c0.2,0,0.5,0,0.7,0.1
			L810.6,6022.9z M817.4,6031v-8.3h-1.5v-1.3h1.5v-1c-0.1-0.9,0.2-1.7,0.8-2.4c0.6-0.6,1.5-0.9,2.3-0.8c0.4,0,0.8,0,1.1,0.1
			l-0.1,1.3c-0.3-0.1-0.6-0.1-0.9-0.1c-0.5,0-0.9,0.1-1.2,0.5c-0.3,0.4-0.5,0.8-0.4,1.3v1h2v1.3h-2v8.3H817.4z M828.7,6031
			c-0.1-0.3-0.2-0.7-0.2-1c-0.7,0.8-1.7,1.2-2.7,1.2c-0.8,0-1.7-0.3-2.3-0.8c-0.6-0.5-0.9-1.2-0.9-2c0-0.9,0.4-1.8,1.1-2.3
			c0.9-0.6,2.1-0.9,3.2-0.8h1.6v-0.7c0-0.5-0.2-1-0.5-1.4c-0.4-0.4-1-0.5-1.5-0.5c-0.5,0-1,0.1-1.5,0.4c-0.4,0.2-0.6,0.6-0.6,1.1
			h-1.6c0-0.5,0.2-1,0.5-1.4c0.4-0.5,0.8-0.8,1.4-1c0.6-0.3,1.2-0.4,1.9-0.4c0.9-0.1,1.8,0.2,2.6,0.8c0.6,0.6,1,1.4,1,2.3v4.4
			c0,0.7,0.1,1.4,0.3,2.1v0.1H828.7z M826,6029.8c0.5,0,1-0.1,1.5-0.4c0.4-0.2,0.8-0.6,1-1v-1.9h-1.3c-2,0-3,0.6-3,1.7
			c0,0.5,0.2,0.9,0.5,1.2C825.1,6029.6,825.5,6029.8,826,6029.8L826,6029.8z M836.4,6029.8c0.6,0,1.1-0.2,1.5-0.5
			c0.4-0.3,0.7-0.8,0.7-1.3h1.5c0,0.6-0.2,1.1-0.6,1.6c-0.4,0.5-0.8,0.9-1.4,1.2c-0.6,0.3-1.2,0.4-1.8,0.4c-1.2,0.1-2.3-0.4-3.1-1.3
			c-0.8-1-1.2-2.3-1.1-3.5v-0.3c0-0.9,0.2-1.7,0.5-2.5c0.3-0.7,0.8-1.3,1.5-1.7c0.7-0.4,1.5-0.6,2.3-0.6c1,0,1.9,0.3,2.7,1
			c0.7,0.6,1.1,1.5,1.1,2.5h-1.5c0-0.6-0.3-1.1-0.7-1.5c-0.4-0.4-1-0.6-1.6-0.6c-0.7,0-1.5,0.3-1.9,0.9c-0.5,0.8-0.7,1.7-0.7,2.6
			v0.3c-0.1,0.9,0.2,1.8,0.7,2.5C835,6029.6,835.7,6029.9,836.4,6029.8L836.4,6029.8z M844.2,6019.2v2.3h1.8v1.3h-1.8v5.9
			c0,0.3,0.1,0.6,0.2,0.9c0.2,0.2,0.5,0.3,0.8,0.3c0.3,0,0.5,0,0.8-0.1v1.3c-0.4,0.1-0.8,0.2-1.2,0.2c-0.6,0-1.2-0.2-1.6-0.7
			c-0.4-0.5-0.6-1.2-0.6-1.9v-5.9h-1.7v-1.3h1.7v-2.3L844.2,6019.2z M853.8,6030.1c-0.7,0.8-1.7,1.2-2.8,1.1
			c-0.9,0.1-1.7-0.3-2.3-0.9c-0.6-0.7-0.9-1.7-0.8-2.6v-6.2h1.6v6.1c0,1.4,0.6,2.2,1.8,2.2c1,0.1,2-0.4,2.5-1.4v-6.9h1.6v9.5h-1.5
			L853.8,6030.1z M862.4,6023c-0.3,0-0.5-0.1-0.8-0.1c-0.9-0.1-1.8,0.5-2.2,1.4v6.8h-1.6v-9.5h1.6l0,1.1c0.5-0.8,1.3-1.3,2.3-1.3
			c0.2,0,0.5,0,0.7,0.1V6023z M869.4,6031c-0.1-0.3-0.2-0.7-0.2-1c-0.7,0.8-1.7,1.2-2.7,1.2c-0.8,0-1.7-0.3-2.3-0.8
			c-0.6-0.5-0.9-1.2-0.9-2c0-0.9,0.4-1.8,1.1-2.3c0.9-0.6,2.1-0.9,3.2-0.8h1.6v-0.7c0-0.5-0.2-1-0.5-1.4c-0.4-0.4-1-0.5-1.5-0.5
			c-0.5,0-1,0.1-1.5,0.4c-0.4,0.2-0.6,0.6-0.6,1.1h-1.6c0-0.5,0.2-1,0.5-1.4c0.4-0.5,0.8-0.8,1.4-1c0.6-0.3,1.2-0.4,1.9-0.4
			c0.9-0.1,1.8,0.2,2.6,0.8c0.6,0.6,1,1.4,1,2.3v4.4c0,0.7,0.1,1.4,0.3,2.1v0.1H869.4z M866.7,6029.8c0.5,0,1-0.1,1.5-0.4
			c0.4-0.2,0.8-0.6,1-1v-1.9h-1.3c-2,0-3,0.6-3,1.7c0,0.5,0.2,0.9,0.5,1.2C865.8,6029.6,866.3,6029.8,866.7,6029.8L866.7,6029.8z"/>
		<path id="Trazado_659598" class="st3" d="M756.7,6161.1h-5.5v4.5h6.4v1.4h-8.1v-12.8h8v1.4h-6.4v4.1h5.5V6161.1z M761,6157.5
			l0.1,1.2c0.7-0.9,1.7-1.4,2.8-1.4c2,0,3,1.1,3,3.4v6.3h-1.6v-6.3c0-0.5-0.1-1.1-0.5-1.5c-0.4-0.4-0.9-0.5-1.4-0.5
			c-0.5,0-1,0.1-1.4,0.4c-0.4,0.3-0.7,0.7-0.9,1.1v6.8h-1.6v-9.5H761z M772.5,6164.8l2.4-7.3h1.7l-3.4,9.5h-1.2l-3.4-9.5h1.7
			L772.5,6164.8z M779.9,6167h-1.6v-9.5h1.6V6167z M778.1,6155c0-0.2,0.1-0.5,0.2-0.7c0.2-0.2,0.4-0.3,0.7-0.3
			c0.3,0,0.5,0.1,0.7,0.3c0.2,0.2,0.3,0.4,0.2,0.7c0,0.2-0.1,0.5-0.2,0.7c-0.2,0.2-0.5,0.3-0.7,0.3c-0.3,0-0.5-0.1-0.7-0.3
			C778.2,6155.4,778.1,6155.2,778.1,6155z M788.4,6167c-0.1-0.3-0.2-0.7-0.2-1c-0.7,0.8-1.7,1.2-2.7,1.2c-0.8,0-1.7-0.3-2.3-0.8
			c-0.6-0.5-0.9-1.2-0.9-2c0-0.9,0.4-1.8,1.1-2.3c0.9-0.6,2.1-0.9,3.2-0.8h1.6v-0.7c0-0.5-0.2-1-0.5-1.4c-0.4-0.4-1-0.5-1.5-0.5
			c-0.5,0-1,0.1-1.5,0.4c-0.4,0.2-0.6,0.6-0.6,1.1h-1.6c0-0.5,0.2-1,0.5-1.4c0.4-0.5,0.8-0.8,1.4-1c0.6-0.3,1.2-0.4,1.9-0.4
			c0.9-0.1,1.8,0.2,2.6,0.8c0.6,0.6,1,1.4,1,2.3v4.4c0,0.7,0.1,1.4,0.3,2.1v0.1H788.4z M785.7,6165.8c0.5,0,1-0.1,1.5-0.4
			c0.4-0.2,0.8-0.6,1-1v-1.9h-1.3c-2,0-3,0.6-3,1.7c0,0.5,0.2,0.9,0.5,1.2C784.7,6165.6,785.2,6165.8,785.7,6165.8L785.7,6165.8z
			 M796.9,6158.9c-0.3,0-0.5-0.1-0.8-0.1c-0.9-0.1-1.8,0.5-2.2,1.4v6.8h-1.6v-9.5h1.6l0,1.1c0.5-0.8,1.3-1.3,2.3-1.3
			c0.2,0,0.5,0,0.7,0.1L796.9,6158.9z M803.6,6167v-8.3h-1.5v-1.3h1.5v-1c-0.1-0.9,0.2-1.7,0.8-2.4c0.6-0.6,1.5-0.9,2.3-0.8
			c0.4,0,0.8,0,1.1,0.1l-0.1,1.3c-0.3-0.1-0.6-0.1-0.9-0.1c-0.5,0-0.9,0.1-1.2,0.5c-0.3,0.4-0.5,0.8-0.4,1.3v1h2v1.3h-2v8.3H803.6z
			 M814.9,6167c-0.1-0.3-0.2-0.7-0.2-1c-0.7,0.8-1.7,1.2-2.7,1.2c-0.8,0-1.7-0.3-2.3-0.8c-0.6-0.5-0.9-1.2-0.9-2
			c0-0.9,0.4-1.8,1.1-2.3c0.9-0.6,2.1-0.9,3.2-0.8h1.6v-0.7c0-0.5-0.2-1-0.5-1.4c-0.4-0.4-1-0.5-1.5-0.5c-0.5,0-1,0.1-1.5,0.4
			c-0.4,0.2-0.6,0.6-0.6,1.1H809c0-0.5,0.2-1,0.5-1.4c0.4-0.5,0.8-0.8,1.4-1c0.6-0.3,1.2-0.4,1.9-0.4c0.9-0.1,1.8,0.2,2.6,0.8
			c0.6,0.6,1,1.4,1,2.3v4.4c0,0.7,0.1,1.4,0.3,2.1v0.1H814.9z M812.2,6165.8c0.5,0,1-0.1,1.5-0.4c0.4-0.2,0.8-0.6,1-1v-1.9h-1.3
			c-2,0-3,0.6-3,1.7c0,0.5,0.2,0.9,0.5,1.2C811.3,6165.6,811.8,6165.8,812.2,6165.8L812.2,6165.8z M822.7,6165.8
			c0.6,0,1.1-0.2,1.5-0.5c0.4-0.3,0.7-0.8,0.7-1.3h1.5c0,0.6-0.2,1.1-0.6,1.6c-0.4,0.5-0.8,0.9-1.4,1.2c-0.6,0.3-1.2,0.4-1.8,0.4
			c-1.2,0.1-2.3-0.4-3.1-1.3c-0.8-1-1.2-2.3-1.1-3.5v-0.3c0-0.9,0.2-1.7,0.5-2.5c0.3-0.7,0.8-1.3,1.5-1.7c0.7-0.4,1.5-0.6,2.3-0.6
			c1,0,1.9,0.3,2.7,1c0.7,0.6,1.1,1.5,1.1,2.5h-1.5c0-0.6-0.3-1.1-0.7-1.5c-0.4-0.4-1-0.6-1.6-0.6c-0.7,0-1.5,0.3-1.9,0.9
			c-0.5,0.8-0.7,1.7-0.7,2.6v0.3c-0.1,0.9,0.2,1.8,0.7,2.5C821.2,6165.6,821.9,6165.9,822.7,6165.8L822.7,6165.8z M830.5,6155.2v2.3
			h1.8v1.3h-1.8v5.9c0,0.3,0.1,0.6,0.2,0.9c0.2,0.2,0.5,0.3,0.8,0.3c0.3,0,0.5,0,0.8-0.1v1.3c-0.4,0.1-0.8,0.2-1.2,0.2
			c-0.6,0-1.2-0.2-1.6-0.7c-0.4-0.5-0.6-1.2-0.6-1.9v-5.9h-1.7v-1.3h1.7v-2.3L830.5,6155.2z M840,6166.1c-0.7,0.8-1.7,1.2-2.8,1.1
			c-0.9,0.1-1.7-0.3-2.3-0.9c-0.6-0.7-0.9-1.7-0.8-2.6v-6.2h1.6v6.1c0,1.4,0.6,2.2,1.8,2.2c1,0.1,2-0.4,2.5-1.4v-6.9h1.6v9.5h-1.5
			L840,6166.1z M848.7,6159c-0.3,0-0.5-0.1-0.8-0.1c-0.9-0.1-1.8,0.5-2.2,1.4v6.8h-1.6v-9.5h1.6l0,1.1c0.5-0.8,1.3-1.3,2.3-1.3
			c0.2,0,0.5,0,0.7,0.1L848.7,6159z M855.7,6167c-0.1-0.3-0.2-0.7-0.2-1c-0.7,0.8-1.7,1.2-2.7,1.2c-0.8,0-1.7-0.3-2.3-0.8
			c-0.6-0.5-0.9-1.2-0.9-2c0-0.9,0.4-1.8,1.1-2.3c0.9-0.6,2.1-0.9,3.2-0.8h1.6v-0.7c0-0.5-0.2-1-0.5-1.4c-0.4-0.4-1-0.5-1.5-0.5
			c-0.5,0-1,0.1-1.5,0.4c-0.4,0.2-0.6,0.6-0.6,1.1h-1.6c0-0.5,0.2-1,0.5-1.4c0.4-0.5,0.8-0.8,1.4-1c0.6-0.3,1.2-0.4,1.9-0.4
			c0.9-0.1,1.8,0.2,2.6,0.8c0.6,0.6,1,1.4,1,2.3v4.4c0,0.7,0.1,1.4,0.3,2.1v0.1H855.7z M853,6165.8c0.5,0,1-0.1,1.5-0.4
			c0.4-0.2,0.8-0.6,1-1v-1.9h-1.3c-2,0-3,0.6-3,1.7c0,0.5,0.2,0.9,0.5,1.2C852.1,6165.6,852.5,6165.8,853,6165.8L853,6165.8z"/>
		<path id="Trazado_659599" class="st4" d="M370,6080l273-54"/>
		<path id="Trazado_659600" class="st4" d="M370,6096l125,44"/>
		<path id="Trazado_659601" class="st4" d="M1105,6106h105"/>
	</g>
	<g>
		<path class="st3" d="M55.5,259.5c-0.2,1.5-0.7,2.7-1.7,3.5c-0.9,0.8-2.2,1.2-3.7,1.2c-1.7,0-3-0.6-4-1.8c-1-1.2-1.5-2.8-1.5-4.8
			v-1.4c0-1.3,0.2-2.5,0.7-3.5c0.5-1,1.1-1.8,2-2.3c0.9-0.5,1.9-0.8,3-0.8c1.5,0,2.7,0.4,3.6,1.3c0.9,0.8,1.4,2,1.6,3.5h-1.9
			c-0.2-1.1-0.5-1.9-1.1-2.5c-0.5-0.5-1.3-0.8-2.3-0.8c-1.2,0-2.1,0.4-2.8,1.3c-0.7,0.9-1,2.1-1,3.8v1.4c0,1.5,0.3,2.8,1,3.7
			s1.5,1.4,2.7,1.4c1,0,1.8-0.2,2.4-0.7c0.6-0.5,0.9-1.3,1.1-2.5H55.5z"/>
		<path class="st3" d="M57.3,258.6c0-1,0.2-2,0.6-2.8c0.4-0.8,1-1.5,1.7-1.9c0.7-0.4,1.5-0.7,2.5-0.7c1.4,0,2.6,0.5,3.5,1.5
			c0.9,1,1.3,2.3,1.3,4v0.1c0,1-0.2,1.9-0.6,2.8c-0.4,0.8-1,1.4-1.7,1.9s-1.6,0.7-2.5,0.7c-1.4,0-2.6-0.5-3.5-1.5
			c-0.9-1-1.3-2.3-1.3-3.9V258.6z M59.1,258.8c0,1.2,0.3,2.1,0.8,2.8c0.5,0.7,1.3,1.1,2.2,1.1c0.9,0,1.6-0.4,2.2-1.1
			c0.5-0.7,0.8-1.7,0.8-3c0-1.2-0.3-2.1-0.8-2.8c-0.5-0.7-1.3-1.1-2.2-1.1c-0.9,0-1.6,0.4-2.1,1.1S59.1,257.5,59.1,258.8z"/>
		<path class="st3" d="M70.8,253.5l0,1.2c0.8-0.9,1.8-1.4,3.1-1.4c1.5,0,2.5,0.6,3,1.7c0.4-0.5,0.8-0.9,1.4-1.2
			c0.6-0.3,1.2-0.5,2-0.5c2.3,0,3.5,1.2,3.5,3.7v7H82V257c0-0.8-0.2-1.3-0.5-1.7c-0.3-0.4-0.9-0.6-1.7-0.6c-0.7,0-1.2,0.2-1.7,0.6
			c-0.4,0.4-0.7,0.9-0.8,1.6v7h-1.8v-6.9c0-1.5-0.7-2.3-2.2-2.3c-1.2,0-2,0.5-2.4,1.5v7.7h-1.8v-10.5H70.8z"/>
		<path class="st3" d="M90.9,264.2c-1.4,0-2.6-0.5-3.5-1.4s-1.3-2.2-1.3-3.8v-0.3c0-1,0.2-2,0.6-2.8c0.4-0.8,1-1.5,1.7-1.9
			s1.5-0.7,2.3-0.7c1.4,0,2.4,0.5,3.2,1.4c0.8,0.9,1.1,2.2,1.1,3.9v0.7h-7.1c0,1,0.3,1.9,0.9,2.5s1.3,1,2.2,1c0.6,0,1.2-0.1,1.6-0.4
			s0.8-0.6,1.2-1l1.1,0.9C94,263.5,92.6,264.2,90.9,264.2z M90.7,254.7c-0.7,0-1.3,0.3-1.8,0.8c-0.5,0.5-0.8,1.3-0.9,2.2h5.3v-0.1
			c-0.1-0.9-0.3-1.6-0.7-2.1C92,255,91.4,254.7,90.7,254.7z"/>
		<path class="st3" d="M102.1,255.1c-0.3,0-0.6-0.1-0.9-0.1c-1.2,0-2,0.5-2.4,1.5v7.5h-1.8v-10.5h1.7l0,1.2c0.6-0.9,1.4-1.4,2.5-1.4
			c0.3,0,0.6,0,0.8,0.1V255.1z"/>
		<path class="st3" d="M107.8,262.7c0.6,0,1.2-0.2,1.7-0.6s0.7-0.9,0.8-1.5h1.7c0,0.6-0.2,1.2-0.6,1.7c-0.4,0.5-0.9,1-1.5,1.3
			c-0.6,0.3-1.3,0.5-2,0.5c-1.4,0-2.6-0.5-3.4-1.4c-0.8-1-1.3-2.3-1.3-3.9v-0.3c0-1,0.2-1.9,0.6-2.7s0.9-1.4,1.6-1.9
			s1.5-0.7,2.5-0.7c1.2,0,2.2,0.4,2.9,1.1s1.2,1.6,1.2,2.7h-1.7c-0.1-0.7-0.3-1.2-0.8-1.7c-0.5-0.4-1-0.7-1.7-0.7
			c-0.9,0-1.6,0.3-2.1,1s-0.8,1.6-0.8,2.9v0.3c0,1.2,0.2,2.1,0.7,2.8C106.2,262.4,106.9,262.7,107.8,262.7z"/>
		<path class="st3" d="M114,250.7c0-0.3,0.1-0.5,0.3-0.7c0.2-0.2,0.4-0.3,0.8-0.3s0.6,0.1,0.8,0.3c0.2,0.2,0.3,0.4,0.3,0.7
			c0,0.3-0.1,0.5-0.3,0.7c-0.2,0.2-0.4,0.3-0.8,0.3s-0.6-0.1-0.8-0.3S114,251,114,250.7z M116,264h-1.8v-10.5h1.8V264z"/>
		<path class="st3" d="M125.3,264c-0.1-0.2-0.2-0.6-0.3-1.1c-0.8,0.9-1.8,1.3-3,1.3c-1,0-1.9-0.3-2.5-0.9c-0.7-0.6-1-1.3-1-2.2
			c0-1.1,0.4-1.9,1.2-2.5c0.8-0.6,2-0.9,3.5-0.9h1.7v-0.8c0-0.6-0.2-1.1-0.6-1.5s-0.9-0.6-1.7-0.6c-0.6,0-1.2,0.2-1.6,0.5
			c-0.4,0.3-0.7,0.7-0.7,1.2h-1.8c0-0.5,0.2-1,0.6-1.5c0.4-0.5,0.9-0.9,1.5-1.2c0.6-0.3,1.3-0.4,2.1-0.4c1.2,0,2.2,0.3,2.8,0.9
			c0.7,0.6,1,1.4,1.1,2.5v4.8c0,1,0.1,1.7,0.4,2.3v0.2H125.3z M122.4,262.6c0.6,0,1.1-0.1,1.6-0.4c0.5-0.3,0.9-0.7,1.1-1.1v-2.2
			h-1.4c-2.2,0-3.3,0.6-3.3,1.9c0,0.6,0.2,1,0.6,1.3S121.8,262.6,122.4,262.6z"/>
		<path class="st3" d="M131.4,253.5l0.1,1.3c0.8-1,1.9-1.5,3.1-1.5c2.2,0,3.3,1.3,3.4,3.8v6.9h-1.8v-7c0-0.8-0.2-1.3-0.5-1.7
			c-0.3-0.4-0.9-0.5-1.6-0.5c-0.6,0-1.1,0.2-1.5,0.5s-0.8,0.7-1,1.2v7.5h-1.8v-10.5H131.4z"/>
		<path class="st3" d="M143.1,250.9v2.5h2v1.4h-2v6.5c0,0.4,0.1,0.7,0.3,0.9c0.2,0.2,0.5,0.3,0.9,0.3c0.2,0,0.5,0,0.9-0.1v1.4
			c-0.5,0.1-0.9,0.2-1.4,0.2c-0.8,0-1.4-0.2-1.8-0.7c-0.4-0.5-0.6-1.2-0.6-2.1v-6.5h-1.9v-1.4h1.9v-2.5H143.1z"/>
		<path class="st3" d="M151.5,264.2c-1.4,0-2.6-0.5-3.5-1.4s-1.3-2.2-1.3-3.8v-0.3c0-1,0.2-2,0.6-2.8c0.4-0.8,1-1.5,1.7-1.9
			s1.5-0.7,2.3-0.7c1.4,0,2.4,0.5,3.2,1.4c0.8,0.9,1.1,2.2,1.1,3.9v0.7h-7.1c0,1,0.3,1.9,0.9,2.5s1.3,1,2.2,1c0.6,0,1.2-0.1,1.6-0.4
			s0.8-0.6,1.2-1l1.1,0.9C154.6,263.5,153.3,264.2,151.5,264.2z M151.3,254.7c-0.7,0-1.3,0.3-1.8,0.8c-0.5,0.5-0.8,1.3-0.9,2.2h5.3
			v-0.1c-0.1-0.9-0.3-1.6-0.7-2.1C152.6,255,152,254.7,151.3,254.7z"/>
	</g>
	<g>
		<path class="st3" d="M862.7,257.7c-1.6-0.5-2.8-1-3.5-1.7s-1.1-1.5-1.1-2.5c0-1.1,0.4-2,1.3-2.8c0.9-0.7,2-1.1,3.5-1.1
			c1,0,1.8,0.2,2.6,0.6c0.8,0.4,1.4,0.9,1.8,1.6c0.4,0.7,0.6,1.4,0.6,2.2h-1.9c0-0.9-0.3-1.5-0.8-2c-0.5-0.5-1.3-0.7-2.3-0.7
			c-0.9,0-1.6,0.2-2.2,0.6c-0.5,0.4-0.8,1-0.8,1.7c0,0.6,0.2,1.1,0.7,1.5c0.5,0.4,1.3,0.8,2.5,1.1c1.2,0.3,2.1,0.7,2.8,1.1
			c0.7,0.4,1.2,0.9,1.5,1.4c0.3,0.5,0.5,1.2,0.5,1.9c0,1.1-0.4,2.1-1.3,2.8c-0.9,0.7-2.1,1-3.6,1c-1,0-1.9-0.2-2.7-0.6
			s-1.5-0.9-1.9-1.5c-0.5-0.6-0.7-1.4-0.7-2.2h1.9c0,0.9,0.3,1.5,0.9,2c0.6,0.5,1.5,0.7,2.5,0.7c1,0,1.7-0.2,2.3-0.6
			c0.5-0.4,0.8-0.9,0.8-1.6c0-0.7-0.2-1.2-0.7-1.6C864.9,258.4,864,258,862.7,257.7z"/>
		<path class="st3" d="M870.1,250.7c0-0.3,0.1-0.5,0.3-0.7c0.2-0.2,0.4-0.3,0.8-0.3s0.6,0.1,0.8,0.3c0.2,0.2,0.3,0.4,0.3,0.7
			c0,0.3-0.1,0.5-0.3,0.7s-0.4,0.3-0.8,0.3s-0.6-0.1-0.8-0.3C870.2,251.2,870.1,251,870.1,250.7z M872,264h-1.8v-10.5h1.8V264z"/>
		<path class="st3" d="M881,261.2c0-0.5-0.2-0.9-0.5-1.1c-0.4-0.3-1-0.5-1.9-0.7c-0.9-0.2-1.6-0.4-2.2-0.7c-0.5-0.3-0.9-0.6-1.2-1
			c-0.3-0.4-0.4-0.8-0.4-1.3c0-0.9,0.4-1.6,1.1-2.2s1.7-0.9,2.8-0.9c1.2,0,2.2,0.3,2.9,0.9c0.7,0.6,1.1,1.4,1.1,2.4h-1.8
			c0-0.5-0.2-0.9-0.6-1.3s-0.9-0.5-1.6-0.5c-0.7,0-1.2,0.1-1.5,0.4c-0.4,0.3-0.6,0.7-0.6,1.1c0,0.4,0.2,0.8,0.5,1
			c0.3,0.2,1,0.4,1.9,0.6c0.9,0.2,1.6,0.4,2.2,0.7c0.6,0.3,1,0.6,1.2,1s0.4,0.9,0.4,1.4c0,0.9-0.4,1.7-1.1,2.3
			c-0.8,0.6-1.7,0.8-2.9,0.8c-0.8,0-1.6-0.1-2.2-0.4s-1.2-0.7-1.5-1.2s-0.5-1.1-0.5-1.7h1.8c0,0.6,0.3,1.1,0.7,1.4s1,0.5,1.8,0.5
			c0.7,0,1.2-0.1,1.6-0.4C880.8,262,881,261.6,881,261.2z"/>
		<path class="st3" d="M887.6,250.9v2.5h2v1.4h-2v6.5c0,0.4,0.1,0.7,0.3,0.9c0.2,0.2,0.5,0.3,0.9,0.3c0.2,0,0.5,0,0.9-0.1v1.4
			c-0.5,0.1-0.9,0.2-1.4,0.2c-0.8,0-1.4-0.2-1.8-0.7c-0.4-0.5-0.6-1.2-0.6-2.1v-6.5h-1.9v-1.4h1.9v-2.5H887.6z"/>
		<path class="st3" d="M896,264.2c-1.4,0-2.6-0.5-3.5-1.4s-1.3-2.2-1.3-3.8v-0.3c0-1,0.2-2,0.6-2.8c0.4-0.8,1-1.5,1.7-1.9
			c0.7-0.5,1.5-0.7,2.3-0.7c1.4,0,2.4,0.5,3.2,1.4c0.8,0.9,1.1,2.2,1.1,3.9v0.7H893c0,1,0.3,1.9,0.9,2.5c0.6,0.6,1.3,1,2.2,1
			c0.6,0,1.2-0.1,1.6-0.4s0.8-0.6,1.2-1l1.1,0.9C899.1,263.5,897.8,264.2,896,264.2z M895.8,254.7c-0.7,0-1.3,0.3-1.8,0.8
			c-0.5,0.5-0.8,1.3-0.9,2.2h5.3v-0.1c-0.1-0.9-0.3-1.6-0.7-2.1C897.2,255,896.6,254.7,895.8,254.7z"/>
		<path class="st3" d="M903.9,253.5l0,1.2c0.8-0.9,1.8-1.4,3.1-1.4c1.5,0,2.5,0.6,3,1.7c0.3-0.5,0.8-0.9,1.4-1.2
			c0.6-0.3,1.2-0.5,2-0.5c2.3,0,3.5,1.2,3.5,3.7v7h-1.8V257c0-0.8-0.2-1.3-0.5-1.7c-0.3-0.4-0.9-0.6-1.7-0.6c-0.7,0-1.2,0.2-1.7,0.6
			c-0.4,0.4-0.7,0.9-0.8,1.6v7h-1.8v-6.9c0-1.5-0.7-2.3-2.2-2.3c-1.2,0-2,0.5-2.4,1.5v7.7h-1.8v-10.5H903.9z"/>
		<path class="st3" d="M926.1,264c-0.1-0.2-0.2-0.6-0.3-1.1c-0.8,0.9-1.8,1.3-3,1.3c-1,0-1.9-0.3-2.5-0.9c-0.7-0.6-1-1.3-1-2.2
			c0-1.1,0.4-1.9,1.2-2.5s2-0.9,3.5-0.9h1.7v-0.8c0-0.6-0.2-1.1-0.6-1.5c-0.4-0.4-0.9-0.6-1.7-0.6c-0.6,0-1.2,0.2-1.6,0.5
			c-0.4,0.3-0.7,0.7-0.7,1.2h-1.8c0-0.5,0.2-1,0.6-1.5c0.4-0.5,0.9-0.9,1.5-1.2c0.6-0.3,1.3-0.4,2.1-0.4c1.2,0,2.2,0.3,2.8,0.9
			s1,1.4,1.1,2.5v4.8c0,1,0.1,1.7,0.4,2.3v0.2H926.1z M923.2,262.6c0.6,0,1.1-0.1,1.6-0.4s0.9-0.7,1.1-1.1v-2.2h-1.4
			c-2.2,0-3.3,0.6-3.3,1.9c0,0.6,0.2,1,0.6,1.3C922.1,262.4,922.6,262.6,923.2,262.6z"/>
		<path class="st3" d="M939.8,264.2c-1.4,0-2.6-0.5-3.5-1.4s-1.3-2.2-1.3-3.8v-0.3c0-1,0.2-2,0.6-2.8c0.4-0.8,1-1.5,1.7-1.9
			c0.7-0.5,1.5-0.7,2.3-0.7c1.4,0,2.4,0.5,3.2,1.4c0.8,0.9,1.1,2.2,1.1,3.9v0.7h-7.1c0,1,0.3,1.9,0.9,2.5c0.6,0.6,1.3,1,2.2,1
			c0.6,0,1.2-0.1,1.6-0.4s0.8-0.6,1.2-1l1.1,0.9C942.8,263.5,941.5,264.2,939.8,264.2z M939.5,254.7c-0.7,0-1.3,0.3-1.8,0.8
			c-0.5,0.5-0.8,1.3-0.9,2.2h5.3v-0.1c-0.1-0.9-0.3-1.6-0.7-2.1S940.3,254.7,939.5,254.7z"/>
		<path class="st3" d="M949.5,257.3l2.3-3.8h2.1l-3.4,5.2l3.5,5.3h-2.1l-2.4-3.9l-2.4,3.9H945l3.5-5.3l-3.4-5.2h2.1L949.5,257.3z"/>
		<path class="st3" d="M958.2,250.9v2.5h2v1.4h-2v6.5c0,0.4,0.1,0.7,0.3,0.9c0.2,0.2,0.5,0.3,0.9,0.3c0.2,0,0.5,0,0.9-0.1v1.4
			c-0.5,0.1-0.9,0.2-1.4,0.2c-0.8,0-1.4-0.2-1.8-0.7c-0.4-0.5-0.6-1.2-0.6-2.1v-6.5h-1.9v-1.4h1.9v-2.5H958.2z"/>
		<path class="st3" d="M966.6,264.2c-1.4,0-2.6-0.5-3.5-1.4s-1.3-2.2-1.3-3.8v-0.3c0-1,0.2-2,0.6-2.8c0.4-0.8,1-1.5,1.7-1.9
			c0.7-0.5,1.5-0.7,2.3-0.7c1.4,0,2.4,0.5,3.2,1.4c0.8,0.9,1.1,2.2,1.1,3.9v0.7h-7.1c0,1,0.3,1.9,0.9,2.5c0.6,0.6,1.3,1,2.2,1
			c0.6,0,1.2-0.1,1.6-0.4s0.8-0.6,1.2-1l1.1,0.9C969.7,263.5,968.4,264.2,966.6,264.2z M966.4,254.7c-0.7,0-1.3,0.3-1.8,0.8
			c-0.5,0.5-0.8,1.3-0.9,2.2h5.3v-0.1c-0.1-0.9-0.3-1.6-0.7-2.1S967.2,254.7,966.4,254.7z"/>
		<path class="st3" d="M977.9,255.1c-0.3,0-0.6-0.1-0.9-0.1c-1.2,0-2,0.5-2.4,1.5v7.5h-1.8v-10.5h1.7l0,1.2c0.6-0.9,1.4-1.4,2.5-1.4
			c0.3,0,0.6,0,0.8,0.1V255.1z"/>
		<path class="st3" d="M981.3,253.5l0.1,1.3c0.8-1,1.9-1.5,3.1-1.5c2.2,0,3.3,1.3,3.4,3.8v6.9H986v-7c0-0.8-0.2-1.3-0.5-1.7
			c-0.3-0.4-0.9-0.5-1.6-0.5c-0.6,0-1.1,0.2-1.5,0.5s-0.8,0.7-1,1.2v7.5h-1.8v-10.5H981.3z"/>
		<path class="st3" d="M990.1,258.6c0-1,0.2-2,0.6-2.8s1-1.5,1.7-1.9c0.7-0.4,1.5-0.7,2.5-0.7c1.4,0,2.6,0.5,3.5,1.5
			c0.9,1,1.3,2.3,1.3,4v0.1c0,1-0.2,1.9-0.6,2.8s-1,1.4-1.7,1.9s-1.6,0.7-2.5,0.7c-1.4,0-2.6-0.5-3.5-1.5c-0.9-1-1.3-2.3-1.3-3.9
			V258.6z M991.9,258.8c0,1.2,0.3,2.1,0.8,2.8s1.3,1.1,2.2,1.1c0.9,0,1.6-0.4,2.2-1.1s0.8-1.7,0.8-3c0-1.2-0.3-2.1-0.8-2.8
			s-1.3-1.1-2.2-1.1c-0.9,0-1.6,0.4-2.1,1.1S991.9,257.5,991.9,258.8z"/>
	</g>
</g>
</svg>
