<svg xmlns="http://www.w3.org/2000/svg" width="434" height="210" viewBox="0 0 434 210">
  <g id="Grupo_986089" data-name="Grupo 986089" transform="translate(-2496 8680)">
    <path id="Trazado_659488" data-name="Trazado 659488" d="M0,0H434V210H0Z" transform="translate(2496 -8680)" fill="#f6f6f6"/>
    <g id="Trazado_659489" data-name="Trazado 659489" transform="translate(2683 -8603)" fill="none">
      <path d="M22,0H156a22,22,0,0,1,22,22V42a22,22,0,0,1-22,22H22A22,22,0,0,1,0,42V22A22,22,0,0,1,22,0Z" stroke="none"/>
      <path d="M 22 2 C 19.29914855957031 2 16.68011474609375 2.528522491455078 14.21571350097656 3.570880889892578 C 11.8343505859375 4.578094482421875 9.695281982421875 6.020450592041016 7.857864379882812 7.857856750488281 C 6.02044677734375 9.695285797119141 4.578094482421875 11.83435821533203 3.570877075195312 14.21571350097656 C 2.528518676757812 16.68011856079102 2 19.29914474487305 2 22 L 2 42 C 2 44.70085906982422 2.528518676757812 47.31988143920898 3.570877075195312 49.78428649902344 C 4.578094482421875 52.16564178466797 6.02044677734375 54.30471420288086 7.857864379882812 56.14214324951172 C 9.695281982421875 57.97954559326172 11.8343505859375 59.42190551757812 14.21571350097656 60.42911911010742 C 16.68011474609375 61.47147750854492 19.29914855957031 62 22 62 L 156 62 C 158.7008514404297 62 161.3198852539062 61.47147750854492 163.7842864990234 60.42911911010742 C 166.1656494140625 59.42190551757812 168.3047180175781 57.97954559326172 170.1421356201172 56.14214324951172 C 171.9795532226562 54.30471420288086 173.4219055175781 52.16564178466797 174.4291229248047 49.78428649902344 C 175.4714813232422 47.31988143920898 176 44.70085906982422 176 42 L 176 22 C 176 19.29914474487305 175.4714813232422 16.68011856079102 174.4291229248047 14.21571350097656 C 173.4219055175781 11.83435821533203 171.9795532226562 9.695285797119141 170.1421356201172 7.857856750488281 C 168.3047180175781 6.020450592041016 166.1656494140625 4.578094482421875 163.7842864990234 3.570880889892578 C 161.3198852539062 2.528522491455078 158.7008514404297 2 156 2 L 22 2 M 22 0 L 156 0 C 168.1502685546875 0 178 9.849739074707031 178 22 L 178 42 C 178 54.15026092529297 168.1502685546875 64 156 64 L 22 64 C 9.8497314453125 64 0 54.15026092529297 0 42 L 0 22 C 0 9.849739074707031 9.8497314453125 0 22 0 Z" stroke="none" fill="#12263f"/>
    </g>
    <path id="Trazado_659490" data-name="Trazado 659490" d="M13.457,15.279H7.5L6.162,19H4.229L9.658,4.781H11.3L16.738,19H14.814ZM8.066,13.746H12.9L10.479,7.1Zm14.541,3.975a2.6,2.6,0,0,0,1.689-.586,2.061,2.061,0,0,0,.8-1.465h1.709a3.276,3.276,0,0,1-.625,1.729,4.116,4.116,0,0,1-1.538,1.309,4.438,4.438,0,0,1-2.036.488,4.353,4.353,0,0,1-3.433-1.44,5.737,5.737,0,0,1-1.274-3.94v-.3a6.361,6.361,0,0,1,.566-2.744A4.314,4.314,0,0,1,20.093,8.9a4.619,4.619,0,0,1,2.5-.664A4.238,4.238,0,0,1,25.552,9.3a3.8,3.8,0,0,1,1.255,2.764H25.1a2.49,2.49,0,0,0-.776-1.685A2.415,2.415,0,0,0,22.6,9.723a2.529,2.529,0,0,0-2.134.991,4.655,4.655,0,0,0-.757,2.866v.342a4.562,4.562,0,0,0,.752,2.813A2.541,2.541,0,0,0,22.607,17.721ZM31.289,5.875V8.434h1.973v1.4H31.289v6.561a1.467,1.467,0,0,0,.264.953,1.11,1.11,0,0,0,.9.318,4.374,4.374,0,0,0,.859-.117V19a5.268,5.268,0,0,1-1.387.194,2.25,2.25,0,0,1-1.826-.732,3.147,3.147,0,0,1-.615-2.08V9.83H27.559v-1.4h1.924V5.875ZM37.334,19H35.527V8.434h1.807ZM35.381,5.631a1.078,1.078,0,0,1,.269-.742,1.008,1.008,0,0,1,.8-.3,1.024,1.024,0,0,1,.8.3,1.067,1.067,0,0,1,.273.742,1.032,1.032,0,0,1-.273.732,1.043,1.043,0,0,1-.8.293,1.026,1.026,0,0,1-.8-.293A1.043,1.043,0,0,1,35.381,5.631Zm8.33,10.918,2.617-8.115h1.846L44.385,19H43.008L39.18,8.434h1.846ZM51.875,19H50.068V8.434h1.807ZM49.922,5.631a1.078,1.078,0,0,1,.269-.742,1.008,1.008,0,0,1,.8-.3,1.024,1.024,0,0,1,.8.3,1.067,1.067,0,0,1,.273.742,1.032,1.032,0,0,1-.273.732,1.043,1.043,0,0,1-.8.293,1.026,1.026,0,0,1-.8-.293A1.043,1.043,0,0,1,49.922,5.631Zm4.4,8a6.19,6.19,0,0,1,1.152-3.911,3.921,3.921,0,0,1,5.957-.21V4h1.807V19h-1.66l-.088-1.133A3.679,3.679,0,0,1,58.477,19.2a3.609,3.609,0,0,1-2.993-1.5,6.26,6.26,0,0,1-1.157-3.926Zm1.807.205a4.687,4.687,0,0,0,.742,2.813,2.4,2.4,0,0,0,2.051,1.016,2.636,2.636,0,0,0,2.51-1.543V11.266a2.656,2.656,0,0,0-2.49-1.494,2.411,2.411,0,0,0-2.07,1.025A5.16,5.16,0,0,0,56.133,13.834ZM72.568,19a3.8,3.8,0,0,1-.254-1.113A4.031,4.031,0,0,1,69.307,19.2a3.73,3.73,0,0,1-2.563-.884,2.859,2.859,0,0,1-1-2.241A2.987,2.987,0,0,1,67,13.507a5.916,5.916,0,0,1,3.53-.913h1.758v-.83a2.029,2.029,0,0,0-.566-1.509,2.276,2.276,0,0,0-1.67-.562,2.634,2.634,0,0,0-1.621.488,1.439,1.439,0,0,0-.654,1.182H65.957a2.493,2.493,0,0,1,.562-1.528,3.832,3.832,0,0,1,1.523-1.167,5.125,5.125,0,0,1,2.114-.43,4.177,4.177,0,0,1,2.861.913,3.294,3.294,0,0,1,1.074,2.515v4.863a5.946,5.946,0,0,0,.371,2.314V19Zm-3-1.377a3.175,3.175,0,0,0,1.611-.439,2.658,2.658,0,0,0,1.1-1.143V13.873H70.869q-3.32,0-3.32,1.943a1.645,1.645,0,0,0,.566,1.328A2.177,2.177,0,0,0,69.57,17.623Zm6.914-3.994a6.19,6.19,0,0,1,1.152-3.911,3.921,3.921,0,0,1,5.957-.21V4H85.4V19H83.74l-.088-1.133A3.679,3.679,0,0,1,80.635,19.2a3.609,3.609,0,0,1-2.993-1.5,6.26,6.26,0,0,1-1.157-3.926Zm1.807.205a4.687,4.687,0,0,0,.742,2.813,2.4,2.4,0,0,0,2.051,1.016,2.636,2.636,0,0,0,2.51-1.543V11.266A2.656,2.656,0,0,0,81.1,9.771a2.411,2.411,0,0,0-2.07,1.025A5.16,5.16,0,0,0,78.291,13.834ZM104.365,19H102.48L95.322,8.043V19H93.438V4.781h1.885L102.5,15.787V4.781h1.865Z" transform="translate(2717 -8584)" fill="#12263f"/>
    <path id="Trazado_659491" data-name="Trazado 659491" d="M0,0H46" transform="translate(2609.5 -8571.5)" fill="none" stroke="#f4a338" stroke-width="2"/>
    <path id="Trazado_659492" data-name="Trazado 659492" d="M8.5,0,17,14H0Z" transform="translate(2669.5 -8580) rotate(90)" fill="#f4a338"/>
    <path id="Trazado_659493" data-name="Trazado 659493" d="M18,0A18,18,0,1,1,0,18,18,18,0,0,1,18,0Z" transform="translate(2560 -8589)" fill="#12263f"/>
  </g>
</svg>
