<svg xmlns="http://www.w3.org/2000/svg" width="715" height="182" viewBox="0 0 715 182">
  <g id="Grupo_986087" data-name="Grupo 986087" transform="translate(-2181 11130)">
    <path id="Trazado_659469" data-name="Trazado 659469" d="M0,0H715V182H0Z" transform="translate(2181 -11130)" fill="#f6f6f6"/>
    <g id="Trazado_659470" data-name="Trazado 659470" transform="translate(2205 -11079)" fill="none">
      <path d="M22,0H156a22,22,0,0,1,22,22V42a22,22,0,0,1-22,22H22A22,22,0,0,1,0,42V22A22,22,0,0,1,22,0Z" stroke="none"/>
      <path d="M 22 2 C 19.29914855957031 2 16.68011474609375 2.528522491455078 14.21571350097656 3.570880889892578 C 11.8343505859375 4.578094482421875 9.695281982421875 6.020450592041016 7.857864379882812 7.857856750488281 C 6.02044677734375 9.695285797119141 4.578094482421875 11.83435821533203 3.570877075195312 14.21571350097656 C 2.528518676757812 16.68011856079102 2 19.29914474487305 2 22 L 2 42 C 2 44.70085906982422 2.528518676757812 47.31988143920898 3.570877075195312 49.78428649902344 C 4.578094482421875 52.16564178466797 6.02044677734375 54.30471420288086 7.857864379882812 56.14214324951172 C 9.695281982421875 57.97954559326172 11.8343505859375 59.42190551757812 14.21571350097656 60.42911911010742 C 16.68011474609375 61.47147750854492 19.29914855957031 62 22 62 L 156 62 C 158.7008514404297 62 161.3198852539062 61.47147750854492 163.7842864990234 60.42911911010742 C 166.1656494140625 59.42190551757812 168.3047180175781 57.97954559326172 170.1421356201172 56.14214324951172 C 171.9795532226562 54.30471420288086 173.4219055175781 52.16564178466797 174.4291229248047 49.78428649902344 C 175.4714813232422 47.31988143920898 176 44.70085906982422 176 42 L 176 22 C 176 19.29914474487305 175.4714813232422 16.68011856079102 174.4291229248047 14.21571350097656 C 173.4219055175781 11.83435821533203 171.9795532226562 9.695285797119141 170.1421356201172 7.857856750488281 C 168.3047180175781 6.020450592041016 166.1656494140625 4.578094482421875 163.7842864990234 3.570880889892578 C 161.3198852539062 2.528522491455078 158.7008514404297 2 156 2 L 22 2 M 22 0 L 156 0 C 168.1502685546875 0 178 9.849739074707031 178 22 L 178 42 C 178 54.15026092529297 168.1502685546875 64 156 64 L 22 64 C 9.8497314453125 64 0 54.15026092529297 0 42 L 0 22 C 0 9.849739074707031 9.8497314453125 0 22 0 Z" stroke="none" fill="#12263f"/>
    </g>
    <g id="Trazado_659471" data-name="Trazado 659471" transform="translate(2639 -11106)" fill="none">
      <path d="M22,0H156a22,22,0,0,1,22,22V42a22,22,0,0,1-22,22H22A22,22,0,0,1,0,42V22A22,22,0,0,1,22,0Z" stroke="none"/>
      <path d="M 22 2 C 19.29914855957031 2 16.68011474609375 2.528522491455078 14.21571350097656 3.570880889892578 C 11.8343505859375 4.578094482421875 9.695281982421875 6.020450592041016 7.857864379882812 7.857856750488281 C 6.02044677734375 9.695285797119141 4.578094482421875 11.83435821533203 3.570877075195312 14.21571350097656 C 2.528518676757812 16.68011856079102 2 19.29914474487305 2 22 L 2 42 C 2 44.70085906982422 2.528518676757812 47.31988143920898 3.570877075195312 49.78428649902344 C 4.578094482421875 52.16564178466797 6.02044677734375 54.30471420288086 7.857864379882812 56.14214324951172 C 9.695281982421875 57.97954559326172 11.8343505859375 59.42190551757812 14.21571350097656 60.42911911010742 C 16.68011474609375 61.47147750854492 19.29914855957031 62 22 62 L 156 62 C 158.7008514404297 62 161.3198852539062 61.47147750854492 163.7842864990234 60.42911911010742 C 166.1656494140625 59.42190551757812 168.3047180175781 57.97954559326172 170.1421356201172 56.14214324951172 C 171.9795532226562 54.30471420288086 173.4219055175781 52.16564178466797 174.4291229248047 49.78428649902344 C 175.4714813232422 47.31988143920898 176 44.70085906982422 176 42 L 176 22 C 176 19.29914474487305 175.4714813232422 16.68011856079102 174.4291229248047 14.21571350097656 C 173.4219055175781 11.83435821533203 171.9795532226562 9.695285797119141 170.1421356201172 7.857856750488281 C 168.3047180175781 6.020450592041016 166.1656494140625 4.578094482421875 163.7842864990234 3.570880889892578 C 161.3198852539062 2.528522491455078 158.7008514404297 2 156 2 L 22 2 M 22 0 L 156 0 C 168.1502685546875 0 178 9.849739074707031 178 22 L 178 42 C 178 54.15026092529297 168.1502685546875 64 156 64 L 22 64 C 9.8497314453125 64 0 54.15026092529297 0 42 L 0 22 C 0 9.849739074707031 9.8497314453125 0 22 0 Z" stroke="none" fill="#12263f"/>
    </g>
    <g id="Trazado_659472" data-name="Trazado 659472" transform="translate(2639 -11029)" fill="none">
      <path d="M22,0H156a22,22,0,0,1,22,22V42a22,22,0,0,1-22,22H22A22,22,0,0,1,0,42V22A22,22,0,0,1,22,0Z" stroke="none"/>
      <path d="M 22 2 C 19.29914855957031 2 16.68011474609375 2.528522491455078 14.21571350097656 3.570880889892578 C 11.8343505859375 4.578094482421875 9.695281982421875 6.020450592041016 7.857864379882812 7.857856750488281 C 6.02044677734375 9.695285797119141 4.578094482421875 11.83435821533203 3.570877075195312 14.21571350097656 C 2.528518676757812 16.68011856079102 2 19.29914474487305 2 22 L 2 42 C 2 44.70085906982422 2.528518676757812 47.31988143920898 3.570877075195312 49.78428649902344 C 4.578094482421875 52.16564178466797 6.02044677734375 54.30471420288086 7.857864379882812 56.14214324951172 C 9.695281982421875 57.97954559326172 11.8343505859375 59.42190551757812 14.21571350097656 60.42911911010742 C 16.68011474609375 61.47147750854492 19.29914855957031 62 22 62 L 156 62 C 158.7008514404297 62 161.3198852539062 61.47147750854492 163.7842864990234 60.42911911010742 C 166.1656494140625 59.42190551757812 168.3047180175781 57.97954559326172 170.1421356201172 56.14214324951172 C 171.9795532226562 54.30471420288086 173.4219055175781 52.16564178466797 174.4291229248047 49.78428649902344 C 175.4714813232422 47.31988143920898 176 44.70085906982422 176 42 L 176 22 C 176 19.29914474487305 175.4714813232422 16.68011856079102 174.4291229248047 14.21571350097656 C 173.4219055175781 11.83435821533203 171.9795532226562 9.695285797119141 170.1421356201172 7.857856750488281 C 168.3047180175781 6.020450592041016 166.1656494140625 4.578094482421875 163.7842864990234 3.570880889892578 C 161.3198852539062 2.528522491455078 158.7008514404297 2 156 2 L 22 2 M 22 0 L 156 0 C 168.1502685546875 0 178 9.849739074707031 178 22 L 178 42 C 178 54.15026092529297 168.1502685546875 64 156 64 L 22 64 C 9.8497314453125 64 0 54.15026092529297 0 42 L 0 22 C 0 9.849739074707031 9.8497314453125 0 22 0 Z" stroke="none" fill="#12263f"/>
    </g>
    <path id="Trazado_659473" data-name="Trazado 659473" d="M13.457,15.279H7.5L6.162,19H4.229L9.658,4.781H11.3L16.738,19H14.814ZM8.066,13.746H12.9L10.479,7.1Zm14.541,3.975a2.6,2.6,0,0,0,1.689-.586,2.061,2.061,0,0,0,.8-1.465h1.709a3.276,3.276,0,0,1-.625,1.729,4.116,4.116,0,0,1-1.538,1.309,4.438,4.438,0,0,1-2.036.488,4.353,4.353,0,0,1-3.433-1.44,5.737,5.737,0,0,1-1.274-3.94v-.3a6.361,6.361,0,0,1,.566-2.744A4.314,4.314,0,0,1,20.093,8.9a4.619,4.619,0,0,1,2.5-.664A4.238,4.238,0,0,1,25.552,9.3a3.8,3.8,0,0,1,1.255,2.764H25.1a2.49,2.49,0,0,0-.776-1.685A2.415,2.415,0,0,0,22.6,9.723a2.529,2.529,0,0,0-2.134.991,4.655,4.655,0,0,0-.757,2.866v.342a4.562,4.562,0,0,0,.752,2.813A2.541,2.541,0,0,0,22.607,17.721ZM31.289,5.875V8.434h1.973v1.4H31.289v6.561a1.467,1.467,0,0,0,.264.953,1.11,1.11,0,0,0,.9.318,4.374,4.374,0,0,0,.859-.117V19a5.268,5.268,0,0,1-1.387.194,2.25,2.25,0,0,1-1.826-.732,3.147,3.147,0,0,1-.615-2.08V9.83H27.559v-1.4h1.924V5.875ZM37.334,19H35.527V8.434h1.807ZM35.381,5.631a1.078,1.078,0,0,1,.269-.742,1.008,1.008,0,0,1,.8-.3,1.024,1.024,0,0,1,.8.3,1.067,1.067,0,0,1,.273.742,1.032,1.032,0,0,1-.273.732,1.043,1.043,0,0,1-.8.293,1.026,1.026,0,0,1-.8-.293A1.043,1.043,0,0,1,35.381,5.631Zm8.33,10.918,2.617-8.115h1.846L44.385,19H43.008L39.18,8.434h1.846ZM51.875,19H50.068V8.434h1.807ZM49.922,5.631a1.078,1.078,0,0,1,.269-.742,1.008,1.008,0,0,1,.8-.3,1.024,1.024,0,0,1,.8.3,1.067,1.067,0,0,1,.273.742,1.032,1.032,0,0,1-.273.732,1.043,1.043,0,0,1-.8.293,1.026,1.026,0,0,1-.8-.293A1.043,1.043,0,0,1,49.922,5.631Zm4.4,8a6.19,6.19,0,0,1,1.152-3.911,3.921,3.921,0,0,1,5.957-.21V4h1.807V19h-1.66l-.088-1.133A3.679,3.679,0,0,1,58.477,19.2a3.609,3.609,0,0,1-2.993-1.5,6.26,6.26,0,0,1-1.157-3.926Zm1.807.205a4.687,4.687,0,0,0,.742,2.813,2.4,2.4,0,0,0,2.051,1.016,2.636,2.636,0,0,0,2.51-1.543V11.266a2.656,2.656,0,0,0-2.49-1.494,2.411,2.411,0,0,0-2.07,1.025A5.16,5.16,0,0,0,56.133,13.834ZM72.568,19a3.8,3.8,0,0,1-.254-1.113A4.031,4.031,0,0,1,69.307,19.2a3.73,3.73,0,0,1-2.563-.884,2.859,2.859,0,0,1-1-2.241A2.987,2.987,0,0,1,67,13.507a5.916,5.916,0,0,1,3.53-.913h1.758v-.83a2.029,2.029,0,0,0-.566-1.509,2.276,2.276,0,0,0-1.67-.562,2.634,2.634,0,0,0-1.621.488,1.439,1.439,0,0,0-.654,1.182H65.957a2.493,2.493,0,0,1,.562-1.528,3.832,3.832,0,0,1,1.523-1.167,5.125,5.125,0,0,1,2.114-.43,4.177,4.177,0,0,1,2.861.913,3.294,3.294,0,0,1,1.074,2.515v4.863a5.946,5.946,0,0,0,.371,2.314V19Zm-3-1.377a3.175,3.175,0,0,0,1.611-.439,2.658,2.658,0,0,0,1.1-1.143V13.873H70.869q-3.32,0-3.32,1.943a1.645,1.645,0,0,0,.566,1.328A2.177,2.177,0,0,0,69.57,17.623Zm6.914-3.994a6.19,6.19,0,0,1,1.152-3.911,3.921,3.921,0,0,1,5.957-.21V4H85.4V19H83.74l-.088-1.133A3.679,3.679,0,0,1,80.635,19.2a3.609,3.609,0,0,1-2.993-1.5,6.26,6.26,0,0,1-1.157-3.926Zm1.807.205a4.687,4.687,0,0,0,.742,2.813,2.4,2.4,0,0,0,2.051,1.016,2.636,2.636,0,0,0,2.51-1.543V11.266A2.656,2.656,0,0,0,81.1,9.771a2.411,2.411,0,0,0-2.07,1.025A5.16,5.16,0,0,0,78.291,13.834ZM104.365,19H102.48L95.322,8.043V19H93.438V4.781h1.885L102.5,15.787V4.781h1.865Z" transform="translate(2239 -11060)" fill="#12263f"/>
    <path id="Trazado_659474" data-name="Trazado 659474" d="M13.457,15.279H7.5L6.162,19H4.229L9.658,4.781H11.3L16.738,19H14.814ZM8.066,13.746H12.9L10.479,7.1Zm14.541,3.975a2.6,2.6,0,0,0,1.689-.586,2.061,2.061,0,0,0,.8-1.465h1.709a3.276,3.276,0,0,1-.625,1.729,4.116,4.116,0,0,1-1.538,1.309,4.438,4.438,0,0,1-2.036.488,4.353,4.353,0,0,1-3.433-1.44,5.737,5.737,0,0,1-1.274-3.94v-.3a6.361,6.361,0,0,1,.566-2.744A4.314,4.314,0,0,1,20.093,8.9a4.619,4.619,0,0,1,2.5-.664A4.238,4.238,0,0,1,25.552,9.3a3.8,3.8,0,0,1,1.255,2.764H25.1a2.49,2.49,0,0,0-.776-1.685A2.415,2.415,0,0,0,22.6,9.723a2.529,2.529,0,0,0-2.134.991,4.655,4.655,0,0,0-.757,2.866v.342a4.562,4.562,0,0,0,.752,2.813A2.541,2.541,0,0,0,22.607,17.721ZM31.289,5.875V8.434h1.973v1.4H31.289v6.561a1.467,1.467,0,0,0,.264.953,1.11,1.11,0,0,0,.9.318,4.374,4.374,0,0,0,.859-.117V19a5.268,5.268,0,0,1-1.387.194,2.25,2.25,0,0,1-1.826-.732,3.147,3.147,0,0,1-.615-2.08V9.83H27.559v-1.4h1.924V5.875ZM37.334,19H35.527V8.434h1.807ZM35.381,5.631a1.078,1.078,0,0,1,.269-.742,1.008,1.008,0,0,1,.8-.3,1.024,1.024,0,0,1,.8.3,1.067,1.067,0,0,1,.273.742,1.032,1.032,0,0,1-.273.732,1.043,1.043,0,0,1-.8.293,1.026,1.026,0,0,1-.8-.293A1.043,1.043,0,0,1,35.381,5.631Zm8.33,10.918,2.617-8.115h1.846L44.385,19H43.008L39.18,8.434h1.846ZM51.875,19H50.068V8.434h1.807ZM49.922,5.631a1.078,1.078,0,0,1,.269-.742,1.008,1.008,0,0,1,.8-.3,1.024,1.024,0,0,1,.8.3,1.067,1.067,0,0,1,.273.742,1.032,1.032,0,0,1-.273.732,1.043,1.043,0,0,1-.8.293,1.026,1.026,0,0,1-.8-.293A1.043,1.043,0,0,1,49.922,5.631Zm4.4,8a6.19,6.19,0,0,1,1.152-3.911,3.921,3.921,0,0,1,5.957-.21V4h1.807V19h-1.66l-.088-1.133A3.679,3.679,0,0,1,58.477,19.2a3.609,3.609,0,0,1-2.993-1.5,6.26,6.26,0,0,1-1.157-3.926Zm1.807.205a4.687,4.687,0,0,0,.742,2.813,2.4,2.4,0,0,0,2.051,1.016,2.636,2.636,0,0,0,2.51-1.543V11.266a2.656,2.656,0,0,0-2.49-1.494,2.411,2.411,0,0,0-2.07,1.025A5.16,5.16,0,0,0,56.133,13.834ZM72.568,19a3.8,3.8,0,0,1-.254-1.113A4.031,4.031,0,0,1,69.307,19.2a3.73,3.73,0,0,1-2.563-.884,2.859,2.859,0,0,1-1-2.241A2.987,2.987,0,0,1,67,13.507a5.916,5.916,0,0,1,3.53-.913h1.758v-.83a2.029,2.029,0,0,0-.566-1.509,2.276,2.276,0,0,0-1.67-.562,2.634,2.634,0,0,0-1.621.488,1.439,1.439,0,0,0-.654,1.182H65.957a2.493,2.493,0,0,1,.562-1.528,3.832,3.832,0,0,1,1.523-1.167,5.125,5.125,0,0,1,2.114-.43,4.177,4.177,0,0,1,2.861.913,3.294,3.294,0,0,1,1.074,2.515v4.863a5.946,5.946,0,0,0,.371,2.314V19Zm-3-1.377a3.175,3.175,0,0,0,1.611-.439,2.658,2.658,0,0,0,1.1-1.143V13.873H70.869q-3.32,0-3.32,1.943a1.645,1.645,0,0,0,.566,1.328A2.177,2.177,0,0,0,69.57,17.623Zm6.914-3.994a6.19,6.19,0,0,1,1.152-3.911,3.921,3.921,0,0,1,5.957-.21V4H85.4V19H83.74l-.088-1.133A3.679,3.679,0,0,1,80.635,19.2a3.609,3.609,0,0,1-2.993-1.5,6.26,6.26,0,0,1-1.157-3.926Zm1.807.205a4.687,4.687,0,0,0,.742,2.813,2.4,2.4,0,0,0,2.051,1.016,2.636,2.636,0,0,0,2.51-1.543V11.266A2.656,2.656,0,0,0,81.1,9.771a2.411,2.411,0,0,0-2.07,1.025A5.16,5.16,0,0,0,78.291,13.834ZM104.365,19H102.48L95.322,8.043V19H93.438V4.781h1.885L102.5,15.787V4.781h1.865Z" transform="translate(2673 -11087)" fill="#12263f"/>
    <path id="Trazado_659475" data-name="Trazado 659475" d="M17.842,15.279H11.885L10.547,19H8.613l5.43-14.219h1.641L21.123,19H19.2Zm-5.391-1.533h4.834L14.863,7.1Zm14.541,3.975a2.6,2.6,0,0,0,1.689-.586,2.061,2.061,0,0,0,.8-1.465h1.709a3.276,3.276,0,0,1-.625,1.729,4.116,4.116,0,0,1-1.538,1.309,4.438,4.438,0,0,1-2.036.488,4.353,4.353,0,0,1-3.433-1.44,5.737,5.737,0,0,1-1.274-3.94v-.3a6.361,6.361,0,0,1,.566-2.744A4.314,4.314,0,0,1,24.478,8.9a4.619,4.619,0,0,1,2.5-.664A4.238,4.238,0,0,1,29.937,9.3a3.8,3.8,0,0,1,1.255,2.764H29.482a2.49,2.49,0,0,0-.776-1.685,2.415,2.415,0,0,0-1.724-.659,2.529,2.529,0,0,0-2.134.991,4.655,4.655,0,0,0-.757,2.866v.342a4.562,4.562,0,0,0,.752,2.813A2.541,2.541,0,0,0,26.992,17.721ZM35.674,5.875V8.434h1.973v1.4H35.674v6.561a1.467,1.467,0,0,0,.264.953,1.11,1.11,0,0,0,.9.318,4.374,4.374,0,0,0,.859-.117V19a5.268,5.268,0,0,1-1.387.194,2.25,2.25,0,0,1-1.826-.732,3.147,3.147,0,0,1-.615-2.08V9.83H31.943v-1.4h1.924V5.875ZM41.719,19H39.912V8.434h1.807ZM39.766,5.631a1.078,1.078,0,0,1,.269-.742,1.008,1.008,0,0,1,.8-.3,1.024,1.024,0,0,1,.8.3,1.067,1.067,0,0,1,.273.742,1.032,1.032,0,0,1-.273.732,1.043,1.043,0,0,1-.8.293,1.026,1.026,0,0,1-.8-.293A1.043,1.043,0,0,1,39.766,5.631ZM48.1,16.549l2.617-8.115h1.846L48.77,19H47.393L43.564,8.434H45.41ZM56.26,19H54.453V8.434H56.26ZM54.307,5.631a1.078,1.078,0,0,1,.269-.742,1.008,1.008,0,0,1,.8-.3,1.024,1.024,0,0,1,.8.3,1.067,1.067,0,0,1,.273.742,1.032,1.032,0,0,1-.273.732,1.043,1.043,0,0,1-.8.293,1.026,1.026,0,0,1-.8-.293A1.043,1.043,0,0,1,54.307,5.631Zm4.4,8a6.19,6.19,0,0,1,1.152-3.911,3.921,3.921,0,0,1,5.957-.21V4h1.807V19h-1.66l-.088-1.133A3.679,3.679,0,0,1,62.861,19.2a3.609,3.609,0,0,1-2.993-1.5,6.26,6.26,0,0,1-1.157-3.926Zm1.807.205a4.687,4.687,0,0,0,.742,2.813,2.4,2.4,0,0,0,2.051,1.016,2.636,2.636,0,0,0,2.51-1.543V11.266a2.656,2.656,0,0,0-2.49-1.494A2.411,2.411,0,0,0,61.26,10.8,5.16,5.16,0,0,0,60.518,13.834ZM76.953,19a3.8,3.8,0,0,1-.254-1.113A4.031,4.031,0,0,1,73.691,19.2a3.73,3.73,0,0,1-2.563-.884,2.859,2.859,0,0,1-1-2.241,2.987,2.987,0,0,1,1.255-2.563,5.916,5.916,0,0,1,3.53-.913H76.67v-.83a2.029,2.029,0,0,0-.566-1.509,2.276,2.276,0,0,0-1.67-.562,2.634,2.634,0,0,0-1.621.488,1.439,1.439,0,0,0-.654,1.182H70.342A2.493,2.493,0,0,1,70.9,9.835a3.832,3.832,0,0,1,1.523-1.167,5.125,5.125,0,0,1,2.114-.43,4.177,4.177,0,0,1,2.861.913,3.294,3.294,0,0,1,1.074,2.515v4.863a5.946,5.946,0,0,0,.371,2.314V19Zm-3-1.377a3.175,3.175,0,0,0,1.611-.439,2.658,2.658,0,0,0,1.1-1.143V13.873H75.254q-3.32,0-3.32,1.943a1.645,1.645,0,0,0,.566,1.328A2.177,2.177,0,0,0,73.955,17.623Zm6.914-3.994a6.19,6.19,0,0,1,1.152-3.911,3.921,3.921,0,0,1,5.957-.21V4h1.807V19h-1.66l-.088-1.133A3.679,3.679,0,0,1,85.02,19.2a3.609,3.609,0,0,1-2.993-1.5,6.26,6.26,0,0,1-1.157-3.926Zm1.807.205a4.687,4.687,0,0,0,.742,2.813,2.4,2.4,0,0,0,2.051,1.016,2.636,2.636,0,0,0,2.51-1.543V11.266a2.656,2.656,0,0,0-2.49-1.494,2.411,2.411,0,0,0-2.07,1.025A5.16,5.16,0,0,0,82.676,13.834ZM108.75,19h-1.885L99.707,8.043V19H97.822V4.781h1.885l7.178,11.006V4.781h1.865Zm12.178,0h-9.316V17.7l4.922-5.469a11.693,11.693,0,0,0,1.509-2.017,3.366,3.366,0,0,0,.415-1.606,2.551,2.551,0,0,0-.674-1.826,2.356,2.356,0,0,0-1.8-.713,2.79,2.79,0,0,0-2.095.767,2.928,2.928,0,0,0-.747,2.134h-1.807A4.194,4.194,0,0,1,112.6,5.8a4.688,4.688,0,0,1,3.384-1.211,4.5,4.5,0,0,1,3.135,1.04,3.548,3.548,0,0,1,1.152,2.769q0,2.1-2.676,5l-3.809,4.131h7.139Z" transform="translate(2663 -11010)" fill="#12263f"/>
    <path id="Trazado_659476" data-name="Trazado 659476" d="M15.615,16.51,19.678,4.781h2.051L16.455,19h-1.66L9.531,4.781h2.041ZM27.3,19.2a4.617,4.617,0,0,1-3.5-1.411,5.237,5.237,0,0,1-1.348-3.774v-.332a6.341,6.341,0,0,1,.6-2.808,4.685,4.685,0,0,1,1.68-1.934,4.223,4.223,0,0,1,2.339-.7,3.957,3.957,0,0,1,3.2,1.357,5.877,5.877,0,0,1,1.143,3.887v.752H24.268a3.756,3.756,0,0,0,.913,2.524,2.87,2.87,0,0,0,2.222.962,3.147,3.147,0,0,0,1.621-.391,4.073,4.073,0,0,0,1.162-1.035l1.1.859A4.437,4.437,0,0,1,27.3,19.2ZM27.08,9.723a2.41,2.41,0,0,0-1.836.8,3.868,3.868,0,0,0-.918,2.231h5.293v-.137a3.441,3.441,0,0,0-.742-2.134A2.269,2.269,0,0,0,27.08,9.723Zm11.543.332a5.414,5.414,0,0,0-.889-.068A2.381,2.381,0,0,0,35.322,11.5V19H33.516V8.434h1.758L35.3,9.654a2.813,2.813,0,0,1,2.52-1.416,1.846,1.846,0,0,1,.8.137Zm1.035,3.574a6.19,6.19,0,0,1,1.152-3.911,3.921,3.921,0,0,1,5.957-.21V4h1.807V19h-1.66l-.088-1.133A3.679,3.679,0,0,1,43.809,19.2a3.609,3.609,0,0,1-2.993-1.5,6.26,6.26,0,0,1-1.157-3.926Zm1.807.205a4.687,4.687,0,0,0,.742,2.813,2.4,2.4,0,0,0,2.051,1.016,2.636,2.636,0,0,0,2.51-1.543V11.266a2.656,2.656,0,0,0-2.49-1.494,2.411,2.411,0,0,0-2.07,1.025A5.16,5.16,0,0,0,41.465,13.834ZM57.9,19a3.8,3.8,0,0,1-.254-1.113A4.031,4.031,0,0,1,54.639,19.2a3.73,3.73,0,0,1-2.563-.884,2.859,2.859,0,0,1-1-2.241,2.987,2.987,0,0,1,1.255-2.563,5.916,5.916,0,0,1,3.53-.913h1.758v-.83a2.029,2.029,0,0,0-.566-1.509,2.276,2.276,0,0,0-1.67-.562,2.634,2.634,0,0,0-1.621.488,1.439,1.439,0,0,0-.654,1.182H51.289a2.493,2.493,0,0,1,.562-1.528,3.832,3.832,0,0,1,1.523-1.167,5.125,5.125,0,0,1,2.114-.43,4.177,4.177,0,0,1,2.861.913,3.294,3.294,0,0,1,1.074,2.515v4.863a5.946,5.946,0,0,0,.371,2.314V19Zm-3-1.377a3.175,3.175,0,0,0,1.611-.439,2.658,2.658,0,0,0,1.1-1.143V13.873H56.2q-3.32,0-3.32,1.943a1.645,1.645,0,0,0,.566,1.328A2.177,2.177,0,0,0,54.9,17.623Zm6.914-3.994a6.19,6.19,0,0,1,1.152-3.911,3.921,3.921,0,0,1,5.957-.21V4h1.807V19h-1.66l-.088-1.133A3.679,3.679,0,0,1,65.967,19.2a3.609,3.609,0,0,1-2.993-1.5,6.26,6.26,0,0,1-1.157-3.926Zm1.807.205a4.687,4.687,0,0,0,.742,2.813,2.4,2.4,0,0,0,2.051,1.016,2.636,2.636,0,0,0,2.51-1.543V11.266a2.656,2.656,0,0,0-2.49-1.494,2.411,2.411,0,0,0-2.07,1.025A5.16,5.16,0,0,0,63.623,13.834ZM77.92,19.2a4.617,4.617,0,0,1-3.5-1.411,5.237,5.237,0,0,1-1.348-3.774v-.332a6.341,6.341,0,0,1,.6-2.808,4.685,4.685,0,0,1,1.68-1.934,4.223,4.223,0,0,1,2.339-.7A3.957,3.957,0,0,1,80.9,9.6a5.877,5.877,0,0,1,1.143,3.887v.752H74.883a3.756,3.756,0,0,0,.913,2.524,2.87,2.87,0,0,0,2.222.962,3.147,3.147,0,0,0,1.621-.391A4.073,4.073,0,0,0,80.8,16.295l1.1.859A4.437,4.437,0,0,1,77.92,19.2ZM77.7,9.723a2.41,2.41,0,0,0-1.836.8,3.869,3.869,0,0,0-.918,2.231h5.293v-.137a3.441,3.441,0,0,0-.742-2.134A2.269,2.269,0,0,0,77.7,9.723Zm11.543.332a5.414,5.414,0,0,0-.889-.068A2.381,2.381,0,0,0,85.938,11.5V19H84.131V8.434h1.758l.029,1.221a2.813,2.813,0,0,1,2.52-1.416,1.846,1.846,0,0,1,.8.137Zm.986,3.564a6.241,6.241,0,0,1,.61-2.793,4.553,4.553,0,0,1,1.7-1.914,4.626,4.626,0,0,1,2.485-.674,4.456,4.456,0,0,1,3.491,1.494,5.748,5.748,0,0,1,1.333,3.975v.127a6.3,6.3,0,0,1-.591,2.769,4.486,4.486,0,0,1-1.689,1.909,4.679,4.679,0,0,1-2.524.684A4.445,4.445,0,0,1,91.558,17.7a5.719,5.719,0,0,1-1.333-3.955Zm1.816.215a4.52,4.52,0,0,0,.815,2.822,2.763,2.763,0,0,0,4.37-.015,4.943,4.943,0,0,0,.811-3.022,4.513,4.513,0,0,0-.825-2.817A2.623,2.623,0,0,0,95.02,9.723a2.594,2.594,0,0,0-2.158,1.064A4.906,4.906,0,0,0,92.041,13.834Z" transform="translate(2537 -11117)" fill="#12263f"/>
    <path id="Trazado_659477" data-name="Trazado 659477" d="M40.405,12.721H34.438V19H32.563V4.781h8.809V6.314H34.438v4.873h5.967ZM49.526,19a3.8,3.8,0,0,1-.254-1.113A4.031,4.031,0,0,1,46.265,19.2a3.73,3.73,0,0,1-2.563-.884,2.859,2.859,0,0,1-1-2.241,2.987,2.987,0,0,1,1.255-2.563,5.916,5.916,0,0,1,3.53-.913h1.758v-.83a2.029,2.029,0,0,0-.566-1.509,2.276,2.276,0,0,0-1.67-.562,2.634,2.634,0,0,0-1.621.488,1.439,1.439,0,0,0-.654,1.182H42.915a2.493,2.493,0,0,1,.562-1.528A3.832,3.832,0,0,1,45,8.668a5.125,5.125,0,0,1,2.114-.43,4.177,4.177,0,0,1,2.861.913,3.294,3.294,0,0,1,1.074,2.515v4.863a5.946,5.946,0,0,0,.371,2.314V19Zm-3-1.377a3.175,3.175,0,0,0,1.611-.439,2.658,2.658,0,0,0,1.1-1.143V13.873H47.827q-3.32,0-3.32,1.943a1.645,1.645,0,0,0,.566,1.328A2.177,2.177,0,0,0,46.528,17.623ZM55.845,19H54.038V4h1.807Zm9.043-2.8a1.33,1.33,0,0,0-.552-1.138,5.311,5.311,0,0,0-1.924-.7,9.1,9.1,0,0,1-2.178-.7,3.1,3.1,0,0,1-1.191-.977,2.336,2.336,0,0,1-.386-1.348,2.741,2.741,0,0,1,1.1-2.2,4.291,4.291,0,0,1,2.808-.9,4.415,4.415,0,0,1,2.915.928A2.947,2.947,0,0,1,66.6,11.539H64.78a1.631,1.631,0,0,0-.63-1.279,2.36,2.36,0,0,0-1.587-.537,2.47,2.47,0,0,0-1.543.43,1.353,1.353,0,0,0-.557,1.123,1.1,1.1,0,0,0,.518.986,6.368,6.368,0,0,0,1.87.635,9.744,9.744,0,0,1,2.192.723,3.2,3.2,0,0,1,1.245,1.011,2.485,2.485,0,0,1,.405,1.44,2.7,2.7,0,0,1-1.133,2.271,4.752,4.752,0,0,1-2.939.854,5.321,5.321,0,0,1-2.246-.449,3.653,3.653,0,0,1-1.528-1.255,3.025,3.025,0,0,1-.552-1.743H60.1a1.87,1.87,0,0,0,.728,1.44,2.822,2.822,0,0,0,1.792.532,2.913,2.913,0,0,0,1.646-.415A1.275,1.275,0,0,0,64.888,16.2Zm3.682-2.578a6.241,6.241,0,0,1,.61-2.793,4.553,4.553,0,0,1,1.7-1.914,4.626,4.626,0,0,1,2.485-.674,4.456,4.456,0,0,1,3.491,1.494,5.748,5.748,0,0,1,1.333,3.975v.127A6.3,6.3,0,0,1,77.6,16.6a4.486,4.486,0,0,1-1.689,1.909,4.679,4.679,0,0,1-2.524.684A4.445,4.445,0,0,1,69.9,17.7a5.719,5.719,0,0,1-1.333-3.955Zm1.816.215a4.52,4.52,0,0,0,.815,2.822,2.763,2.763,0,0,0,4.37-.015,4.943,4.943,0,0,0,.811-3.022,4.513,4.513,0,0,0-.825-2.817,2.623,2.623,0,0,0-2.192-1.079,2.594,2.594,0,0,0-2.158,1.064A4.906,4.906,0,0,0,70.386,13.834Z" transform="translate(2546 -10997)" fill="#12263f"/>
    <path id="Trazado_659478" data-name="Trazado 659478" d="M0,0H46" transform="translate(2383.5 -11046.5)" fill="none" stroke="#f4a338" stroke-width="2"/>
    <path id="Trazado_659479" data-name="Trazado 659479" d="M8.5,0,17,14H0Z" transform="translate(2443.5 -11055) rotate(90)" fill="#f4a338"/>
    <path id="Trazado_659480" data-name="Trazado 659480" d="M8.5,0,17,14H0Z" transform="matrix(0.208, 0.978, -0.978, 0.208, 2615.08, -11093.27)" fill="#f4a338"/>
    <path id="Trazado_659481" data-name="Trazado 659481" d="M8.5,0,17,14H0Z" transform="translate(2621.359 -11016.082) rotate(107)" fill="#f4a338"/>
    <g id="Trazado_659482" data-name="Trazado 659482" transform="translate(2456.23 -11047) rotate(-45)" fill="#fff">
      <path d="M 51 51 L 1 51 L 1 1 L 51 1 L 51 51 Z" stroke="none"/>
      <path d="M 2 2 L 2 50 L 50 50 L 50 2 L 2 2 M 0 0 L 52 0 L 52 52 L 0 52 L 0 0 Z" stroke="none" fill="#12263f"/>
    </g>
    <path id="Trazado_659483" data-name="Trazado 659483" d="M0,24,87,0" transform="translate(2520.5 -11083.5)" fill="none" stroke="#f4a338" stroke-width="2"/>
    <path id="Trazado_659484" data-name="Trazado 659484" d="M0,0,87,24" transform="translate(2520.5 -11034)" fill="none" stroke="#f4a338" stroke-width="2"/>
  </g>
</svg>
