<svg xmlns="http://www.w3.org/2000/svg" width="315" height="182" viewBox="0 0 315 182">
  <g id="Grupo_986088" data-name="Grupo 986088" transform="translate(-2104 11599)">
    <path id="Trazado_659485" data-name="Trazado 659485" d="M0,0H315V182H0Z" transform="translate(2104 -11599)" fill="#f6f6f6"/>
    <g id="Trazado_659486" data-name="Trazado 659486" transform="translate(2139 -11565)" fill="none">
      <path d="M22,0H224a22,22,0,0,1,22,22v78a22,22,0,0,1-22,22H22A22,22,0,0,1,0,100V22A22,22,0,0,1,22,0Z" stroke="none"/>
      <path d="M 22 2 C 19.29913330078125 2 16.68013000488281 2.528533935546875 14.2156982421875 3.570869445800781 C 11.83436584472656 4.578102111816406 9.695266723632812 6.020469665527344 7.857864379882812 7.857864379882812 C 6.020462036132812 9.695266723632812 4.578094482421875 11.83436584472656 3.57086181640625 14.2156982421875 C 2.528533935546875 16.68013000488281 2 19.29913330078125 2 22 L 2 100 C 2 102.7008666992188 2.528533935546875 105.3198699951172 3.57086181640625 107.7843017578125 C 4.578094482421875 110.1656341552734 6.020462036132812 112.3047332763672 7.857864379882812 114.1421356201172 C 9.695266723632812 115.9795303344727 11.83436584472656 117.4218978881836 14.2156982421875 118.4291305541992 C 16.68013000488281 119.4714660644531 19.29913330078125 120 22 120 L 224 120 C 226.7008666992188 120 229.3198699951172 119.4714660644531 231.7843017578125 118.4291305541992 C 234.1656341552734 117.4218978881836 236.3047332763672 115.9795303344727 238.1421356201172 114.1421356201172 C 239.9795379638672 112.3047332763672 241.4219055175781 110.1656341552734 242.4291381835938 107.7843017578125 C 243.4714660644531 105.3198699951172 244 102.7008666992188 244 100 L 244 22 C 244 19.29913330078125 243.4714660644531 16.68013000488281 242.4291381835938 14.2156982421875 C 241.4219055175781 11.83436584472656 239.9795379638672 9.695266723632812 238.1421356201172 7.857864379882812 C 236.3047332763672 6.020469665527344 234.1656341552734 4.578102111816406 231.7843017578125 3.570869445800781 C 229.3198699951172 2.528533935546875 226.7008666992188 2 224 2 L 22 2 M 22 0 L 224 0 C 236.1502685546875 0 246 9.8497314453125 246 22 L 246 100 C 246 112.1502685546875 236.1502685546875 122 224 122 L 22 122 C 9.8497314453125 122 0 112.1502685546875 0 100 L 0 22 C 0 9.8497314453125 9.8497314453125 0 22 0 Z" stroke="none" fill="#12263f"/>
    </g>
    <path id="Trazado_659487" data-name="Trazado 659487" d="M39.369,19H37.484L30.326,8.043V19H28.441V4.781h1.885L37.5,15.787V4.781h1.865Zm2.568-5.381a6.241,6.241,0,0,1,.61-2.793,4.553,4.553,0,0,1,1.7-1.914,4.626,4.626,0,0,1,2.485-.674,4.456,4.456,0,0,1,3.491,1.494,5.748,5.748,0,0,1,1.333,3.975v.127a6.3,6.3,0,0,1-.591,2.769,4.486,4.486,0,0,1-1.689,1.909,4.679,4.679,0,0,1-2.524.684A4.445,4.445,0,0,1,43.271,17.7a5.719,5.719,0,0,1-1.333-3.955Zm1.816.215a4.52,4.52,0,0,0,.815,2.822,2.763,2.763,0,0,0,4.37-.015,4.943,4.943,0,0,0,.811-3.022,4.513,4.513,0,0,0-.825-2.817,2.623,2.623,0,0,0-2.192-1.079,2.594,2.594,0,0,0-2.158,1.064A4.906,4.906,0,0,0,43.754,13.834Zm11.768-5.4.049,1.172a3.9,3.9,0,0,1,3.135-1.367,3.021,3.021,0,0,1,3.018,1.7,4,4,0,0,1,1.372-1.23,4.052,4.052,0,0,1,2-.469q3.477,0,3.535,3.682V19H66.82V12.027a2.426,2.426,0,0,0-.518-1.694,2.279,2.279,0,0,0-1.738-.562,2.4,2.4,0,0,0-1.67.6,2.436,2.436,0,0,0-.771,1.616V19H60.307V12.076a2.016,2.016,0,0,0-2.256-2.3,2.417,2.417,0,0,0-2.432,1.514V19H53.813V8.434Zm24.775,5.4a6.283,6.283,0,0,1-1.113,3.892A3.557,3.557,0,0,1,76.2,19.2a3.683,3.683,0,0,1-3.1-1.416L73.012,19h-1.66V4h1.807V9.6a3.663,3.663,0,0,1,3.018-1.357A3.579,3.579,0,0,1,79.2,9.693a6.471,6.471,0,0,1,1.1,3.984Zm-1.807-.205a4.882,4.882,0,0,0-.713-2.852,2.36,2.36,0,0,0-2.051-1.006,2.652,2.652,0,0,0-2.568,1.66V16a2.727,2.727,0,0,0,2.588,1.66,2.347,2.347,0,0,0,2.021-1.006A5.192,5.192,0,0,0,78.49,13.629Zm9.189-3.574a5.414,5.414,0,0,0-.889-.068A2.381,2.381,0,0,0,84.379,11.5V19H82.572V8.434H84.33l.029,1.221a2.813,2.813,0,0,1,2.52-1.416,1.846,1.846,0,0,1,.8.137ZM93.539,19.2a4.617,4.617,0,0,1-3.5-1.411A5.237,5.237,0,0,1,88.7,14.01v-.332a6.341,6.341,0,0,1,.6-2.808,4.685,4.685,0,0,1,1.68-1.934,4.223,4.223,0,0,1,2.339-.7,3.957,3.957,0,0,1,3.2,1.357,5.877,5.877,0,0,1,1.143,3.887v.752H90.5a3.756,3.756,0,0,0,.913,2.524,2.87,2.87,0,0,0,2.222.962,3.147,3.147,0,0,0,1.621-.391,4.073,4.073,0,0,0,1.162-1.035l1.1.859A4.437,4.437,0,0,1,93.539,19.2Zm-.225-9.473a2.41,2.41,0,0,0-1.836.8,3.869,3.869,0,0,0-.918,2.231h5.293v-.137a3.441,3.441,0,0,0-.742-2.134A2.269,2.269,0,0,0,93.314,9.723Zm10.947,3.906a6.19,6.19,0,0,1,1.152-3.911,3.921,3.921,0,0,1,5.957-.21V4h1.807V19h-1.66l-.088-1.133a3.679,3.679,0,0,1-3.018,1.328,3.609,3.609,0,0,1-2.993-1.5,6.26,6.26,0,0,1-1.157-3.926Zm1.807.205a4.687,4.687,0,0,0,.742,2.813,2.4,2.4,0,0,0,2.051,1.016,2.636,2.636,0,0,0,2.51-1.543V11.266a2.656,2.656,0,0,0-2.49-1.494,2.411,2.411,0,0,0-2.07,1.025A5.16,5.16,0,0,0,106.068,13.834Zm14.3,5.361a4.617,4.617,0,0,1-3.5-1.411,5.237,5.237,0,0,1-1.348-3.774v-.332a6.341,6.341,0,0,1,.6-2.808,4.685,4.685,0,0,1,1.68-1.934,4.223,4.223,0,0,1,2.339-.7,3.957,3.957,0,0,1,3.2,1.357,5.877,5.877,0,0,1,1.143,3.887v.752h-7.158a3.756,3.756,0,0,0,.913,2.524,2.87,2.87,0,0,0,2.222.962,3.147,3.147,0,0,0,1.621-.391,4.073,4.073,0,0,0,1.162-1.035l1.1.859A4.437,4.437,0,0,1,120.365,19.2Zm-.225-9.473a2.41,2.41,0,0,0-1.836.8,3.869,3.869,0,0,0-.918,2.231h5.293v-.137a3.441,3.441,0,0,0-.742-2.134A2.269,2.269,0,0,0,120.141,9.723ZM28.632,47H26.825V32h1.807Zm9.414,0a3.8,3.8,0,0,1-.254-1.113A4.031,4.031,0,0,1,34.784,47.2a3.73,3.73,0,0,1-2.563-.884,2.859,2.859,0,0,1-1-2.241,2.987,2.987,0,0,1,1.255-2.563A5.916,5.916,0,0,1,36,40.594h1.758v-.83a2.029,2.029,0,0,0-.566-1.509,2.276,2.276,0,0,0-1.67-.562,2.634,2.634,0,0,0-1.621.488,1.439,1.439,0,0,0-.654,1.182H31.435A2.493,2.493,0,0,1,32,37.835a3.832,3.832,0,0,1,1.523-1.167,5.125,5.125,0,0,1,2.114-.43,4.177,4.177,0,0,1,2.861.913,3.294,3.294,0,0,1,1.074,2.515v4.863a5.946,5.946,0,0,0,.371,2.314V47Zm-3-1.377a3.175,3.175,0,0,0,1.611-.439,2.658,2.658,0,0,0,1.1-1.143V41.873H36.347q-3.32,0-3.32,1.943a1.645,1.645,0,0,0,.566,1.328A2.177,2.177,0,0,0,35.048,45.623ZM53.876,47a3.8,3.8,0,0,1-.254-1.113A4.031,4.031,0,0,1,50.614,47.2a3.73,3.73,0,0,1-2.563-.884,2.859,2.859,0,0,1-1-2.241A2.987,2.987,0,0,1,48.3,41.507a5.916,5.916,0,0,1,3.53-.913h1.758v-.83a2.029,2.029,0,0,0-.566-1.509,2.276,2.276,0,0,0-1.67-.562,2.634,2.634,0,0,0-1.621.488,1.439,1.439,0,0,0-.654,1.182H47.265a2.493,2.493,0,0,1,.562-1.528,3.832,3.832,0,0,1,1.523-1.167,5.125,5.125,0,0,1,2.114-.43,4.177,4.177,0,0,1,2.861.913A3.294,3.294,0,0,1,55.4,39.666v4.863a5.946,5.946,0,0,0,.371,2.314V47Zm-3-1.377a3.175,3.175,0,0,0,1.611-.439,2.658,2.658,0,0,0,1.1-1.143V41.873H52.177q-3.32,0-3.32,1.943a1.645,1.645,0,0,0,.566,1.328A2.177,2.177,0,0,0,50.878,45.623Zm11.592.1a2.6,2.6,0,0,0,1.689-.586,2.061,2.061,0,0,0,.8-1.465h1.709a3.276,3.276,0,0,1-.625,1.729,4.116,4.116,0,0,1-1.538,1.309,4.438,4.438,0,0,1-2.036.488,4.353,4.353,0,0,1-3.433-1.44,5.737,5.737,0,0,1-1.274-3.94v-.3a6.361,6.361,0,0,1,.566-2.744A4.314,4.314,0,0,1,59.955,36.9a4.619,4.619,0,0,1,2.5-.664A4.238,4.238,0,0,1,65.414,37.3a3.8,3.8,0,0,1,1.255,2.764H64.96a2.49,2.49,0,0,0-.776-1.685,2.415,2.415,0,0,0-1.724-.659,2.529,2.529,0,0,0-2.134.991,4.655,4.655,0,0,0-.757,2.866v.342a4.562,4.562,0,0,0,.752,2.813A2.541,2.541,0,0,0,62.47,45.721Zm8.682-11.846v2.559h1.973v1.4H71.151v6.561a1.467,1.467,0,0,0,.264.953,1.11,1.11,0,0,0,.9.318,4.374,4.374,0,0,0,.859-.117V47a5.268,5.268,0,0,1-1.387.194,2.25,2.25,0,0,1-1.826-.732,3.147,3.147,0,0,1-.615-2.08V37.83H67.421v-1.4h1.924V33.875ZM77.2,47H75.39V36.434H77.2ZM75.243,33.631a1.078,1.078,0,0,1,.269-.742,1.008,1.008,0,0,1,.8-.3,1.024,1.024,0,0,1,.8.3,1.067,1.067,0,0,1,.273.742,1.032,1.032,0,0,1-.273.732,1.043,1.043,0,0,1-.8.293,1.026,1.026,0,0,1-.8-.293A1.043,1.043,0,0,1,75.243,33.631Zm8.33,10.918,2.617-8.115h1.846L84.247,47H82.87L79.042,36.434h1.846ZM91.737,47H89.931V36.434h1.807ZM89.784,33.631a1.078,1.078,0,0,1,.269-.742,1.008,1.008,0,0,1,.8-.3,1.024,1.024,0,0,1,.8.3,1.067,1.067,0,0,1,.273.742,1.032,1.032,0,0,1-.273.732,1.043,1.043,0,0,1-.8.293,1.026,1.026,0,0,1-.8-.293A1.043,1.043,0,0,1,89.784,33.631Zm4.4,8a6.19,6.19,0,0,1,1.152-3.911,3.921,3.921,0,0,1,5.957-.21V32H103.1V47h-1.66l-.088-1.133A3.679,3.679,0,0,1,98.339,47.2a3.609,3.609,0,0,1-2.993-1.5,6.26,6.26,0,0,1-1.157-3.926ZM96,41.834a4.687,4.687,0,0,0,.742,2.813,2.4,2.4,0,0,0,2.051,1.016,2.636,2.636,0,0,0,2.51-1.543V39.266a2.656,2.656,0,0,0-2.49-1.494,2.411,2.411,0,0,0-2.07,1.025A5.16,5.16,0,0,0,96,41.834ZM112.431,47a3.8,3.8,0,0,1-.254-1.113,4.031,4.031,0,0,1-3.008,1.309,3.73,3.73,0,0,1-2.563-.884,2.859,2.859,0,0,1-1-2.241,2.987,2.987,0,0,1,1.255-2.563,5.916,5.916,0,0,1,3.53-.913h1.758v-.83a2.029,2.029,0,0,0-.566-1.509,2.276,2.276,0,0,0-1.67-.562,2.634,2.634,0,0,0-1.621.488,1.439,1.439,0,0,0-.654,1.182h-1.816a2.493,2.493,0,0,1,.562-1.528,3.832,3.832,0,0,1,1.523-1.167,5.125,5.125,0,0,1,2.114-.43,4.177,4.177,0,0,1,2.861.913,3.294,3.294,0,0,1,1.074,2.515v4.863a5.946,5.946,0,0,0,.371,2.314V47Zm-3-1.377a3.175,3.175,0,0,0,1.611-.439,2.658,2.658,0,0,0,1.1-1.143V41.873h-1.416q-3.32,0-3.32,1.943a1.645,1.645,0,0,0,.566,1.328A2.177,2.177,0,0,0,109.433,45.623Zm6.914-3.994a6.19,6.19,0,0,1,1.152-3.911,3.921,3.921,0,0,1,5.957-.21V32h1.807V47H123.6l-.088-1.133A3.679,3.679,0,0,1,120.5,47.2a3.609,3.609,0,0,1-2.993-1.5,6.26,6.26,0,0,1-1.157-3.926Zm1.807.205a4.687,4.687,0,0,0,.742,2.813,2.4,2.4,0,0,0,2.051,1.016,2.636,2.636,0,0,0,2.51-1.543V39.266a2.656,2.656,0,0,0-2.49-1.494A2.411,2.411,0,0,0,118.9,38.8,5.16,5.16,0,0,0,118.153,41.834Z" transform="translate(2186 -11531)" fill="#12263f"/>
  </g>
</svg>
