<svg id="Grupo_985393" data-name="Grupo 985393" xmlns="http://www.w3.org/2000/svg" width="339.839" height="470.433" viewBox="0 0 339.839 470.433">
  <g id="_ÎÓÈ_28_3_" data-name="—ÎÓÈ_28_3_" transform="translate(107.813 0)">
    <g id="Grupo_33182" data-name="Grupo 33182" transform="translate(58.914 23.778)">
      <g id="Grupo_33181" data-name="Grupo 33181">
        <path id="Trazado_81696" data-name="Trazado 81696" d="M1651.554,633.858a48.319,48.319,0,0,0-5.977,3.85l3.219,7.933a40.289,40.289,0,0,0-4.468,4.4l-8.081-3.087a47.952,47.952,0,0,0-3.828,5.842l6.168,5.937a39.76,39.76,0,0,0-2.357,6.071l-8.614.465a48.488,48.488,0,0,0-1.08,6.8l8.051,2.916a40.09,40.09,0,0,0,.346,6.686l-7.672,3.926a47.852,47.852,0,0,0,1.786,6.565l8.556-.612a39.741,39.741,0,0,0,3.133,6.039l-5.393,6.682c.654.912,1.341,1.811,2.068,2.69s1.481,1.723,2.255,2.537l7.575-4.044a39.775,39.775,0,0,0,5.343,4.211l-2.207,8.289a47.97,47.97,0,0,0,6.113,2.987l5.3-6.8a40,40,0,0,0,6.5,1.6l1.353,8.455a48.3,48.3,0,0,0,6.879.214l2.074-8.373a39.759,39.759,0,0,0,6.406-1.176l4.674,7.173a47.868,47.868,0,0,0,6.456-2.665l-1.515-8.516a40.266,40.266,0,0,0,5.158-3.563l7.187,4.65a48.281,48.281,0,0,0,4.9-5.148l-4.846-7.16a39.742,39.742,0,0,0,3.146-5.141l8.464,1.326a48.265,48.265,0,0,0,2.425-6.807l-7.342-4.571a40.089,40.089,0,0,0,.773-5.752l8.288-2.235a48.112,48.112,0,0,0-.515-7.3l-8.554-1.188a39.629,39.629,0,0,0-1.559-5.447l6.677-5.425a47.972,47.972,0,0,0-3.437-6.513l-8.287,2.391c-.542-.754-1.11-1.5-1.711-2.223s-1.224-1.424-1.862-2.1l3.9-7.691a47.907,47.907,0,0,0-5.752-4.6l-6.582,5.54a39.687,39.687,0,0,0-5.057-2.553l.438-8.626a48.378,48.378,0,0,0-7.072-1.876l-3.751,7.721a40.192,40.192,0,0,0-5.8-.32l-3.113-8.07a48.178,48.178,0,0,0-7.139,1.106l-.286,8.562a39.771,39.771,0,0,0-5.64,2.125ZM1692,661.807a22.831,22.831,0,1,1-32.145-3.044A22.831,22.831,0,0,1,1692,661.807Z" transform="translate(-1626.536 -628.169)" fill="#4adbd1"/>
        <g id="Grupo_33180" data-name="Grupo 33180" transform="translate(33.072 33.389)">
          <path id="Trazado_81697" data-name="Trazado 81697" d="M1722.351,745.705a14.8,14.8,0,1,0,1.972-20.836A14.8,14.8,0,0,0,1722.351,745.705Z" transform="translate(-1718.956 -721.473)" fill="#4adbd1"/>
        </g>
      </g>
    </g>
    <g id="Grupo_33184" data-name="Grupo 33184" transform="translate(0 46.897)">
      <g id="Grupo_33183" data-name="Grupo 33183">
        <path id="Trazado_81698" data-name="Trazado 81698" d="M1469.746,712.64l-5.855-.617-1.988,7.659,5.491,2.34a24.461,24.461,0,0,0,.808,7.5l-4.875,3.285,3.4,7.144,5.765-1.752a24.56,24.56,0,0,0,5.409,5.17l-1.643,5.725,7.2,3.288,3.355-5.15a24.479,24.479,0,0,0,7.345.458l2.476,5.569,7.629-2.108-.757-6.238a24.728,24.728,0,0,0,5.82-4.291l5.595,2.73,4.487-6.516-4.659-4.359a24.379,24.379,0,0,0,1.717-6.949l6.094-1.517-.75-7.877-6.372-.343a24.748,24.748,0,0,0-3.133-6.454l3.674-5.054-5.638-5.551-5.027,3.777a24.571,24.571,0,0,0-6.63-2.991l-.425-6.117-7.888-.628-1.392,5.99a24.558,24.558,0,0,0-7.133,2l-4.156-4.307-6.446,4.589,2.723,5.368A24.394,24.394,0,0,0,1469.746,712.64Zm25.514-2.113a13.079,13.079,0,1,1-15.947,9.372A13.079,13.079,0,0,1,1495.259,710.527Z" transform="translate(-1461.902 -692.777)" fill="#f59d36"/>
        <path id="Trazado_81699" data-name="Trazado 81699" d="M1527.632,770.357a8.943,8.943,0,1,0-6.409-10.9A8.943,8.943,0,0,0,1527.632,770.357Z" transform="translate(-1499.809 -731.292)" fill="#4adbd1"/>
      </g>
    </g>
    <path id="Trazado_81700" data-name="Trazado 81700" d="M1593.831,566.322l-7.056,4.993a15.292,15.292,0,0,0-3.984-1.38l-1.917-8.213-4.386.13-1.458,8.51a15.285,15.285,0,0,0-3.8,1.842l-7.159-4.449-3.009,3.194,4.991,7.054a15.268,15.268,0,0,0-1.382,3.981l-8.212,1.916.13,4.387,8.511,1.459a15.338,15.338,0,0,0,1.845,3.8L1562.5,600.7l3.194,3.009,7.052-4.988a15.254,15.254,0,0,0,3.978,1.386l1.917,8.213,4.387-.13,1.458-8.51a15.3,15.3,0,0,0,3.8-1.842l7.159,4.449,3.009-3.194-4.991-7.054a15.237,15.237,0,0,0,1.383-3.981l8.213-1.918-.13-4.386-8.509-1.459a15.333,15.333,0,0,0-1.842-3.8l4.452-7.161Zm-9.258,23.238a6.617,6.617,0,1,1-.278-9.354A6.617,6.617,0,0,1,1584.573,589.56Z" transform="translate(-1522.623 -561.723)" fill="#12263f"/>
    <path id="Trazado_81701" data-name="Trazado 81701" d="M1614.63,623.112a4.479,4.479,0,1,0-5.441-3.243A4.479,4.479,0,0,0,1614.63,623.112Z" transform="translate(-1556.394 -595.479)" fill="#1565c0"/>
  </g>
  <g id="Grupo_41974" data-name="Grupo 41974" transform="translate(0 67.01)">
    <ellipse id="Elipse_3405" data-name="Elipse 3405" cx="168.948" cy="9.794" rx="168.948" ry="9.794" transform="translate(0 383.834)" fill="#fff"/>
    <g id="Grupo_33123" data-name="Grupo 33123" transform="translate(9.178 47.379)">
      <g id="Grupo_33119" data-name="Grupo 33119" transform="translate(54.864 299.546)">
        <path id="Trazado_81544" data-name="Trazado 81544" d="M1808.044,908.549l-2.062-32.519,11.75-.618-1.652,34.092Z" transform="translate(-1804.436 -875.412)" fill="#fac5c2"/>
        <g id="Grupo_33118" data-name="Grupo 33118" transform="translate(0 28.472)">
          <path id="Trazado_81545" data-name="Trazado 81545" d="M1806.7,931.253s-4.535,8.161-3.2,14.5l35.454.7s2.321-6.756-5.659-8.615-19-7.576-19-7.576S1809.733,934.231,1806.7,931.253Z" transform="translate(-1803.152 -929.672)" fill="#5573c6"/>
          <path id="Trazado_81546" data-name="Trazado 81546" d="M1803.4,956.329l35.454.7a7.465,7.465,0,0,0,.171-3.559l-35.958-.714A17.261,17.261,0,0,0,1803.4,956.329Z" transform="translate(-1803.065 -940.245)" fill="#f7ead5"/>
          <path id="Trazado_81547" data-name="Trazado 81547" d="M1822.611,931.741a4.918,4.918,0,0,1,1.188-1.588,5.088,5.088,0,0,1,2.678-.885,21.606,21.606,0,0,1,2.486-.126,5.354,5.354,0,0,1,3.106.745.864.864,0,0,1,.453.813.8.8,0,0,1-.5.5,4.039,4.039,0,0,1-2.31.062q-2.793-.491-5.532-1.239a11.393,11.393,0,0,1,.291,3.043,6.156,6.156,0,0,1-.674,2.773,2.285,2.285,0,0,1-.824.9,1.21,1.21,0,0,1-1.18.043,1.277,1.277,0,0,1-.569-1.033,3.284,3.284,0,0,1,.211-1.2A17.16,17.16,0,0,1,1822.611,931.741Z" transform="translate(-1811.597 -929.142)" fill="none" stroke="#fff" stroke-linecap="round" stroke-linejoin="round" stroke-width="0.917"/>
        </g>
      </g>
      <g id="Grupo_33121" data-name="Grupo 33121" transform="translate(12.889 298.846)">
        <path id="Trazado_81548" data-name="Trazado 81548" d="M1728.832,907.229l-2.061-32.519,11.75-.618-1.651,34.092Z" transform="translate(-1725.225 -874.092)" fill="#fac5c2"/>
        <g id="Grupo_33120" data-name="Grupo 33120" transform="translate(0 28.472)">
          <path id="Trazado_81549" data-name="Trazado 81549" d="M1727.486,929.932s-4.535,8.161-3.2,14.5l35.454.7s2.32-6.756-5.659-8.615-19-7.577-19-7.577S1730.521,932.91,1727.486,929.932Z" transform="translate(-1723.94 -928.352)" fill="#5573c6"/>
          <path id="Trazado_81550" data-name="Trazado 81550" d="M1724.186,955.01l35.454.7a7.462,7.462,0,0,0,.171-3.559l-35.958-.714A17.229,17.229,0,0,0,1724.186,955.01Z" transform="translate(-1723.853 -938.925)" fill="#f7ead5"/>
          <path id="Trazado_81551" data-name="Trazado 81551" d="M1743.4,930.421a4.912,4.912,0,0,1,1.188-1.588,5.084,5.084,0,0,1,2.678-.885,21.683,21.683,0,0,1,2.486-.126,5.351,5.351,0,0,1,3.1.745.864.864,0,0,1,.454.813.8.8,0,0,1-.5.5,4.041,4.041,0,0,1-2.311.062q-2.792-.492-5.531-1.239a11.408,11.408,0,0,1,.291,3.043,6.138,6.138,0,0,1-.674,2.773,2.286,2.286,0,0,1-.824.9,1.21,1.21,0,0,1-1.18.043,1.277,1.277,0,0,1-.569-1.033,3.288,3.288,0,0,1,.211-1.2A17.146,17.146,0,0,1,1743.4,930.421Z" transform="translate(-1732.385 -927.822)" fill="none" stroke="#fff" stroke-linecap="round" stroke-linejoin="round" stroke-width="0.917"/>
        </g>
      </g>
      <path id="Trazado_81552" data-name="Trazado 81552" d="M1833.244,464.074l5.13,34.979,23,36.174-6.209,3.469-27.517-27.284-7.462-31.714Z" transform="translate(-1756.249 -382.497)" fill="#fac5c2"/>
      <path id="Trazado_81553" data-name="Trazado 81553" d="M1780.677,608.763l1.128,13.783-.2,149.264-18.99.613-5.717-134.971-3.063-.2-14.089,134.971H1719.73l3.063-76.572-.817-82.289,12.66-8.78Z" transform="translate(-1709.026 -448.548)" fill="#00223d"/>
      <path id="Trazado_81554" data-name="Trazado 81554" d="M1726.281,629.776,1741.8,613.44l16.948.2" transform="translate(-1712.105 -452.714)" fill="none" stroke="#356493" stroke-linecap="round" stroke-linejoin="round" stroke-width="1.156"/>
      <path id="Trazado_81555" data-name="Trazado 81555" d="M1789.862,641.8l1.225-2.45.2-25.524,15.314.408,8.167,12.66" transform="translate(-1741.995 -452.895)" fill="none" stroke="#356493" stroke-linecap="round" stroke-linejoin="round" stroke-width="1.156"/>
      <path id="Trazado_81556" data-name="Trazado 81556" d="M1790.619,543.446a1.582,1.582,0,1,0-1.582,1.582A1.582,1.582,0,0,0,1790.619,543.446Z" transform="translate(-1740.863 -419.066)" fill="none" stroke="#356493" stroke-linecap="round" stroke-linejoin="round" stroke-width="1.156"/>
      <path id="Trazado_81557" data-name="Trazado 81557" d="M1733.033,405.105s-15.109,5.759-17.18,6.763c-14.924,7.229-16.324,42.208-16.324,42.208h12.593l-1.661,67.742s35.923,7.462,63.207-.466L1770.2,459.5s10.371-.175,18.1-4.372c0,0-12.359-35.445-17.816-39.643s-26.374-7.928-26.374-7.928Z" transform="translate(-1699.529 -354.776)" fill="#5573c6"/>
      <path id="Trazado_81558" data-name="Trazado 81558" d="M1768.466,373.729l-5.474,18.691s-.946,9.917,10.143,12.01c10.752,2.029,10.484-8.1,10.484-8.1l-.706-3.361,1.029-11.178Z" transform="translate(-1729.354 -340.026)" fill="#fac5c2"/>
      <path id="Trazado_81559" data-name="Trazado 81559" d="M1771.553,377.46l.783-2.675,4.825,1.867,4.559,2.374,5.982,6.226-.561,6.093C1783.985,390.89,1773.057,388.519,1771.553,377.46Z" transform="translate(-1733.387 -340.523)" fill="#d88080"/>
      <g id="Grupo_33122" data-name="Grupo 33122" transform="translate(34.44 0)">
        <path id="Trazado_81560" data-name="Trazado 81560" d="M1796.875,337.179c-1.074,8.562-5.341,25.388-13.952,24.853-9.061-.562-13.334-5.736-14.289-14.251,0,0-4.611,1.477-4.067-4.673.24-2.713,3.217-1.158,3.217-1.158s-4.37-22.506,9.8-23.824S1798.345,325.46,1796.875,337.179Z" transform="translate(-1764.522 -313.825)" fill="#fac5c2"/>
        <path id="Trazado_81561" data-name="Trazado 81561" d="M1791.294,351.954a2.567,2.567,0,0,0,.766.392.7.7,0,0,0,.76-.29,1.368,1.368,0,0,0-.145-1.386,3.3,3.3,0,0,0-2.146-1.229,7.041,7.041,0,0,0-2.448-.277,3.134,3.134,0,0,0-2.211,1.245.592.592,0,0,0-.137.321.377.377,0,0,0,.253.363.8.8,0,0,0,.412-.024A6.461,6.461,0,0,1,1791.294,351.954Z" transform="translate(-1774.493 -328.467)" fill="#242638"/>
        <path id="Trazado_81562" data-name="Trazado 81562" d="M1810.957,354.99a2.2,2.2,0,0,1-.761.184.591.591,0,0,1-.566-.47,1.517,1.517,0,0,1,.51-1.294,2.855,2.855,0,0,1,2.168-.641,5.554,5.554,0,0,1,2.159.349,2.735,2.735,0,0,1,1.532,1.751.634.634,0,0,1,.027.342.375.375,0,0,1-.317.285.631.631,0,0,1-.343-.127A5.18,5.18,0,0,0,1810.957,354.99Z" transform="translate(-1785.717 -330.172)" fill="#242638"/>
        <path id="Trazado_81563" data-name="Trazado 81563" d="M1802.2,365.251c-.428,1.955.137,3.975.678,5.9a.766.766,0,0,1,0,.582.662.662,0,0,1-.179.184,2.4,2.4,0,0,1-1.27.477c-.653.046-1.413-.146-1.891.3" transform="translate(-1780.987 -336.041)" fill="none" stroke="#242638" stroke-miterlimit="10" stroke-width="0.679"/>
        <path id="Trazado_81564" data-name="Trazado 81564" d="M1813.428,363.975c.2-1.446-.244-2.7-.986-2.8s-1.5.988-1.7,2.434.244,2.7.987,2.8S1813.231,365.421,1813.428,363.975Z" transform="translate(-1786.226 -334.121)" fill="#242638"/>
        <path id="Trazado_81565" data-name="Trazado 81565" d="M1791.92,360.72c.2-1.446-.245-2.7-.987-2.8s-1.5.989-1.7,2.434.244,2.7.987,2.8S1791.722,362.166,1791.92,360.72Z" transform="translate(-1776.115 -332.591)" fill="#242638"/>
        <path id="Trazado_81566" data-name="Trazado 81566" d="M1800.048,383.191a24.128,24.128,0,0,1-10.937-1.206s1.662,4.426,5.228,4.631S1800.048,383.191,1800.048,383.191Z" transform="translate(-1776.081 -343.907)" fill="#fff"/>
        <path id="Trazado_81567" data-name="Trazado 81567" d="M1800.862,326.681c.782-.447,1.76-.9,1.886-1.788.121-.861-.662-1.578-1.44-1.968a5.368,5.368,0,0,1-2.176-1.38c1.812-.127,2.758-2.462,2.186-4.186a5.953,5.953,0,0,0-3.214-3.339,14.568,14.568,0,0,0-4.613-1.106,55.278,55.278,0,0,0-8.943-.274c-2.5.126-5.278.344-7.243-1.211a5.61,5.61,0,0,0-1.734-1.23,2.431,2.431,0,0,0-2.7,1.576,7.082,7.082,0,0,0-.245,3.381,4.2,4.2,0,0,0-3.621-.1c-1.081.632-1.4,2.47-.307,3.085.354.2.835.283.991.658.176.42-.192.852-.512,1.175a13.835,13.835,0,0,0,.042,19.56c1.2-3.031,2.869-5.85,4.177-8.834a18.587,18.587,0,0,0,1.88-9.474c5.433,4.218,12.689,5.468,19.548,4.966a2.1,2.1,0,0,1,1.5.26,2.059,2.059,0,0,1,.536,1.525l.4,6.138A7.506,7.506,0,0,1,1800.862,326.681Z" transform="translate(-1764.817 -310.127)" fill="#242638"/>
        <path id="Trazado_81568" data-name="Trazado 81568" d="M1771.9,345.765a66.861,66.861,0,0,0,5.645-19.194c-.081.679,2.521,1.74,2.984,1.977a25.72,25.72,0,0,0,5.381,2.034c4.941,1.245,9.9.93,14.933,1.065a3.414,3.414,0,0,1,1.985.477,1.219,1.219,0,0,1,.254,1.793" transform="translate(-1767.988 -317.857)" fill="none" stroke="#fff" stroke-linecap="round" stroke-linejoin="round" stroke-width="0.69"/>
        <path id="Trazado_81569" data-name="Trazado 81569" d="M1809.428,328.161c-2.531-1.508-5.686-1.282-8.627-1.118-4.325.241-8.827.212-12.759-1.6" transform="translate(-1775.579 -317.325)" fill="none" stroke="#fff" stroke-linecap="round" stroke-linejoin="round" stroke-width="0.69"/>
      </g>
      <rect id="Rectángulo_26606" data-name="Rectángulo 26606" width="8.439" height="7.477" rx="1.976" transform="translate(52.672 32.319) rotate(-169.629)" fill="none" stroke="#242638" stroke-miterlimit="10" stroke-width="0.855"/>
      <rect id="Rectángulo_26607" data-name="Rectángulo 26607" width="7.827" height="7.477" rx="1.903" transform="translate(63.897 34.373) rotate(-169.629)" fill="none" stroke="#242638" stroke-miterlimit="10" stroke-width="0.823"/>
      <line id="Línea_268" data-name="Línea 268" x2="5.579" y2="0.606" transform="translate(39.185 27.317)" fill="none" stroke="#242638" stroke-miterlimit="10" stroke-width="0.66"/>
      <path id="Trazado_81570" data-name="Trazado 81570" d="M1799.912,365.3s2.807-.887,3.585.811" transform="translate(-1746.719 -335.957)" fill="none" stroke="#242638" stroke-miterlimit="10" stroke-width="0.66"/>
      <line id="Línea_269" data-name="Línea 269" x2="0.73" y2="0.222" transform="translate(64.522 31.361)" fill="none" stroke="#242638" stroke-miterlimit="10" stroke-width="0.66"/>
      <line id="Línea_270" data-name="Línea 270" x1="1.37" y1="19.18" transform="translate(69.299 85.541)" fill="none" stroke="#242638" stroke-linecap="round" stroke-linejoin="round" stroke-width="1.32"/>
      <path id="Trazado_81571" data-name="Trazado 81571" d="M1726.805,497.079l3.5,20.054,33.113,25.651,15.857.933,7.7,3.032-3.5,3.731H1757.82l-43.581-21a3.066,3.066,0,0,1-1.691-2.247l-5.1-29.921Z" transform="translate(-1703.253 -398.013)" fill="#fac5c2"/>
      <path id="Trazado_81572" data-name="Trazado 81572" d="M1743.976,481.356l2.565.466.466-18.189" transform="translate(-1720.423 -382.29)" fill="none" stroke="#242638" stroke-linecap="round" stroke-linejoin="round" stroke-width="1.32"/>
    </g>
    <g id="Grupo_33139" data-name="Grupo 33139" transform="translate(158.188)">
      <rect id="Rectángulo_26608" data-name="Rectángulo 26608" width="153.907" height="391.763" fill="#d4dee8"/>
      <rect id="Rectángulo_26609" data-name="Rectángulo 26609" width="138.121" height="319.473" transform="translate(7.893 9.794)" fill="none" stroke="#242638" stroke-miterlimit="10" stroke-width="2.25"/>
      <g id="Grupo_33124" data-name="Grupo 33124" transform="translate(11.444 15.157)">
        <rect id="Rectángulo_26610" data-name="Rectángulo 26610" width="129.834" height="13.292" fill="#242638"/>
        <rect id="Rectángulo_26611" data-name="Rectángulo 26611" width="3.507" height="9.911" transform="translate(123.565 1.399)" fill="#2ec49f"/>
        <rect id="Rectángulo_26612" data-name="Rectángulo 26612" width="3.507" height="9.911" transform="translate(119.181 1.399)" fill="#2ec49f"/>
        <rect id="Rectángulo_26613" data-name="Rectángulo 26613" width="3.507" height="9.911" transform="translate(114.739 1.399)" fill="#2ec49f"/>
        <rect id="Rectángulo_26614" data-name="Rectángulo 26614" width="3.507" height="9.911" transform="translate(110.3 1.399)" fill="#2ec49f"/>
        <rect id="Rectángulo_26615" data-name="Rectángulo 26615" width="3.507" height="9.911" transform="translate(105.764 1.399)" fill="#2ec49f"/>
        <rect id="Rectángulo_26616" data-name="Rectángulo 26616" width="3.507" height="9.911" transform="translate(101.322 1.399)" fill="#2ec49f"/>
        <rect id="Rectángulo_26617" data-name="Rectángulo 26617" width="3.507" height="9.911" transform="translate(96.882 1.399)" fill="#2ec49f"/>
        <rect id="Rectángulo_26618" data-name="Rectángulo 26618" width="27.674" height="3.673" rx="1.836" transform="translate(49.921 2.798)" fill="#fff"/>
        <path id="Trazado_81573" data-name="Trazado 81573" d="M2052.233,259.408a2.8,2.8,0,1,0-2.763,3.265A3.045,3.045,0,0,0,2052.233,259.408Z" transform="translate(-2023.191 -252.528)" fill="#f59d36"/>
        <path id="Trazado_81574" data-name="Trazado 81574" d="M2037.211,259.408a2.8,2.8,0,1,0-2.762,3.265A3.045,3.045,0,0,0,2037.211,259.408Z" transform="translate(-2016.129 -252.528)" fill="#5793ce"/>
        <path id="Trazado_81575" data-name="Trazado 81575" d="M2022.189,259.408a2.8,2.8,0,1,0-2.762,3.265A3.045,3.045,0,0,0,2022.189,259.408Z" transform="translate(-2009.067 -252.528)" fill="#2ec49f"/>
      </g>
      <g id="Grupo_33125" data-name="Grupo 33125" transform="translate(11.444 32.297)">
        <rect id="Rectángulo_26619" data-name="Rectángulo 26619" width="129.834" height="13.292" fill="#242638"/>
        <rect id="Rectángulo_26620" data-name="Rectángulo 26620" width="3.507" height="9.911" transform="translate(123.565 1.399)" fill="#2ec49f"/>
        <rect id="Rectángulo_26621" data-name="Rectángulo 26621" width="3.507" height="9.911" transform="translate(119.181 1.399)" fill="#2ec49f"/>
        <rect id="Rectángulo_26622" data-name="Rectángulo 26622" width="3.507" height="9.911" transform="translate(114.739 1.399)" fill="#2ec49f"/>
        <rect id="Rectángulo_26623" data-name="Rectángulo 26623" width="3.507" height="9.911" transform="translate(110.3 1.399)" fill="#2ec49f"/>
        <rect id="Rectángulo_26624" data-name="Rectángulo 26624" width="3.507" height="9.911" transform="translate(105.764 1.399)" fill="#2ec49f"/>
        <rect id="Rectángulo_26625" data-name="Rectángulo 26625" width="27.674" height="3.673" rx="1.836" transform="translate(49.921 2.798)" fill="#fff"/>
        <ellipse id="Elipse_3406" data-name="Elipse 3406" cx="2.762" cy="3.265" rx="2.762" ry="3.265" transform="translate(23.517 3.614)" fill="#f59d36"/>
        <ellipse id="Elipse_3407" data-name="Elipse 3407" cx="2.762" cy="3.265" rx="2.762" ry="3.265" transform="translate(15.557 3.614)" fill="#5793ce"/>
        <ellipse id="Elipse_3408" data-name="Elipse 3408" cx="2.762" cy="3.265" rx="2.762" ry="3.265" transform="translate(7.597 3.614)" fill="#2ec49f"/>
      </g>
      <g id="Grupo_33126" data-name="Grupo 33126" transform="translate(11.444 48.912)">
        <rect id="Rectángulo_26626" data-name="Rectángulo 26626" width="129.834" height="13.292" fill="#242638"/>
        <rect id="Rectángulo_26627" data-name="Rectángulo 26627" width="3.507" height="9.911" transform="translate(123.565 1.399)" fill="#2ec49f"/>
        <rect id="Rectángulo_26628" data-name="Rectángulo 26628" width="3.507" height="9.911" transform="translate(119.181 1.399)" fill="#2ec49f"/>
        <rect id="Rectángulo_26629" data-name="Rectángulo 26629" width="3.507" height="9.911" transform="translate(114.739 1.399)" fill="#2ec49f"/>
        <rect id="Rectángulo_26630" data-name="Rectángulo 26630" width="27.674" height="3.673" rx="1.836" transform="translate(49.921 2.798)" fill="#fff"/>
        <ellipse id="Elipse_3409" data-name="Elipse 3409" cx="2.762" cy="3.265" rx="2.762" ry="3.265" transform="translate(23.517 3.614)" fill="#f59d36"/>
        <ellipse id="Elipse_3410" data-name="Elipse 3410" cx="2.762" cy="3.265" rx="2.762" ry="3.265" transform="translate(15.557 3.614)" fill="#5793ce"/>
        <ellipse id="Elipse_3411" data-name="Elipse 3411" cx="2.762" cy="3.265" rx="2.762" ry="3.265" transform="translate(7.597 3.614)" fill="#2ec49f"/>
      </g>
      <g id="Grupo_33127" data-name="Grupo 33127" transform="translate(11.444 125.224)">
        <rect id="Rectángulo_26631" data-name="Rectángulo 26631" width="129.834" height="13.292" fill="#242638"/>
        <rect id="Rectángulo_26632" data-name="Rectángulo 26632" width="3.507" height="9.911" transform="translate(123.565 1.399)" fill="#2ec49f"/>
        <rect id="Rectángulo_26633" data-name="Rectángulo 26633" width="3.507" height="9.911" transform="translate(119.181 1.399)" fill="#2ec49f"/>
        <rect id="Rectángulo_26634" data-name="Rectángulo 26634" width="3.507" height="9.911" transform="translate(114.739 1.399)" fill="#2ec49f"/>
        <rect id="Rectángulo_26635" data-name="Rectángulo 26635" width="3.507" height="9.911" transform="translate(110.3 1.399)" fill="#2ec49f"/>
        <rect id="Rectángulo_26636" data-name="Rectángulo 26636" width="3.507" height="9.911" transform="translate(105.764 1.399)" fill="#2ec49f"/>
        <rect id="Rectángulo_26637" data-name="Rectángulo 26637" width="3.507" height="9.911" transform="translate(101.322 1.399)" fill="#2ec49f"/>
        <rect id="Rectángulo_26638" data-name="Rectángulo 26638" width="3.507" height="9.911" transform="translate(96.882 1.399)" fill="#2ec49f"/>
        <rect id="Rectángulo_26639" data-name="Rectángulo 26639" width="27.674" height="3.673" rx="1.836" transform="translate(49.921 2.798)" fill="#fff"/>
        <ellipse id="Elipse_3412" data-name="Elipse 3412" cx="2.762" cy="3.265" rx="2.762" ry="3.265" transform="translate(23.517 3.614)" fill="#f59d36"/>
        <ellipse id="Elipse_3413" data-name="Elipse 3413" cx="2.762" cy="3.265" rx="2.762" ry="3.265" transform="translate(15.557 3.614)" fill="#5793ce"/>
        <ellipse id="Elipse_3414" data-name="Elipse 3414" cx="2.762" cy="3.265" rx="2.762" ry="3.265" transform="translate(7.597 3.614)" fill="#2ec49f"/>
      </g>
      <g id="Grupo_33128" data-name="Grupo 33128" transform="translate(11.444 142.364)">
        <rect id="Rectángulo_26640" data-name="Rectángulo 26640" width="129.834" height="13.292" fill="#242638"/>
        <rect id="Rectángulo_26641" data-name="Rectángulo 26641" width="3.507" height="9.911" transform="translate(123.565 1.399)" fill="#2ec49f"/>
        <rect id="Rectángulo_26642" data-name="Rectángulo 26642" width="3.507" height="9.911" transform="translate(119.181 1.399)" fill="#2ec49f"/>
        <rect id="Rectángulo_26643" data-name="Rectángulo 26643" width="3.507" height="9.911" transform="translate(114.739 1.399)" fill="#2ec49f"/>
        <rect id="Rectángulo_26644" data-name="Rectángulo 26644" width="3.507" height="9.911" transform="translate(110.3 1.399)" fill="#2ec49f"/>
        <rect id="Rectángulo_26645" data-name="Rectángulo 26645" width="3.507" height="9.911" transform="translate(105.764 1.399)" fill="#2ec49f"/>
        <rect id="Rectángulo_26646" data-name="Rectángulo 26646" width="27.674" height="3.673" rx="1.836" transform="translate(49.921 2.798)" fill="#fff"/>
        <ellipse id="Elipse_3415" data-name="Elipse 3415" cx="2.762" cy="3.265" rx="2.762" ry="3.265" transform="translate(23.517 3.614)" fill="#f59d36"/>
        <ellipse id="Elipse_3416" data-name="Elipse 3416" cx="2.762" cy="3.265" rx="2.762" ry="3.265" transform="translate(15.557 3.614)" fill="#5793ce"/>
        <ellipse id="Elipse_3417" data-name="Elipse 3417" cx="2.762" cy="3.265" rx="2.762" ry="3.265" transform="translate(7.597 3.614)" fill="#2ec49f"/>
      </g>
      <g id="Grupo_33129" data-name="Grupo 33129" transform="translate(11.444 158.979)">
        <rect id="Rectángulo_26647" data-name="Rectángulo 26647" width="129.834" height="13.292" fill="#242638"/>
        <rect id="Rectángulo_26648" data-name="Rectángulo 26648" width="3.507" height="9.911" transform="translate(123.565 1.399)" fill="#2ec49f"/>
        <rect id="Rectángulo_26649" data-name="Rectángulo 26649" width="3.507" height="9.911" transform="translate(119.181 1.399)" fill="#2ec49f"/>
        <rect id="Rectángulo_26650" data-name="Rectángulo 26650" width="3.507" height="9.911" transform="translate(114.739 1.399)" fill="#2ec49f"/>
        <rect id="Rectángulo_26651" data-name="Rectángulo 26651" width="27.674" height="3.673" rx="1.836" transform="translate(49.921 2.798)" fill="#fff"/>
        <path id="Trazado_81576" data-name="Trazado 81576" d="M2052.233,530.818a2.8,2.8,0,1,0-2.763,3.265A3.045,3.045,0,0,0,2052.233,530.818Z" transform="translate(-2023.191 -523.939)" fill="#f59d36"/>
        <path id="Trazado_81577" data-name="Trazado 81577" d="M2037.211,530.818a2.8,2.8,0,1,0-2.762,3.265A3.045,3.045,0,0,0,2037.211,530.818Z" transform="translate(-2016.129 -523.939)" fill="#5793ce"/>
        <path id="Trazado_81578" data-name="Trazado 81578" d="M2022.189,530.818a2.8,2.8,0,1,0-2.762,3.265A3.046,3.046,0,0,0,2022.189,530.818Z" transform="translate(-2009.067 -523.939)" fill="#2ec49f"/>
      </g>
      <g id="Grupo_33130" data-name="Grupo 33130" transform="translate(11.444 219.434)">
        <rect id="Rectángulo_26652" data-name="Rectángulo 26652" width="129.834" height="13.292" fill="#242638"/>
        <rect id="Rectángulo_26653" data-name="Rectángulo 26653" width="3.507" height="9.911" transform="translate(123.565 1.399)" fill="#2ec49f"/>
        <rect id="Rectángulo_26654" data-name="Rectángulo 26654" width="3.507" height="9.911" transform="translate(119.181 1.399)" fill="#2ec49f"/>
        <rect id="Rectángulo_26655" data-name="Rectángulo 26655" width="3.507" height="9.911" transform="translate(114.739 1.399)" fill="#2ec49f"/>
        <rect id="Rectángulo_26656" data-name="Rectángulo 26656" width="3.507" height="9.911" transform="translate(110.3 1.399)" fill="#2ec49f"/>
        <rect id="Rectángulo_26657" data-name="Rectángulo 26657" width="3.507" height="9.911" transform="translate(105.764 1.399)" fill="#2ec49f"/>
        <rect id="Rectángulo_26658" data-name="Rectángulo 26658" width="3.507" height="9.911" transform="translate(101.322 1.399)" fill="#2ec49f"/>
        <rect id="Rectángulo_26659" data-name="Rectángulo 26659" width="3.507" height="9.911" transform="translate(96.882 1.399)" fill="#2ec49f"/>
        <rect id="Rectángulo_26660" data-name="Rectángulo 26660" width="27.674" height="3.673" rx="1.836" transform="translate(49.921 2.798)" fill="#fff"/>
        <ellipse id="Elipse_3418" data-name="Elipse 3418" cx="2.762" cy="3.265" rx="2.762" ry="3.265" transform="translate(23.517 3.615)" fill="#f59d36"/>
        <ellipse id="Elipse_3419" data-name="Elipse 3419" cx="2.762" cy="3.265" rx="2.762" ry="3.265" transform="translate(15.557 3.615)" fill="#5793ce"/>
        <ellipse id="Elipse_3420" data-name="Elipse 3420" cx="2.762" cy="3.265" rx="2.762" ry="3.265" transform="translate(7.597 3.615)" fill="#2ec49f"/>
      </g>
      <g id="Grupo_33131" data-name="Grupo 33131" transform="translate(11.444 236.573)">
        <rect id="Rectángulo_26661" data-name="Rectángulo 26661" width="129.834" height="13.292" fill="#242638"/>
        <rect id="Rectángulo_26662" data-name="Rectángulo 26662" width="3.507" height="9.911" transform="translate(123.565 1.399)" fill="#2ec49f"/>
        <rect id="Rectángulo_26663" data-name="Rectángulo 26663" width="3.507" height="9.911" transform="translate(119.181 1.399)" fill="#2ec49f"/>
        <rect id="Rectángulo_26664" data-name="Rectángulo 26664" width="3.507" height="9.911" transform="translate(114.739 1.399)" fill="#2ec49f"/>
        <rect id="Rectángulo_26665" data-name="Rectángulo 26665" width="3.507" height="9.911" transform="translate(110.3 1.399)" fill="#2ec49f"/>
        <rect id="Rectángulo_26666" data-name="Rectángulo 26666" width="3.507" height="9.911" transform="translate(105.764 1.399)" fill="#2ec49f"/>
        <rect id="Rectángulo_26667" data-name="Rectángulo 26667" width="27.674" height="3.673" rx="1.836" transform="translate(49.921 2.798)" fill="#fff"/>
        <path id="Trazado_81579" data-name="Trazado 81579" d="M2052.233,677.25a2.8,2.8,0,1,0-2.763,3.265A3.045,3.045,0,0,0,2052.233,677.25Z" transform="translate(-2023.191 -670.371)" fill="#f59d36"/>
        <path id="Trazado_81580" data-name="Trazado 81580" d="M2037.211,677.25a2.8,2.8,0,1,0-2.762,3.265A3.045,3.045,0,0,0,2037.211,677.25Z" transform="translate(-2016.129 -670.371)" fill="#5793ce"/>
        <path id="Trazado_81581" data-name="Trazado 81581" d="M2022.189,677.25a2.8,2.8,0,1,0-2.762,3.265A3.046,3.046,0,0,0,2022.189,677.25Z" transform="translate(-2009.067 -670.371)" fill="#2ec49f"/>
      </g>
      <g id="Grupo_33132" data-name="Grupo 33132" transform="translate(11.444 253.188)">
        <rect id="Rectángulo_26668" data-name="Rectángulo 26668" width="129.834" height="13.292" fill="#242638"/>
        <rect id="Rectángulo_26669" data-name="Rectángulo 26669" width="3.507" height="9.911" transform="translate(123.565 1.399)" fill="#2ec49f"/>
        <rect id="Rectángulo_26670" data-name="Rectángulo 26670" width="3.507" height="9.911" transform="translate(119.181 1.399)" fill="#2ec49f"/>
        <rect id="Rectángulo_26671" data-name="Rectángulo 26671" width="3.507" height="9.911" transform="translate(114.739 1.399)" fill="#2ec49f"/>
        <rect id="Rectángulo_26672" data-name="Rectángulo 26672" width="27.674" height="3.673" rx="1.836" transform="translate(49.921 2.798)" fill="#fff"/>
        <path id="Trazado_81582" data-name="Trazado 81582" d="M2052.233,708.6a2.8,2.8,0,1,0-2.763,3.265A3.045,3.045,0,0,0,2052.233,708.6Z" transform="translate(-2023.191 -701.726)" fill="#f59d36"/>
        <path id="Trazado_81583" data-name="Trazado 81583" d="M2037.211,708.6a2.8,2.8,0,1,0-2.762,3.265A3.045,3.045,0,0,0,2037.211,708.6Z" transform="translate(-2016.129 -701.726)" fill="#5793ce"/>
        <path id="Trazado_81584" data-name="Trazado 81584" d="M2022.189,708.6a2.8,2.8,0,1,0-2.762,3.265A3.045,3.045,0,0,0,2022.189,708.6Z" transform="translate(-2009.067 -701.726)" fill="#2ec49f"/>
      </g>
      <g id="Grupo_33133" data-name="Grupo 33133" transform="translate(11.444 75.787)">
        <rect id="Rectángulo_26673" data-name="Rectángulo 26673" width="129.834" height="28.916" fill="#242638"/>
      </g>
      <g id="Grupo_33134" data-name="Grupo 33134" transform="translate(11.444 181.19)">
        <rect id="Rectángulo_26674" data-name="Rectángulo 26674" width="129.834" height="28.916" fill="#242638"/>
      </g>
      <g id="Grupo_33135" data-name="Grupo 33135" transform="translate(11.444 278.665)">
        <rect id="Rectángulo_26675" data-name="Rectángulo 26675" width="129.834" height="28.916" fill="#242638"/>
      </g>
      <g id="Grupo_33136" data-name="Grupo 33136" transform="translate(117.304 341.86)">
        <rect id="Rectángulo_26676" data-name="Rectángulo 26676" width="25.454" height="3.148" rx="1.574" fill="#242638"/>
        <rect id="Rectángulo_26677" data-name="Rectángulo 26677" width="25.454" height="3.148" rx="1.574" transform="translate(0 6.471)" fill="#242638"/>
        <rect id="Rectángulo_26678" data-name="Rectángulo 26678" width="25.454" height="3.148" rx="1.574" transform="translate(0 16.265)" fill="#242638"/>
        <rect id="Rectángulo_26679" data-name="Rectángulo 26679" width="25.454" height="3.148" rx="1.574" transform="translate(0 22.736)" fill="#242638"/>
        <rect id="Rectángulo_26680" data-name="Rectángulo 26680" width="25.454" height="3.148" rx="1.574" transform="translate(0 33.055)" fill="#242638"/>
        <rect id="Rectángulo_26681" data-name="Rectángulo 26681" width="25.454" height="3.148" rx="1.574" transform="translate(0 39.526)" fill="#242638"/>
      </g>
      <g id="Grupo_33137" data-name="Grupo 33137" transform="translate(64.473 341.86)">
        <path id="Rectángulo_26682" data-name="Rectángulo 26682" d="M1.574,0H23.88a1.574,1.574,0,0,1,1.574,1.574v0A1.574,1.574,0,0,1,23.88,3.148H1.574A1.574,1.574,0,0,1,0,1.574v0A1.574,1.574,0,0,1,1.574,0Z" fill="#242638"/>
        <path id="Rectángulo_26683" data-name="Rectángulo 26683" d="M1.574,0H23.88a1.574,1.574,0,0,1,1.574,1.574v0A1.574,1.574,0,0,1,23.88,3.148H1.574A1.574,1.574,0,0,1,0,1.574v0A1.574,1.574,0,0,1,1.574,0Z" transform="translate(0 6.471)" fill="#242638"/>
        <path id="Rectángulo_26684" data-name="Rectángulo 26684" d="M1.574,0H23.88a1.574,1.574,0,0,1,1.574,1.574v0A1.574,1.574,0,0,1,23.88,3.148H1.574A1.574,1.574,0,0,1,0,1.574v0A1.574,1.574,0,0,1,1.574,0Z" transform="translate(0 16.265)" fill="#242638"/>
        <path id="Rectángulo_26685" data-name="Rectángulo 26685" d="M1.574,0H23.88a1.574,1.574,0,0,1,1.574,1.574v0A1.574,1.574,0,0,1,23.88,3.148H1.574A1.574,1.574,0,0,1,0,1.574v0A1.574,1.574,0,0,1,1.574,0Z" transform="translate(0 22.736)" fill="#242638"/>
        <path id="Rectángulo_26686" data-name="Rectángulo 26686" d="M1.574,0H23.88a1.574,1.574,0,0,1,1.574,1.574v0A1.574,1.574,0,0,1,23.88,3.148H1.574A1.574,1.574,0,0,1,0,1.574v0A1.574,1.574,0,0,1,1.574,0Z" transform="translate(0 33.055)" fill="#242638"/>
        <path id="Rectángulo_26687" data-name="Rectángulo 26687" d="M1.574,0H23.88a1.574,1.574,0,0,1,1.574,1.574v0A1.574,1.574,0,0,1,23.88,3.148H1.574A1.574,1.574,0,0,1,0,1.574v0A1.574,1.574,0,0,1,1.574,0Z" transform="translate(0 39.526)" fill="#242638"/>
      </g>
      <g id="Grupo_33138" data-name="Grupo 33138" transform="translate(11.938 341.86)">
        <path id="Rectángulo_26688" data-name="Rectángulo 26688" d="M1.574,0H23.88a1.574,1.574,0,0,1,1.574,1.574v0A1.574,1.574,0,0,1,23.88,3.148H1.574A1.574,1.574,0,0,1,0,1.574v0A1.574,1.574,0,0,1,1.574,0Z" fill="#242638"/>
        <path id="Rectángulo_26689" data-name="Rectángulo 26689" d="M1.574,0H23.88a1.574,1.574,0,0,1,1.574,1.574v0A1.574,1.574,0,0,1,23.88,3.148H1.574A1.574,1.574,0,0,1,0,1.574v0A1.574,1.574,0,0,1,1.574,0Z" transform="translate(0 6.471)" fill="#242638"/>
        <path id="Rectángulo_26690" data-name="Rectángulo 26690" d="M1.574,0H23.88a1.574,1.574,0,0,1,1.574,1.574v0A1.574,1.574,0,0,1,23.88,3.148H1.574A1.574,1.574,0,0,1,0,1.574v0A1.574,1.574,0,0,1,1.574,0Z" transform="translate(0 16.265)" fill="#242638"/>
        <path id="Rectángulo_26691" data-name="Rectángulo 26691" d="M1.574,0H23.88a1.574,1.574,0,0,1,1.574,1.574v0A1.574,1.574,0,0,1,23.88,3.148H1.574A1.574,1.574,0,0,1,0,1.574v0A1.574,1.574,0,0,1,1.574,0Z" transform="translate(0 22.736)" fill="#242638"/>
        <path id="Rectángulo_26692" data-name="Rectángulo 26692" d="M1.574,0H23.88a1.574,1.574,0,0,1,1.574,1.574v0A1.574,1.574,0,0,1,23.88,3.148H1.574A1.574,1.574,0,0,1,0,1.574v0A1.574,1.574,0,0,1,1.574,0Z" transform="translate(0 33.055)" fill="#242638"/>
        <path id="Rectángulo_26693" data-name="Rectángulo 26693" d="M1.574,0H23.88a1.574,1.574,0,0,1,1.574,1.574v0A1.574,1.574,0,0,1,23.88,3.148H1.574A1.574,1.574,0,0,1,0,1.574v0A1.574,1.574,0,0,1,1.574,0Z" transform="translate(0 39.526)" fill="#242638"/>
      </g>
    </g>
    <path id="Trazado_81585" data-name="Trazado 81585" d="M1936.725,720.506c6.763,0,19.588-.933,19.588,16.556s-2.1,47.105,9.094,47.105,10.727-16.09,10.727-45.239.933-27.983,4.664-27.983" transform="translate(-1801.856 -451.169)" fill="none" stroke="#2ec49f" stroke-miterlimit="10" stroke-width="2.64"/>
    <rect id="Rectángulo_26694" data-name="Rectángulo 26694" width="8.395" height="189.352" transform="translate(142.331 202.178)" fill="#d4dee8"/>
    <path id="Trazado_81586" data-name="Trazado 81586" d="M1936.725,726.108c5.363,0,14.458.233,14.458,10.26s-7.928,91.178,13.059,91.178,21.22-25.185,21.22-55.5-2.332-61.1,3.5-61.1" transform="translate(-1801.856 -451.175)" fill="none" stroke="#5793ce" stroke-miterlimit="10" stroke-width="2.64"/>
    <rect id="Rectángulo_26695" data-name="Rectángulo 26695" width="8.395" height="189.352" transform="translate(57.216 202.178)" fill="#d4dee8"/>
    <rect id="Rectángulo_26696" data-name="Rectángulo 26696" width="16.323" height="99.806" transform="translate(153.058 199.846) rotate(90)" fill="#d4dee8"/>
    <path id="Trazado_81587" data-name="Trazado 81587" d="M1948.879,591.913c10.144,0,8.395,8.744,8.395,30.782s-5.013,30.256-22.97,30.256" transform="translate(-1800.718 -395.215)" fill="none" stroke="#f59d36" stroke-miterlimit="10" stroke-width="2.64"/>
    <rect id="Rectángulo_26697" data-name="Rectángulo 26697" width="8.628" height="89.546" transform="translate(148.161 283.095) rotate(90)" fill="#d4dee8"/>
    <g id="Grupo_33141" data-name="Grupo 33141" transform="translate(53.277 147.543)">
      <g id="Grupo_33140" data-name="Grupo 33140" transform="translate(0)">
        <path id="Trazado_81588" data-name="Trazado 81588" d="M1915.521,499.152l-70.922.973-9.118,51.832,70.45-.276Z" transform="translate(-1807.538 -499.152)" fill="#242638"/>
        <rect id="Rectángulo_26698" data-name="Rectángulo 26698" width="45.185" height="4.487" transform="translate(0 48.381) rotate(-0.786)" fill="#242638"/>
      </g>
      <path id="Trazado_81589" data-name="Trazado 81589" d="M1917.645,536.555a6.089,6.089,0,1,0-6,6.172A6.09,6.09,0,0,0,1917.645,536.555Z" transform="translate(-1840.439 -513.912)" fill="#fff"/>
    </g>
    <g id="Grupo_33142" data-name="Grupo 33142" transform="translate(72.257 265.956)">
      <rect id="Rectángulo_26699" data-name="Rectángulo 26699" width="65.41" height="17.14" fill="#a9bdd2"/>
      <path id="Trazado_81590" data-name="Trazado 81590" d="M1879.47,740.04h-51.419a3.333,3.333,0,0,1-3.323-3.323h0a3.333,3.333,0,0,1,3.323-3.323h51.419a3.332,3.332,0,0,1,3.323,3.323h0A3.332,3.332,0,0,1,1879.47,740.04Z" transform="translate(-1821.463 -727.681)" fill="#242638"/>
      <ellipse id="Elipse_3421" data-name="Elipse 3421" cx="2.215" cy="2.215" rx="2.215" ry="2.215" transform="translate(54.538 6.879)" fill="#5793ce"/>
      <ellipse id="Elipse_3422" data-name="Elipse 3422" cx="2.215" cy="2.215" rx="2.215" ry="2.215" transform="translate(48.854 6.879)" fill="#5793ce"/>
      <path id="Trazado_81591" data-name="Trazado 81591" d="M1904.135,737.81a2.216,2.216,0,1,0-2.216,2.216A2.215,2.215,0,0,0,1904.135,737.81Z" transform="translate(-1856.709 -728.716)" fill="#5793ce"/>
      <path id="Trazado_81592" data-name="Trazado 81592" d="M1893.408,737.81a2.215,2.215,0,1,0-2.216,2.216A2.215,2.215,0,0,0,1893.408,737.81Z" transform="translate(-1851.667 -728.716)" fill="#5793ce"/>
      <ellipse id="Elipse_3423" data-name="Elipse 3423" cx="2.215" cy="2.215" rx="2.215" ry="2.215" transform="translate(31.539 6.879)" fill="#5793ce"/>
      <ellipse id="Elipse_3424" data-name="Elipse 3424" cx="2.215" cy="2.215" rx="2.215" ry="2.215" transform="translate(25.855 6.879)" fill="#5793ce"/>
    </g>
    <g id="Grupo_33143" data-name="Grupo 33143" transform="translate(72.348 248)">
      <rect id="Rectángulo_26700" data-name="Rectángulo 26700" width="65.41" height="17.14" fill="#a9bdd2"/>
      <path id="Trazado_81593" data-name="Trazado 81593" d="M1879.642,706.155h-51.419a3.333,3.333,0,0,1-3.323-3.323h0a3.333,3.333,0,0,1,3.323-3.323h51.419a3.333,3.333,0,0,1,3.323,3.323h0A3.333,3.333,0,0,1,1879.642,706.155Z" transform="translate(-1821.635 -693.796)" fill="#242638"/>
      <path id="Trazado_81594" data-name="Trazado 81594" d="M1926.09,703.924a2.215,2.215,0,1,0-2.215,2.216A2.216,2.216,0,0,0,1926.09,703.924Z" transform="translate(-1867.121 -694.83)" fill="#f59d36"/>
      <ellipse id="Elipse_3425" data-name="Elipse 3425" cx="2.215" cy="2.215" rx="2.215" ry="2.215" transform="translate(48.854 6.879)" fill="#f59d36"/>
      <path id="Trazado_81595" data-name="Trazado 81595" d="M1904.307,703.924a2.215,2.215,0,1,0-2.215,2.216A2.215,2.215,0,0,0,1904.307,703.924Z" transform="translate(-1856.881 -694.83)" fill="#f59d36"/>
      <path id="Trazado_81596" data-name="Trazado 81596" d="M1893.58,703.924a2.215,2.215,0,1,0-2.215,2.216A2.216,2.216,0,0,0,1893.58,703.924Z" transform="translate(-1851.839 -694.83)" fill="#f59d36"/>
      <ellipse id="Elipse_3426" data-name="Elipse 3426" cx="2.215" cy="2.215" rx="2.215" ry="2.215" transform="translate(31.539 6.879)" fill="#f59d36"/>
      <ellipse id="Elipse_3427" data-name="Elipse 3427" cx="2.215" cy="2.215" rx="2.215" ry="2.215" transform="translate(25.855 6.879)" fill="#f59d36"/>
    </g>
    <line id="Línea_271" data-name="Línea 271" x2="65.41" transform="translate(72.257 265.839)" fill="none" stroke="#242638" stroke-miterlimit="10" stroke-width="2.64"/>
  </g>
  <g id="Grupo_156383" data-name="Grupo 156383" transform="translate(120.12 103.763)">
    <g id="Grupo_156205" data-name="Grupo 156205">
      <g id="Grupo_156176" data-name="Grupo 156176" transform="translate(0 9.462)">
        <path id="Trazado_196533" data-name="Trazado 196533" d="M801.3,178.664c0-14.758.173-27.609,0-41.464-20.677,0-41.459.6-62.291.382-.2,14.12,0,27.4,0,41.131Q770.241,178.713,801.3,178.664Z" transform="translate(-738.52 -136.798)" fill="#fff"/>
        <path id="Trazado_196534" data-name="Trazado 196534" d="M738.891,179a.4.4,0,0,1-.4-.4c0-4.577-.023-9.181-.044-13.632-.044-8.893-.089-18.089.044-27.5a.4.4,0,0,1,.4-.4h0c12.032.127,24.235-.023,36.038-.168,8.612-.106,17.516-.215,26.249-.215a.4.4,0,0,1,.4.4c.114,9.14.078,17.788.039,26.943-.019,4.671-.039,9.5-.039,14.526a.4.4,0,0,1-.4.4c-10.345,0-20.879.012-31.066.025C759.888,178.984,749.314,179,738.891,179Zm.4-41.127c-.126,9.268-.082,18.326-.039,27.089.021,4.322.043,8.787.044,13.234,10.294,0,20.727-.012,30.822-.024,10.056-.012,20.45-.025,30.666-.025,0-4.882.02-9.581.039-14.129.038-9.018.073-17.545-.035-26.532-8.6,0-17.364.111-25.842.215C763.267,137.84,751.2,137.989,739.287,137.869Z" transform="translate(-738.401 -136.679)"/>
      </g>
      <g id="Grupo_156177" data-name="Grupo 156177" transform="translate(0.088 5.289)">
        <path id="Trazado_196535" data-name="Trazado 196535" d="M739.167,132.066c-.069,1.721-.053,3.356-.131,5.329,20.849.045,41.507.018,62.291-.049,0-1.781-.053-4.107-.053-5.554Z" transform="translate(-738.634 -131.39)" fill="#f59d36"/>
        <path id="Trazado_196536" data-name="Trazado 196536" d="M759.992,137.7c-7.238,0-14.243-.008-21.076-.022a.4.4,0,0,1-.4-.417c.041-1.015.056-1.941.071-2.836.014-.852.027-1.656.061-2.493a.4.4,0,0,1,.4-.386l62.106-.274h0a.4.4,0,0,1,.4.4c0,.684.012,1.566.025,2.494.014,1.042.029,2.121.029,3.059a.4.4,0,0,1-.4.4C786.538,137.676,772.9,137.7,759.992,137.7Zm-20.659-.825c18.785.04,38.9.023,61.472-.048,0-.834-.016-1.755-.028-2.65-.011-.758-.02-1.485-.024-2.1l-61.318.27c-.023.694-.035,1.375-.046,2.09C739.377,135.213,739.364,136.013,739.334,136.874Z" transform="translate(-738.515 -131.271)"/>
      </g>
      <g id="Grupo_156178" data-name="Grupo 156178" transform="translate(43.76 8.128)">
        <path id="Trazado_196537" data-name="Trazado 196537" d="M795.515,135.8a.4.4,0,0,1-.007-.8l2.868-.051h.007a.4.4,0,0,1,.007.8l-2.867.051Z" transform="translate(-795.114 -134.95)"/>
      </g>
      <g id="Grupo_156179" data-name="Grupo 156179" transform="translate(50.103 8.179)">
        <path id="Trazado_196538" data-name="Trazado 196538" d="M803.737,135.87a.4.4,0,0,1-.007-.8l2.867-.051h.008a.4.4,0,0,1,.007.8l-2.868.05Z" transform="translate(-803.335 -135.016)"/>
      </g>
      <g id="Grupo_156180" data-name="Grupo 156180" transform="translate(56.243 8.076)">
        <path id="Trazado_196539" data-name="Trazado 196539" d="M811.693,135.737a.4.4,0,0,1-.007-.8l2.868-.051h.007a.4.4,0,0,1,.007.8l-2.867.05Z" transform="translate(-811.292 -134.883)"/>
      </g>
      <g id="Grupo_156181" data-name="Grupo 156181" transform="translate(7.632 19.633)">
        <path id="Trazado_196540" data-name="Trazado 196540" d="M748.693,150.9a.4.4,0,0,1-.014-.8l6.964-.237a.407.407,0,0,1,.415.387.4.4,0,0,1-.388.415l-6.964.237Z" transform="translate(-748.292 -149.861)"/>
      </g>
      <g id="Grupo_156182" data-name="Grupo 156182" transform="translate(8.016 27.734)">
        <path id="Trazado_196541" data-name="Trazado 196541" d="M749.19,161.4a.4.4,0,0,1-.01-.8l9.323-.237h.01a.4.4,0,0,1,.01.8l-9.323.238Z" transform="translate(-748.789 -160.359)"/>
      </g>
      <g id="Grupo_156183" data-name="Grupo 156183" transform="translate(7.903 35.835)">
        <path id="Trazado_196542" data-name="Trazado 196542" d="M749.045,171.9a.4.4,0,0,1-.005-.8l18.87-.237h.005a.4.4,0,0,1,0,.8l-18.87.238Z" transform="translate(-748.643 -170.858)"/>
      </g>
      <g id="Grupo_156184" data-name="Grupo 156184" transform="translate(8.016 43.081)">
        <path id="Trazado_196543" data-name="Trazado 196543" d="M749.191,181.289a.4.4,0,0,1,0-.8l33.1-.237h0a.4.4,0,0,1,0,.8l-33.1.237Z" transform="translate(-748.789 -180.249)"/>
      </g>
      <g id="Grupo_156200" data-name="Grupo 156200" transform="translate(21.39)">
        <g id="Grupo_156185" data-name="Grupo 156185" transform="translate(28.439 26.523)">
          <path id="Trazado_196544" data-name="Trazado 196544" d="M803.5,163.3l8.415,8.278a55.374,55.374,0,0,0,4.581,4.183,4.98,4.98,0,0,0,2.9,1.327,2.194,2.194,0,0,0,2.177-2.09,3.6,3.6,0,0,0-1.255-2.321q-6.7-7.066-13.982-13.378C805.446,160.6,804.557,161.9,803.5,163.3Z" transform="translate(-803.098 -158.907)" fill="#fff"/>
          <path id="Trazado_196545" data-name="Trazado 196545" d="M819.277,177.375h0a5.3,5.3,0,0,1-3.146-1.412,55.757,55.757,0,0,1-4.615-4.213l-8.415-8.278a.4.4,0,0,1-.039-.529c1.047-1.383,1.944-2.7,2.812-3.968a.423.423,0,0,1,.286-.181.412.412,0,0,1,.321.086c4.839,4.194,9.552,8.7,14.01,13.405a3.951,3.951,0,0,1,1.365,2.6,2.373,2.373,0,0,1-.715,1.694A2.693,2.693,0,0,1,819.277,177.375Zm-15.363-14.229,8.164,8.032a55.347,55.347,0,0,0,4.547,4.153,4.634,4.634,0,0,0,2.651,1.242h0a1.877,1.877,0,0,0,1.292-.562,1.579,1.579,0,0,0,.481-1.123,3.253,3.253,0,0,0-1.145-2.048c-4.335-4.572-8.913-8.963-13.612-13.055C805.549,160.873,804.782,161.983,803.914,163.146Z" transform="translate(-802.979 -158.79)"/>
        </g>
        <g id="Grupo_156187" data-name="Grupo 156187">
          <g id="Grupo_156186" data-name="Grupo 156186">
            <path id="Trazado_196546" data-name="Trazado 196546" d="M784.136,124.937a17.493,17.493,0,1,0,17.493,17.493A17.494,17.494,0,0,0,784.136,124.937Zm0,30.779a13.286,13.286,0,1,1,13.285-13.286A13.286,13.286,0,0,1,784.136,155.716Zm0,0a13.286,13.286,0,1,1,13.285-13.286A13.286,13.286,0,0,1,784.136,155.716Z" transform="translate(-766.241 -124.535)" fill="#fff"/>
            <path id="Trazado_196547" data-name="Trazado 196547" d="M784.017,160.206a17.895,17.895,0,1,1,17.9-17.895A17.915,17.915,0,0,1,784.017,160.206Zm0-34.987a17.091,17.091,0,1,0,17.091,17.092A17.111,17.111,0,0,0,784.017,125.219Zm0,30.78A13.688,13.688,0,1,1,797.7,142.311,13.7,13.7,0,0,1,784.017,156Zm-12.885-13.688a12.885,12.885,0,1,0,12.885-12.884A12.9,12.9,0,0,0,771.132,142.311Z" transform="translate(-766.122 -124.416)"/>
          </g>
        </g>
        <g id="Grupo_156188" data-name="Grupo 156188" transform="translate(9.295 15.94)">
          <path id="Trazado_196548" data-name="Trazado 196548" d="M778.689,146.968a1.373,1.373,0,1,1,1.372,1.373A1.373,1.373,0,0,1,778.689,146.968Z" transform="translate(-778.288 -145.193)" fill="#fff"/>
          <path id="Trazado_196549" data-name="Trazado 196549" d="M779.943,148.623a1.774,1.774,0,1,1,1.775-1.774A1.776,1.776,0,0,1,779.943,148.623Zm0-2.745a.971.971,0,1,0,.971.971A.973.973,0,0,0,779.943,145.877Z" transform="translate(-778.169 -145.074)"/>
        </g>
        <g id="Grupo_156189" data-name="Grupo 156189" transform="translate(15.942 15.94)">
          <ellipse id="Elipse_6032" data-name="Elipse 6032" cx="1.373" cy="1.373" rx="1.373" ry="1.373" transform="translate(0.402 0.402)" fill="#fff"/>
          <path id="Trazado_196550" data-name="Trazado 196550" d="M788.557,148.623a1.774,1.774,0,1,1,1.775-1.774A1.776,1.776,0,0,1,788.557,148.623Zm0-2.745a.971.971,0,1,0,.972.971A.972.972,0,0,0,788.557,145.877Z" transform="translate(-786.783 -145.074)"/>
        </g>
        <g id="Grupo_156190" data-name="Grupo 156190" transform="translate(22.589 15.94)">
          <ellipse id="Elipse_6033" data-name="Elipse 6033" cx="1.373" cy="1.373" rx="1.373" ry="1.373" transform="translate(0.402 0.402)" fill="#fff"/>
          <path id="Trazado_196551" data-name="Trazado 196551" d="M797.172,148.623a1.774,1.774,0,1,1,1.774-1.774A1.776,1.776,0,0,1,797.172,148.623Zm0-2.745a.971.971,0,1,0,.971.971A.973.973,0,0,0,797.172,145.877Z" transform="translate(-795.397 -145.074)"/>
        </g>
        <g id="Grupo_156191" data-name="Grupo 156191" transform="translate(30.962 30.074)">
          <path id="Trazado_196552" data-name="Trazado 196552" d="M806.383,164.738a.127.127,0,0,1-.037-.005.135.135,0,0,1-.092-.166l.309-1.076a.134.134,0,0,1,.257.073l-.308,1.077A.135.135,0,0,1,806.383,164.738Z" transform="translate(-806.249 -163.393)"/>
        </g>
        <g id="Grupo_156192" data-name="Grupo 156192" transform="translate(32.434 29.265)">
          <path id="Trazado_196553" data-name="Trazado 196553" d="M808.291,166.384h-.018a.135.135,0,0,1-.116-.15c.165-1.258.363-2.53.59-3.779a.134.134,0,1,1,.264.049c-.227,1.245-.424,2.512-.588,3.765A.135.135,0,0,1,808.291,166.384Z" transform="translate(-808.157 -162.343)"/>
        </g>
        <g id="Grupo_156193" data-name="Grupo 156193" transform="translate(34.345 30.888)">
          <path id="Trazado_196554" data-name="Trazado 196554" d="M810.768,168.7a.134.134,0,0,1-.134-.134c0-.629.1-1.684.182-2.615.052-.57.1-1.062.113-1.371a.134.134,0,1,1,.267.013c-.015.315-.061.809-.113,1.382-.085.926-.181,1.975-.181,2.591A.134.134,0,0,1,810.768,168.7Z" transform="translate(-810.634 -164.447)"/>
        </g>
        <g id="Grupo_156194" data-name="Grupo 156194" transform="translate(36.2 32.204)">
          <path id="Trazado_196555" data-name="Trazado 196555" d="M813.273,170.889a.134.134,0,0,1-.134-.131l-.1-4.468a.134.134,0,0,1,.269-.006l.1,4.468a.135.135,0,0,1-.13.137Z" transform="translate(-813.038 -166.153)"/>
        </g>
        <g id="Grupo_156195" data-name="Grupo 156195" transform="translate(37.988 33.97)">
          <path id="Trazado_196556" data-name="Trazado 196556" d="M815.664,173.387a.134.134,0,0,1-.134-.129l-.175-4.678a.135.135,0,0,1,.129-.139.14.14,0,0,1,.139.129l.176,4.679a.134.134,0,0,1-.13.138Z" transform="translate(-815.355 -168.441)"/>
        </g>
        <g id="Grupo_156196" data-name="Grupo 156196" transform="translate(39.821 35.943)">
          <path id="Trazado_196557" data-name="Trazado 196557" d="M818.1,175.637a.134.134,0,0,1-.133-.127l-.237-4.37a.135.135,0,0,1,.126-.141.13.13,0,0,1,.141.127l.237,4.37a.134.134,0,0,1-.127.141Z" transform="translate(-817.731 -170.999)"/>
        </g>
        <g id="Grupo_156197" data-name="Grupo 156197" transform="translate(41.606 37.598)">
          <path id="Trazado_196558" data-name="Trazado 196558" d="M820.506,177.667a.134.134,0,0,1-.134-.124l-.328-4.255a.134.134,0,1,1,.266-.021l.329,4.255a.133.133,0,0,1-.123.144Z" transform="translate(-820.045 -173.143)"/>
        </g>
        <g id="Grupo_156198" data-name="Grupo 156198" transform="translate(43.327 39.505)">
          <path id="Trazado_196559" data-name="Trazado 196559" d="M822.791,179.615a.134.134,0,0,1-.133-.12l-.383-3.732a.134.134,0,0,1,.12-.147.139.139,0,0,1,.147.12l.383,3.732a.133.133,0,0,1-.12.147Z" transform="translate(-822.274 -175.615)"/>
        </g>
        <g id="Grupo_156199" data-name="Grupo 156199" transform="translate(45.18 41.371)">
          <path id="Trazado_196560" data-name="Trazado 196560" d="M825.079,179.969a.135.135,0,0,1-.132-.113l-.269-1.667a.133.133,0,0,1,.11-.154.132.132,0,0,1,.154.11l.27,1.667a.134.134,0,0,1-.111.154Z" transform="translate(-824.676 -178.033)"/>
        </g>
      </g>
      <g id="Grupo_156201" data-name="Grupo 156201" transform="translate(0.577 11.037)" opacity="0.129">
        <path id="Trazado_196561" data-name="Trazado 196561" d="M760.985,138.961c-.451-.266-.99-.07-1.482-.082-2.056-.025-4.114-.193-6.174-.154-2.334.028-4.665.238-7,.149-1.332-.056-2.667-.01-4-.042-.512-.012-1.025-.015-1.537-.012a2.507,2.507,0,0,0-1,.093,1.056,1.056,0,0,0,.407,2.025c3.38.015,6.755.274,10.135.2,3.366-.145,6.743.011,10.1-.233l.026,0a1.155,1.155,0,0,0,.735-.3A1.052,1.052,0,0,0,760.985,138.961Z" transform="translate(-739.149 -138.72)"/>
      </g>
      <g id="Grupo_156202" data-name="Grupo 156202" transform="translate(55.45 10.902)" opacity="0.129">
        <path id="Trazado_196562" data-name="Trazado 196562" d="M817.357,138.676a1.039,1.039,0,0,0-.833-.079c.021-.009.029-.013.009-.006-.218.035-.437.066-.654.113l-.055.006c-1.325,0-2.655-.123-3.985-.079-.444,0-.95-.063-1.281.3a1.029,1.029,0,0,0,.721,1.743c1.142-.082,2.283-.09,3.427-.072.937-.073.742-.083,1.42-.12.211,0,.421-.025.631-.036.007,0,.007,0,0,0a.955.955,0,0,0,.692-.209A.944.944,0,0,0,817.357,138.676Z" transform="translate(-810.265 -138.545)"/>
      </g>
      <g id="Grupo_156203" data-name="Grupo 156203" transform="translate(26.018 16.35)" opacity="0.129">
        <path id="Trazado_196563" data-name="Trazado 196563" d="M789.45,159.591c.441-.149.885-.295,1.324-.455.944-.533,1.868-1.1,2.751-1.715a16.174,16.174,0,0,0,2.231-2.024,12.149,12.149,0,0,0,.806-.913.885.885,0,0,0-.779.067,17.7,17.7,0,0,1-3.68,2.225,10.4,10.4,0,0,1-3.563,1.015,17.98,17.98,0,0,1-9.3-1.832,13.35,13.35,0,0,1-2.149-1.34q-.587-.475-1.123-1.006c-.152-.124-.579-.623-.741-.809a26.338,26.338,0,0,1-2.406-4.963,15.486,15.486,0,0,1-.461-1.492,4.589,4.589,0,0,0-.215-.742,14.884,14.884,0,0,0,.2,3.4,22.469,22.469,0,0,0,.979,3.471c.118.2.238.4.355.6a20,20,0,0,0,3.214,4.156,15.837,15.837,0,0,0,2.813,1.409,20.585,20.585,0,0,0,6.015,1.409,12.781,12.781,0,0,0,2.26.011Q788.716,159.837,789.45,159.591Z" transform="translate(-772.12 -145.606)"/>
      </g>
      <g id="Grupo_156204" data-name="Grupo 156204" transform="translate(49.648 27.772)" opacity="0.129">
        <path id="Trazado_196564" data-name="Trazado 196564" d="M816.334,175.665a.946.946,0,0,0-.364-.354l-.008-.008.011,0a.15.15,0,0,0-.018-.012c-.092-.089-.323-.3-.406-.386-1.346-1.356-2.869-2.513-4.286-3.789-1.032-.958-1.9-2.078-2.975-2.991-1.121-.963-2.033-2.136-3.13-3.12a1.055,1.055,0,0,0,.229-.1,7.734,7.734,0,0,0,1.818-1.652c.2-.231.415-.445.607-.681a1.3,1.3,0,0,0,.523-.882,1.117,1.117,0,0,0-.811-1.242,1.2,1.2,0,0,0-1.427.819,15.524,15.524,0,0,1-1.7,1.658l-.12.083a1.106,1.106,0,0,0-.5.657,1.022,1.022,0,0,0-.042.3.7.7,0,0,0-.141-.015.857.857,0,0,0-.6,1.451,23.905,23.905,0,0,1,3.227,3.167c1.162,1.184,2.262,2.43,3.431,3.608.93.893,1.966,1.662,2.933,2.513.711.6,1.373,1.258,2.055,1.892a.791.791,0,0,0,.282.327A.962.962,0,0,0,816.334,175.665Z" transform="translate(-802.745 -160.408)"/>
      </g>
    </g>
  </g>
  <g id="Grupo_156386" data-name="Grupo 156386" transform="translate(102.813 139.754)">
    <g id="Grupo_156148" data-name="Grupo 156148">
      <path id="Trazado_196507" data-name="Trazado 196507" d="M101.221,330.029c0-11.012.128-20.6,0-30.94-15.429,0-30.937.448-46.482.285-.149,10.537,0,20.448,0,30.692Q78.043,330.065,101.221,330.029Z" transform="translate(-54.373 -298.788)" fill="#fff"/>
      <path id="Trazado_196508" data-name="Trazado 196508" d="M54.518,330.144a.3.3,0,0,1-.3-.3c0-3.415-.017-6.851-.033-10.172-.032-6.636-.066-13.5.033-20.524a.3.3,0,0,1,.3-.3c8.977.094,18.085-.017,26.891-.125,6.426-.079,13.071-.16,19.587-.16a.3.3,0,0,1,.3.3c.085,6.821.058,13.275.03,20.108-.014,3.485-.03,7.088-.03,10.837a.3.3,0,0,1-.3.3c-7.719,0-15.58.009-23.182.018C70.187,330.134,62.3,330.144,54.518,330.144Zm.3-30.689c-.094,6.916-.061,13.675-.029,20.214.016,3.225.032,6.557.033,9.875,7.681,0,15.466-.009,23-.018,7.5-.009,15.26-.018,22.883-.018,0-3.642.016-7.148.029-10.54.028-6.731.055-13.094-.026-19.8-6.418,0-12.957.083-19.284.161C72.707,299.434,63.7,299.544,54.814,299.455Z" transform="translate(-54.152 -298.567)"/>
    </g>
    <g id="Grupo_156149" data-name="Grupo 156149">
      <path id="Trazado_196509" data-name="Trazado 196509" d="M101.221,330.029c0-11.012.128-20.6,0-30.94-15.429,0-30.937.448-46.482.285-.149,10.537,0,20.448,0,30.692Q78.043,330.065,101.221,330.029Z" transform="translate(-54.373 -298.788)" fill="#fff"/>
      <path id="Trazado_196510" data-name="Trazado 196510" d="M54.518,330.144a.3.3,0,0,1-.3-.3c0-3.415-.017-6.851-.033-10.172-.032-6.636-.066-13.5.033-20.524a.3.3,0,0,1,.3-.3c8.977.094,18.085-.017,26.891-.125,6.426-.079,13.071-.16,19.587-.16a.3.3,0,0,1,.3.3c.085,6.821.058,13.275.03,20.108-.014,3.485-.03,7.088-.03,10.837a.3.3,0,0,1-.3.3c-7.719,0-15.58.009-23.182.018C70.187,330.134,62.3,330.144,54.518,330.144Zm.3-30.689c-.094,6.916-.061,13.675-.029,20.214.016,3.225.032,6.557.033,9.875,7.681,0,15.466-.009,23-.018,7.5-.009,15.26-.018,22.883-.018,0-3.642.016-7.148.029-10.54.028-6.731.055-13.094-.026-19.8-6.418,0-12.957.083-19.284.161C72.707,299.434,63.7,299.544,54.814,299.455Z" transform="translate(-54.152 -298.567)"/>
    </g>
    <g id="Grupo_156150" data-name="Grupo 156150" transform="translate(23.302 11.882)">
      <path id="Trazado_196511" data-name="Trazado 196511" d="M94.923,319.808a.3.3,0,1,1,0-.6l6.534-.005h0a.3.3,0,1,1,0,.6l-6.534.006Z" transform="translate(-94.623 -319.203)"/>
    </g>
    <g id="Grupo_156151" data-name="Grupo 156151" transform="translate(23.302 17.748)">
      <path id="Trazado_196512" data-name="Trazado 196512" d="M94.923,330a.3.3,0,1,1,0-.6l6.909-.006h0a.3.3,0,0,1,0,.6L94.924,330Z" transform="translate(-94.623 -329.391)"/>
    </g>
    <g id="Grupo_156152" data-name="Grupo 156152" transform="translate(6.377 23.51)">
      <path id="Trazado_196513" data-name="Trazado 196513" d="M65.527,340a.3.3,0,1,1,0-.6l21.361-.006a.3.3,0,0,1,0,.6Z" transform="translate(-65.227 -339.399)"/>
    </g>
    <g id="Grupo_156153" data-name="Grupo 156153" transform="translate(31.905 1.901)">
      <circle id="Elipse_6030" data-name="Elipse 6030" cx="9.606" cy="9.606" r="9.606" transform="translate(0 13.585) rotate(-45)" fill="#fff"/>
      <path id="Trazado_196514" data-name="Trazado 196514" d="M125.86,328.071a9.906,9.906,0,1,1,9.906-9.906A9.917,9.917,0,0,1,125.86,328.071Zm0-19.212a9.307,9.307,0,1,0,9.307,9.306A9.317,9.317,0,0,0,125.86,308.858Z" transform="translate(-112.275 -304.579)"/>
    </g>
    <g id="Grupo_156154" data-name="Grupo 156154" transform="translate(40.146 9.768)">
      <path id="Trazado_196515" data-name="Trazado 196515" d="M124.4,319.98l1.561-1.561,2.4,3.355,3.438-5.721,1.917,1.452-5.138,8.015Z" transform="translate(-124.097 -315.753)" fill="#2ec49f"/>
      <path id="Trazado_196516" data-name="Trazado 196516" d="M128.356,325.6a.3.3,0,0,1-.239-.119l-4.18-5.54a.3.3,0,0,1,.027-.393l1.561-1.561a.3.3,0,0,1,.456.037l2.136,2.984,3.2-5.33a.3.3,0,0,1,.438-.084l1.917,1.452a.3.3,0,0,1,.071.4l-5.138,8.015a.3.3,0,0,1-.241.138Zm-3.783-5.812,3.763,4.988,4.756-7.419-1.43-1.083-3.266,5.434a.3.3,0,0,1-.5.02l-2.2-3.067Z" transform="translate(-123.876 -315.532)"/>
    </g>
    <g id="Grupo_156165" data-name="Grupo 156165" transform="translate(6.677 5.974)">
      <g id="Grupo_156155" data-name="Grupo 156155">
        <path id="Trazado_196517" data-name="Trazado 196517" d="M78.046,322.7c0-4.71.032-8.811,0-13.232-3.9,0-7.828.192-11.76.122-.038,4.506,0,8.745,0,13.126C70.216,322.712,74.135,322.7,78.046,322.7Z" transform="translate(-65.969 -309.164)" fill="#fff"/>
        <path id="Trazado_196518" data-name="Trazado 196518" d="M66.065,322.791a.3.3,0,0,1-.3-.3c0-1.461,0-2.906-.009-4.35-.008-2.839-.016-5.773.009-8.778a.3.3,0,0,1,.305-.3c2.266.041,4.568-.007,6.794-.053,1.627-.033,3.31-.069,4.961-.069a.3.3,0,0,1,.3.3c.022,2.918.015,5.679.008,8.6,0,1.5-.008,3.03-.008,4.633a.3.3,0,0,1-.3.3q-2.93,0-5.865.008T66.065,322.791Zm.3-13.121c-.022,2.9-.014,5.728-.006,8.47,0,1.346.007,2.692.008,4.052q2.8,0,5.595-.007t5.566-.008c0-1.495,0-2.93.007-4.335.007-2.821.014-5.492-.005-8.3-1.55,0-3.125.037-4.652.069C70.743,309.655,68.541,309.7,66.362,309.67Z" transform="translate(-65.748 -308.943)"/>
      </g>
      <g id="Grupo_156156" data-name="Grupo 156156" transform="translate(1.362 11.309)">
        <path id="Trazado_196519" data-name="Trazado 196519" d="M69.217,329.664a.1.1,0,0,1-.059-.02,8.073,8.073,0,0,1-1.016-.891.1.1,0,1,1,.144-.139,7.8,7.8,0,0,0,.991.868.1.1,0,0,1-.06.181Z" transform="translate(-68.114 -328.584)"/>
      </g>
      <g id="Grupo_156157" data-name="Grupo 156157" transform="translate(1.179 9.348)">
        <path id="Trazado_196520" data-name="Trazado 196520" d="M71.453,328.56a.1.1,0,0,1-.069-.027c-1.157-1.078-2.353-2.146-3.553-3.178a.1.1,0,1,1,.13-.151c1.2,1.032,2.4,2.1,3.559,3.183a.1.1,0,0,1-.068.173Z" transform="translate(-67.796 -325.179)"/>
      </g>
      <g id="Grupo_156158" data-name="Grupo 156158" transform="translate(1.326 7.618)">
        <path id="Trazado_196521" data-name="Trazado 196521" d="M73.946,327.275a.1.1,0,0,1-.064-.024l-5.793-4.9a.1.1,0,0,1-.012-.14.1.1,0,0,1,.141-.012l5.793,4.9a.1.1,0,0,1,.012.141A.1.1,0,0,1,73.946,327.275Z" transform="translate(-68.052 -322.174)"/>
      </g>
      <g id="Grupo_156159" data-name="Grupo 156159" transform="translate(1.41 5.69)">
        <path id="Trazado_196522" data-name="Trazado 196522" d="M76.212,325.746a.1.1,0,0,1-.067-.025c-2.565-2.3-5.226-4.557-7.911-6.718a.1.1,0,1,1,.126-.155c2.687,2.163,5.351,4.425,7.918,6.724a.1.1,0,0,1-.066.174Z" transform="translate(-68.197 -318.825)"/>
      </g>
      <g id="Grupo_156160" data-name="Grupo 156160" transform="translate(1.371 3.605)">
        <path id="Trazado_196523" data-name="Trazado 196523" d="M77.9,323.495a.1.1,0,0,1-.063-.022c-3.262-2.619-6.515-5.342-9.669-8.094a.1.1,0,0,1,.131-.151c3.152,2.751,6.4,5.472,9.663,8.089a.1.1,0,0,1-.062.178Z" transform="translate(-68.13 -315.204)"/>
      </g>
      <g id="Grupo_156161" data-name="Grupo 156161" transform="translate(1.393 1.686)">
        <path id="Trazado_196524" data-name="Trazado 196524" d="M77.841,319.9a.1.1,0,0,1-.063-.022L68.2,312.049a.1.1,0,1,1,.126-.155l9.574,7.824a.1.1,0,0,1-.063.177Z" transform="translate(-68.167 -311.872)"/>
      </g>
      <g id="Grupo_156162" data-name="Grupo 156162" transform="translate(3.901 1.382)">
        <path id="Trazado_196525" data-name="Trazado 196525" d="M79.7,317.43a.1.1,0,0,1-.066-.024c-2.313-1.994-4.695-3.974-7.079-5.885a.1.1,0,0,1,.126-.156c2.385,1.913,4.769,3.894,7.084,5.89a.1.1,0,0,1-.065.176Z" transform="translate(-72.523 -311.343)"/>
      </g>
      <g id="Grupo_156163" data-name="Grupo 156163" transform="translate(6.821 1.567)">
        <path id="Trazado_196526" data-name="Trazado 196526" d="M81.833,315.074a.1.1,0,0,1-.059-.019c-1.411-1.019-2.805-2.1-4.144-3.213a.1.1,0,1,1,.127-.154c1.336,1.11,2.727,2.189,4.134,3.205a.1.1,0,0,1,.022.139A.1.1,0,0,1,81.833,315.074Z" transform="translate(-77.594 -311.665)"/>
      </g>
      <g id="Grupo_156164" data-name="Grupo 156164" transform="translate(9.493 1.603)">
        <path id="Trazado_196527" data-name="Trazado 196527" d="M83.881,313.134a.1.1,0,0,1-.065-.024c-.492-.42-1.01-.824-1.538-1.2a.1.1,0,1,1,.116-.163c.534.381,1.056.789,1.553,1.213a.1.1,0,0,1-.065.176Z" transform="translate(-82.235 -311.727)"/>
      </g>
    </g>
    <g id="Grupo_156166" data-name="Grupo 156166" transform="translate(6.898 18.164)" opacity="0.129">
      <path id="Trazado_196528" data-name="Trazado 196528" d="M77.694,330.438a1.37,1.37,0,0,0-.693-.091q-.81-.016-1.619-.05-4.071-.083-8.143-.181c-.313.008-.675-.049-.911.2a.69.69,0,0,0,.484,1.169c2.7.013,5.391.147,8.088.162.62.024,1.24.054,1.861.064a2.6,2.6,0,0,0,.852-.073A.678.678,0,0,0,77.694,330.438Z" transform="translate(-66.132 -330.115)"/>
    </g>
    <g id="Grupo_156169" data-name="Grupo 156169" transform="translate(37.018 18.096)">
      <g id="Grupo_156167" data-name="Grupo 156167" opacity="0.129">
        <path id="Trazado_196529" data-name="Trazado 196529" d="M135.942,330.017c-.379-.108-.557.236-.73.5-.267.37-.517.752-.8,1.114l-.018.023a5.356,5.356,0,0,1-.465.543,6.655,6.655,0,0,0-.784.756c-.146.162-.3.314-.461.461l-.046.027a.863.863,0,0,0-.088.056l-.062.042c-.492.324-.982.655-1.5.94a11.048,11.048,0,0,1-2.657.763,8.016,8.016,0,0,1-3.08-.3,11.159,11.159,0,0,1-2.025-.681c-.086-.037-.141-.059-.152-.063a12.983,12.983,0,0,1-1.74-.853,10.914,10.914,0,0,1-1.483-1.21l-.044-.035-.008-.006.006.005c-.232-.193-.449-.443-.762-.448a.615.615,0,0,0-.431,1.04,21.692,21.692,0,0,0,1.959,1.78,21.969,21.969,0,0,0,2.917,1.6,12.514,12.514,0,0,0,3.365.724,8.182,8.182,0,0,0,2.444-.329,9.466,9.466,0,0,0,2.867-1.222,4.894,4.894,0,0,0,1.234-.982,12.447,12.447,0,0,0,.995-1.11,14.736,14.736,0,0,0,1.519-1.967,1.959,1.959,0,0,0,.366-.645A.475.475,0,0,0,135.942,330.017Z" transform="translate(-118.445 -329.997)"/>
      </g>
      <g id="Grupo_156168" data-name="Grupo 156168" transform="translate(1.369 2.104)" opacity="0.129">
        <path id="Trazado_196530" data-name="Trazado 196530" d="M120.868,333.687c.025.02.049.039.074.056l-.119-.092h0Z" transform="translate(-120.822 -333.651)"/>
      </g>
    </g>
  </g>
  <g id="Grupo_161675" data-name="Grupo 161675" transform="translate(18.737 32.779)">
    <g id="Grupo_155411" data-name="Grupo 155411" transform="translate(0 3.023)">
      <path id="Trazado_195826" data-name="Trazado 195826" d="M243.774,79.209h-.006a.559.559,0,0,1-.552-.565l.166-15.318a.559.559,0,0,1,.558-.552h.007a.558.558,0,0,1,.552.565l-.166,15.318A.559.559,0,0,1,243.774,79.209Z" transform="translate(-243.216 -62.774)"/>
    </g>
    <g id="Grupo_155412" data-name="Grupo 155412" transform="translate(7.168 6.258)">
      <path id="Trazado_195827" data-name="Trazado 195827" d="M250.121,78.838h-.008a.56.56,0,0,1-.551-.566l.167-12.084a.557.557,0,0,1,.558-.55h.008a.558.558,0,0,1,.55.566l-.166,12.083A.559.559,0,0,1,250.121,78.838Z" transform="translate(-249.562 -65.638)"/>
    </g>
    <g id="Grupo_155413" data-name="Grupo 155413" transform="translate(20.833 6.258)">
      <path id="Trazado_195828" data-name="Trazado 195828" d="M262.218,78.838h-.008a.559.559,0,0,1-.551-.566l.167-12.084a.558.558,0,0,1,.558-.55h.008a.558.558,0,0,1,.55.566l-.166,12.083A.559.559,0,0,1,262.218,78.838Z" transform="translate(-261.659 -65.638)"/>
    </g>
    <g id="Grupo_155414" data-name="Grupo 155414" transform="translate(14.34)">
      <path id="Trazado_195829" data-name="Trazado 195829" d="M256.469,79.556h-.006a.558.558,0,0,1-.552-.564l.166-18.341a.558.558,0,1,1,1.116.01L257.027,79A.558.558,0,0,1,256.469,79.556Z" transform="translate(-255.911 -60.098)"/>
    </g>
  </g>
  <g id="Grupo_161676" data-name="Grupo 161676" transform="translate(103.91 326.412)">
    <g id="Grupo_155411-2" data-name="Grupo 155411" transform="translate(0 3.023)">
      <path id="Trazado_195826-2" data-name="Trazado 195826" d="M243.774,79.209h-.006a.559.559,0,0,1-.552-.565l.166-15.318a.559.559,0,0,1,.558-.552h.007a.558.558,0,0,1,.552.565l-.166,15.318A.559.559,0,0,1,243.774,79.209Z" transform="translate(-243.216 -62.774)"/>
    </g>
    <g id="Grupo_155412-2" data-name="Grupo 155412" transform="translate(7.168 6.258)">
      <path id="Trazado_195827-2" data-name="Trazado 195827" d="M250.121,78.838h-.008a.56.56,0,0,1-.551-.566l.167-12.084a.557.557,0,0,1,.558-.55h.008a.558.558,0,0,1,.55.566l-.166,12.083A.559.559,0,0,1,250.121,78.838Z" transform="translate(-249.562 -65.638)"/>
    </g>
    <g id="Grupo_155413-2" data-name="Grupo 155413" transform="translate(20.833 6.258)">
      <path id="Trazado_195828-2" data-name="Trazado 195828" d="M262.218,78.838h-.008a.559.559,0,0,1-.551-.566l.167-12.084a.558.558,0,0,1,.558-.55h.008a.558.558,0,0,1,.55.566l-.166,12.083A.559.559,0,0,1,262.218,78.838Z" transform="translate(-261.659 -65.638)"/>
    </g>
    <g id="Grupo_155414-2" data-name="Grupo 155414" transform="translate(14.34)">
      <path id="Trazado_195829-2" data-name="Trazado 195829" d="M256.469,79.556h-.006a.558.558,0,0,1-.552-.564l.166-18.341a.558.558,0,1,1,1.116.01L257.027,79A.558.558,0,0,1,256.469,79.556Z" transform="translate(-255.911 -60.098)"/>
    </g>
  </g>
  <g id="Grupo_161677" data-name="Grupo 161677" transform="translate(285.131 32.779)">
    <g id="Grupo_155416" data-name="Grupo 155416" transform="translate(9.022 3.023)">
      <path id="Trazado_195830" data-name="Trazado 195830" d="M506.175,61.739h-.008a.559.559,0,0,1-.551-.566l.2-15.318a.559.559,0,0,1,.559-.551h.007a.559.559,0,0,1,.551.566l-.2,15.318A.559.559,0,0,1,506.175,61.739Z" transform="translate(-505.616 -45.304)"/>
    </g>
    <g id="Grupo_155417" data-name="Grupo 155417" transform="translate(17.753 6.258)">
      <path id="Trazado_195831" data-name="Trazado 195831" d="M513.9,61.368H513.9a.559.559,0,0,1-.549-.568l.2-12.083a.548.548,0,0,1,.568-.549.559.559,0,0,1,.549.568l-.2,12.083A.558.558,0,0,1,513.9,61.368Z" transform="translate(-513.346 -48.168)"/>
    </g>
    <g id="Grupo_155418" data-name="Grupo 155418" transform="translate(34.395 6.258)">
      <path id="Trazado_195832" data-name="Trazado 195832" d="M528.638,61.368h-.01a.56.56,0,0,1-.549-.568l.2-12.083a.545.545,0,0,1,.567-.549.558.558,0,0,1,.549.568l-.2,12.083A.559.559,0,0,1,528.638,61.368Z" transform="translate(-528.079 -48.168)"/>
    </g>
    <g id="Grupo_155419" data-name="Grupo 155419" transform="translate(26.486)">
      <path id="Trazado_195833" data-name="Trazado 195833" d="M521.636,62.086h-.007a.559.559,0,0,1-.552-.565l.2-18.341a.559.559,0,0,1,.558-.552h.007a.558.558,0,0,1,.551.565l-.2,18.341A.559.559,0,0,1,521.636,62.086Z" transform="translate(-521.077 -42.628)"/>
    </g>
    <g id="Grupo_155420" data-name="Grupo 155420" transform="translate(0 8.2)">
      <path id="Trazado_195834" data-name="Trazado 195834" d="M498.187,61.145h-.011a.558.558,0,0,1-.547-.569l.2-10.141a.577.577,0,0,1,.569-.548.561.561,0,0,1,.548.57l-.2,10.141A.558.558,0,0,1,498.187,61.145Z" transform="translate(-497.629 -49.887)"/>
    </g>
  </g>
  <g id="Grupo_161678" data-name="Grupo 161678" transform="translate(29.795 78.272)">
    <g id="Grupo_155451" data-name="Grupo 155451">
      <path id="Trazado_195861" data-name="Trazado 195861" d="M391.175,57.882l29.561-.393c3.138-.043,6.417-.12,9.174-1.616a9.118,9.118,0,0,0,4.784-8,7.877,7.877,0,0,0-5.539-7.279,6.945,6.945,0,0,0-8.063,3.9c.157-5.643-4.826-11.021-10.471-10.984s-10.632,5.821-9.545,11.361c-.964-2.574-4.054-3.934-6.765-3.481a10.225,10.225,0,0,0-6.518,4.671,9.714,9.714,0,0,0-1.823,6.5C386.269,54.838,387.813,57.926,391.175,57.882Z" transform="translate(-385.35 -32.949)" fill="#fff"/>
      <path id="Trazado_195862" data-name="Trazado 195862" d="M391.167,58.5c-3.4,0-5.306-2.906-5.686-5.809a10.3,10.3,0,0,1,1.912-6.881,10.774,10.774,0,0,1,6.889-4.911,7.119,7.119,0,0,1,6.165,1.95,10.3,10.3,0,0,1,2.385-5.868,10.467,10.467,0,0,1,7.849-3.97h.06a10.811,10.811,0,0,1,7.609,3.38,11.714,11.714,0,0,1,3.243,6.318,7.686,7.686,0,0,1,7.771-2.59,8.382,8.382,0,0,1,5.952,7.805,9.692,9.692,0,0,1-5.075,8.5c-2.941,1.6-6.39,1.644-9.433,1.684l-29.561.393h-.08Zm.072-.558h0Zm4.176-16.02a5.826,5.826,0,0,0-.949.077,9.659,9.659,0,0,0-6.144,4.429,9.215,9.215,0,0,0-1.735,6.118c.237,1.8,1.468,4.838,4.58,4.838h.064l29.561-.393c2.913-.038,6.216-.082,8.915-1.549a8.552,8.552,0,0,0,4.492-7.491,7.339,7.339,0,0,0-5.128-6.756,6.384,6.384,0,0,0-7.4,3.563.558.558,0,0,1-1.078-.22,10.275,10.275,0,0,0-3.045-7.367,9.739,9.739,0,0,0-6.864-3.043,9.342,9.342,0,0,0-6.992,3.56,8.714,8.714,0,0,0-2.008,7.135.558.558,0,0,1-1.071.3A5.461,5.461,0,0,0,395.415,41.926Z" transform="translate(-385.414 -33.013)"/>
    </g>
    <g id="Grupo_155452" data-name="Grupo 155452" transform="translate(1.42 18.423)" opacity="0.129">
      <path id="Trazado_195863" data-name="Trazado 195863" d="M432.166,49.36a1.618,1.618,0,0,0-.652.437c-.241.177-.5.326-.751.483a17.868,17.868,0,0,1-1.777,1.076c-.062.027-.1.045-.117.055a35.08,35.08,0,0,1-3.863,1.1c-.913.112-4.074.019-5.913.08-3.929.078-7.858.094-11.786.21a58.747,58.747,0,0,0-9.288.6c-3.957.3-5.274.474-8.193-.748l.131.055a13.978,13.978,0,0,0-1.909-.865,1.222,1.222,0,0,0-.78,2.259,18.688,18.688,0,0,0,4.955,1.9c4,.647,7.984-.535,11.994-.417,1.406-.027,2.811.077,4.219.044,1.9-.069,3.791-.206,5.69-.236,2.827-.059,5.78-.245,7.873-.5a1.033,1.033,0,0,0,1.224,1.075,17.519,17.519,0,0,0,6.5-2.021c.463-.238.915-.5,1.365-.756.258-.165.583-.263.755-.53a.95.95,0,0,0,.227-.694,8.273,8.273,0,0,0,.892-.665,1.217,1.217,0,0,0,.521-.942A1.052,1.052,0,0,0,432.166,49.36Z" transform="translate(-386.671 -49.323)"/>
    </g>
  </g>
  <g id="Grupo_985394" data-name="Grupo 985394" transform="translate(283.551 60.023)">
    <g id="Grupo_892909" data-name="Grupo 892909">
      <g id="Grupo_892906" data-name="Grupo 892906" transform="translate(0.217 0.216)">
        <rect id="Rectángulo_303249" data-name="Rectángulo 303249" width="55.889" height="48.019" rx="3.922" fill="#fff"/>
      </g>
      <g id="Grupo_892908" data-name="Grupo 892908">
        <g id="Grupo_892907" data-name="Grupo 892907">
          <path id="Trazado_612426" data-name="Trazado 612426" d="M124.409,92.472c0-.016.178,0,.515-.067a3.232,3.232,0,0,0,1.377-.6,3.171,3.171,0,0,0,1.243-2.041,11.5,11.5,0,0,0,.04-1.575q-.005-.851-.01-1.811c-.017-5.132-.04-12.532-.069-21.67-.007-4.576-.017-9.586-.027-14.965-.065-1.333.259-2.8-.6-3.856a3.068,3.068,0,0,0-1.591-1.12,7.925,7.925,0,0,0-2.067-.126l-8.838.009-39.355.017a3.022,3.022,0,0,0-2.184.926,3.068,3.068,0,0,0-.855,2.2q0,2.586,0,5.135,0,5.1,0,10.042c0,6.582-.008,12.933-.012,18.982l0,4.479,0,2.2a3.765,3.765,0,0,0,.351,2.015,3.077,3.077,0,0,0,1.433,1.357,3.217,3.217,0,0,0,.954.264c.321.026.682.015,1.027.018l4.1,0,14.964.027,21.669.069,5.891.041,1.532.022c.345.007.522.022.522.022s-.177.015-.522.022l-1.532.022-5.891.041-21.669.068-14.964.027-4.1.006c-.351,0-.687.011-1.066-.017a3.536,3.536,0,0,1-1.071-.294,3.453,3.453,0,0,1-1.613-1.52,4.162,4.162,0,0,1-.4-2.192l0-2.2,0-4.479c0-6.049-.008-12.4-.012-18.982q0-4.939,0-10.042,0-2.549,0-5.135a3.5,3.5,0,0,1,.976-2.5,3.454,3.454,0,0,1,2.494-1.057l39.355.017,8.838.009,1.071,0a3.739,3.739,0,0,1,1.1.145,3.447,3.447,0,0,1,2.45,3.3q0,1.026,0,2.034c-.009,5.378-.018,10.388-.027,14.965-.029,9.138-.052,16.538-.068,21.67q-.006.958-.01,1.811a11.426,11.426,0,0,1-.062,1.6,3.246,3.246,0,0,1-1.318,2.088,3.164,3.164,0,0,1-1.421.573A2.06,2.06,0,0,1,124.409,92.472Z" transform="translate(-71.553 -44.237)" fill="#263238"/>
        </g>
      </g>
    </g>
    <g id="Grupo_892910" data-name="Grupo 892910" transform="translate(9.062 9.909)">
      <path id="Trazado_612427" data-name="Trazado 612427" d="M108.235,61.519H85.164a2.651,2.651,0,0,1-2.651-2.65h0a2.651,2.651,0,0,1,2.651-2.651h23.071a2.651,2.651,0,0,1,2.651,2.651h0A2.651,2.651,0,0,1,108.235,61.519Z" transform="translate(-82.492 -56.198)" fill="#26aab7"/>
      <path id="Trazado_612428" data-name="Trazado 612428" d="M108.23,61.537H85.16a2.671,2.671,0,1,1,0-5.343H108.23a2.671,2.671,0,0,1,0,5.343Zm-23.071-5.3a2.63,2.63,0,1,0,0,5.26H108.23a2.63,2.63,0,1,0,0-5.26Z" transform="translate(-82.488 -56.194)" fill="#fff"/>
    </g>
    <g id="Grupo_892911" data-name="Grupo 892911" transform="translate(9.062 22.373)">
      <path id="Trazado_612429" data-name="Trazado 612429" d="M121.167,76.561h-36a2.651,2.651,0,0,1-2.651-2.65h0a2.651,2.651,0,0,1,2.651-2.651h36a2.651,2.651,0,0,1,2.65,2.651h0A2.65,2.65,0,0,1,121.167,76.561Z" transform="translate(-82.492 -71.239)" fill="#263238"/>
      <path id="Trazado_612430" data-name="Trazado 612430" d="M121.163,76.578h-36a2.671,2.671,0,1,1,0-5.343h36a2.671,2.671,0,0,1,0,5.343Zm-36-5.3a2.63,2.63,0,1,0,0,5.26h36a2.63,2.63,0,0,0,0-5.26Z" transform="translate(-82.488 -71.235)" fill="#fff"/>
    </g>
    <g id="Grupo_892915" data-name="Grupo 892915" transform="translate(47.782 6.32)">
      <g id="Grupo_892912" data-name="Grupo 892912">
        <path id="Trazado_612431" data-name="Trazado 612431" d="M131.958,53.249a1.361,1.361,0,1,1-1.361-1.361A1.361,1.361,0,0,1,131.958,53.249Z" transform="translate(-129.216 -51.867)" fill="#263238"/>
        <path id="Trazado_612432" data-name="Trazado 612432" d="M130.593,54.625a1.381,1.381,0,1,1,1.381-1.381A1.382,1.382,0,0,1,130.593,54.625Zm0-2.721a1.34,1.34,0,1,0,1.34,1.34A1.341,1.341,0,0,0,130.593,51.9Z" transform="translate(-129.212 -51.863)" fill="#fff"/>
      </g>
      <g id="Grupo_892913" data-name="Grupo 892913" transform="translate(0 3.468)">
        <ellipse id="Elipse_8178" data-name="Elipse 8178" cx="1.361" cy="1.361" rx="1.361" ry="1.361" transform="translate(0.021 0.021)" fill="#263238"/>
        <path id="Trazado_612433" data-name="Trazado 612433" d="M130.593,58.811a1.381,1.381,0,1,1,1.381-1.381A1.383,1.383,0,0,1,130.593,58.811Zm0-2.721a1.34,1.34,0,1,0,1.34,1.34A1.342,1.342,0,0,0,130.593,56.089Z" transform="translate(-129.212 -56.048)" fill="#fff"/>
      </g>
      <g id="Grupo_892914" data-name="Grupo 892914" transform="translate(0 6.937)">
        <path id="Trazado_612434" data-name="Trazado 612434" d="M131.958,61.62a1.361,1.361,0,1,1-1.361-1.362A1.36,1.36,0,0,1,131.958,61.62Z" transform="translate(-129.216 -60.238)" fill="#263238"/>
        <path id="Trazado_612435" data-name="Trazado 612435" d="M130.593,63a1.381,1.381,0,1,1,1.381-1.381A1.382,1.382,0,0,1,130.593,63Zm0-2.721a1.34,1.34,0,1,0,1.34,1.339A1.341,1.341,0,0,0,130.593,60.275Z" transform="translate(-129.212 -60.234)" fill="#fff"/>
      </g>
    </g>
    <g id="Grupo_892916" data-name="Grupo 892916" transform="translate(9.062 33.57)">
      <ellipse id="Elipse_8179" data-name="Elipse 8179" cx="3.887" cy="3.887" rx="3.887" ry="3.887" transform="translate(0.021 0.02)" fill="#1565c0"/>
      <path id="Trazado_612436" data-name="Trazado 612436" d="M86.4,92.561A3.907,3.907,0,1,1,90.3,88.653,3.913,3.913,0,0,1,86.4,92.561Zm0-7.774a3.866,3.866,0,1,0,3.866,3.867A3.871,3.871,0,0,0,86.4,84.787Z" transform="translate(-82.488 -84.746)" fill="#fff"/>
    </g>
    <g id="Grupo_892917" data-name="Grupo 892917" transform="translate(18.997 33.57)">
      <ellipse id="Elipse_8180" data-name="Elipse 8180" cx="3.887" cy="3.887" rx="3.887" ry="3.887" transform="translate(0.021 0.02)" fill="#455a64"/>
      <path id="Trazado_612437" data-name="Trazado 612437" d="M98.384,92.561a3.907,3.907,0,1,1,3.907-3.907A3.912,3.912,0,0,1,98.384,92.561Zm0-7.774a3.866,3.866,0,1,0,3.867,3.867A3.871,3.871,0,0,0,98.384,84.787Z" transform="translate(-94.477 -84.746)" fill="#fff"/>
    </g>
  </g>
</svg>
