<svg id="Grupo_985444" data-name="Grupo 985444" xmlns="http://www.w3.org/2000/svg" xmlns:xlink="http://www.w3.org/1999/xlink" width="82.019" height="82.019" viewBox="0 0 82.019 82.019">
  <defs>
    <radialGradient id="radial-gradient" cx="0.076" cy="0.019" r="1.465" gradientTransform="translate(0.001)" gradientUnits="objectBoundingBox">
      <stop offset="0" stop-color="#f6f6f7"/>
      <stop offset="0.477" stop-color="#f9f9fa"/>
      <stop offset="0.715" stop-color="#fff"/>
    </radialGradient>
  </defs>
  <g id="Grupo_18423" data-name="Grupo 18423" transform="translate(0 0)">
    <g id="Grupo_18421" data-name="Grupo 18421">
      <g id="Grupo_18420" data-name="Grupo 18420">
        <g id="Grupo_18419" data-name="Grupo 18419">
          <path id="Trazado_40936" data-name="Trazado 40936" d="M276.641,2186.729a41.009,41.009,0,1,1-41.009-41.008A41.008,41.008,0,0,1,276.641,2186.729Z" transform="translate(-194.623 -2145.721)" fill="#fff"/>
        </g>
      </g>
    </g>
    <path id="Trazado_40937" data-name="Trazado 40937" d="M276.448,2186.518a41.008,41.008,0,1,0-41.009,41.01A40.847,40.847,0,0,0,276.448,2186.518Z" transform="translate(-194.429 -2145.51)" fill="url(#radial-gradient)"/>
    <path id="Trazado_40938" data-name="Trazado 40938" d="M265.093,2184.884a31.3,31.3,0,1,0-31.3,31.3A31.185,31.185,0,0,0,265.093,2184.884Z" transform="translate(-192.658 -2143.74)" fill="none" stroke="#4adbd1" stroke-miterlimit="10" stroke-width="4"/>
    <g id="Grupo_18422" data-name="Grupo 18422" transform="translate(7.265 23.024)">
      <path id="Trazado_40939" data-name="Trazado 40939" d="M271.152,2164.488a41.014,41.014,0,0,1-70.607,40.839,40.884,40.884,0,0,0,70.607-40.839Z" transform="translate(-200.545 -2164.488)" fill="#eceef0"/>
    </g>
  </g>
  <g id="YhmUKV.tif" transform="translate(23.901 20.93)">
    <g id="Grupo_143142" data-name="Grupo 143142">
      <path id="Trazado_184367" data-name="Trazado 184367" d="M3275.328-2532.515h-1.309c0-.715-.026-1.419.009-2.119.023-.451-.11-.594-.574-.589-2.144.024-4.288.02-6.432,0-.406,0-.561.1-.541.526.034.719.01,1.441.01,2.182h-1.316v-2.719h-.632q-5.037,0-10.074,0a2.665,2.665,0,0,1-2.872-2.815q-.015-9.723,0-19.445a2.665,2.665,0,0,1,2.019-2.742,5.344,5.344,0,0,1,.656-.081c0,.4.019.745-.013,1.084-.009.093-.155.211-.262.249a1.424,1.424,0,0,0-1.089,1.523c0,5.472,0,10.945-.012,16.417,0,.445.225.427.529.427q5.747-.005,11.494,0h21.331c.662,0,.662,0,.662-.665q0-8.043,0-16.086c0-1.146-.49-1.631-1.642-1.632a4.224,4.224,0,0,0-.567,0c-.4.054-.5-.119-.5-.5,0-1-.044-.812.834-.822a5.255,5.255,0,0,1,1.129.063,2.6,2.6,0,0,1,2.071,2.547q.007,9.959-.014,19.918a2.608,2.608,0,0,1-2.68,2.559c-3.185.008-6.369,0-9.554,0-.654,0-.654,0-.655.676S3275.328-2533.233,3275.328-2532.515Zm-5.429-4.026c4.981,0,9.962-.027,14.943.017,1.5.013,2.186-.427,2.074-2.085-.053-.78.075-.694-.729-.694q-16.125,0-32.25,0c-1.038,0-1.038,0-1.034,1.042,0,1.221.506,1.723,1.723,1.723Z" transform="translate(-3251.588 2572.56)" fill="#12263f"/>
      <path id="Trazado_184368" data-name="Trazado 184368" d="M3295.9-2628.5h-1.309v-17.375q0-3.028,0-6.056c0-1.182.483-1.657,1.672-1.657h20.387c1.216,0,1.678.466,1.678,1.69q0,7.334,0,14.668v.578h-1.311v-.589c0-4.811-.006-9.622.01-14.432,0-.466-.1-.615-.6-.614q-9.981.026-19.962,0c-.455,0-.6.124-.582.582.033.976.01,1.955.01,2.933,0,.623,0,.625.612.625h16.384c0,.387.019.73-.012,1.068-.008.089-.159.2-.266.233a1.438,1.438,0,0,1-.422.011c-5.235,0-10.47.007-15.7-.011-.486,0-.6.134-.6.609q.024,8.541.01,17.082Z" transform="translate(-3290.51 2656.98)" fill="#12263f"/>
      <path id="Trazado_184369" data-name="Trazado 184369" d="M3324.937-2558.649c.662.274,1.262.51,1.85.773.255.115.395.044.614-.12a1.007,1.007,0,0,0,.295-1.513,11.251,11.251,0,0,1-.558-1.336l3.887-1.613c.251.6.511,1.171.72,1.757.127.355.306.525.693.439a.954.954,0,0,1,.376.007c.31.06.452-.086.557-.362.23-.6.49-1.19.76-1.839l3.888,1.611c-.255.622-.477,1.21-.738,1.781a.6.6,0,0,0,.135.731.963.963,0,0,0,1.437.26,11.833,11.833,0,0,1,1.362-.573l1.615,3.891c-.62.257-1.192.512-1.777.732-.3.114-.485.258-.422.615a4.487,4.487,0,0,0,.015.516.759.759,0,0,0,.294.441c.6.284,1.212.522,1.885.8l-1.606,3.888c-.619-.254-1.205-.478-1.776-.736a.541.541,0,0,0-.736.137c-.572.625-.589.609-.271,1.383.185.451.372.9.584,1.413l-3.885,1.615c-.26-.619-.524-1.2-.75-1.805-.111-.3-.26-.445-.587-.393a1.528,1.528,0,0,1-.472,0c-.311-.049-.449.1-.552.372-.23.6-.487,1.191-.75,1.827l-3.889-1.614c.265-.645.5-1.246.761-1.83.126-.277.033-.423-.132-.655-.443-.622-.923-.592-1.52-.262a12.885,12.885,0,0,1-1.306.55l-1.613-3.887c.634-.265,1.222-.525,1.821-.755a.5.5,0,0,0,.38-.551c-.027-.9-.013-.9-.833-1.234-.436-.179-.87-.362-1.367-.569C3323.863-2556.05,3324.388-2557.322,3324.937-2558.649Zm.139,3.171c.575.239,1.078.461,1.593.655.275.1.31.248.294.534a20,20,0,0,0,0,2.208c.014.273-.037.4-.286.494-.525.2-1.04.433-1.6.669l.566,1.352a.636.636,0,0,0,.154,0q.526-.211,1.051-.428c.728-.3.719-.3,1.2.3a7.149,7.149,0,0,0,.743.792c.274.251.582.467.873.7l-.773,1.931,1.41.578c.224-.541.444-1.026.625-1.527.109-.3.248-.382.587-.355a14.54,14.54,0,0,0,2.114,0c.325-.022.482.025.595.342.182.511.414,1,.639,1.537l1.407-.591c-.228-.554-.425-1.066-.648-1.566a.436.436,0,0,1,.146-.6,18.309,18.309,0,0,0,1.56-1.564.428.428,0,0,1,.593-.144c.5.222,1.014.423,1.57.653l.587-1.412c-.543-.228-1.042-.457-1.556-.647-.294-.109-.341-.271-.325-.571a18.288,18.288,0,0,0,0-2.114c-.02-.326.041-.487.353-.6.511-.184,1.006-.411,1.531-.63l-.588-1.409c-.556.225-1.072.413-1.567.645-.291.136-.424.047-.623-.178a16.315,16.315,0,0,0-1.5-1.495c-.252-.218-.31-.376-.172-.671.225-.482.413-.981.636-1.522l-1.413-.59c-.24.573-.439,1.1-.69,1.607a.6.6,0,0,1-.449.258c-.751.026-1.5-.007-2.255.021-.261.01-.408-.031-.5-.288-.158-.429-.333-.853-.529-1.265-.053-.111-.24-.264-.312-.24-.41.137-.8.322-1.229.5.234.57.432,1.084.657,1.585a.4.4,0,0,1-.133.553c-.557.5-1.09,1.038-1.6,1.594-.182.2-.306.253-.552.142-.512-.23-1.04-.429-1.6-.656Z" transform="translate(-3316.525 2574.488)" fill="#12263f"/>
      <path id="Trazado_184370" data-name="Trazado 184370" d="M3354.315-2674.486h-1.308v-13.524h-21.085v1.293h-1.3a14.291,14.291,0,0,1,.013-1.6,1.257,1.257,0,0,1,1.139-1.041,3.805,3.805,0,0,1,.472-.013h20.431c1.178,0,1.641.457,1.641,1.618q0,6.339,0,12.678Z" transform="translate(-3323.111 2689.368)" fill="#12263f"/>
      <path id="Trazado_184371" data-name="Trazado 184371" d="M3378.114-2257.628l-.982.9c-.273-.272-.552-.588-.872-.853a1.067,1.067,0,0,0-.611-.26q-5.811-.023-11.623,0a1.1,1.1,0,0,0-.649.28,10.15,10.15,0,0,0-.819.9l-.967-1.033c.436-.423.888-.881,1.365-1.311a.752.752,0,0,1,.467-.149q6.4-.012,12.8,0a.75.75,0,0,1,.469.147C3377.172-2258.573,3377.622-2258.111,3378.114-2257.628Z" transform="translate(-3351.163 2299.941)" fill="#12263f"/>
      <path id="Trazado_184372" data-name="Trazado 184372" d="M3353.651-2624.514v1.253h-1.273v-1.253Z" transform="translate(-3342.824 2630.662)" fill="#12263f"/>
      <path id="Trazado_184373" data-name="Trazado 184373" d="M3568.563-2487.015h-1.25v-1.265h1.25Z" transform="translate(-3537.384 2507.342)" fill="#12263f"/>
      <path id="Trazado_184374" data-name="Trazado 184374" d="M3324.886-2623.223h-1.254v-1.253h1.254Z" transform="translate(-3316.802 2630.628)" fill="#12263f"/>
      <path id="Trazado_184375" data-name="Trazado 184375" d="M3380.775-2624.522h1.269v1.247h-1.269Z" transform="translate(-3368.529 2630.669)" fill="#12263f"/>
      <path id="Trazado_184376" data-name="Trazado 184376" d="M3567.272-2516.061v-1.287a2.1,2.1,0,0,1,.3-.041c1.168.016.955-.178.985,1,.006.244-.085.342-.33.331C3567.927-2516.071,3567.629-2516.061,3567.272-2516.061Z" transform="translate(-3537.347 2533.694)" fill="#12263f"/>
      <path id="Trazado_184377" data-name="Trazado 184377" d="M3531.562-2459.833h1.229v1.267h-1.229Z" transform="translate(-3505.022 2481.592)" fill="#12263f"/>
      <path id="Trazado_184378" data-name="Trazado 184378" d="M3387.635-2494.7a3.471,3.471,0,0,1-3.472-3.5,3.48,3.48,0,0,1,3.5-3.48,3.5,3.5,0,0,1,3.479,3.506A3.481,3.481,0,0,1,3387.635-2494.7Zm2.162-3.475a2.15,2.15,0,0,0-2.113-2.164,2.162,2.162,0,0,0-2.191,2.14,2.182,2.182,0,0,0,2.167,2.17A2.161,2.161,0,0,0,3389.8-2498.176Z" transform="translate(-3371.596 2519.473)" fill="#12263f"/>
    </g>
  </g>
</svg>
