<svg xmlns="http://www.w3.org/2000/svg" xmlns:xlink="http://www.w3.org/1999/xlink" width="249.413" height="278.322" viewBox="0 0 249.413 278.322">
  <defs>
    <clipPath id="clip-path">
      <rect id="Rectángulo_59008" data-name="Rectángulo 59008" width="10.449" height="22.52" fill="none"/>
    </clipPath>
    <clipPath id="clip-path-2">
      <rect id="Rectángulo_59009" data-name="Rectángulo 59009" width="16.584" height="25.214" fill="none"/>
    </clipPath>
    <clipPath id="clip-path-3">
      <rect id="Rectángulo_59010" data-name="Rectángulo 59010" width="9.935" height="15.363" fill="none"/>
    </clipPath>
    <clipPath id="clip-path-4">
      <rect id="Rectángulo_59011" data-name="Rectángulo 59011" width="16.07" height="16.605" fill="none"/>
    </clipPath>
    <clipPath id="clip-path-5">
      <rect id="Rectángulo_344595" data-name="Rectángulo 344595" width="248.324" height="271.323" fill="none"/>
    </clipPath>
    <clipPath id="clip-path-7">
      <rect id="Rectángulo_344571" data-name="Rectángulo 344571" width="192.696" height="111.234" fill="none"/>
    </clipPath>
    <clipPath id="clip-path-8">
      <rect id="Rectángulo_344572" data-name="Rectángulo 344572" width="5.684" height="17.989" fill="none"/>
    </clipPath>
    <clipPath id="clip-path-9">
      <rect id="Rectángulo_344573" data-name="Rectángulo 344573" width="30.297" height="19.347" fill="none"/>
    </clipPath>
    <clipPath id="clip-path-10">
      <rect id="Rectángulo_344574" data-name="Rectángulo 344574" width="17.409" height="11.779" fill="none"/>
    </clipPath>
    <clipPath id="clip-path-11">
      <rect id="Rectángulo_344575" data-name="Rectángulo 344575" width="17.738" height="11.877" fill="none"/>
    </clipPath>
    <clipPath id="clip-path-12">
      <rect id="Rectángulo_344576" data-name="Rectángulo 344576" width="40.898" height="25.742" fill="none"/>
    </clipPath>
    <clipPath id="clip-path-13">
      <rect id="Rectángulo_344577" data-name="Rectángulo 344577" width="106.293" height="62.691" fill="none"/>
    </clipPath>
    <clipPath id="clip-path-14">
      <rect id="Rectángulo_344578" data-name="Rectángulo 344578" width="14.401" height="9.986" fill="none"/>
    </clipPath>
    <clipPath id="clip-path-17">
      <rect id="Rectángulo_344581" data-name="Rectángulo 344581" width="5.684" height="17.99" fill="none"/>
    </clipPath>
    <clipPath id="clip-path-18">
      <rect id="Rectángulo_344582" data-name="Rectángulo 344582" width="8.098" height="10.457" fill="none"/>
    </clipPath>
    <clipPath id="clip-path-19">
      <rect id="Rectángulo_344583" data-name="Rectángulo 344583" width="72.205" height="51.555" fill="none"/>
    </clipPath>
    <clipPath id="clip-path-20">
      <rect id="Rectángulo_344584" data-name="Rectángulo 344584" width="65.457" height="66.166" fill="none"/>
    </clipPath>
    <clipPath id="clip-path-21">
      <rect id="Rectángulo_344590" data-name="Rectángulo 344590" width="129.565" height="57.96" fill="none"/>
    </clipPath>
    <clipPath id="clip-path-23">
      <rect id="Rectángulo_344586" data-name="Rectángulo 344586" width="8.098" height="10.456" fill="none"/>
    </clipPath>
    <clipPath id="clip-path-27">
      <rect id="Rectángulo_344591" data-name="Rectángulo 344591" width="13.496" height="13.692" fill="none"/>
    </clipPath>
    <clipPath id="clip-path-28">
      <rect id="Rectángulo_344592" data-name="Rectángulo 344592" width="13.497" height="13.692" fill="none"/>
    </clipPath>
  </defs>
  <g id="Grupo_986095" data-name="Grupo 986095" transform="translate(11692.403 12200.985)">
    <g id="Grupo_985595" data-name="Grupo 985595" transform="translate(-12765.972 -12335)">
      <path id="Trazado_658701" data-name="Trazado 658701" d="M194.783,90.378,180.89,82.357l-2.853,6.588a1.162,1.162,0,0,1-1.14.7,1.148,1.148,0,0,1-1.044-.832l-3.317-11.278L161.61,71.226a5.853,5.853,0,0,1-2.683-4.648V28.594a1.972,1.972,0,0,1,3.185-1.839l33.173,19.152a5.852,5.852,0,0,1,2.683,4.648V88.539a2.183,2.183,0,0,1-.963,2.01,1.756,1.756,0,0,1-.884.231,2.709,2.709,0,0,1-1.338-.4M161.61,27.623a1,1,0,0,0-1.68.971V66.578a4.906,4.906,0,0,0,2.182,3.779l11.273,6.508,3.429,11.662a.15.15,0,0,0,.144.115.144.144,0,0,0,.159-.1l3.3-7.62,14.869,8.583a1,1,0,0,0,1.68-.971V50.554a4.9,4.9,0,0,0-2.182-3.779Z" transform="translate(1125.013 136.338)" fill="#27debf"/>
      <path id="Trazado_658702" data-name="Trazado 658702" d="M177.363,43.254c-2.3-1.325-4.411-1.548-6.136-.871l6.136,14.8Z" transform="translate(1126.097 137.719)" fill="#455a64"/>
      <path id="Trazado_658703" data-name="Trazado 658703" d="M183,49.368a19.042,19.042,0,0,0-6.135-6.215V57.085Z" transform="translate(1126.594 137.819)" fill="#27debf"/>
      <path id="Trazado_658704" data-name="Trazado 658704" d="M186.8,58.013a27.878,27.878,0,0,0-3.8-9.149l-6.135,7.717Z" transform="translate(1126.594 138.323)" fill="#27debf"/>
      <path id="Trazado_658705" data-name="Trazado 658705" d="M171.535,42.353a6.76,6.76,0,0,0-3.8,4.762l9.936,10.041Z" transform="translate(1125.789 137.749)" fill="#455a64"/>
      <path id="Trazado_658706" data-name="Trazado 658706" d="M186.8,66a14.689,14.689,0,0,0,.514-4.008,22.119,22.119,0,0,0-.514-4.6l-9.935-1.431Z" transform="translate(1126.594 138.948)" fill="#27debf"/>
      <path id="Trazado_658707" data-name="Trazado 658707" d="M167.736,54.64a27.877,27.877,0,0,0,3.8,9.149l6.135-7.717Z" transform="translate(1125.789 138.832)" fill="#27debf"/>
      <path id="Trazado_658708" data-name="Trazado 658708" d="M176.866,69.888c2.295,1.325,4.411,1.548,6.135.871l-6.135-14.8Z" transform="translate(1126.594 138.948)" fill="#27debf"/>
      <path id="Trazado_658709" data-name="Trazado 658709" d="M186.8,66l-9.935-10.039L183,70.758A6.757,6.757,0,0,0,186.8,66" transform="translate(1126.594 138.948)" fill="#27debf"/>
      <g id="Grupo_985588" data-name="Grupo 985588" transform="translate(1303.46 187.187)" opacity="0.5">
        <g id="Grupo_182716" data-name="Grupo 182716">
          <g id="Grupo_182715" data-name="Grupo 182715" clip-path="url(#clip-path)">
            <path id="Trazado_235891" data-name="Trazado 235891" d="M183,48.864a27.924,27.924,0,0,1,3.8,9.149,22.193,22.193,0,0,1,.514,4.6,14.744,14.744,0,0,1-.514,4.008,6.76,6.76,0,0,1-3.8,4.762l-6.135-14.8Z" transform="translate(-176.866 -48.864)" fill="#fff"/>
          </g>
        </g>
      </g>
      <path id="Trazado_658710" data-name="Trazado 658710" d="M167.778,46.73a14.689,14.689,0,0,0-.514,4.008,22.119,22.119,0,0,0,.514,4.6l9.935,1.431Z" transform="translate(1125.748 138.135)" fill="#27debf"/>
      <path id="Trazado_658711" data-name="Trazado 658711" d="M171.227,63.673a19.034,19.034,0,0,0,6.136,6.215V55.956Z" transform="translate(1126.097 138.948)" fill="#27debf"/>
      <g id="Grupo_985589" data-name="Grupo 985589" transform="translate(1293.012 184.865)" opacity="0.2">
        <g id="Grupo_182719" data-name="Grupo 182719">
          <g id="Grupo_182718" data-name="Grupo 182718" clip-path="url(#clip-path-2)">
            <path id="Trazado_235894" data-name="Trazado 235894" d="M167.778,46.73l9.935,10.039,6.135,14.8c-1.724.678-3.84.455-6.135-.871a19.021,19.021,0,0,1-6.135-6.215,27.872,27.872,0,0,1-3.8-9.148,22.119,22.119,0,0,1-.514-4.6,14.689,14.689,0,0,1,.514-4.008" transform="translate(-167.264 -46.73)"/>
          </g>
        </g>
      </g>
      <path id="Trazado_658712" data-name="Trazado 658712" d="M149.139,64.025,135.246,56l-2.853,6.589a1.162,1.162,0,0,1-1.14.7,1.148,1.148,0,0,1-1.044-.834L126.892,51.18l-10.925-6.307a5.853,5.853,0,0,1-2.683-4.648V2.241a2.183,2.183,0,0,1,.963-2.01A2.183,2.183,0,0,1,116.468.4l33.173,19.152a5.852,5.852,0,0,1,2.683,4.648V62.186a2.185,2.185,0,0,1-.963,2.01,1.759,1.759,0,0,1-.884.231,2.709,2.709,0,0,1-1.338-.4M115.966,1.27a1.268,1.268,0,0,0-1.219-.171,1.266,1.266,0,0,0-.462,1.141V40.225A4.9,4.9,0,0,0,116.468,44l11.273,6.508,3.429,11.662a.15.15,0,0,0,.144.115.144.144,0,0,0,.159-.1l3.3-7.622,14.869,8.585a1,1,0,0,0,1.68-.971V24.2a4.9,4.9,0,0,0-2.182-3.779Z" transform="translate(1120.988 134.015)" fill="#27debf"/>
      <path id="Trazado_658713" data-name="Trazado 658713" d="M131.719,16.9c-2.3-1.325-4.411-1.548-6.135-.871l6.135,14.8Z" transform="translate(1122.072 135.396)" fill="#455a64"/>
      <path id="Trazado_658714" data-name="Trazado 658714" d="M137.357,23.015a19.042,19.042,0,0,0-6.135-6.215V30.732Z" transform="translate(1122.569 135.496)" fill="#27debf"/>
      <path id="Trazado_658715" data-name="Trazado 658715" d="M141.157,31.66a27.878,27.878,0,0,0-3.8-9.149l-6.135,7.717Z" transform="translate(1122.569 135.999)" fill="#27debf"/>
      <g id="Grupo_985590" data-name="Grupo 985590" transform="translate(1253.792 152.297)" opacity="0.5">
        <g id="Grupo_182722" data-name="Grupo 182722">
          <g id="Grupo_182721" data-name="Grupo 182721" clip-path="url(#clip-path-3)">
            <path id="Trazado_235899" data-name="Trazado 235899" d="M137.357,23.015a27.9,27.9,0,0,1,3.8,9.149l-9.934-1.432V16.8a19.042,19.042,0,0,1,6.135,6.215" transform="translate(-131.222 -16.801)" fill="#fff"/>
          </g>
        </g>
      </g>
      <path id="Trazado_658716" data-name="Trazado 658716" d="M125.891,16a6.756,6.756,0,0,0-3.8,4.762L132.026,30.8Z" transform="translate(1121.765 135.426)" fill="#455a64"/>
      <path id="Trazado_658717" data-name="Trazado 658717" d="M141.157,39.643a14.686,14.686,0,0,0,.514-4.007,22.1,22.1,0,0,0-.514-4.6L131.222,29.6Z" transform="translate(1122.569 136.625)" fill="#27debf"/>
      <path id="Trazado_658718" data-name="Trazado 658718" d="M122.092,28.288a27.9,27.9,0,0,0,3.8,9.149l6.136-7.717Z" transform="translate(1121.765 136.509)" fill="#27debf"/>
      <path id="Trazado_658719" data-name="Trazado 658719" d="M131.222,43.535c2.3,1.325,4.411,1.548,6.135.871l-6.135-14.8Z" transform="translate(1122.569 136.625)" fill="#27debf"/>
      <path id="Trazado_658720" data-name="Trazado 658720" d="M141.157,39.643,131.222,29.6l6.135,14.8a6.755,6.755,0,0,0,3.8-4.763" transform="translate(1122.569 136.625)" fill="#27debf"/>
      <path id="Trazado_658721" data-name="Trazado 658721" d="M122.134,20.377a14.689,14.689,0,0,0-.514,4.008,22.118,22.118,0,0,0,.514,4.6l9.935,1.431Z" transform="translate(1121.724 135.812)" fill="#455a64"/>
      <path id="Trazado_658722" data-name="Trazado 658722" d="M125.583,37.32a19.042,19.042,0,0,0,6.135,6.215V29.6Z" transform="translate(1122.072 136.625)" fill="#27debf"/>
      <g id="Grupo_985591" data-name="Grupo 985591" transform="translate(1243.856 164.797)" opacity="0.2">
        <g id="Grupo_182725" data-name="Grupo 182725">
          <g id="Grupo_182724" data-name="Grupo 182724" clip-path="url(#clip-path-4)">
            <path id="Trazado_235907" data-name="Trazado 235907" d="M132.027,29.719l6.135,14.8c-1.724.678-3.839.455-6.135-.871a19.032,19.032,0,0,1-6.135-6.215,27.878,27.878,0,0,1-3.8-9.149Z" transform="translate(-122.092 -28.288)"/>
          </g>
        </g>
      </g>
    </g>
    <g id="Grupo_985917" data-name="Grupo 985917" transform="translate(-11692.403 -12193.986)">
      <g id="Grupo_985888" data-name="Grupo 985888" clip-path="url(#clip-path-5)">
        <g id="Grupo_985887" data-name="Grupo 985887">
          <g id="Grupo_985886" data-name="Grupo 985886" clip-path="url(#clip-path-5)">
            <path id="Trazado_659067" data-name="Trazado 659067" d="M64.232,5.25a1.512,1.512,0,0,1,.059-.331.078.078,0,0,1,.012-.071,1.245,1.245,0,0,1,.082-.319,1.628,1.628,0,0,1,.213-.461.644.644,0,0,1,.119-.189.555.555,0,0,1,.105-.13,1.1,1.1,0,0,1,.237-.236l.023-.024a1.62,1.62,0,0,1,.307-.177,2.616,2.616,0,0,1,2.423.307L250.992,109.091a7.98,7.98,0,0,1,3.6,6.24V246.912c0,.01,0,.02,0,.03v.787a2.465,2.465,0,0,1-1.3,2.179c-.052.034-.1.054-.15.088s-.119.071-.189.106a1.331,1.331,0,0,1-.307.106,2.038,2.038,0,0,1-.461.059,2.319,2.319,0,0,1-1.194-.343l-.095-.054-.007,0-3.435-1.984L67.813,144.394a7.959,7.959,0,0,1-3.6-6.239V5.7c0-.154.012-.307.023-.449" transform="translate(-10.874 -0.531)" fill="#455a64"/>
            <path id="Trazado_659068" data-name="Trazado 659068" d="M65.631,2.78a2.615,2.615,0,0,1,2.423.307L251.233,108.559a7.98,7.98,0,0,1,3.6,6.24v11.77l4.6-2.695V112.187a7.947,7.947,0,0,0-3.593-6.228L72.65.488A2.5,2.5,0,0,0,70.039.275c-.65.39-3.64,2.1-4.408,2.505" transform="translate(-11.115 0)" fill="#27debf"/>
            <path id="Trazado_659069" data-name="Trazado 659069" d="M64.218,5.674c.014-2.274,1.618-3.194,3.6-2.051L251,109.094a7.955,7.955,0,0,1,3.6,6.235l0,11.776L64.218,17.49Z" transform="translate(-10.876 -0.53)" fill="#27debf"/>
            <g id="Grupo_985819" data-name="Grupo 985819" transform="translate(54.529)" opacity="0.5">
              <g id="Grupo_985818" data-name="Grupo 985818">
                <g id="Grupo_985817" data-name="Grupo 985817" clip-path="url(#clip-path-7)">
                  <path id="Trazado_659070" data-name="Trazado 659070" d="M68.058,3.091,251.234,108.561a7.4,7.4,0,0,1,2.535,2.672l4.575-2.65a7.2,7.2,0,0,0-2.505-2.628L72.656.485A2.528,2.528,0,0,0,70.041.272c-.646.4-3.635,2.095-4.394,2.5a2.6,2.6,0,0,1,2.411.317" transform="translate(-65.647 0)" fill="#fff"/>
                </g>
              </g>
            </g>
            <g id="Grupo_985822" data-name="Grupo 985822" transform="translate(242.64 108.585)" opacity="0.15">
              <g id="Grupo_985821" data-name="Grupo 985821">
                <g id="Grupo_985820" data-name="Grupo 985820" clip-path="url(#clip-path-8)">
                  <path id="Trazado_659071" data-name="Trazado 659071" d="M297.8,146.029l0-11.7a7.429,7.429,0,0,0-1.1-3.6l-4.586,2.638a7.273,7.273,0,0,1,1.076,3.578v11.774Z" transform="translate(-292.112 -130.724)"/>
                </g>
              </g>
            </g>
            <path id="Trazado_659072" data-name="Trazado 659072" d="M89.434,22.214a5.365,5.365,0,0,1,2.034,4.305c0,1.729-.911,2.607-2.034,1.958A5.363,5.363,0,0,1,87.4,24.172c0-1.731.91-2.607,2.034-1.958" transform="translate(-14.802 -3.726)" fill="#fafafa"/>
            <path id="Trazado_659073" data-name="Trazado 659073" d="M80.618,17.114a5.365,5.365,0,0,1,2.034,4.306c0,1.729-.91,2.606-2.034,1.957a5.366,5.366,0,0,1-2.034-4.306c0-1.729.911-2.606,2.034-1.957" transform="translate(-13.309 -2.862)" fill="#fafafa"/>
            <path id="Trazado_659074" data-name="Trazado 659074" d="M71.8,12.014a5.365,5.365,0,0,1,2.034,4.306c0,1.729-.91,2.607-2.034,1.958a5.368,5.368,0,0,1-2.034-4.307c0-1.729.911-2.606,2.034-1.957" transform="translate(-11.816 -1.999)" fill="#fafafa"/>
            <path id="Trazado_659075" data-name="Trazado 659075" d="M291.838,274.634l.2-.111,3.8-2.19a3.816,3.816,0,0,0,1.881-2.791,3.985,3.985,0,0,0,.035-.525V149.132l-4.6,2.7V272.45A2.453,2.453,0,0,1,292,274.533c-.106.063-.161.1-.161.1" transform="translate(-49.425 -25.257)" fill="#37474f"/>
            <path id="Trazado_659076" data-name="Trazado 659076" d="M255.948,142.789,203.272,112.2c-.707-.408-1.28-.118-1.28.647a2.743,2.743,0,0,0,1.28,2.124l52.676,30.591c.706.408,1.28.118,1.28-.648a2.745,2.745,0,0,0-1.28-2.124" transform="translate(-34.209 -18.971)" fill="#27debf"/>
            <path id="Trazado_659077" data-name="Trazado 659077" d="M221.276,163.375l-141.92-82.4c-.707-.409-1.279-.119-1.279.647a2.742,2.742,0,0,0,1.279,2.124l141.92,82.4c.706.408,1.279.118,1.279-.648a2.742,2.742,0,0,0-1.279-2.124" transform="translate(-13.223 -13.682)" fill="#27debf"/>
            <path id="Trazado_659078" data-name="Trazado 659078" d="M221.276,174.919l-141.92-82.4c-.707-.407-1.279-.119-1.279.647a2.741,2.741,0,0,0,1.279,2.124l141.92,82.405c.706.408,1.279.118,1.279-.648a2.743,2.743,0,0,0-1.279-2.125" transform="translate(-13.223 -15.637)" fill="#27debf"/>
            <path id="Trazado_659079" data-name="Trazado 659079" d="M177.169,97.142,78.418,40.2c-.706-.408-1.279-.118-1.279.647a2.744,2.744,0,0,0,1.279,2.125l98.751,56.939c.706.409,1.279.119,1.279-.647a2.742,2.742,0,0,0-1.279-2.124" transform="translate(-13.064 -6.777)" fill="#27debf"/>
            <path id="Trazado_659080" data-name="Trazado 659080" d="M261.033,155.3,233.3,139.1c-.707-.408-1.279-.118-1.279.647a2.745,2.745,0,0,0,1.279,2.125l27.738,16.207c.706.407,1.28.118,1.28-.648a2.745,2.745,0,0,0-1.28-2.124" transform="translate(-39.294 -23.526)" fill="#27debf"/>
            <g id="Grupo_985825" data-name="Grupo 985825" transform="translate(192.722 115.388)" opacity="0.6">
              <g id="Grupo_985824" data-name="Grupo 985824">
                <g id="Grupo_985823" data-name="Grupo 985823" clip-path="url(#clip-path-9)">
                  <path id="Trazado_659081" data-name="Trazado 659081" d="M261.033,155.3,233.3,139.1c-.707-.408-1.279-.118-1.279.647a2.745,2.745,0,0,0,1.279,2.125l27.738,16.207c.706.407,1.28.118,1.28-.648a2.745,2.745,0,0,0-1.28-2.124" transform="translate(-232.016 -138.914)" fill="#fff"/>
                </g>
              </g>
            </g>
            <path id="Trazado_659082" data-name="Trazado 659082" d="M263.66,166.376l-14.85-8.639c-.706-.408-1.279-.118-1.279.647a2.744,2.744,0,0,0,1.279,2.124l14.85,8.639c.706.408,1.28.119,1.28-.647a2.745,2.745,0,0,0-1.28-2.124" transform="translate(-41.922 -26.683)" fill="#27debf"/>
            <g id="Grupo_985828" data-name="Grupo 985828" transform="translate(205.61 130.87)" opacity="0.6">
              <g id="Grupo_985827" data-name="Grupo 985827">
                <g id="Grupo_985826" data-name="Grupo 985826" clip-path="url(#clip-path-10)">
                  <path id="Trazado_659083" data-name="Trazado 659083" d="M263.66,166.376l-14.85-8.639c-.706-.408-1.279-.118-1.279.647a2.744,2.744,0,0,0,1.279,2.124l14.85,8.639c.706.408,1.28.119,1.28-.647a2.745,2.745,0,0,0-1.28-2.124" transform="translate(-247.532 -157.553)" fill="#fff"/>
                </g>
              </g>
            </g>
            <path id="Trazado_659084" data-name="Trazado 659084" d="M224.231,133.87l-15.179-8.736c-.706-.408-1.279-.118-1.279.647a2.744,2.744,0,0,0,1.279,2.125l15.179,8.735c.706.408,1.279.119,1.279-.647a2.744,2.744,0,0,0-1.279-2.124" transform="translate(-35.188 -21.161)" fill="#27debf"/>
            <g id="Grupo_985831" data-name="Grupo 985831" transform="translate(172.585 103.789)" opacity="0.6">
              <g id="Grupo_985830" data-name="Grupo 985830">
                <g id="Grupo_985829" data-name="Grupo 985829" clip-path="url(#clip-path-11)">
                  <path id="Trazado_659085" data-name="Trazado 659085" d="M224.231,133.87l-15.179-8.736c-.706-.408-1.279-.118-1.279.647a2.744,2.744,0,0,0,1.279,2.125l15.179,8.735c.706.408,1.279.119,1.279-.647a2.744,2.744,0,0,0-1.279-2.124" transform="translate(-207.773 -124.95)" fill="#fff"/>
                </g>
              </g>
            </g>
            <path id="Trazado_659086" data-name="Trazado 659086" d="M174.1,169.89,78.417,114.737c-.707-.408-1.279-.118-1.279.647a2.742,2.742,0,0,0,1.279,2.125L174.1,172.662c.706.408,1.279.118,1.279-.648a2.744,2.744,0,0,0-1.279-2.124" transform="translate(-13.064 -19.4)" fill="#fff"/>
            <path id="Trazado_659087" data-name="Trazado 659087" d="M172.238,159.321,78.417,105.165c-.706-.408-1.279-.119-1.279.647a2.744,2.744,0,0,0,1.279,2.124l93.821,54.156c.707.408,1.279.118,1.279-.647a2.742,2.742,0,0,0-1.279-2.125" transform="translate(-13.064 -17.779)" fill="#fff"/>
            <path id="Trazado_659088" data-name="Trazado 659088" d="M231.943,194.113l-34.607-20.3c-.706-.408-1.279-.118-1.279.648a2.744,2.744,0,0,0,1.279,2.124l34.607,20.3c.706.408,1.279.118,1.279-.647a2.744,2.744,0,0,0-1.279-2.125" transform="translate(-33.204 -29.405)" fill="#fff"/>
            <path id="Trazado_659089" data-name="Trazado 659089" d="M220.233,141.208l-103.957-60.2c-.707-.409-1.279-.119-1.279.647a2.746,2.746,0,0,0,1.279,2.125l103.957,60.2c.706.406,1.279.118,1.279-.648a2.743,2.743,0,0,0-1.279-2.125" transform="translate(-19.476 -13.688)" fill="#ebebeb"/>
            <path id="Trazado_659090" data-name="Trazado 659090" d="M104.419,74.271,79.326,60.141c-.707-.407-1.279-.118-1.279.648a2.742,2.742,0,0,0,1.279,2.124l25.093,14.13c.706.408,1.279.118,1.279-.648a2.742,2.742,0,0,0-1.279-2.124" transform="translate(-13.218 -10.154)" fill="#ebebeb"/>
            <path id="Trazado_659091" data-name="Trazado 659091" d="M248.52,168.11l-38.34-22.6c-.707-.409-1.279-.118-1.279.647a2.742,2.742,0,0,0,1.279,2.124l38.34,22.6c.706.407,1.279.118,1.279-.648a2.744,2.744,0,0,0-1.279-2.124" transform="translate(-35.379 -24.612)" fill="#27debf"/>
            <g id="Grupo_985834" data-name="Grupo 985834" transform="translate(173.522 120.713)" opacity="0.6">
              <g id="Grupo_985833" data-name="Grupo 985833">
                <g id="Grupo_985832" data-name="Grupo 985832" clip-path="url(#clip-path-12)">
                  <path id="Trazado_659092" data-name="Trazado 659092" d="M248.52,168.11l-38.34-22.6c-.707-.409-1.279-.118-1.279.647a2.742,2.742,0,0,0,1.279,2.124l38.34,22.6c.706.407,1.279.118,1.279-.648a2.744,2.744,0,0,0-1.279-2.124" transform="translate(-208.901 -145.325)" fill="#fff"/>
                </g>
              </g>
            </g>
            <path id="Trazado_659093" data-name="Trazado 659093" d="M183.061,129.921,79.326,70.37c-.706-.408-1.279-.118-1.279.648a2.744,2.744,0,0,0,1.279,2.124l103.735,59.549c.706.409,1.279.119,1.279-.647a2.744,2.744,0,0,0-1.279-2.124" transform="translate(-13.218 -11.887)" fill="#27debf"/>
            <g id="Grupo_985837" data-name="Grupo 985837" transform="translate(64.829 58.299)" opacity="0.6">
              <g id="Grupo_985836" data-name="Grupo 985836">
                <g id="Grupo_985835" data-name="Grupo 985835" clip-path="url(#clip-path-13)">
                  <path id="Trazado_659094" data-name="Trazado 659094" d="M183.061,129.921,79.326,70.37c-.706-.408-1.279-.118-1.279.648a2.744,2.744,0,0,0,1.279,2.124l103.735,59.549c.706.409,1.279.119,1.279-.647a2.744,2.744,0,0,0-1.279-2.124" transform="translate(-78.047 -70.186)" fill="#fff"/>
                </g>
              </g>
            </g>
            <path id="Trazado_659095" data-name="Trazado 659095" d="M226.2,210.211,78.417,124.617c-.706-.408-1.279-.118-1.279.647a2.747,2.747,0,0,0,1.279,2.125L226.2,212.982c.706.408,1.279.119,1.279-.647a2.744,2.744,0,0,0-1.279-2.124" transform="translate(-13.064 -21.074)" fill="#ebebeb"/>
            <path id="Trazado_659096" data-name="Trazado 659096" d="M226.2,219.759,78.417,134.165c-.706-.408-1.279-.118-1.279.647a2.744,2.744,0,0,0,1.279,2.125L226.2,222.53c.706.409,1.279.119,1.279-.647a2.744,2.744,0,0,0-1.279-2.124" transform="translate(-13.064 -22.691)" fill="#ebebeb"/>
            <path id="Trazado_659097" data-name="Trazado 659097" d="M226.2,229.307,78.417,143.713c-.706-.408-1.279-.118-1.279.647a2.744,2.744,0,0,0,1.279,2.125L226.2,232.078c.706.408,1.279.119,1.279-.647a2.744,2.744,0,0,0-1.279-2.124" transform="translate(-13.064 -24.308)" fill="#ebebeb"/>
            <path id="Trazado_659098" data-name="Trazado 659098" d="M235.327,247.089,197.81,225.237c-.706-.408-1.279-.118-1.279.647a2.744,2.744,0,0,0,1.279,2.124l37.517,21.853c.706.408,1.279.118,1.279-.647a2.742,2.742,0,0,0-1.279-2.125" transform="translate(-33.284 -38.115)" fill="#27debf"/>
            <path id="Trazado_659099" data-name="Trazado 659099" d="M172.632,210.623,78.418,156.409c-.706-.408-1.279-.118-1.279.647a2.744,2.744,0,0,0,1.279,2.124l94.214,54.214c.706.408,1.279.118,1.279-.648a2.744,2.744,0,0,0-1.279-2.124" transform="translate(-13.064 -26.458)" fill="#27debf"/>
            <path id="Trazado_659100" data-name="Trazado 659100" d="M262.9,262.928l-11.842-6.845c-.706-.408-1.279-.118-1.279.647a2.744,2.744,0,0,0,1.279,2.125L262.9,265.7c.706.408,1.279.118,1.279-.648a2.744,2.744,0,0,0-1.279-2.124" transform="translate(-42.302 -43.338)" fill="#27debf"/>
            <g id="Grupo_985840" data-name="Grupo 985840" transform="translate(207.475 212.56)" opacity="0.6">
              <g id="Grupo_985839" data-name="Grupo 985839">
                <g id="Grupo_985838" data-name="Grupo 985838" clip-path="url(#clip-path-14)">
                  <path id="Trazado_659101" data-name="Trazado 659101" d="M262.9,262.928l-11.842-6.845c-.706-.408-1.279-.118-1.279.647a2.744,2.744,0,0,0,1.279,2.125L262.9,265.7c.706.408,1.279.118,1.279-.648a2.744,2.744,0,0,0-1.279-2.124" transform="translate(-249.777 -255.898)" fill="#fff"/>
                </g>
              </g>
            </g>
            <path id="Trazado_659102" data-name="Trazado 659102" d="M262.9,271.561l-11.842-6.845c-.706-.408-1.279-.118-1.279.647a2.744,2.744,0,0,0,1.279,2.125l11.842,6.844c.706.409,1.279.119,1.279-.647a2.744,2.744,0,0,0-1.279-2.124" transform="translate(-42.302 -44.801)" fill="#27debf"/>
            <g id="Grupo_985843" data-name="Grupo 985843" transform="translate(207.475 219.73)" opacity="0.6">
              <g id="Grupo_985842" data-name="Grupo 985842">
                <g id="Grupo_985841" data-name="Grupo 985841" clip-path="url(#clip-path-14)">
                  <path id="Trazado_659103" data-name="Trazado 659103" d="M262.9,271.561l-11.842-6.845c-.706-.408-1.279-.118-1.279.647a2.744,2.744,0,0,0,1.279,2.125l11.842,6.844c.706.409,1.279.119,1.279-.647a2.744,2.744,0,0,0-1.279-2.124" transform="translate(-249.777 -264.531)" fill="#fff"/>
                </g>
              </g>
            </g>
            <path id="Trazado_659104" data-name="Trazado 659104" d="M215.069,243.642,78.418,164.8c-.706-.408-1.279-.118-1.279.647a2.744,2.744,0,0,0,1.279,2.124l136.651,78.844c.706.408,1.279.118,1.279-.647a2.744,2.744,0,0,0-1.279-2.125" transform="translate(-13.064 -27.879)" fill="#fff"/>
            <path id="Trazado_659105" data-name="Trazado 659105" d="M282.327,278.017,275.367,274c-.7-.4-1.264-.076-1.264.73v2.558a2.792,2.792,0,0,0,1.264,2.19l6.959,4.019c.7.4,1.264.076,1.264-.73v-2.558a2.8,2.8,0,0,0-1.264-2.19" transform="translate(-46.422 -46.375)" fill="#e0e0e0"/>
            <path id="Trazado_659106" data-name="Trazado 659106" d="M282.327,241.264l-6.96-4.019c-.7-.4-1.264-.076-1.264.73v2.558a2.792,2.792,0,0,0,1.264,2.19l6.959,4.019c.7.4,1.264.076,1.264-.73v-2.558a2.8,2.8,0,0,0-1.264-2.19" transform="translate(-46.422 -40.15)" fill="#e0e0e0"/>
            <path id="Trazado_659107" data-name="Trazado 659107" d="M282.327,253.521l-6.96-4.019c-.7-.4-1.264-.076-1.264.73v2.558a2.792,2.792,0,0,0,1.264,2.19L282.326,259c.7.4,1.264.076,1.264-.729v-2.558a2.794,2.794,0,0,0-1.264-2.19" transform="translate(-46.422 -42.226)" fill="#e0e0e0"/>
            <path id="Trazado_659108" data-name="Trazado 659108" d="M282.327,265.778l-6.96-4.019c-.7-.4-1.264-.076-1.264.73v2.558a2.794,2.794,0,0,0,1.264,2.19l6.959,4.018c.7.4,1.264.076,1.264-.729v-2.558a2.8,2.8,0,0,0-1.264-2.19" transform="translate(-46.422 -44.302)" fill="#e0e0e0"/>
            <path id="Trazado_659109" data-name="Trazado 659109" d="M282.327,204.51l-6.96-4.019c-.7-.4-1.264-.076-1.264.73v2.558a2.792,2.792,0,0,0,1.264,2.19l6.959,4.019c.7.4,1.264.076,1.264-.73V206.7a2.8,2.8,0,0,0-1.264-2.19" transform="translate(-46.422 -33.926)" fill="#e0e0e0"/>
            <path id="Trazado_659110" data-name="Trazado 659110" d="M282.327,216.768l-6.96-4.019c-.7-.4-1.264-.076-1.264.73v2.558a2.792,2.792,0,0,0,1.264,2.19l6.959,4.018c.7.4,1.264.076,1.264-.729v-2.558a2.8,2.8,0,0,0-1.264-2.19" transform="translate(-46.422 -36.002)" fill="#e0e0e0"/>
            <path id="Trazado_659111" data-name="Trazado 659111" d="M282.327,229.025l-6.96-4.019c-.7-.4-1.264-.076-1.264.73V228.3a2.794,2.794,0,0,0,1.264,2.19l6.959,4.018c.7.4,1.264.076,1.264-.729v-2.558a2.8,2.8,0,0,0-1.264-2.19" transform="translate(-46.422 -38.078)" fill="#e0e0e0"/>
            <path id="Trazado_659112" data-name="Trazado 659112" d="M282.327,167.757l-6.96-4.019c-.7-.4-1.264-.076-1.264.73v2.558a2.792,2.792,0,0,0,1.264,2.19l6.959,4.019c.7.4,1.264.076,1.264-.73v-2.558a2.8,2.8,0,0,0-1.264-2.19" transform="translate(-46.422 -27.701)" fill="#e0e0e0"/>
            <path id="Trazado_659113" data-name="Trazado 659113" d="M282.327,180.015,275.367,176c-.7-.4-1.264-.076-1.264.73v2.558a2.792,2.792,0,0,0,1.264,2.19l6.959,4.018c.7.4,1.264.076,1.264-.729v-2.558a2.8,2.8,0,0,0-1.264-2.19" transform="translate(-46.422 -29.777)" fill="#e0e0e0"/>
            <path id="Trazado_659114" data-name="Trazado 659114" d="M282.327,192.272l-6.96-4.019c-.7-.4-1.264-.076-1.264.73v2.558a2.794,2.794,0,0,0,1.264,2.19l6.959,4.018c.7.4,1.264.076,1.264-.729v-2.558a2.8,2.8,0,0,0-1.264-2.19" transform="translate(-46.422 -31.853)" fill="#e0e0e0"/>
            <path id="Trazado_659115" data-name="Trazado 659115" d="M282.327,155.519l-6.96-4.019c-.7-.4-1.264-.076-1.264.73v2.558a2.792,2.792,0,0,0,1.264,2.19L282.326,161c.7.4,1.264.076,1.264-.729v-2.558a2.8,2.8,0,0,0-1.264-2.19" transform="translate(-46.422 -25.629)" fill="#e0e0e0"/>
            <path id="Trazado_659116" data-name="Trazado 659116" d="M.023,31.236A1.512,1.512,0,0,1,.082,30.9a.076.076,0,0,1,.012-.071,1.243,1.243,0,0,1,.082-.32,1.639,1.639,0,0,1,.213-.461.645.645,0,0,1,.119-.189.555.555,0,0,1,.105-.13A1.138,1.138,0,0,1,.851,29.5l.023-.024a1.62,1.62,0,0,1,.307-.177,2.614,2.614,0,0,1,2.423.307L186.783,135.077a7.98,7.98,0,0,1,3.6,6.24V272.9c0,.01,0,.019,0,.03v.787a2.465,2.465,0,0,1-1.3,2.179c-.051.034-.1.054-.15.088s-.119.071-.189.106a1.331,1.331,0,0,1-.307.106,2.038,2.038,0,0,1-.461.059,2.317,2.317,0,0,1-1.194-.342l-.095-.055-.007,0-3.435-1.983L3.6,170.38A7.961,7.961,0,0,1,0,164.142V31.685c0-.154.012-.307.023-.449" transform="translate(0 -4.932)" fill="#fafafa"/>
            <path id="Trazado_659117" data-name="Trazado 659117" d="M1.423,28.767a2.615,2.615,0,0,1,2.423.307L187.025,134.546a7.98,7.98,0,0,1,3.6,6.24v11.77l4.6-2.695V138.174a7.947,7.947,0,0,0-3.593-6.228L8.442,26.475a2.5,2.5,0,0,0-2.611-.213c-.65.39-3.64,2.1-4.408,2.505" transform="translate(-0.241 -4.401)" fill="#27debf"/>
            <path id="Trazado_659118" data-name="Trazado 659118" d="M.01,31.661c.014-2.274,1.618-3.194,3.6-2.051l183.18,105.471a7.955,7.955,0,0,1,3.6,6.235l0,11.776L.01,43.477Z" transform="translate(-0.002 -4.931)" fill="#27debf"/>
            <g id="Grupo_985846" data-name="Grupo 985846" transform="translate(1.195 21.586)" opacity="0.5">
              <g id="Grupo_985845" data-name="Grupo 985845">
                <g id="Grupo_985844" data-name="Grupo 985844" clip-path="url(#clip-path-7)">
                  <path id="Trazado_659119" data-name="Trazado 659119" d="M3.85,29.078,187.025,134.548a7.4,7.4,0,0,1,2.536,2.672l4.574-2.65a7.189,7.189,0,0,0-2.5-2.628L8.448,26.472a2.53,2.53,0,0,0-2.616-.213c-.646.4-3.635,2.095-4.393,2.5a2.6,2.6,0,0,1,2.411.317" transform="translate(-1.439 -25.987)" fill="#fff"/>
                </g>
              </g>
            </g>
            <g id="Grupo_985849" data-name="Grupo 985849" transform="translate(189.306 130.17)" opacity="0.15">
              <g id="Grupo_985848" data-name="Grupo 985848">
                <g id="Grupo_985847" data-name="Grupo 985847" clip-path="url(#clip-path-17)">
                  <path id="Trazado_659120" data-name="Trazado 659120" d="M233.588,172.015l0-11.7a7.42,7.42,0,0,0-1.1-3.6l-4.585,2.638a7.273,7.273,0,0,1,1.076,3.578V174.7Z" transform="translate(-227.904 -156.71)"/>
                </g>
              </g>
            </g>
            <path id="Trazado_659121" data-name="Trazado 659121" d="M25.226,48.2a5.367,5.367,0,0,1,2.034,4.306c0,1.729-.911,2.606-2.034,1.957a5.363,5.363,0,0,1-2.034-4.305c0-1.73.91-2.607,2.034-1.958" transform="translate(-3.928 -8.127)" fill="#fafafa"/>
            <path id="Trazado_659122" data-name="Trazado 659122" d="M16.409,43.1a5.365,5.365,0,0,1,2.034,4.306c0,1.729-.91,2.606-2.034,1.957a5.365,5.365,0,0,1-2.034-4.305c0-1.73.911-2.607,2.034-1.958" transform="translate(-2.435 -7.263)" fill="#fafafa"/>
            <path id="Trazado_659123" data-name="Trazado 659123" d="M7.593,38a5.365,5.365,0,0,1,2.034,4.306c0,1.73-.91,2.607-2.034,1.958a5.367,5.367,0,0,1-2.034-4.306c0-1.73.911-2.606,2.034-1.958" transform="translate(-0.941 -6.4)" fill="#fafafa"/>
            <path id="Trazado_659124" data-name="Trazado 659124" d="M227.629,300.621l.2-.111,3.8-2.19a3.816,3.816,0,0,0,1.881-2.791,3.988,3.988,0,0,0,.035-.525V175.119l-4.6,2.7v120.62a2.453,2.453,0,0,1-1.149,2.083c-.107.063-.161.1-.161.1" transform="translate(-38.551 -29.658)" fill="#e0e0e0"/>
            <path id="Trazado_659125" data-name="Trazado 659125" d="M175.263,201.42V190.979c0-6.782-4.838-15.055-10.807-18.48l-42.493-24.377c-5.969-3.425-10.807-.758-10.807,5.955v10.317" transform="translate(-18.825 -24.833)" fill="none" stroke="#455a64" stroke-linecap="round" stroke-linejoin="round" stroke-width="1"/>
            <line id="Línea_2413" data-name="Línea 2413" x1="155.209" y1="89.625" transform="translate(18.099 96.703)" fill="none" stroke="#455a64" stroke-linecap="round" stroke-linejoin="round" stroke-width="1"/>
            <path id="Trazado_659126" data-name="Trazado 659126" d="M79.15,144.935V133.99c0-6.476-4.833-14.51-10.8-17.945L21.79,89.215" transform="translate(-3.69 -15.109)" fill="none" stroke="#455a64" stroke-linecap="round" stroke-linejoin="round" stroke-width="1"/>
            <path id="Trazado_659127" data-name="Trazado 659127" d="M151.926,191.568V203.64c0,6.667-4.832,9.282-10.791,5.842L83.767,176.359c-5.959-3.441-10.79-11.635-10.79-18.3V145.979" transform="translate(-12.359 -24.723)" fill="none" stroke="#455a64" stroke-linecap="round" stroke-linejoin="round" stroke-width="1"/>
            <path id="Trazado_659128" data-name="Trazado 659128" d="M60.677,143.439v12.076c0,6.669-4.831,9.287-10.79,5.846L21.921,145.215" transform="translate(-3.713 -24.293)" fill="none" stroke="#455a64" stroke-linecap="round" stroke-linejoin="round" stroke-width="1"/>
            <path id="Trazado_659129" data-name="Trazado 659129" d="M207.818,218.558c-2.236-1.291-4.049-.244-4.049,2.337a8.949,8.949,0,0,0,4.049,7.013c2.236,1.291,4.049.244,4.049-2.337a8.949,8.949,0,0,0-4.049-7.013" transform="translate(-34.51 -36.921)" fill="#27debf"/>
            <g id="Grupo_985852" data-name="Grupo 985852" transform="translate(14.05 91.474)" opacity="0.5">
              <g id="Grupo_985851" data-name="Grupo 985851">
                <g id="Grupo_985850" data-name="Grupo 985850" clip-path="url(#clip-path-18)">
                  <path id="Trazado_659130" data-name="Trazado 659130" d="M20.965,110.678c-2.236-1.291-4.049-.244-4.049,2.337a8.949,8.949,0,0,0,4.049,7.013c2.236,1.291,4.049.244,4.049-2.337a8.949,8.949,0,0,0-4.049-7.013" transform="translate(-16.915 -110.125)" fill="#fff"/>
                </g>
              </g>
            </g>
            <path id="Trazado_659131" data-name="Trazado 659131" d="M148.918,157.354c-2.236-1.291-4.049-.244-4.049,2.337a8.949,8.949,0,0,0,4.049,7.013c2.236,1.291,4.049.244,4.049-2.337a8.949,8.949,0,0,0-4.049-7.013" transform="translate(-24.535 -26.556)" fill="#27debf"/>
            <path id="Trazado_659132" data-name="Trazado 659132" d="M187.508,206.832c-2.236-1.291-4.049-.244-4.049,2.337a8.949,8.949,0,0,0,4.049,7.013c2.236,1.291,4.049.244,4.049-2.337a8.949,8.949,0,0,0-4.049-7.013" transform="translate(-31.07 -34.935)" fill="#27debf"/>
            <path id="Trazado_659133" data-name="Trazado 659133" d="M110.329,162.273c-2.236-1.291-4.049-.244-4.049,2.337a8.949,8.949,0,0,0,4.049,7.013c2.236,1.291,4.049.244,4.049-2.337a8.949,8.949,0,0,0-4.049-7.013" transform="translate(-17.999 -27.389)" fill="#27debf"/>
            <g id="Grupo_985855" data-name="Grupo 985855" transform="translate(88.281 130.245)" opacity="0.35">
              <g id="Grupo_985854" data-name="Grupo 985854">
                <g id="Grupo_985853" data-name="Grupo 985853" clip-path="url(#clip-path-19)">
                  <path id="Trazado_659134" data-name="Trazado 659134" d="M148.918,157.354c-2.236-1.291-4.049-.244-4.049,2.337a8.949,8.949,0,0,0,4.049,7.013c2.236,1.291,4.049.244,4.049-2.337a8.949,8.949,0,0,0-4.049-7.013" transform="translate(-112.815 -156.801)"/>
                  <path id="Trazado_659135" data-name="Trazado 659135" d="M187.508,206.832c-2.236-1.291-4.049-.244-4.049,2.337a8.949,8.949,0,0,0,4.049,7.013c2.236,1.291,4.049.244,4.049-2.337a8.949,8.949,0,0,0-4.049-7.013" transform="translate(-119.351 -165.181)"/>
                  <path id="Trazado_659136" data-name="Trazado 659136" d="M110.329,162.273c-2.236-1.291-4.049-.244-4.049,2.337a8.949,8.949,0,0,0,4.049,7.013c2.236,1.291,4.049.244,4.049-2.337a8.949,8.949,0,0,0-4.049-7.013" transform="translate(-106.28 -157.634)"/>
                </g>
              </g>
            </g>
            <path id="Trazado_659137" data-name="Trazado 659137" d="M90.019,150.547c-2.236-1.291-4.049-.244-4.049,2.337a8.949,8.949,0,0,0,4.049,7.013c2.236,1.291,4.049.244,4.049-2.337a8.949,8.949,0,0,0-4.049-7.013" transform="translate(-14.56 -25.403)" fill="#27debf"/>
            <path id="Trazado_659138" data-name="Trazado 659138" d="M69.709,111.621c-2.236-1.291-4.049-.244-4.049,2.337a8.949,8.949,0,0,0,4.049,7.013c2.236,1.291,4.049.244,4.049-2.337a8.949,8.949,0,0,0-4.049-7.013" transform="translate(-11.12 -18.81)" fill="#27debf"/>
            <path id="Trazado_659139" data-name="Trazado 659139" d="M45.337,97.55c-2.236-1.291-4.049-.244-4.049,2.337a8.949,8.949,0,0,0,4.049,7.013c2.236,1.291,4.049.244,4.049-2.337a8.949,8.949,0,0,0-4.049-7.013" transform="translate(-6.992 -16.427)" fill="#27debf"/>
            <path id="Trazado_659140" data-name="Trazado 659140" d="M20.965,83.478c-2.236-1.291-4.049-.244-4.049,2.337a8.949,8.949,0,0,0,4.049,7.013c2.236,1.291,4.049.244,4.049-2.337a8.949,8.949,0,0,0-4.049-7.013" transform="translate(-2.865 -14.044)" fill="#27debf"/>
            <g id="Grupo_985858" data-name="Grupo 985858" transform="translate(14.05 68.882)" opacity="0.15">
              <g id="Grupo_985857" data-name="Grupo 985857">
                <g id="Grupo_985856" data-name="Grupo 985856" clip-path="url(#clip-path-20)">
                  <path id="Trazado_659141" data-name="Trazado 659141" d="M90.019,150.547c-2.236-1.291-4.049-.244-4.049,2.337a8.949,8.949,0,0,0,4.049,7.013c2.236,1.291,4.049.244,4.049-2.337a8.949,8.949,0,0,0-4.049-7.013" transform="translate(-28.61 -94.285)"/>
                  <path id="Trazado_659142" data-name="Trazado 659142" d="M69.709,111.621c-2.236-1.291-4.049-.244-4.049,2.337a8.949,8.949,0,0,0,4.049,7.013c2.236,1.291,4.049.244,4.049-2.337a8.949,8.949,0,0,0-4.049-7.013" transform="translate(-25.17 -87.692)"/>
                  <path id="Trazado_659143" data-name="Trazado 659143" d="M45.337,97.55c-2.236-1.291-4.049-.244-4.049,2.337a8.949,8.949,0,0,0,4.049,7.013c2.236,1.291,4.049.244,4.049-2.337a8.949,8.949,0,0,0-4.049-7.013" transform="translate(-21.043 -85.309)"/>
                  <path id="Trazado_659144" data-name="Trazado 659144" d="M20.965,83.478c-2.236-1.291-4.049-.244-4.049,2.337a8.949,8.949,0,0,0,4.049,7.013c2.236,1.291,4.049.244,4.049-2.337a8.949,8.949,0,0,0-4.049-7.013" transform="translate(-16.915 -82.926)"/>
                </g>
              </g>
            </g>
            <path id="Trazado_659145" data-name="Trazado 659145" d="M167.2,195.106c-2.236-1.291-4.049-.244-4.049,2.337a8.949,8.949,0,0,0,4.049,7.013c2.236,1.291,4.049.244,4.049-2.337a8.949,8.949,0,0,0-4.049-7.013" transform="translate(-27.631 -32.949)" fill="#27debf"/>
            <path id="Trazado_659146" data-name="Trazado 659146" d="M118.454,196.045c-2.236-1.291-4.049-.244-4.049,2.337a8.949,8.949,0,0,0,4.049,7.013c2.236,1.291,4.049.244,4.049-2.337a8.949,8.949,0,0,0-4.049-7.013" transform="translate(-19.375 -33.108)" fill="#27debf"/>
            <path id="Trazado_659147" data-name="Trazado 659147" d="M69.61,138.855c-2.236-1.291-4.049-.244-4.049,2.337a8.95,8.95,0,0,0,4.049,7.013c2.236,1.291,4.049.244,4.049-2.337a8.949,8.949,0,0,0-4.049-7.013" transform="translate(-11.103 -23.423)" fill="#27debf"/>
            <path id="Trazado_659148" data-name="Trazado 659148" d="M20.964,139.835c-2.236-1.291-4.049-.244-4.049,2.337a8.949,8.949,0,0,0,4.049,7.013c2.236,1.291,4.049.244,4.049-2.337a8.949,8.949,0,0,0-4.049-7.013" transform="translate(-2.865 -23.589)" fill="#27debf"/>
            <path id="Trazado_659149" data-name="Trazado 659149" d="M45.337,153.907c-2.236-1.292-4.049-.245-4.049,2.337a8.949,8.949,0,0,0,4.049,7.014c2.236,1.291,4.049.243,4.049-2.338a8.949,8.949,0,0,0-4.049-7.012" transform="translate(-6.992 -25.972)" fill="#27debf"/>
            <g id="Grupo_985876" data-name="Grupo 985876" transform="translate(14.05 114.879)" opacity="0.5">
              <g id="Grupo_985875" data-name="Grupo 985875">
                <g id="Grupo_985874" data-name="Grupo 985874" clip-path="url(#clip-path-21)">
                  <g id="Grupo_985861" data-name="Grupo 985861" transform="translate(121.467 46.724)" opacity="0.5">
                    <g id="Grupo_985860" data-name="Grupo 985860">
                      <g id="Grupo_985859" data-name="Grupo 985859" clip-path="url(#clip-path-18)">
                        <path id="Trazado_659150" data-name="Trazado 659150" d="M167.2,195.106c-2.236-1.291-4.049-.244-4.049,2.337a8.949,8.949,0,0,0,4.049,7.013c2.236,1.291,4.049.244,4.049-2.337a8.949,8.949,0,0,0-4.049-7.013" transform="translate(-163.148 -194.553)" fill="#fff"/>
                      </g>
                    </g>
                  </g>
                  <g id="Grupo_985864" data-name="Grupo 985864" transform="translate(80.978 47.504)" opacity="0.5">
                    <g id="Grupo_985863" data-name="Grupo 985863">
                      <g id="Grupo_985862" data-name="Grupo 985862" clip-path="url(#clip-path-23)">
                        <path id="Trazado_659151" data-name="Trazado 659151" d="M118.454,196.045c-2.236-1.291-4.049-.244-4.049,2.337a8.949,8.949,0,0,0,4.049,7.013c2.236,1.291,4.049.244,4.049-2.337a8.949,8.949,0,0,0-4.049-7.013" transform="translate(-114.404 -195.492)" fill="#fff"/>
                      </g>
                    </g>
                  </g>
                  <g id="Grupo_985867" data-name="Grupo 985867" transform="translate(40.408)" opacity="0.5">
                    <g id="Grupo_985866" data-name="Grupo 985866">
                      <g id="Grupo_985865" data-name="Grupo 985865" clip-path="url(#clip-path-18)">
                        <path id="Trazado_659152" data-name="Trazado 659152" d="M69.61,138.855c-2.236-1.291-4.049-.244-4.049,2.337a8.95,8.95,0,0,0,4.049,7.013c2.236,1.291,4.049.244,4.049-2.337a8.949,8.949,0,0,0-4.049-7.013" transform="translate(-65.562 -138.302)" fill="#fff"/>
                      </g>
                    </g>
                  </g>
                  <g id="Grupo_985870" data-name="Grupo 985870" transform="translate(0 0.815)" opacity="0.5">
                    <g id="Grupo_985869" data-name="Grupo 985869">
                      <g id="Grupo_985868" data-name="Grupo 985868" clip-path="url(#clip-path-23)">
                        <path id="Trazado_659153" data-name="Trazado 659153" d="M20.964,139.835c-2.236-1.291-4.049-.244-4.049,2.337a8.949,8.949,0,0,0,4.049,7.013c2.236,1.291,4.049.244,4.049-2.337a8.949,8.949,0,0,0-4.049-7.013" transform="translate(-16.915 -139.283)" fill="#fff"/>
                      </g>
                    </g>
                  </g>
                  <g id="Grupo_985873" data-name="Grupo 985873" transform="translate(20.245 12.503)" opacity="0.5">
                    <g id="Grupo_985872" data-name="Grupo 985872">
                      <g id="Grupo_985871" data-name="Grupo 985871" clip-path="url(#clip-path-23)">
                        <path id="Trazado_659154" data-name="Trazado 659154" d="M45.337,153.907c-2.236-1.292-4.049-.245-4.049,2.337a8.949,8.949,0,0,0,4.049,7.014c2.236,1.291,4.049.243,4.049-2.338a8.949,8.949,0,0,0-4.049-7.012" transform="translate(-41.287 -153.354)" fill="#fff"/>
                      </g>
                    </g>
                  </g>
                </g>
              </g>
            </g>
            <path id="Trazado_659155" data-name="Trazado 659155" d="M209.952,291.012V286.4a1.989,1.989,0,0,0-.9-1.557l-11.7-6.754c-.5-.287-.9-.054-.9.519v4.616a1.989,1.989,0,0,0,.9,1.557l11.7,6.754c.5.287.9.054.9-.519" transform="translate(-33.272 -47.075)" fill="#27debf"/>
            <path id="Trazado_659156" data-name="Trazado 659156" d="M188.056,276.081l-15.072-8.7c-.5-.287-.9-.083-.9.455a1.928,1.928,0,0,0,.9,1.493l15.072,8.7c.5.287.9.083.9-.454a1.928,1.928,0,0,0-.9-1.494" transform="translate(-29.144 -45.261)" fill="#e0e0e0"/>
            <path id="Trazado_659157" data-name="Trazado 659157" d="M157.146,260.525v-4.616a1.988,1.988,0,0,0-.9-1.557l-11.7-6.754c-.5-.287-.9-.054-.9.519v4.616a1.987,1.987,0,0,0,.9,1.557l11.7,6.754c.5.287.9.054.9-.519" transform="translate(-24.328 -41.912)" fill="#27debf"/>
            <g id="Grupo_985879" data-name="Grupo 985879" transform="translate(119.322 205.563)" opacity="0.35">
              <g id="Grupo_985878" data-name="Grupo 985878">
                <g id="Grupo_985877" data-name="Grupo 985877" clip-path="url(#clip-path-27)">
                  <path id="Trazado_659158" data-name="Trazado 659158" d="M157.146,260.525v-4.616a1.988,1.988,0,0,0-.9-1.557l-11.7-6.754c-.5-.287-.9-.054-.9.519v4.616a1.987,1.987,0,0,0,.9,1.557l11.7,6.754c.5.287.9.054.9-.519" transform="translate(-143.65 -247.475)"/>
                </g>
              </g>
            </g>
            <path id="Trazado_659159" data-name="Trazado 659159" d="M135.249,245.593l-15.072-8.7c-.5-.287-.9-.083-.9.455a1.927,1.927,0,0,0,.9,1.493l15.072,8.7c.5.287.9.083.9-.454a1.928,1.928,0,0,0-.9-1.493" transform="translate(-20.201 -40.098)" fill="#e0e0e0"/>
            <path id="Trazado_659160" data-name="Trazado 659160" d="M104.34,230.037v-4.616a1.988,1.988,0,0,0-.9-1.557l-11.7-6.754c-.5-.287-.9-.054-.9.519v4.616a1.987,1.987,0,0,0,.9,1.557l11.7,6.754c.5.287.9.054.9-.519" transform="translate(-15.385 -36.749)" fill="#27debf"/>
            <g id="Grupo_985882" data-name="Grupo 985882" transform="translate(75.458 180.238)" opacity="0.5">
              <g id="Grupo_985881" data-name="Grupo 985881">
                <g id="Grupo_985880" data-name="Grupo 985880" clip-path="url(#clip-path-28)">
                  <path id="Trazado_659161" data-name="Trazado 659161" d="M104.34,230.037v-4.616a1.988,1.988,0,0,0-.9-1.557l-11.7-6.754c-.5-.287-.9-.054-.9.519v4.616a1.987,1.987,0,0,0,.9,1.557l11.7,6.754c.5.287.9.054.9-.519" transform="translate(-90.844 -216.987)" fill="#fff"/>
                </g>
              </g>
            </g>
            <path id="Trazado_659162" data-name="Trazado 659162" d="M82.443,215.105l-15.072-8.7c-.5-.287-.9-.083-.9.455a1.928,1.928,0,0,0,.9,1.493l15.072,8.7c.5.287.9.083.9-.454a1.928,1.928,0,0,0-.9-1.493" transform="translate(-11.257 -34.934)" fill="#e0e0e0"/>
            <path id="Trazado_659163" data-name="Trazado 659163" d="M51.533,199.549v-4.616a1.989,1.989,0,0,0-.9-1.557l-11.7-6.754c-.5-.287-.9-.054-.9.519v4.616a1.986,1.986,0,0,0,.9,1.557l11.7,6.754c.5.287.9.054.9-.519" transform="translate(-6.442 -31.585)" fill="#27debf"/>
            <g id="Grupo_985885" data-name="Grupo 985885" transform="translate(31.595 154.914)" opacity="0.5">
              <g id="Grupo_985884" data-name="Grupo 985884">
                <g id="Grupo_985883" data-name="Grupo 985883" clip-path="url(#clip-path-27)">
                  <path id="Trazado_659164" data-name="Trazado 659164" d="M51.533,199.549v-4.616a1.989,1.989,0,0,0-.9-1.557l-11.7-6.754c-.5-.287-.9-.054-.9.519v4.616a1.986,1.986,0,0,0,.9,1.557l11.7,6.754c.5.287.9.054.9-.519" transform="translate(-38.037 -186.499)" fill="#fff"/>
                </g>
              </g>
            </g>
            <path id="Trazado_659165" data-name="Trazado 659165" d="M29.637,184.618l-15.072-8.7c-.5-.287-.9-.083-.9.455a1.928,1.928,0,0,0,.9,1.493l15.072,8.7c.5.287.9.083.9-.454a1.928,1.928,0,0,0-.9-1.493" transform="translate(-2.314 -29.771)" fill="#e0e0e0"/>
          </g>
        </g>
      </g>
    </g>
  </g>
</svg>
