<svg xmlns="http://www.w3.org/2000/svg" xmlns:xlink="http://www.w3.org/1999/xlink" width="239.863" height="204.515" viewBox="0 0 239.863 204.515">
  <defs>
    <clipPath id="clip-path">
      <rect id="Rectángulo_342951" data-name="Rectángulo 342951" width="33.167" height="78.133" fill="none"/>
    </clipPath>
    <clipPath id="clip-path-3">
      <rect id="Rectángulo_342947" data-name="Rectángulo 342947" width="8.982" height="2.2" fill="none"/>
    </clipPath>
    <clipPath id="clip-path-4">
      <rect id="Rectángulo_342948" data-name="Rectángulo 342948" width="27.315" height="15.808" fill="none"/>
    </clipPath>
    <clipPath id="clip-path-5">
      <rect id="Rectángulo_342949" data-name="Rectángulo 342949" width="2.482" height="26.546" fill="none"/>
    </clipPath>
    <clipPath id="clip-path-6">
      <rect id="Rectángulo_344599" data-name="Rectángulo 344599" width="155.099" height="204.515" fill="none"/>
    </clipPath>
    <clipPath id="clip-path-8">
      <rect id="Rectángulo_344596" data-name="Rectángulo 344596" width="153.225" height="88.306" fill="none"/>
    </clipPath>
    <clipPath id="clip-path-9">
      <rect id="Rectángulo_344597" data-name="Rectángulo 344597" width="4.636" height="10.769" fill="none"/>
    </clipPath>
    <clipPath id="clip-path-10">
      <rect id="Rectángulo_59224" data-name="Rectángulo 59224" width="74.685" height="97.442" fill="none"/>
    </clipPath>
    <clipPath id="clip-path-12">
      <rect id="Rectángulo_59219" data-name="Rectángulo 59219" width="73.285" height="96.65" fill="none"/>
    </clipPath>
    <clipPath id="clip-path-14">
      <rect id="Rectángulo_59220" data-name="Rectángulo 59220" width="73.987" height="42.857" fill="none"/>
    </clipPath>
    <clipPath id="clip-path-15">
      <rect id="Rectángulo_59221" data-name="Rectángulo 59221" width="1.729" height="5.473" fill="none"/>
    </clipPath>
    <clipPath id="clip-path-16">
      <rect id="Rectángulo_59222" data-name="Rectángulo 59222" width="1.802" height="50.638" fill="none"/>
    </clipPath>
    <clipPath id="clip-path-17">
      <rect id="Rectángulo_344604" data-name="Rectángulo 344604" width="36.814" height="54.843" fill="none"/>
    </clipPath>
    <clipPath id="clip-path-18">
      <rect id="Rectángulo_344603" data-name="Rectángulo 344603" width="36.814" height="54.843" transform="translate(0 0)" fill="none"/>
    </clipPath>
    <clipPath id="clip-path-19">
      <rect id="Rectángulo_344600" data-name="Rectángulo 344600" width="7.85" height="16.613" transform="translate(17.369 38.162)" fill="none"/>
    </clipPath>
    <clipPath id="clip-path-20">
      <rect id="Rectángulo_344601" data-name="Rectángulo 344601" width="7.032" height="36.885" transform="translate(29.782 17.898)" fill="none"/>
    </clipPath>
    <clipPath id="clip-path-21">
      <rect id="Rectángulo_344602" data-name="Rectángulo 344602" width="36.097" height="20.896" transform="translate(0.071 0.004)" fill="none"/>
    </clipPath>
  </defs>
  <g id="Grupo_986094" data-name="Grupo 986094" transform="translate(11692.403 12075.281)">
    <g id="Grupo_985916" data-name="Grupo 985916" transform="translate(-11485.707 -11948.899)">
      <g id="Grupo_981420" data-name="Grupo 981420" clip-path="url(#clip-path)">
        <g id="Grupo_981419" data-name="Grupo 981419">
          <g id="Grupo_981418" data-name="Grupo 981418" clip-path="url(#clip-path)">
            <path id="Trazado_655593" data-name="Trazado 655593" d="M9.891,1.458c.077-.257.324-.339.6-.174L34.788,15.309a1.276,1.276,0,0,1,.459.5l1.959-1.146a1.291,1.291,0,0,0-.455-.484L12.465.152a1.375,1.375,0,0,0-1.258,0L10.5.558a1.418,1.418,0,0,0-.6.9" transform="translate(-4.214 0)" fill="#fdc77f"/>
            <path id="Trazado_655595" data-name="Trazado 655595" d="M9.849,2.537l0,24.3a1.4,1.4,0,0,0,.624,1.089L33.434,41.174l1.335.774a.637.637,0,0,0,.1.048c.005,0,.01,0,.014,0,.3.107.518-.063.518-.416v-24.3a1.242,1.242,0,0,0-.169-.59,1.265,1.265,0,0,0-.46-.5L10.478,2.175c-.281-.165-.527-.083-.6.174,0,.015,0,.029-.01.049a.682.682,0,0,0-.014.14" transform="translate(-4.196 -0.89)" fill="#d9953b"/>
            <path id="Trazado_655596" data-name="Trazado 655596" d="M53.463,51.994c.024.01.048.02.077.029a.427.427,0,0,0,.107.029.933.933,0,0,0,.164.029c.053,0,.111.01.165.01a1.587,1.587,0,0,0,.339-.039,1.118,1.118,0,0,0,.3-.111l.707-.411a1.382,1.382,0,0,0,.629-1.089V26.149a1.3,1.3,0,0,0-.174-.6l-1.959,1.146a1.25,1.25,0,0,1,.169.591v24.3c0,.353-.218.523-.518.416" transform="translate(-22.778 -10.884)" fill="#f4a338"/>
            <path id="Trazado_655598" data-name="Trazado 655598" d="M6.313,30.37l-6.2-5.822a.428.428,0,0,1,.352-.717l5.846.51Z" transform="translate(0 -10.153)" fill="#d9953b"/>
            <path id="Trazado_655599" data-name="Trazado 655599" d="M9.441,21.4,6.508,23.093.661,22.581a.444.444,0,0,0-.2.029c.468-.275,2.681-1.553,2.893-1.666A.405.405,0,0,1,3.6,20.9Z" transform="translate(-0.196 -8.901)" fill="#fdc77f"/>
            <path id="Trazado_655601" data-name="Trazado 655601" d="M47.615,49.9V33.858a.827.827,0,0,0-.374-.647l-1.006-.581c-.207-.119-.374-.023-.374.216V48.884a.827.827,0,0,0,.374.647l1.006.581c.207.119.374.022.374-.216" transform="translate(-19.539 -13.88)" fill="#fafafa"/>
            <path id="Trazado_655602" data-name="Trazado 655602" d="M41.5,44.864V26.8a.827.827,0,0,0-.374-.647l-1.006-.581c-.207-.119-.374-.022-.374.216V43.851a.828.828,0,0,0,.374.647l1.006.581c.207.119.374.022.374-.216" transform="translate(-16.935 -10.873)" fill="#fafafa"/>
            <path id="Trazado_655603" data-name="Trazado 655603" d="M35.391,46.475V35.336a.825.825,0,0,0-.374-.647l-1.006-.581c-.207-.119-.374-.022-.374.216v11.14a.827.827,0,0,0,.374.647l1.006.581c.207.119.374.022.374-.216" transform="translate(-14.331 -14.51)" fill="#fafafa"/>
            <path id="Trazado_655604" data-name="Trazado 655604" d="M29.279,41.545V28.508a.827.827,0,0,0-.374-.647L27.9,27.28c-.206-.119-.374-.023-.374.216V40.533a.828.828,0,0,0,.374.647l1.006.581c.207.119.374.022.374-.216" transform="translate(-11.727 -11.601)" fill="#fafafa"/>
            <path id="Trazado_655605" data-name="Trazado 655605" d="M23.166,42.073V34.5a.827.827,0,0,0-.374-.648l-1.006-.581c-.207-.119-.374-.022-.374.216v7.57a.827.827,0,0,0,.374.647l1.006.581c.206.119.374.023.374-.216" transform="translate(-9.123 -14.155)" fill="#fafafa"/>
            <path id="Trazado_655606" data-name="Trazado 655606" d="M17.054,33.762V19.749a.827.827,0,0,0-.374-.648l-1.007-.581c-.206-.119-.374-.022-.374.216V32.75a.828.828,0,0,0,.374.647l1.006.581c.207.119.374.022.374-.216" transform="translate(-6.519 -7.869)" fill="#fafafa"/>
            <path id="Trazado_655607" data-name="Trazado 655607" d="M6.313,93.662l-6.2-5.822a.428.428,0,0,1,.352-.717l5.846.51Z" transform="translate(0 -37.119)" fill="#27debf"/>
            <path id="Trazado_655608" data-name="Trazado 655608" d="M9.441,84.694,6.508,86.385.661,85.873a.444.444,0,0,0-.2.029c.468-.275,2.681-1.553,2.893-1.666a.405.405,0,0,1,.246-.049Z" transform="translate(-0.196 -35.867)" fill="#27debf"/>
            <g id="Grupo_981411" data-name="Grupo 981411" transform="translate(0.264 48.317)" opacity="0.5">
              <g id="Grupo_981410" data-name="Grupo 981410">
                <g id="Grupo_981409" data-name="Grupo 981409" clip-path="url(#clip-path-3)">
                  <path id="Trazado_655609" data-name="Trazado 655609" d="M9.441,84.694,6.508,86.385.661,85.873a.444.444,0,0,0-.2.029c.468-.275,2.681-1.553,2.893-1.666a.405.405,0,0,1,.246-.049Z" transform="translate(-0.459 -84.184)" fill="#fff"/>
                </g>
              </g>
            </g>
            <path id="Trazado_655610" data-name="Trazado 655610" d="M9.891,65.794c.077-.257.324-.339.6-.174L34.788,79.645a1.273,1.273,0,0,1,.459.5L37.206,79a1.291,1.291,0,0,0-.455-.484L12.465,64.488a1.375,1.375,0,0,0-1.258,0l-.711.406a1.418,1.418,0,0,0-.6.9" transform="translate(-4.214 -27.41)" fill="#27debf"/>
            <g id="Grupo_981414" data-name="Grupo 981414" transform="translate(5.677 36.925)" opacity="0.5">
              <g id="Grupo_981413" data-name="Grupo 981413">
                <g id="Grupo_981412" data-name="Grupo 981412" clip-path="url(#clip-path-4)">
                  <path id="Trazado_655611" data-name="Trazado 655611" d="M9.891,65.794c.077-.257.324-.339.6-.174L34.788,79.645a1.273,1.273,0,0,1,.459.5L37.206,79a1.291,1.291,0,0,0-.455-.484L12.465,64.488a1.375,1.375,0,0,0-1.258,0l-.711.406a1.418,1.418,0,0,0-.6.9" transform="translate(-9.891 -64.336)" fill="#fff"/>
                </g>
              </g>
            </g>
            <path id="Trazado_655612" data-name="Trazado 655612" d="M9.849,66.873l0,24.3a1.4,1.4,0,0,0,.624,1.089L33.434,105.51l1.335.774a.636.636,0,0,0,.1.048c.005,0,.01,0,.014,0,.3.107.518-.063.518-.416v-24.3a1.242,1.242,0,0,0-.169-.59,1.265,1.265,0,0,0-.46-.5L10.478,66.511c-.281-.165-.527-.082-.6.174,0,.015,0,.029-.01.049a.682.682,0,0,0-.014.14" transform="translate(-4.196 -28.301)" fill="#27debf"/>
            <path id="Trazado_655613" data-name="Trazado 655613" d="M53.463,116.33c.024.01.048.02.077.029a.426.426,0,0,0,.107.029.933.933,0,0,0,.164.029c.053,0,.111.01.165.01a1.587,1.587,0,0,0,.339-.039,1.118,1.118,0,0,0,.3-.111l.707-.411a1.382,1.382,0,0,0,.629-1.089V90.485a1.3,1.3,0,0,0-.174-.6l-1.959,1.146a1.25,1.25,0,0,1,.169.591v24.3c0,.353-.218.523-.518.416" transform="translate(-22.778 -38.294)" fill="#27debf"/>
            <g id="Grupo_981417" data-name="Grupo 981417" transform="translate(30.685 51.587)" opacity="0.15">
              <g id="Grupo_981416" data-name="Grupo 981416">
                <g id="Grupo_981415" data-name="Grupo 981415" clip-path="url(#clip-path-5)">
                  <path id="Trazado_655614" data-name="Trazado 655614" d="M53.463,116.33c.024.01.048.02.077.029a.426.426,0,0,0,.107.029.933.933,0,0,0,.164.029c.053,0,.111.01.165.01a1.587,1.587,0,0,0,.339-.039,1.118,1.118,0,0,0,.3-.111l.707-.411a1.382,1.382,0,0,0,.629-1.089V90.485a1.3,1.3,0,0,0-.174-.6l-1.959,1.146a1.25,1.25,0,0,1,.169.591v24.3c0,.353-.218.523-.518.416" transform="translate(-53.463 -89.881)"/>
                </g>
              </g>
            </g>
            <path id="Trazado_655615" data-name="Trazado 655615" d="M45.534,97.4a16.942,16.942,0,0,1,1.993,5.372,15.028,15.028,0,0,1,.268,2.764A10.547,10.547,0,0,1,47.528,108l-1.363-1.469a7.783,7.783,0,0,0,.2-1.813,11.113,11.113,0,0,0-.2-2.043,12.5,12.5,0,0,0-1.474-3.966,7.079,7.079,0,0,0-2.38-2.571v-2.2A9.569,9.569,0,0,1,45.534,97.4" transform="translate(-18.027 -40.019)" fill="#fafafa"/>
            <path id="Trazado_655616" data-name="Trazado 655616" d="M33.024,96.325a4.527,4.527,0,0,1,1.993-3.07,3.2,3.2,0,0,1,3.223.247v2.2a2.357,2.357,0,0,0-2.38-.177,3.339,3.339,0,0,0-1.473,2.264,7.785,7.785,0,0,0-.2,1.813,11.114,11.114,0,0,0,.2,2.043,12.5,12.5,0,0,0,1.473,3.966,7.066,7.066,0,0,0,2.38,2.571,2.356,2.356,0,0,0,2.38.177,3.339,3.339,0,0,0,1.473-2.264l1.363,1.469a4.527,4.527,0,0,1-1.993,3.07,3.2,3.2,0,0,1-3.223-.247,9.56,9.56,0,0,1-3.223-3.475,16.924,16.924,0,0,1-1.993-5.372,15.024,15.024,0,0,1-.268-2.764,10.547,10.547,0,0,1,.268-2.455" transform="translate(-13.956 -39.592)" fill="#455a64"/>
            <path id="Trazado_655617" data-name="Trazado 655617" d="M22.4,87.481l-7.493-4.326c-.289-.167-.524-.048-.524.265a1.122,1.122,0,0,0,.524.87L22.4,88.616c.289.167.524.048.524-.265a1.125,1.125,0,0,0-.524-.87" transform="translate(-6.13 -35.396)" fill="#455a64"/>
            <path id="Trazado_655618" data-name="Trazado 655618" d="M21.7,93.516l-8.442-4.863c-.289-.167-.524-.048-.524.265a1.123,1.123,0,0,0,.524.87L21.7,94.651c.289.167.524.048.524-.265a1.125,1.125,0,0,0-.524-.87" transform="translate(-5.426 -37.739)" fill="#fafafa"/>
            <path id="Trazado_655619" data-name="Trazado 655619" d="M21.7,97.538l-8.442-4.863c-.289-.167-.524-.048-.524.265a1.123,1.123,0,0,0,.524.87L21.7,98.673c.289.167.524.048.524-.265a1.124,1.124,0,0,0-.524-.87" transform="translate(-5.426 -39.452)" fill="#fafafa"/>
            <path id="Trazado_655620" data-name="Trazado 655620" d="M21.7,101.56,13.259,96.7c-.289-.167-.524-.048-.524.265a1.123,1.123,0,0,0,.524.87l8.442,4.863c.289.167.524.048.524-.265a1.125,1.125,0,0,0-.524-.87" transform="translate(-5.426 -41.166)" fill="#fafafa"/>
            <path id="Trazado_655621" data-name="Trazado 655621" d="M21.7,105.583l-8.442-4.863c-.289-.167-.524-.048-.524.265a1.123,1.123,0,0,0,.524.87l8.442,4.863c.289.167.524.048.524-.265a1.125,1.125,0,0,0-.524-.87" transform="translate(-5.426 -42.88)" fill="#fafafa"/>
          </g>
        </g>
      </g>
    </g>
    <g id="Grupo_986093" data-name="Grupo 986093">
      <g id="Grupo_985919" data-name="Grupo 985919" transform="translate(-11680.16 -12075.281)">
        <g id="Grupo_985899" data-name="Grupo 985899" clip-path="url(#clip-path-6)">
          <g id="Grupo_985898" data-name="Grupo 985898">
            <g id="Grupo_985897" data-name="Grupo 985897" clip-path="url(#clip-path-6)">
              <path id="Trazado_659166" data-name="Trazado 659166" d="M149.466,205.093a1.579,1.579,0,0,1-.76-.234l-2.883-1.663L3.245,121.2a6.118,6.118,0,0,1-2.764-4.786V5.143c0-.115.009-.23.018-.336A.9.9,0,0,1,.53,4.618a.347.347,0,0,0,.017-.085.3.3,0,0,0,.009-.049A.719.719,0,0,1,.6,4.313a1.084,1.084,0,0,1,.137-.305.364.364,0,0,0,.041-.084l.075-.1a.241.241,0,0,0,.055-.063.572.572,0,0,1,.122-.122.767.767,0,0,0,.057-.052c.013-.006.076-.041.145-.072a1.222,1.222,0,0,1,.53-.116,2.331,2.331,0,0,1,1.131.35L148.358,87.357a6.118,6.118,0,0,1,2.764,4.785V202.7l0,.667a1.645,1.645,0,0,1-.87,1.469c-.09.049-.125.068-.159.091s-.067.04-.113.063a.712.712,0,0,1-.171.058,1.3,1.3,0,0,1-.3.04Z" transform="translate(-0.131 -0.928)" fill="#fafafa"/>
              <path id="Trazado_659167" data-name="Trazado 659167" d="M1.636,3.619a2.019,2.019,0,0,1,.955.3L148.052,87.528a5.82,5.82,0,0,1,2.589,4.483V202.54c0,.02,0,.04,0,.057v.642a1.3,1.3,0,0,1-.687,1.161.451.451,0,0,0-.045.025c-.041.021-.082.043-.121.068s-.061.037-.1.055a.446.446,0,0,1-.1.031,1.014,1.014,0,0,1-.217.03h-.042a1.254,1.254,0,0,1-.583-.187l-.076-.044-.028-.015-2.78-1.6L3.289,120.77A5.818,5.818,0,0,1,.7,116.287V5.011c0-.105.008-.211.015-.3A1.049,1.049,0,0,1,.732,4.6a.653.653,0,0,0,.031-.138.489.489,0,0,0,.012-.073A.466.466,0,0,1,.8,4.3c.007-.018.013-.036.019-.055A.643.643,0,0,1,.9,4.069a.792.792,0,0,0,.055-.1l.022-.028L1,3.915a.66.66,0,0,0,.063-.073.236.236,0,0,1,.054-.054c.012-.009.026-.021.041-.034A.928.928,0,0,1,1.263,3.7a.871.871,0,0,1,.373-.078m0-.7a1.554,1.554,0,0,0-.672.145,1.354,1.354,0,0,0-.252.144l-.018.02A.914.914,0,0,0,.5,3.421a.436.436,0,0,0-.087.106.5.5,0,0,0-.1.154,1.353,1.353,0,0,0-.175.376,1.041,1.041,0,0,0-.066.26.061.061,0,0,0-.011.057,1.246,1.246,0,0,0-.048.27C.009,4.76,0,4.886,0,5.011V116.287a6.492,6.492,0,0,0,2.94,5.089l142.577,81.99,2.8,1.617.007,0,.077.044a1.924,1.924,0,0,0,.932.28h.042a1.659,1.659,0,0,0,.375-.048,1.1,1.1,0,0,0,.251-.087c.058-.029.107-.058.154-.087s.087-.044.129-.071a2,2,0,0,0,1.054-1.777V202.6c0-.009,0-.016,0-.025V92.01a6.511,6.511,0,0,0-2.94-5.089L2.94,3.315a2.674,2.674,0,0,0-1.3-.4" transform="translate(0 -0.796)" fill="#e0e0e0"/>
              <path id="Trazado_659168" data-name="Trazado 659168" d="M1.325,2.268A2.129,2.129,0,0,1,3.3,2.519L148.763,86.125a6.508,6.508,0,0,1,2.939,5.089v5.7l3.749-2.2V89.084a6.481,6.481,0,0,0-2.93-5.08L7.05.4A2.043,2.043,0,0,0,4.92.225c-.53.319-2.969,1.715-3.6,2.043" transform="translate(-0.361 0)" fill="#27debf"/>
              <path id="Trazado_659169" data-name="Trazado 659169" d="M.009,4.991c.012-1.854,1.319-2.6,2.934-1.673L148.406,86.924a6.491,6.491,0,0,1,2.936,5.085l0,5.7L.009,10.725Z" transform="translate(-0.002 -0.796)" fill="#27debf"/>
              <g id="Grupo_985893" data-name="Grupo 985893" transform="translate(0.975)" opacity="0.6">
                <g id="Grupo_985892" data-name="Grupo 985892">
                  <g id="Grupo_985891" data-name="Grupo 985891" clip-path="url(#clip-path-8)">
                    <path id="Trazado_659170" data-name="Trazado 659170" d="M3.307,2.521,148.766,86.127a6.023,6.023,0,0,1,2.068,2.179l3.731-2.161A5.866,5.866,0,0,0,152.523,84L7.057.4A2.064,2.064,0,0,0,4.924.222C4.4.546,1.959,1.93,1.34,2.263a2.123,2.123,0,0,1,1.967.258" transform="translate(-1.34 0)" fill="#fff"/>
                  </g>
                </g>
              </g>
              <g id="Grupo_985896" data-name="Grupo 985896" transform="translate(150.46 86.145)" opacity="0.15">
                <g id="Grupo_985895" data-name="Grupo 985895">
                  <g id="Grupo_985894" data-name="Grupo 985894" clip-path="url(#clip-path-9)">
                    <path id="Trazado_659171" data-name="Trazado 659171" d="M211.536,127.039l0-5.642a6.061,6.061,0,0,0-.894-2.937l-3.74,2.152a5.93,5.93,0,0,1,.877,2.918v5.7Z" transform="translate(-206.9 -118.46)"/>
                  </g>
                </g>
              </g>
              <path id="Trazado_659172" data-name="Trazado 659172" d="M15.506,14.018a2.944,2.944,0,0,1,1.116,2.362c0,.949-.5,1.43-1.116,1.073a2.941,2.941,0,0,1-1.116-2.361c0-.949.5-1.43,1.116-1.074" transform="translate(-3.925 -3.792)" fill="#455a64"/>
              <path id="Trazado_659173" data-name="Trazado 659173" d="M9.982,10.823A2.944,2.944,0,0,1,11.1,13.185c0,.949-.5,1.43-1.116,1.073A2.943,2.943,0,0,1,8.866,11.9c0-.949.5-1.43,1.116-1.074" transform="translate(-2.419 -2.92)" fill="#455a64"/>
              <path id="Trazado_659174" data-name="Trazado 659174" d="M4.458,7.628A2.945,2.945,0,0,1,5.573,9.99c0,.949-.5,1.43-1.116,1.074A2.942,2.942,0,0,1,3.342,8.7c0-.949.5-1.43,1.116-1.074" transform="translate(-0.912 -2.049)" fill="#455a64"/>
              <path id="Trazado_659175" data-name="Trazado 659175" d="M206.662,239.747l.154-.084,3.1-1.793a3.117,3.117,0,0,0,1.527-2.277,2.833,2.833,0,0,0,.035-.427V130.241l-3.755,2.2V237.968a.913.913,0,0,1-.014.14.023.023,0,0,1-.007.014,1.955,1.955,0,0,1-1.023,1.612l-.014.014" transform="translate(-56.375 -35.528)" fill="#e0e0e0"/>
              <path id="Trazado_659176" data-name="Trazado 659176" d="M172.879,161.8l-25.231-14.567c-1.675-.967-3.033-.183-3.033,1.75v29.135a6.7,6.7,0,0,0,3.032,5.253l25.231,14.568c1.675.966,3.033.183,3.033-1.751V167.058A6.705,6.705,0,0,0,172.879,161.8Z" transform="translate(-39.45 -40.052)" fill="none" stroke="#e0e0e0" stroke-miterlimit="10" stroke-width="0.963"/>
              <path id="Trazado_659177" data-name="Trazado 659177" d="M151.931,169.759l1.982,2.08a1.929,1.929,0,0,1,.447,1.08,14.206,14.206,0,0,0,.163,1.557.767.767,0,0,1-.481.824l-1.272.446a.615.615,0,0,0-.375.8l1.226,3.322a.984.984,0,0,0,.844.6l1.536.026a1.229,1.229,0,0,1,.937.555c.313.53.649,1.044,1.009,1.537a1.794,1.794,0,0,1,.3,1.121l-.292,2.257a1.336,1.336,0,0,0,.385,1.041l2.257,2.03a.4.4,0,0,0,.686-.167l.655-1.748a.542.542,0,0,1,.774-.294,7.644,7.644,0,0,0,.958.388,1.569,1.569,0,0,1,.858.738l1.306,2.947a.862.862,0,0,0,.873.477l1.613-.25a.533.533,0,0,0,.441-.7l-.883-2.979a1.046,1.046,0,0,1,.314-.988,4.341,4.341,0,0,0,.444-.476.613.613,0,0,1,.86-.135l2.017,1.526a.38.38,0,0,0,.646-.231l.548-2.275a1.279,1.279,0,0,0-.285-1.062l-1.982-2.08a1.934,1.934,0,0,1-.447-1.08,14.223,14.223,0,0,0-.163-1.558.767.767,0,0,1,.481-.824l1.272-.446a.614.614,0,0,0,.375-.795l-1.226-3.323a.986.986,0,0,0-.844-.6l-1.536-.025a1.232,1.232,0,0,1-.937-.556c-.313-.53-.649-1.044-1.009-1.537a1.8,1.8,0,0,1-.3-1.121l.292-2.257a1.331,1.331,0,0,0-.385-1.04l-2.257-2.03a.4.4,0,0,0-.686.168l-.655,1.748a.542.542,0,0,1-.774.293,7.64,7.64,0,0,0-.958-.388,1.574,1.574,0,0,1-.858-.739l-1.306-2.947a.861.861,0,0,0-.873-.476l-1.613.25a.533.533,0,0,0-.441.7l.884,2.98a1.046,1.046,0,0,1-.314.988,4.351,4.351,0,0,0-.444.476.613.613,0,0,1-.859.135l-2.017-1.527a.38.38,0,0,0-.647.231l-.548,2.275a1.281,1.281,0,0,0,.285,1.063m5.814,3.037c.646-2.68,3.154-3.069,5.6-.869s3.907,6.157,3.261,8.836-3.154,3.07-5.6.87-3.907-6.157-3.26-8.837" transform="translate(-41.361 -44.242)" fill="#e0e0e0"/>
              <path id="Trazado_659178" data-name="Trazado 659178" d="M109.2,125.04,83.968,110.474c-1.675-.967-3.033-.183-3.033,1.751v29.134a6.7,6.7,0,0,0,3.032,5.253L109.2,161.18c1.675.967,3.033.183,3.033-1.751V130.294A6.705,6.705,0,0,0,109.2,125.04Z" transform="translate(-22.078 -30.023)" fill="none" stroke="#27debf" stroke-miterlimit="10" stroke-width="0.963"/>
              <path id="Trazado_659179" data-name="Trazado 659179" d="M86.043,119.5v10.339l7.2,4.16a2.863,2.863,0,0,1,2.83-2.164,4.549,4.549,0,0,1,2.255.672,10.163,10.163,0,0,1,4.546,7.054l7.033,4.055V133.282a4.02,4.02,0,0,0-1.821-3.152L87.862,118.454c-1-.58-1.819-.11-1.819,1.051" transform="translate(-23.472 -32.245)" fill="#27debf"/>
              <path id="Trazado_659180" data-name="Trazado 659180" d="M86.043,148.169a4.022,4.022,0,0,0,1.819,3.152L108.086,163c1.006.58,1.821.11,1.821-1.051V151.608l-7.194-4.153a2.869,2.869,0,0,1-2.83,2.157,4.529,4.529,0,0,1-2.256-.672,10.174,10.174,0,0,1-4.546-7.047l-7.039-4.062Z" transform="translate(-23.472 -37.599)" fill="#27debf"/>
              <path id="Trazado_659181" data-name="Trazado 659181" d="M101.26,140.275c-1.758-1.015-3.183-.192-3.183,1.838a7.036,7.036,0,0,0,3.183,5.513c1.758,1.015,3.183.192,3.183-1.838a7.037,7.037,0,0,0-3.183-5.513" transform="translate(-26.754 -38.147)" fill="#27debf"/>
              <path id="Trazado_659182" data-name="Trazado 659182" d="M45.272,88.131,20.041,73.565c-1.675-.967-3.033-.183-3.033,1.75V104.45A6.7,6.7,0,0,0,20.04,109.7l25.231,14.567c1.675.966,3.033.183,3.033-1.751V93.385A6.7,6.7,0,0,0,45.272,88.131Z" transform="translate(-4.64 -19.955)" fill="none" stroke="#e0e0e0" stroke-miterlimit="10" stroke-width="0.963"/>
              <path id="Trazado_659183" data-name="Trazado 659183" d="M25.538,89.375c.232,6.8,1.761,20.294,10.24,28.462,5.959-3.182,8.841-12.578,8.643-18.366a1.073,1.073,0,0,0-.308-.721,1.445,1.445,0,0,0-.516-.358c-2.59-1.044-6.57-5.433-8.517-9.833-.139-.311-.337-.407-.545-.3l-.031.019a.747.747,0,0,0-.187.164h0c-.011.012-.022.026-.033.04-1.83,2.283-5.576,2.409-8.142.58-.194-.137-.353-.177-.46-.126l-.013.009,0,0c-.1.058-.148.2-.132.425" transform="translate(-6.966 -24.065)" fill="#e0e0e0"/>
              <path id="Trazado_659184" data-name="Trazado 659184" d="M115.523,194.289,70.812,168.475c-1.325-.765-2.4-.222-2.4,1.214a5.145,5.145,0,0,0,2.4,3.984l44.71,25.813c1.325.765,2.4.222,2.4-1.213a5.141,5.141,0,0,0-2.4-3.984" transform="translate(-18.662 -45.864)" fill="#e0e0e0"/>
              <path id="Trazado_659185" data-name="Trazado 659185" d="M127.718,202.111a4.407,4.407,0,0,1,2.031,3.346c0,.543-.18.82-.535.82a1.531,1.531,0,0,1-.757-.247l-13.985-8.073v-3.493Z" transform="translate(-31.227 -53.048)" fill="#27debf"/>
              <path id="Trazado_659186" data-name="Trazado 659186" d="M71.458,173.31a4.4,4.4,0,0,1-2.027-3.342c0-.547.177-.824.532-.824a1.558,1.558,0,0,1,.757.247l9.873,5.7,21.593,12.466v3.494L80.592,178.584Z" transform="translate(-18.94 -46.141)" fill="#f5f5f5"/>
            </g>
          </g>
        </g>
      </g>
      <g id="Grupo_985918" data-name="Grupo 985918" transform="translate(-11591.342 -12039.433)">
        <g id="Grupo_182863" data-name="Grupo 182863" clip-path="url(#clip-path-10)">
          <g id="Grupo_182862" data-name="Grupo 182862">
            <g id="Grupo_182861" data-name="Grupo 182861" clip-path="url(#clip-path-10)">
              <g id="Grupo_182851" data-name="Grupo 182851" transform="translate(0 0.792)" opacity="0.8">
                <g id="Grupo_182850" data-name="Grupo 182850">
                  <g id="Grupo_182849" data-name="Grupo 182849" clip-path="url(#clip-path-12)">
                    <path id="Trazado_236059" data-name="Trazado 236059" d="M0,2.364V55.109a2.423,2.423,0,0,0,1.1,1.9L72.188,98.129a.7.7,0,0,0,.363.1.607.607,0,0,0,.14-.018.413.413,0,0,0,.093-.032c.021-.011.04-.021.058-.033l.065-.043a.449.449,0,0,0,.061-.054.862.862,0,0,0,.2-.287,1.381,1.381,0,0,0,.115-.554V44.733a2.427,2.427,0,0,0-1.1-1.9L1.1,1.731A.794.794,0,0,0,.36,1.638a.471.471,0,0,0-.094.054L.259,1.7a.328.328,0,0,0-.072.072.167.167,0,0,0-.033.04.21.21,0,0,0-.036.058.509.509,0,0,0-.065.14.372.372,0,0,0-.025.1c0,.008-.008.015,0,.022a.5.5,0,0,0-.018.1C0,2.27,0,2.317,0,2.364" transform="translate(0 -1.583)" fill="#455a64"/>
                    <path id="Trazado_236060" data-name="Trazado 236060" d="M.611,2.083a.5.5,0,0,1,.236.081l71.092,41.1a1.933,1.933,0,0,1,.847,1.466V97.212a.874.874,0,0,1-.07.348.374.374,0,0,1-.084.124l-.025.023h0l-.02.013-.006.006a.208.208,0,0,1-.043.006.271.271,0,0,1-.1-.037L1.347,56.574A1.933,1.933,0,0,1,.5,55.108V2.364c0-.029,0-.058.006-.094l.011-.023,0-.023.038-.113L.564,2.1l.009-.012h0a.082.082,0,0,1,.037-.007m0-.5a.587.587,0,0,0-.251.054.5.5,0,0,0-.093.054L.259,1.7a.361.361,0,0,0-.072.072.179.179,0,0,0-.032.04.182.182,0,0,0-.036.058.49.49,0,0,0-.065.14.393.393,0,0,0-.025.1c0,.008-.007.015,0,.022a.44.44,0,0,0-.018.1C0,2.27,0,2.317,0,2.364V55.108a2.423,2.423,0,0,0,1.1,1.9L72.188,98.129a.717.717,0,0,0,.348.1h.015a.615.615,0,0,0,.141-.018.43.43,0,0,0,.093-.032c.021-.011.039-.022.058-.033l.064-.043a.421.421,0,0,0,.061-.054.865.865,0,0,0,.2-.288,1.368,1.368,0,0,0,.115-.554V44.733a2.428,2.428,0,0,0-1.1-1.9L1.1,1.731a1,1,0,0,0-.487-.148" transform="translate(0 -1.583)" fill="#455a64"/>
                    <g id="Grupo_182848" data-name="Grupo 182848" opacity="0.7">
                      <g id="Grupo_182847" data-name="Grupo 182847">
                        <g id="Grupo_182846" data-name="Grupo 182846" clip-path="url(#clip-path-12)">
                          <path id="Trazado_236061" data-name="Trazado 236061" d="M0,2.364V55.109a2.423,2.423,0,0,0,1.1,1.9L72.188,98.129a.7.7,0,0,0,.363.1.607.607,0,0,0,.14-.018.413.413,0,0,0,.093-.032c.021-.011.04-.021.058-.033l.065-.043a.449.449,0,0,0,.061-.054.862.862,0,0,0,.2-.287,1.381,1.381,0,0,0,.115-.554V44.733a2.427,2.427,0,0,0-1.1-1.9L1.1,1.731A.794.794,0,0,0,.36,1.638a.471.471,0,0,0-.094.054L.259,1.7a.328.328,0,0,0-.072.072.167.167,0,0,0-.033.04.21.21,0,0,0-.036.058.509.509,0,0,0-.065.14.372.372,0,0,0-.025.1c0,.008-.008.015,0,.022a.5.5,0,0,0-.018.1C0,2.27,0,2.317,0,2.364" transform="translate(0 -1.583)" fill="#455a64"/>
                        </g>
                      </g>
                    </g>
                  </g>
                </g>
              </g>
              <path id="Trazado_236062" data-name="Trazado 236062" d="M.719.846A.794.794,0,0,1,1.456.94l71.092,41.1a2.427,2.427,0,0,1,1.1,1.9v3.581l1.4-.82V43.147a2.418,2.418,0,0,0-1.093-1.895L2.855.149A.761.761,0,0,0,2.06.084C1.863.2.953.724.719.846" transform="translate(-0.359 0)" fill="#27debf"/>
              <path id="Trazado_236063" data-name="Trazado 236063" d="M0,2.357c0-.693.492-.972,1.095-.624l71.092,41.1a2.42,2.42,0,0,1,1.1,1.9v3.583L0,5.951Z" transform="translate(-0.002 -0.792)" fill="#27debf"/>
              <g id="Grupo_182854" data-name="Grupo 182854" transform="translate(0.364)" opacity="0.4">
                <g id="Grupo_182853" data-name="Grupo 182853">
                  <g id="Grupo_182852" data-name="Grupo 182852" clip-path="url(#clip-path-14)">
                    <path id="Trazado_236064" data-name="Trazado 236064" d="M1.462.941l71.09,41.1a2.251,2.251,0,0,1,.772.813l1.392-.806a2.184,2.184,0,0,0-.762-.8L2.86.148a.769.769,0,0,0-.8-.065C1.868.2.959.72.728.844a.792.792,0,0,1,.734.1" transform="translate(-0.728 0)" fill="#fff"/>
                  </g>
                </g>
              </g>
              <g id="Grupo_182857" data-name="Grupo 182857" transform="translate(72.956 42.051)" opacity="0.15">
                <g id="Grupo_182856" data-name="Grupo 182856">
                  <g id="Grupo_182855" data-name="Grupo 182855" clip-path="url(#clip-path-15)">
                    <path id="Trazado_236065" data-name="Trazado 236065" d="M147.639,88.758V85.2a2.262,2.262,0,0,0-.333-1.1l-1.4.8a2.216,2.216,0,0,1,.327,1.089v3.582Z" transform="translate(-145.91 -84.101)"/>
                  </g>
                </g>
              </g>
              <path id="Trazado_236066" data-name="Trazado 236066" d="M12.58,11.221a1.632,1.632,0,0,1,.619,1.31c0,.526-.277.793-.619.6a1.632,1.632,0,0,1-.619-1.31c0-.527.277-.793.619-.6" transform="translate(-5.98 -5.578)" fill="#455a64"/>
              <path id="Trazado_236067" data-name="Trazado 236067" d="M8.124,8.643a1.632,1.632,0,0,1,.619,1.31c0,.526-.277.793-.619.6a1.632,1.632,0,0,1-.619-1.31c0-.526.277-.793.619-.6" transform="translate(-3.752 -4.289)" fill="#455a64"/>
              <path id="Trazado_236068" data-name="Trazado 236068" d="M3.669,6.066a1.632,1.632,0,0,1,.619,1.31c0,.526-.277.793-.619.6a1.632,1.632,0,0,1-.619-1.31c0-.526.277-.793.619-.6" transform="translate(-1.525 -3)" fill="#455a64"/>
              <g id="Grupo_182860" data-name="Grupo 182860" transform="translate(72.882 46.702)" opacity="0.9">
                <g id="Grupo_182859" data-name="Grupo 182859">
                  <g id="Grupo_182858" data-name="Grupo 182858" clip-path="url(#clip-path-16)">
                    <path id="Trazado_236069" data-name="Trazado 236069" d="M145.762,144.042c.04-.025.087-.05.137-.079.1-.061.216-.126.339-.19l0,0c.062-.035.123-.071.184-.1a.028.028,0,0,1,.015-.007c.1-.057.2-.115.287-.165s.177-.1.241-.137.115-.065.137-.076a.626.626,0,0,0,.186-.151.817.817,0,0,0,.148-.223,1.359,1.359,0,0,0,.126-.579V93.4l-1.4.82v48.9a1.629,1.629,0,0,1-.115.554.865.865,0,0,1-.2.287.19.19,0,0,1-.061.054.081.081,0,0,1-.026.025" transform="translate(-145.762 -93.404)" fill="#37474f"/>
                  </g>
                </g>
              </g>
              <path id="Trazado_236070" data-name="Trazado 236070" d="M99.035,129.641a23.942,23.942,0,0,1,2.923-1.684l7.352-.231-2.923,1.556v.128Z" transform="translate(-49.517 -63.863)" fill="#263238"/>
              <path id="Trazado_236071" data-name="Trazado 236071" d="M99.035,122.433v-6.111l7.352-.231v-.128L99.035,107.2v-6.111l12.608,15.671v4.605Z" transform="translate(-49.517 -50.543)" fill="#fafafa"/>
              <path id="Trazado_236072" data-name="Trazado 236072" d="M99.035,99.4l2.923-1.684,12.608,15.671-2.923,1.684Z" transform="translate(-49.517 -48.859)" fill="#455a64"/>
              <path id="Trazado_236073" data-name="Trazado 236073" d="M127.172,129.06v4.605l-2.923,1.684v-4.605Z" transform="translate(-62.124 -64.53)" fill="#37474f"/>
              <path id="Trazado_236074" data-name="Trazado 236074" d="M64.54,66.368l3.774,2.179L78.07,104.3l-3.914-2.259Z" transform="translate(-32.27 -33.183)" fill="#fafafa"/>
              <path id="Trazado_236075" data-name="Trazado 236075" d="M64.54,64.684,67.463,63l3.774,2.179-2.923,1.684Z" transform="translate(-32.27 -31.5)" fill="#455a64"/>
              <path id="Trazado_236076" data-name="Trazado 236076" d="M75.01,67.357l-2.923,1.684L81.844,104.8l2.923-1.684Z" transform="translate(-36.044 -33.678)" fill="#37474f"/>
              <path id="Trazado_236077" data-name="Trazado 236077" d="M52.676,95.132l-2.923,1.684L42.4,87.967l2.923-1.684Z" transform="translate(-21.201 -43.141)" fill="#263238"/>
              <path id="Trazado_236078" data-name="Trazado 236078" d="M37.146,83.394l7.352,8.72v6.112L31.891,82.6v-4.6L44.5,76.879v6.112l-7.352.274Z" transform="translate(-15.945 -38.439)" fill="#fafafa"/>
              <path id="Trazado_236079" data-name="Trazado 236079" d="M47.42,73.512,44.5,75.2,31.891,76.309l2.923-1.684Z" transform="translate(-15.945 -36.756)" fill="#455a64"/>
              <path id="Trazado_236080" data-name="Trazado 236080" d="M57.1,75.2v6.111l2.923-1.684V73.511" transform="translate(-28.552 -36.755)" fill="#37474f"/>
              <path id="Trazado_236081" data-name="Trazado 236081" d="M60.027,103.981,57.1,105.665v6.111l2.923-1.684Z" transform="translate(-28.552 -51.99)" fill="#37474f"/>
            </g>
          </g>
        </g>
      </g>
      <g id="Grupo_985920" data-name="Grupo 985920" transform="translate(-11692.403 -12057.471)">
        <g id="Grupo_985914" data-name="Grupo 985914" clip-path="url(#clip-path-17)">
          <g id="Grupo_985913" data-name="Grupo 985913">
            <g id="Grupo_985912" data-name="Grupo 985912" clip-path="url(#clip-path-18)">
              <path id="Trazado_659187" data-name="Trazado 659187" d="M17.369,54.775l2.954-5.554-2.377-6.86v-4.2l7.273,4.2v4.2l-3.127,5.416a.452.452,0,0,1-.212.189l0,0Z" fill="#27debf"/>
              <g id="Grupo_985905" data-name="Grupo 985905" opacity="0.2">
                <g id="Grupo_985904" data-name="Grupo 985904">
                  <g id="Grupo_985903" data-name="Grupo 985903" clip-path="url(#clip-path-19)">
                    <path id="Trazado_659188" data-name="Trazado 659188" d="M17.369,54.775l2.954-5.554-2.377-6.86v-4.2l7.273,4.2v4.2l-3.127,5.416a.452.452,0,0,1-.212.189l0,0Z"/>
                  </g>
                </g>
              </g>
              <path id="Trazado_659189" data-name="Trazado 659189" d="M0,4.78A4.821,4.821,0,0,1,2.18,1L3.043.522A4.815,4.815,0,0,1,7.4.522L34.633,16.27a4.819,4.819,0,0,1,2.181,3.777V50.006a4.82,4.82,0,0,1-2.181,3.777l-.863.482a4.821,4.821,0,0,1-4.361,0l-8.757-5.06-3.121,5.4a.465.465,0,0,1-.843-.08l-3.3-9.52L2.18,38.516A4.819,4.819,0,0,1,0,34.739Z" fill="#27debf"/>
              <g id="Grupo_985908" data-name="Grupo 985908" opacity="0.2">
                <g id="Grupo_985907" data-name="Grupo 985907">
                  <g id="Grupo_985906" data-name="Grupo 985906" clip-path="url(#clip-path-20)">
                    <path id="Trazado_659190" data-name="Trazado 659190" d="M36.814,50.006a4.818,4.818,0,0,1-2.181,3.777l-.862.482a4.875,4.875,0,0,1-3.989.175c1.026.388,1.808-.191,1.808-1.434V23.046a4.465,4.465,0,0,0-.638-2.149l5.223-3a4.449,4.449,0,0,1,.639,2.149Z"/>
                  </g>
                </g>
              </g>
              <g id="Grupo_985911" data-name="Grupo 985911" opacity="0.3">
                <g id="Grupo_985910" data-name="Grupo 985910">
                  <g id="Grupo_985909" data-name="Grupo 985909" clip-path="url(#clip-path-21)">
                    <path id="Trazado_659191" data-name="Trazado 659191" d="M.071,4.16c.254-.926,1.1-1.221,2.106-.641L29.41,19.272A4.316,4.316,0,0,1,30.947,20.9l5.221-3a4.407,4.407,0,0,0-1.536-1.627L7.409.522a4.855,4.855,0,0,0-4.365,0l-.867.484A4.813,4.813,0,0,0,.071,4.16" fill="#fff"/>
                  </g>
                </g>
              </g>
              <path id="Trazado_659192" data-name="Trazado 659192" d="M9.966,16.368l-1.149-2.2-3.14-.691a2.471,2.471,0,0,1,1.3-2.076c1.18-.5,2.842.453,4.021,2.32a8.313,8.313,0,0,1,1.343,4.688,2.37,2.37,0,0,0,.289,1.167l1.606,3.067,1.173,2.224-2.185,1.546-.9-1.707-1.478-2.823a1.649,1.649,0,0,0-.976-.9A5.545,5.545,0,0,1,6.61,17.957c-.08-.153-.155-.308-.225-.463l3.156.695Z" fill="#fafafa"/>
              <path id="Trazado_659193" data-name="Trazado 659193" d="M18.536,30.881l.825,1.594L20.839,35.3a1.648,1.648,0,0,0,.977.9,5.54,5.54,0,0,1,3.255,3.032q.12.229.225.462L22.141,39l-.426,1.82,1.149,2.2,3.14.691a2.468,2.468,0,0,1-1.3,2.075c-1.18.5-2.842-.453-4.021-2.319a8.319,8.319,0,0,1-1.343-4.689,2.366,2.366,0,0,0-.289-1.166L17.216,34.1l-.786-1.518Z" fill="#fafafa"/>
              <path id="Trazado_659194" data-name="Trazado 659194" d="M6.087,33.138l14.274-10.1c-.081-.156-.081-.331,0-.393l1.327-1c.2-.154.2-.593,0-.98-.89-1.7-2.332-2.532-3.221-1.86l-.231.174c-.17-.325-.17-.693,0-.821l.362-.274c1.335-1.009,3.5.241,4.834,2.791l1.745,3.334.148.282.1.2.107.2c-.371.281.057,1.606.523,2.5.448.856.633.933.846.934.08-.049.2.023.28.17l.007.014.1.2.006.011.445.851.039.073c.123.235.123.5,0,.594l-.039.029L26.114,31.3c-.142.108-.373-.023-.517-.293l.014.029L25.592,31l-.445-.85-.109-.209c-.084-.16-.084-.342,0-.4a5.033,5.033,0,0,0-.989-2.179c-.657-.955-1.3-.84-1.3-.84h0l-.252.19c-.088.067-.231-.016-.319-.184l-.093-.179L8.335,37.434c-.2.162-.535-.026-.741-.419L6.08,34.122c-.2-.393-.2-.836.007-.984" fill="#fafafa"/>
            </g>
          </g>
        </g>
      </g>
    </g>
  </g>
</svg>
