<svg id="Grupo_981158" data-name="Grupo 981158" xmlns="http://www.w3.org/2000/svg" xmlns:xlink="http://www.w3.org/1999/xlink" width="35.313" height="114.649" viewBox="0 0 35.313 114.649">
  <defs>
    <clipPath id="clip-path">
      <rect id="Rectángulo_59217" data-name="Rectángulo 59217" width="35.314" height="114.649" fill="none"/>
    </clipPath>
    <clipPath id="clip-path-3">
      <rect id="Rectángulo_59204" data-name="Rectángulo 59204" width="28.035" height="48.926" transform="translate(0 62.066)" fill="none"/>
    </clipPath>
    <clipPath id="clip-path-4">
      <rect id="Rectángulo_59205" data-name="Rectángulo 59205" width="20.116" height="22.966" fill="none"/>
    </clipPath>
    <clipPath id="clip-path-5">
      <rect id="Rectángulo_59206" data-name="Rectángulo 59206" width="20.116" height="22.966" transform="translate(0 22.232)" fill="none"/>
    </clipPath>
    <clipPath id="clip-path-6">
      <rect id="Rectángulo_59207" data-name="Rectángulo 59207" width="20.116" height="22.966" transform="translate(0 44.464)" fill="none"/>
    </clipPath>
    <clipPath id="clip-path-7">
      <rect id="Rectángulo_59208" data-name="Rectángulo 59208" width="5.098" height="35.493" transform="translate(3.217 79.151)" fill="none"/>
    </clipPath>
    <clipPath id="clip-path-8">
      <rect id="Rectángulo_59209" data-name="Rectángulo 59209" width="31.758" height="18.283" transform="translate(3.542 63.205)" fill="none"/>
    </clipPath>
    <clipPath id="clip-path-9">
      <rect id="Rectángulo_59210" data-name="Rectángulo 59210" width="22.964" height="24.681" transform="translate(3.245 1.16)" fill="none"/>
    </clipPath>
    <clipPath id="clip-path-10">
      <rect id="Rectángulo_59211" data-name="Rectángulo 59211" width="20.116" height="22.966" transform="translate(6.093 2.825)" fill="none"/>
    </clipPath>
    <clipPath id="clip-path-11">
      <rect id="Rectángulo_59212" data-name="Rectángulo 59212" width="22.964" height="24.682" transform="translate(3.245 23.392)" fill="none"/>
    </clipPath>
    <clipPath id="clip-path-12">
      <rect id="Rectángulo_59213" data-name="Rectángulo 59213" width="20.116" height="22.966" transform="translate(6.093 25.057)" fill="none"/>
    </clipPath>
    <clipPath id="clip-path-13">
      <rect id="Rectángulo_59214" data-name="Rectángulo 59214" width="22.964" height="24.682" transform="translate(3.245 45.624)" fill="none"/>
    </clipPath>
    <clipPath id="clip-path-14">
      <rect id="Rectángulo_59215" data-name="Rectángulo 59215" width="20.116" height="22.966" transform="translate(6.093 47.289)" fill="none"/>
    </clipPath>
  </defs>
  <g id="Grupo_182842" data-name="Grupo 182842" clip-path="url(#clip-path)">
    <g id="Grupo_182841" data-name="Grupo 182841">
      <g id="Grupo_182840" data-name="Grupo 182840" clip-path="url(#clip-path)">
        <g id="Grupo_182806" data-name="Grupo 182806" opacity="0.1">
          <g id="Grupo_182805" data-name="Grupo 182805">
            <g id="Grupo_182804" data-name="Grupo 182804" clip-path="url(#clip-path-3)">
              <path id="Trazado_236023" data-name="Trazado 236023" d="M27,62.208,1.037,77.165A2.3,2.3,0,0,0,0,78.961v31.291c0,.662.465.93,1.037.6L27,95.894a2.291,2.291,0,0,0,1.037-1.8V62.807c0-.662-.464-.93-1.037-.6"/>
            </g>
          </g>
        </g>
        <g id="Grupo_182809" data-name="Grupo 182809" opacity="0.1">
          <g id="Grupo_182808" data-name="Grupo 182808">
            <g id="Grupo_182807" data-name="Grupo 182807" clip-path="url(#clip-path-4)">
              <path id="Trazado_236024" data-name="Trazado 236024" d="M19.64.065.475,11.1A1.054,1.054,0,0,0,0,11.929v10.7c0,.3.213.426.475.274L19.64,11.861a1.05,1.05,0,0,0,.475-.824V.34c0-.3-.212-.426-.475-.275"/>
            </g>
          </g>
        </g>
        <g id="Grupo_182812" data-name="Grupo 182812" opacity="0.1">
          <g id="Grupo_182811" data-name="Grupo 182811">
            <g id="Grupo_182810" data-name="Grupo 182810" clip-path="url(#clip-path-5)">
              <path id="Trazado_236025" data-name="Trazado 236025" d="M19.64,22.3.475,33.337A1.054,1.054,0,0,0,0,34.161v10.7c0,.3.213.426.475.274L19.64,34.093a1.05,1.05,0,0,0,.475-.824v-10.7c0-.3-.212-.427-.475-.275"/>
            </g>
          </g>
        </g>
        <g id="Grupo_182815" data-name="Grupo 182815" opacity="0.1">
          <g id="Grupo_182814" data-name="Grupo 182814">
            <g id="Grupo_182813" data-name="Grupo 182813" clip-path="url(#clip-path-6)">
              <path id="Trazado_236026" data-name="Trazado 236026" d="M19.64,44.529.475,55.569A1.054,1.054,0,0,0,0,56.393v10.7c0,.3.213.426.475.274L19.64,56.325a1.051,1.051,0,0,0,.475-.824V44.8c0-.3-.212-.427-.475-.275"/>
            </g>
          </g>
        </g>
        <path id="Trazado_236027" data-name="Trazado 236027" d="M30.216,63.457,4.255,78.414a2.292,2.292,0,0,0-1.038,1.8V111.5a2.26,2.26,0,0,0,1.043,1.785l1.976,1.121a2.325,2.325,0,0,0,2.08-.01L34.277,99.441a2.292,2.292,0,0,0,1.037-1.8V66.353a2.263,2.263,0,0,0-1.043-1.786L32.3,63.447a2.321,2.321,0,0,0-2.08.01" fill="#27debf"/>
        <g id="Grupo_182818" data-name="Grupo 182818" opacity="0.2">
          <g id="Grupo_182817" data-name="Grupo 182817">
            <g id="Grupo_182816" data-name="Grupo 182816" clip-path="url(#clip-path-7)">
              <path id="Trazado_236028" data-name="Trazado 236028" d="M8.315,114.4a2.381,2.381,0,0,1-2.082.012L4.26,113.285A2.253,2.253,0,0,1,3.217,111.5V80.21a2.142,2.142,0,0,1,.33-1.059l4.037,2.337a2.064,2.064,0,0,0-.306,1.02V113.8c0,.606.427.955,1.037.6"/>
            </g>
          </g>
        </g>
        <g id="Grupo_182821" data-name="Grupo 182821" opacity="0.5">
          <g id="Grupo_182820" data-name="Grupo 182820">
            <g id="Grupo_182819" data-name="Grupo 182819" clip-path="url(#clip-path-8)">
              <path id="Trazado_236029" data-name="Trazado 236029" d="M35.3,66.166c-.081-.522-.508-.709-1.025-.412L8.317,80.712a2.128,2.128,0,0,0-.733.776L3.542,79.152a2.068,2.068,0,0,1,.714-.738L30.218,63.456a2.319,2.319,0,0,1,2.079-.01l1.973,1.12a2.289,2.289,0,0,1,1.03,1.6" fill="#fff"/>
            </g>
          </g>
        </g>
        <path id="Trazado_236030" data-name="Trazado 236030" d="M34.277,65.755,8.315,80.712a2.3,2.3,0,0,0-1.037,1.8V113.8c0,.662.465.93,1.037.6L34.277,99.441a2.289,2.289,0,0,0,1.037-1.8V66.354c0-.662-.464-.93-1.037-.6" fill="#27debf"/>
        <path id="Trazado_236031" data-name="Trazado 236031" d="M8.993,96.91a1.618,1.618,0,0,1,.116-.644,4.152,4.152,0,0,1,.329-.6l6.124-9.9a.872.872,0,0,1,.1-.117.431.431,0,0,1,.069-.051.175.175,0,0,1,.229.009.407.407,0,0,1,.092.3v3.819a1.665,1.665,0,0,1-.176.8,5.719,5.719,0,0,1-.314.523l-2.679,4.115,2.679,1.046a1.326,1.326,0,0,1,.314.15q.175.111.176.582v3.819a.949.949,0,0,1-.092.407.6.6,0,0,1-.229.273.3.3,0,0,1-.069.028.213.213,0,0,1-.1,0L9.438,98.634a.833.833,0,0,1-.329-.223.81.81,0,0,1-.116-.511Z" fill="#fff"/>
        <path id="Trazado_236032" data-name="Trazado 236032" d="M22.344,80.126a3.153,3.153,0,0,1,.23-.615,1.1,1.1,0,0,1,.444-.481l2.052-1.184a.182.182,0,0,1,.237.016.412.412,0,0,1,.1.307,1.1,1.1,0,0,1-.03.231L20.2,100.458a2.807,2.807,0,0,1-.214.6,1.117,1.117,0,0,1-.459.5l-2.007,1.158a.179.179,0,0,1-.236-.017.41.41,0,0,1-.1-.308.988.988,0,0,1,.032-.229Z" fill="#fff"/>
        <path id="Trazado_236033" data-name="Trazado 236033" d="M33.6,83.694a1.63,1.63,0,0,1-.115.644,4.378,4.378,0,0,1-.33.6l-6.124,9.9a.719.719,0,0,1-.1.117.441.441,0,0,1-.068.052.176.176,0,0,1-.23-.009.409.409,0,0,1-.091-.3V90.881a1.591,1.591,0,0,1,.175-.785c.117-.209.223-.38.314-.512l2.679-4.14-2.679-1.021a1.142,1.142,0,0,1-.314-.161q-.176-.123-.175-.594V79.849a.948.948,0,0,1,.091-.407.589.589,0,0,1,.23-.273.3.3,0,0,1,.068-.029.243.243,0,0,1,.1,0l6.124,2.829a.85.85,0,0,1,.33.222.822.822,0,0,1,.115.511Z" fill="#fff"/>
        <path id="Trazado_236034" data-name="Trazado 236034" d="M22.885,1.275,3.72,12.315a1.052,1.052,0,0,0-.475.824v10.7a1.04,1.04,0,0,0,.478.819l1.892,1.075a1.062,1.062,0,0,0,.953-.005l19.165-11.04a1.049,1.049,0,0,0,.476-.823V3.165a1.039,1.039,0,0,0-.479-.819L23.839,1.27a1.064,1.064,0,0,0-.954,0" fill="#27debf"/>
        <g id="Grupo_182824" data-name="Grupo 182824" opacity="0.4">
          <g id="Grupo_182823" data-name="Grupo 182823">
            <g id="Grupo_182822" data-name="Grupo 182822" clip-path="url(#clip-path-9)">
              <path id="Trazado_236035" data-name="Trazado 236035" d="M22.885,1.275,3.72,12.315a1.052,1.052,0,0,0-.475.824v10.7a1.04,1.04,0,0,0,.478.819l1.892,1.075a1.062,1.062,0,0,0,.953-.005l19.165-11.04a1.049,1.049,0,0,0,.476-.823V3.165a1.039,1.039,0,0,0-.479-.819L23.839,1.27a1.064,1.064,0,0,0-.954,0"/>
            </g>
          </g>
        </g>
        <path id="Trazado_236036" data-name="Trazado 236036" d="M26.2,3.078c-.037-.238-.233-.324-.47-.189L6.569,13.93a.971.971,0,0,0-.336.356l-2.84-1.633a.954.954,0,0,1,.328-.339L22.886,1.273a1.062,1.062,0,0,1,.953,0L25.73,2.344a1.054,1.054,0,0,1,.472.734" fill="#27debf"/>
        <path id="Trazado_236037" data-name="Trazado 236037" d="M25.733,2.89,6.568,13.93a1.054,1.054,0,0,0-.475.824v10.7c0,.3.213.426.475.274l19.165-11.04a1.051,1.051,0,0,0,.475-.824V3.164c0-.3-.212-.426-.475-.274" fill="#27debf"/>
        <g id="Grupo_182827" data-name="Grupo 182827" opacity="0.2">
          <g id="Grupo_182826" data-name="Grupo 182826">
            <g id="Grupo_182825" data-name="Grupo 182825" clip-path="url(#clip-path-10)">
              <path id="Trazado_236038" data-name="Trazado 236038" d="M25.733,2.89,6.568,13.93a1.054,1.054,0,0,0-.475.824v10.7c0,.3.213.426.475.274l19.165-11.04a1.051,1.051,0,0,0,.475-.824V3.164c0-.3-.212-.426-.475-.274"/>
            </g>
          </g>
        </g>
        <path id="Trazado_236039" data-name="Trazado 236039" d="M10.829,16.672c-.005.084-.007.2-.009.345s0,.3,0,.449,0,.3,0,.451,0,.259.009.338a2.063,2.063,0,0,0,.055.383.578.578,0,0,0,.135.27.331.331,0,0,0,.232.107A.666.666,0,0,0,11.6,18.9a1.367,1.367,0,0,0,.343-.273,1.776,1.776,0,0,0,.22-.311A1.616,1.616,0,0,0,12.3,18c.03-.105.053-.2.07-.285a1.128,1.128,0,0,1,.067-.251.327.327,0,0,1,.141-.143l.8-.462a.071.071,0,0,1,.094.006.163.163,0,0,1,.04.123,3.734,3.734,0,0,1-.153.993,4.543,4.543,0,0,1-.4.968,4.612,4.612,0,0,1-.6.843,3.09,3.09,0,0,1-.749.616,1.586,1.586,0,0,1-.787.252.892.892,0,0,1-.59-.211,1.311,1.311,0,0,1-.377-.6,3.2,3.2,0,0,1-.149-.9c-.008-.252-.013-.526-.013-.821s.005-.581.013-.855a4.907,4.907,0,0,1,.147-1.07,5.022,5.022,0,0,1,.376-1.032,4.213,4.213,0,0,1,.591-.892,3.041,3.041,0,0,1,.789-.658,1.659,1.659,0,0,1,.749-.249,1.012,1.012,0,0,1,.6.146,1.073,1.073,0,0,1,.4.5,2.113,2.113,0,0,1,.153.816.387.387,0,0,1-.04.169.252.252,0,0,1-.094.116l-.8.463c-.069.04-.116.047-.141.02a.408.408,0,0,1-.067-.173,1.464,1.464,0,0,0-.07-.2.385.385,0,0,0-.132-.164.375.375,0,0,0-.22-.057.768.768,0,0,0-.343.123,1.263,1.263,0,0,0-.349.291,1.658,1.658,0,0,0-.232.374,1.847,1.847,0,0,0-.135.427,3.215,3.215,0,0,0-.055.446" fill="#f0f0f0"/>
        <path id="Trazado_236040" data-name="Trazado 236040" d="M16.037,11.066a1.608,1.608,0,0,1,.719-.241,1.041,1.041,0,0,1,.566.121.932.932,0,0,1,.372.387,1.193,1.193,0,0,1,.142.55.384.384,0,0,1-.04.169.25.25,0,0,1-.088.113l-.8.463a.229.229,0,0,1-.138.041.232.232,0,0,1-.107-.051l-.058-.06a.29.29,0,0,0-.113-.072.407.407,0,0,0-.184-.016.729.729,0,0,0-.269.1,1.837,1.837,0,0,0-.223.153,1.284,1.284,0,0,0-.19.185.885.885,0,0,0-.135.224.692.692,0,0,0-.052.265.285.285,0,0,0,.059.2.257.257,0,0,0,.195.061,1.539,1.539,0,0,0,.364-.054c.152-.037.339-.086.563-.147a1.885,1.885,0,0,1,.588-.075.688.688,0,0,1,.419.159.853.853,0,0,1,.251.42,2.588,2.588,0,0,1,.083.72,3.17,3.17,0,0,1-.141.939,3.847,3.847,0,0,1-.4.873,3.947,3.947,0,0,1-.6.756,3.736,3.736,0,0,1-.756.578,1.845,1.845,0,0,1-.759.268,1.034,1.034,0,0,1-.591-.106.945.945,0,0,1-.388-.4,1.361,1.361,0,0,1-.147-.621.384.384,0,0,1,.04-.169.244.244,0,0,1,.089-.113l.8-.463a.248.248,0,0,1,.135-.044.194.194,0,0,1,.1.042c.016.016.041.043.073.08a.414.414,0,0,0,.132.1.409.409,0,0,0,.207.036.728.728,0,0,0,.31-.113,2.264,2.264,0,0,0,.541-.421.74.74,0,0,0,.217-.516.2.2,0,0,0-.079-.189.4.4,0,0,0-.239-.037,2.274,2.274,0,0,0-.407.079q-.247.068-.584.149a.885.885,0,0,1-.921-.16,1.68,1.68,0,0,1-.291-1.128,3.175,3.175,0,0,1,.12-.842,3.939,3.939,0,0,1,.893-1.613,3.01,3.01,0,0,1,.719-.58" fill="#f0f0f0"/>
        <path id="Trazado_236041" data-name="Trazado 236041" d="M20.467,8.508a1.608,1.608,0,0,1,.719-.241,1.041,1.041,0,0,1,.566.121.943.943,0,0,1,.374.387,1.216,1.216,0,0,1,.14.55.4.4,0,0,1-.039.169.251.251,0,0,1-.089.113l-.8.463a.228.228,0,0,1-.137.041.223.223,0,0,1-.107-.051c-.013-.012-.032-.032-.059-.06a.29.29,0,0,0-.113-.072.393.393,0,0,0-.184-.016.729.729,0,0,0-.269.1,1.837,1.837,0,0,0-.223.153,1.334,1.334,0,0,0-.19.185.885.885,0,0,0-.135.224.691.691,0,0,0-.051.265.285.285,0,0,0,.058.2.257.257,0,0,0,.195.061,1.539,1.539,0,0,0,.364-.054c.152-.037.339-.086.563-.146a1.859,1.859,0,0,1,.588-.076.688.688,0,0,1,.419.159.845.845,0,0,1,.251.42,2.588,2.588,0,0,1,.083.72,3.17,3.17,0,0,1-.141.939,3.8,3.8,0,0,1-.395.873,3.947,3.947,0,0,1-.6.756,3.736,3.736,0,0,1-.756.578,1.845,1.845,0,0,1-.759.268,1.031,1.031,0,0,1-.59-.106.941.941,0,0,1-.389-.4,1.361,1.361,0,0,1-.147-.621.384.384,0,0,1,.04-.169.251.251,0,0,1,.089-.113l.8-.463a.25.25,0,0,1,.135-.044.194.194,0,0,1,.1.042c.016.016.041.043.073.08a.406.406,0,0,0,.34.134.729.729,0,0,0,.309-.113,2.264,2.264,0,0,0,.541-.421.741.741,0,0,0,.218-.516.206.206,0,0,0-.08-.19.411.411,0,0,0-.239-.036,2.25,2.25,0,0,0-.406.079c-.166.046-.36.1-.585.149a.885.885,0,0,1-.921-.16,1.68,1.68,0,0,1-.291-1.128,3.175,3.175,0,0,1,.12-.842,3.886,3.886,0,0,1,.346-.849,3.827,3.827,0,0,1,.548-.764,2.985,2.985,0,0,1,.718-.58" fill="#f0f0f0"/>
        <path id="Trazado_236042" data-name="Trazado 236042" d="M22.885,23.507,3.72,34.547a1.054,1.054,0,0,0-.475.824v10.7a1.04,1.04,0,0,0,.478.819l1.892,1.075a1.062,1.062,0,0,0,.953-.005l19.165-11.04a1.049,1.049,0,0,0,.476-.823V25.4a1.039,1.039,0,0,0-.479-.819L23.839,23.5a1.064,1.064,0,0,0-.954,0" fill="#27debf"/>
        <g id="Grupo_182830" data-name="Grupo 182830" opacity="0.4">
          <g id="Grupo_182829" data-name="Grupo 182829">
            <g id="Grupo_182828" data-name="Grupo 182828" clip-path="url(#clip-path-11)">
              <path id="Trazado_236043" data-name="Trazado 236043" d="M22.885,23.507,3.72,34.547a1.054,1.054,0,0,0-.475.824v10.7a1.04,1.04,0,0,0,.478.819l1.892,1.075a1.062,1.062,0,0,0,.953-.005l19.165-11.04a1.049,1.049,0,0,0,.476-.823V25.4a1.039,1.039,0,0,0-.479-.819L23.839,23.5a1.064,1.064,0,0,0-.954,0"/>
            </g>
          </g>
        </g>
        <path id="Trazado_236044" data-name="Trazado 236044" d="M26.2,25.311c-.037-.239-.233-.325-.47-.19L6.569,36.162a.974.974,0,0,0-.336.357l-2.84-1.634a.951.951,0,0,1,.328-.338l19.165-11.04a1.059,1.059,0,0,1,.953,0l1.891,1.074a1.056,1.056,0,0,1,.472.735" fill="#27debf"/>
        <path id="Trazado_236045" data-name="Trazado 236045" d="M25.733,25.122,6.568,36.162a1.054,1.054,0,0,0-.475.824v10.7c0,.3.213.426.475.274l19.165-11.04a1.051,1.051,0,0,0,.475-.824V25.4c0-.3-.212-.426-.475-.274" fill="#27debf"/>
        <g id="Grupo_182833" data-name="Grupo 182833" opacity="0.2">
          <g id="Grupo_182832" data-name="Grupo 182832">
            <g id="Grupo_182831" data-name="Grupo 182831" clip-path="url(#clip-path-12)">
              <path id="Trazado_236046" data-name="Trazado 236046" d="M25.733,25.122,6.568,36.162a1.054,1.054,0,0,0-.475.824v10.7c0,.3.213.426.475.274l19.165-11.04a1.051,1.051,0,0,0,.475-.824V25.4c0-.3-.212-.426-.475-.274"/>
            </g>
          </g>
        </g>
        <path id="Trazado_236047" data-name="Trazado 236047" d="M10.921,36.345a.089.089,0,0,1,.116.008.2.2,0,0,1,.049.151v6.087a.479.479,0,0,1-.049.207.3.3,0,0,1-.116.142l-.8.463A.089.089,0,0,1,10,43.4a.2.2,0,0,1-.049-.151V40.936L8.6,41.72v2.309a.475.475,0,0,1-.049.207.3.3,0,0,1-.116.142l-.8.463a.094.094,0,0,1-.117,0,.2.2,0,0,1-.049-.156V38.6a.5.5,0,0,1,.049-.208.311.311,0,0,1,.117-.142l.8-.463a.089.089,0,0,1,.116.008.2.2,0,0,1,.049.151v2.271l1.359-.784V37.158A.483.483,0,0,1,10,36.95a.3.3,0,0,1,.116-.142Z" fill="#f0f0f0"/>
        <path id="Trazado_236048" data-name="Trazado 236048" d="M15.394,33.763a.089.089,0,0,1,.116.008.2.2,0,0,1,.049.151v1a.475.475,0,0,1-.049.207.308.308,0,0,1-.116.143l-1.077.621v4.834a.475.475,0,0,1-.049.207.311.311,0,0,1-.116.142l-.8.463a.088.088,0,0,1-.116-.008.2.2,0,0,1-.049-.151V36.546l-1.077.622a.089.089,0,0,1-.116-.008.2.2,0,0,1-.049-.151v-1a.475.475,0,0,1,.049-.207.308.308,0,0,1,.116-.143Z" fill="#f0f0f0"/>
        <path id="Trazado_236049" data-name="Trazado 236049" d="M18.206,37.072a.459.459,0,0,1-.083-.108l-.575-1.222V38.86a.483.483,0,0,1-.049.208.3.3,0,0,1-.116.142l-.8.463a.089.089,0,0,1-.116-.008.2.2,0,0,1-.049-.151V33.428a.476.476,0,0,1,.049-.208.311.311,0,0,1,.116-.142l.71-.41c.082-.047.143-.048.184,0a.572.572,0,0,1,.079.1l.992,2.038.991-3.182c.012-.039.039-.1.079-.2a.436.436,0,0,1,.184-.21l.71-.41a.088.088,0,0,1,.116.009.2.2,0,0,1,.049.151v6.086a.475.475,0,0,1-.049.207.3.3,0,0,1-.116.142l-.8.463a.088.088,0,0,1-.116-.008.2.2,0,0,1-.049-.15V34.59l-.575,1.886a1.722,1.722,0,0,1-.083.2.355.355,0,0,1-.144.163l-.391.226q-.092.052-.144,0" fill="#f0f0f0"/>
        <path id="Trazado_236050" data-name="Trazado 236050" d="M24.836,33.4a.089.089,0,0,1,.116.008.2.2,0,0,1,.049.151v1a.475.475,0,0,1-.049.207.308.308,0,0,1-.116.143L22,36.542a.089.089,0,0,1-.117-.008.2.2,0,0,1-.049-.15V30.3a.49.49,0,0,1,.049-.207A.315.315,0,0,1,22,29.947l.8-.463a.09.09,0,0,1,.116.009.2.2,0,0,1,.05.151v4.833Z" fill="#f0f0f0"/>
        <path id="Trazado_236051" data-name="Trazado 236051" d="M22.885,45.739,3.72,56.779a1.054,1.054,0,0,0-.475.824V68.3a1.04,1.04,0,0,0,.478.819l1.892,1.075a1.062,1.062,0,0,0,.953,0L25.733,59.15a1.049,1.049,0,0,0,.476-.823v-10.7a1.039,1.039,0,0,0-.479-.819l-1.891-1.076a1.064,1.064,0,0,0-.954,0" fill="#27debf"/>
        <g id="Grupo_182836" data-name="Grupo 182836" opacity="0.4">
          <g id="Grupo_182835" data-name="Grupo 182835">
            <g id="Grupo_182834" data-name="Grupo 182834" clip-path="url(#clip-path-13)">
              <path id="Trazado_236052" data-name="Trazado 236052" d="M22.885,45.739,3.72,56.779a1.054,1.054,0,0,0-.475.824V68.3a1.04,1.04,0,0,0,.478.819l1.892,1.075a1.062,1.062,0,0,0,.953,0L25.733,59.15a1.049,1.049,0,0,0,.476-.823v-10.7a1.039,1.039,0,0,0-.479-.819l-1.891-1.076a1.064,1.064,0,0,0-.954,0"/>
            </g>
          </g>
        </g>
        <path id="Trazado_236053" data-name="Trazado 236053" d="M26.2,47.542c-.037-.239-.233-.325-.47-.189L6.569,58.394a.971.971,0,0,0-.336.356l-2.84-1.633a.954.954,0,0,1,.328-.339l19.165-11.04a1.062,1.062,0,0,1,.953,0l1.891,1.075a1.054,1.054,0,0,1,.472.734" fill="#27debf"/>
        <path id="Trazado_236054" data-name="Trazado 236054" d="M25.733,47.354,6.568,58.394a1.054,1.054,0,0,0-.475.824v10.7c0,.3.213.426.475.274L25.733,59.15a1.05,1.05,0,0,0,.475-.824v-10.7c0-.3-.212-.427-.475-.275" fill="#27debf"/>
        <g id="Grupo_182839" data-name="Grupo 182839" opacity="0.2">
          <g id="Grupo_182838" data-name="Grupo 182838">
            <g id="Grupo_182837" data-name="Grupo 182837" clip-path="url(#clip-path-14)">
              <path id="Trazado_236055" data-name="Trazado 236055" d="M25.733,47.354,6.568,58.394a1.054,1.054,0,0,0-.475.824v10.7c0,.3.213.426.475.274L25.733,59.15a1.05,1.05,0,0,0,.475-.824v-10.7c0-.3-.212-.427-.475-.275"/>
            </g>
          </g>
        </g>
        <path id="Trazado_236056" data-name="Trazado 236056" d="M11.2,60.921q-.006.126-.009.345c0,.145,0,.3,0,.449s0,.3,0,.45.005.26.009.339a2.151,2.151,0,0,0,.055.383.592.592,0,0,0,.135.27.326.326,0,0,0,.232.106.655.655,0,0,0,.349-.111,1.349,1.349,0,0,0,.343-.273,1.777,1.777,0,0,0,.22-.311,1.641,1.641,0,0,0,.132-.317,2.922,2.922,0,0,0,.07-.285,1.176,1.176,0,0,1,.068-.251.319.319,0,0,1,.14-.143l.8-.462a.072.072,0,0,1,.1.006.167.167,0,0,1,.039.123,3.773,3.773,0,0,1-.152.993,4.653,4.653,0,0,1-1.007,1.81,3.076,3.076,0,0,1-.75.617,1.57,1.57,0,0,1-.786.251.9.9,0,0,1-.591-.21,1.31,1.31,0,0,1-.376-.6,3.161,3.161,0,0,1-.15-.9q-.012-.378-.012-.821t.012-.855a4.907,4.907,0,0,1,.147-1.07,4.967,4.967,0,0,1,.377-1.032,4.171,4.171,0,0,1,.59-.892,3.038,3.038,0,0,1,.789-.658,1.677,1.677,0,0,1,.75-.25,1.018,1.018,0,0,1,.6.147,1.081,1.081,0,0,1,.4.5,2.132,2.132,0,0,1,.152.816.4.4,0,0,1-.039.169.254.254,0,0,1-.1.116l-.8.463c-.069.04-.116.047-.14.02a.426.426,0,0,1-.068-.173,1.244,1.244,0,0,0-.07-.205.379.379,0,0,0-.132-.164.375.375,0,0,0-.22-.057.772.772,0,0,0-.343.123,1.263,1.263,0,0,0-.349.291,1.658,1.658,0,0,0-.232.374,1.9,1.9,0,0,0-.135.427,3.374,3.374,0,0,0-.055.446" fill="#f0f0f0"/>
        <path id="Trazado_236057" data-name="Trazado 236057" d="M16.82,59.666v1.555a.475.475,0,0,1-.049.207.311.311,0,0,1-.116.142l-.771.446a.088.088,0,0,1-.116-.009.2.2,0,0,1-.049-.15V60.3l-.949.548a.089.089,0,0,1-.116-.009.2.2,0,0,1-.049-.15v-.952a.475.475,0,0,1,.049-.207.308.308,0,0,1,.116-.143l.949-.547V57.287a.475.475,0,0,1,.049-.207.308.308,0,0,1,.116-.143l.771-.445a.089.089,0,0,1,.116.008.2.2,0,0,1,.049.151v1.555l.942-.545a.089.089,0,0,1,.117.009.2.2,0,0,1,.049.151v.951a.475.475,0,0,1-.049.207.315.315,0,0,1-.117.143Z" fill="#f0f0f0"/>
        <path id="Trazado_236058" data-name="Trazado 236058" d="M20.877,57.323v1.555a.475.475,0,0,1-.049.207.311.311,0,0,1-.116.142l-.771.446a.089.089,0,0,1-.116-.009.2.2,0,0,1-.05-.15V57.959l-.948.548a.088.088,0,0,1-.116-.009.2.2,0,0,1-.049-.15V57.4a.475.475,0,0,1,.049-.207.308.308,0,0,1,.116-.143l.948-.548V54.944a.477.477,0,0,1,.05-.207.308.308,0,0,1,.116-.143l.771-.445a.089.089,0,0,1,.116.008.2.2,0,0,1,.049.151v1.555l.943-.545a.088.088,0,0,1,.116.009.2.2,0,0,1,.049.151v.951a.475.475,0,0,1-.049.207.32.32,0,0,1-.116.143Z" fill="#f0f0f0"/>
      </g>
    </g>
  </g>
</svg>
