<svg id="Grupo_981154" data-name="Grupo 981154" xmlns="http://www.w3.org/2000/svg" xmlns:xlink="http://www.w3.org/1999/xlink" width="172.427" height="67.74" viewBox="0 0 172.427 67.74">
  <defs>
    <clipPath id="clip-path">
      <rect id="Rectángulo_59032" data-name="Rectángulo 59032" width="172.427" height="67.74" fill="none"/>
    </clipPath>
    <clipPath id="clip-path-2">
      <rect id="Rectángulo_59031" data-name="Rectángulo 59031" width="172.427" height="67.74" transform="translate(0 0)" fill="none"/>
    </clipPath>
    <clipPath id="clip-path-3">
      <rect id="Rectángulo_59018" data-name="Rectángulo 59018" width="88.884" height="61.474" transform="translate(83.543)" fill="none"/>
    </clipPath>
    <clipPath id="clip-path-4">
      <rect id="Rectángulo_59019" data-name="Rectángulo 59019" width="12.148" height="11.744" transform="translate(160.278 28.638)" fill="none"/>
    </clipPath>
    <clipPath id="clip-path-5">
      <rect id="Rectángulo_59020" data-name="Rectángulo 59020" width="9.802" height="14.257" transform="translate(144.861 42.253)" fill="none"/>
    </clipPath>
    <clipPath id="clip-path-6">
      <rect id="Rectángulo_59021" data-name="Rectángulo 59021" width="1.331" height="16.203" transform="translate(134.938 44.544)" fill="none"/>
    </clipPath>
    <clipPath id="clip-path-7">
      <rect id="Rectángulo_59022" data-name="Rectángulo 59022" width="1.332" height="16.323" transform="translate(119.721 44.548)" fill="none"/>
    </clipPath>
    <clipPath id="clip-path-8">
      <rect id="Rectángulo_59023" data-name="Rectángulo 59023" width="9.802" height="14.253" transform="translate(101.328 42.253)" fill="none"/>
    </clipPath>
    <clipPath id="clip-path-9">
      <rect id="Rectángulo_59024" data-name="Rectángulo 59024" width="68.057" height="48.014" transform="translate(0 19.726)" fill="none"/>
    </clipPath>
    <clipPath id="clip-path-10">
      <rect id="Rectángulo_59025" data-name="Rectángulo 59025" width="8.392" height="12.564" transform="translate(0.004 34.297)" fill="none"/>
    </clipPath>
    <clipPath id="clip-path-11">
      <rect id="Rectángulo_59026" data-name="Rectángulo 59026" width="8.834" height="10.087" transform="translate(4.2 48.479)" fill="none"/>
    </clipPath>
    <clipPath id="clip-path-12">
      <rect id="Rectángulo_59027" data-name="Rectángulo 59027" width="5.16" height="13.416" transform="translate(25.403 54.299)" fill="none"/>
    </clipPath>
    <clipPath id="clip-path-13">
      <rect id="Rectángulo_59028" data-name="Rectángulo 59028" width="5.25" height="13.422" transform="translate(37.249 54.248)" fill="none"/>
    </clipPath>
    <clipPath id="clip-path-14">
      <rect id="Rectángulo_59029" data-name="Rectángulo 59029" width="5.011" height="10.169" transform="translate(49.868 48.499)" fill="none"/>
    </clipPath>
    <clipPath id="clip-path-15">
      <rect id="Rectángulo_59030" data-name="Rectángulo 59030" width="4.089" height="14" transform="translate(63.965 44.505)" fill="none"/>
    </clipPath>
  </defs>
  <g id="Grupo_182783" data-name="Grupo 182783" clip-path="url(#clip-path)">
    <g id="Grupo_182782" data-name="Grupo 182782">
      <g id="Grupo_182781" data-name="Grupo 182781" clip-path="url(#clip-path-2)">
        <path id="Trazado_235987" data-name="Trazado 235987" d="M83.543,27.661l.021,11.148a1.081,1.081,0,0,0,1,1.066l7.621.482,0,10.74h0a.655.655,0,0,0,.373.545l8.035,4.639a2.011,2.011,0,0,0,1.018.207V56.5a1.913,1.913,0,0,0,.761-.144l8.144-3.773a2.992,2.992,0,0,1,1.863-.111,48.338,48.338,0,0,0,6.323,1.5,1.538,1.538,0,0,1,1.177,1.144L120.9,60.49a1.21,1.21,0,0,0,.441.7v0a1.207,1.207,0,0,0,.749.28H133.9a1.171,1.171,0,0,0,.675-.255,1.238,1.238,0,0,0,.152-.137,1.316,1.316,0,0,0,.166-.149v-.122c.065-.11.173-.2.2-.322l1.019-5.367a1.535,1.535,0,0,1,1.177-1.143,48.4,48.4,0,0,0,6.322-1.5,3,3,0,0,1,1.864.111l8.144,3.774a1.909,1.909,0,0,0,.492.082V56.5a2.284,2.284,0,0,0,.286-.006,1.871,1.871,0,0,0,.212,0,1.906,1.906,0,0,0,.769-.2.134.134,0,0,1,.019-.005l8.035-4.639a.789.789,0,0,0,.285-.272.1.1,0,0,1,.016-.015.494.494,0,0,0,.062-.213c0-.012.011-.022.012-.034h0l0-2.558,0-1.9,0-.109v-.01l0-5.6-.318-.544.428-.033,7.371-.468.14-.009c.075-.005.122-.072.192-.092a.683.683,0,0,0,.667-.622c.046-.115.138-.208.14-.337v-.012l0,0V32.832l0-4.188V22.666a1.083,1.083,0,0,0-1-1.066l-7.626-.482.007-10.727-.006.014a.641.641,0,0,0-.371-.572L155.4,5.194a2.168,2.168,0,0,0-1.778-.08l-8.144,3.773A2.986,2.986,0,0,1,143.611,9a48.376,48.376,0,0,0-6.323-1.5,1.539,1.539,0,0,1-1.177-1.144L135.092.985A1.258,1.258,0,0,0,133.9,0H122.089A1.258,1.258,0,0,0,120.9.986l-1.02,5.366A1.539,1.539,0,0,1,118.7,7.5,48.347,48.347,0,0,0,112.382,9a3,3,0,0,1-1.864-.111l-8.144-3.773a2.168,2.168,0,0,0-1.778.079L92.561,9.833a.635.635,0,0,0-.369.584l-.006,0,0,10.7-7.618.483a1.082,1.082,0,0,0-1,1.066v4.784a1.039,1.039,0,0,0-.022.21m30.878,3.792c7.5-4.328,19.65-4.328,27.146,0,.568.327,1.092.662,1.578,1a16.587,16.587,0,0,1-1.576,1.034c-7.5,4.328-19.651,4.328-27.147,0a16.763,16.763,0,0,1-1.569-1.029c.479-.342,1-.678,1.568-1.007" fill="#27debf"/>
        <g id="Grupo_182744" data-name="Grupo 182744" opacity="0.2">
          <g id="Grupo_182743" data-name="Grupo 182743">
            <g id="Grupo_182742" data-name="Grupo 182742" clip-path="url(#clip-path-3)">
              <path id="Trazado_235988" data-name="Trazado 235988" d="M83.543,27.661l.021,11.148a1.081,1.081,0,0,0,1,1.066l7.621.482,0,10.74h0a.655.655,0,0,0,.373.545l8.035,4.639a2.011,2.011,0,0,0,1.018.207V56.5a1.913,1.913,0,0,0,.761-.144l8.144-3.773a2.992,2.992,0,0,1,1.863-.111,48.338,48.338,0,0,0,6.323,1.5,1.538,1.538,0,0,1,1.177,1.144L120.9,60.49a1.21,1.21,0,0,0,.441.7v0a1.207,1.207,0,0,0,.749.28H133.9a1.171,1.171,0,0,0,.675-.255,1.238,1.238,0,0,0,.152-.137,1.316,1.316,0,0,0,.166-.149v-.122c.065-.11.173-.2.2-.322l1.019-5.367a1.535,1.535,0,0,1,1.177-1.143,48.4,48.4,0,0,0,6.322-1.5,3,3,0,0,1,1.864.111l8.144,3.774a1.909,1.909,0,0,0,.492.082V56.5a2.284,2.284,0,0,0,.286-.006,1.871,1.871,0,0,0,.212,0,1.906,1.906,0,0,0,.769-.2.134.134,0,0,1,.019-.005l8.035-4.639a.789.789,0,0,0,.285-.272.1.1,0,0,1,.016-.015.494.494,0,0,0,.062-.213c0-.012.011-.022.012-.034h0l0-2.558,0-1.9,0-.109v-.01l0-5.6-.318-.544.428-.033,7.371-.468.14-.009c.075-.005.122-.072.192-.092a.683.683,0,0,0,.667-.622c.046-.115.138-.208.14-.337v-.012l0,0V32.832l0-4.188V22.666a1.083,1.083,0,0,0-1-1.066l-7.626-.482.007-10.727-.006.014a.641.641,0,0,0-.371-.572L155.4,5.194a2.168,2.168,0,0,0-1.778-.08l-8.144,3.773A2.986,2.986,0,0,1,143.611,9a48.376,48.376,0,0,0-6.323-1.5,1.539,1.539,0,0,1-1.177-1.144L135.092.985A1.258,1.258,0,0,0,133.9,0H122.089A1.258,1.258,0,0,0,120.9.986l-1.02,5.366A1.539,1.539,0,0,1,118.7,7.5,48.347,48.347,0,0,0,112.382,9a3,3,0,0,1-1.864-.111l-8.144-3.773a2.168,2.168,0,0,0-1.778.079L92.561,9.833a.635.635,0,0,0-.369.584l-.006,0,0,10.7-7.618.483a1.082,1.082,0,0,0-1,1.066v4.784a1.039,1.039,0,0,0-.022.21m30.878,3.792c7.5-4.328,19.65-4.328,27.146,0,.568.327,1.092.662,1.578,1a16.587,16.587,0,0,1-1.576,1.034c-7.5,4.328-19.651,4.328-27.147,0a16.763,16.763,0,0,1-1.569-1.029c.479-.342,1-.678,1.568-1.007"/>
            </g>
          </g>
        </g>
        <path id="Trazado_235989" data-name="Trazado 235989" d="M153.618,5.114l-8.144,3.773A2.986,2.986,0,0,1,143.611,9a48.056,48.056,0,0,0-6.323-1.5,1.542,1.542,0,0,1-1.178-1.144L135.092.985A1.258,1.258,0,0,0,133.9,0H122.089A1.258,1.258,0,0,0,120.9.985l-1.02,5.367A1.539,1.539,0,0,1,118.7,7.5,48.185,48.185,0,0,0,112.382,9a2.982,2.982,0,0,1-1.864-.111l-8.144-3.773a2.168,2.168,0,0,0-1.778.08L92.561,9.833a.6.6,0,0,0-.054,1.087L98.874,15.5a.848.848,0,0,1,.118,1.307,16.029,16.029,0,0,0-2.273,3.153,1.979,1.979,0,0,1-1.447.961L84.566,21.6a1.082,1.082,0,0,0-1,1.066v5.973a1.081,1.081,0,0,0,1,1.066l10.706.677a1.976,1.976,0,0,1,1.447.961A16.035,16.035,0,0,0,98.992,34.5a.848.848,0,0,1-.118,1.307l-6.367,4.582a.6.6,0,0,0,.054,1.087L100.6,46.11a2.164,2.164,0,0,0,1.778.08l8.143-3.773a2.979,2.979,0,0,1,1.863-.111,48.415,48.415,0,0,0,6.323,1.5,1.539,1.539,0,0,1,1.177,1.144L120.9,50.32a1.257,1.257,0,0,0,1.189.984H133.9a1.259,1.259,0,0,0,1.19-.985l1.018-5.368a1.539,1.539,0,0,1,1.177-1.143,48.377,48.377,0,0,0,6.323-1.5,2.986,2.986,0,0,1,1.863.111l8.145,3.773a2.164,2.164,0,0,0,1.778-.08l8.034-4.638a.6.6,0,0,0,.054-1.087L157.117,35.8A.848.848,0,0,1,157,34.5a16.023,16.023,0,0,0,2.273-3.154,1.982,1.982,0,0,1,1.447-.961l10.707-.677a1.082,1.082,0,0,0,1-1.066V22.666a1.082,1.082,0,0,0-1-1.066l-10.707-.678a1.977,1.977,0,0,1-1.446-.96A16.035,16.035,0,0,0,157,16.808a.849.849,0,0,1,.117-1.307l6.368-4.581a.6.6,0,0,0-.055-1.087L155.4,5.194a2.162,2.162,0,0,0-1.777-.08m-12.049,12.7c7.5,4.328,7.5,11.345,0,15.673s-19.651,4.328-27.147,0-7.5-11.345,0-15.673,19.649-4.328,27.146,0" fill="#27debf"/>
        <g id="Grupo_182747" data-name="Grupo 182747" opacity="0.15">
          <g id="Grupo_182746" data-name="Grupo 182746">
            <g id="Grupo_182745" data-name="Grupo 182745" clip-path="url(#clip-path-4)">
              <path id="Trazado_235990" data-name="Trazado 235990" d="M163.483,40.382l-3.205-2.306V30.488a1.486,1.486,0,0,1,.443-.108l10.707-.678a1.075,1.075,0,0,0,1-1.064V38.826a1.084,1.084,0,0,1-1,1.047h-.006l-.135.011-6.089.385Z"/>
            </g>
          </g>
        </g>
        <g id="Grupo_182750" data-name="Grupo 182750" opacity="0.15">
          <g id="Grupo_182749" data-name="Grupo 182749">
            <g id="Grupo_182748" data-name="Grupo 182748" clip-path="url(#clip-path-5)">
              <path id="Trazado_235991" data-name="Trazado 235991" d="M144.861,42.253a2.359,2.359,0,0,1,.616.164l8.14,3.772a2.084,2.084,0,0,0,1.046.132V56.494a2.441,2.441,0,0,1-.547,0h-.005v-.054a1.724,1.724,0,0,1-.494-.082l-8.146-3.771a2.43,2.43,0,0,0-.61-.14Z"/>
            </g>
          </g>
        </g>
        <g id="Grupo_182753" data-name="Grupo 182753" opacity="0.15">
          <g id="Grupo_182752" data-name="Grupo 182752">
            <g id="Grupo_182751" data-name="Grupo 182751" clip-path="url(#clip-path-6)">
              <path id="Trazado_235992" data-name="Trazado 235992" d="M134.938,50.7a1.112,1.112,0,0,0,.151-.383l1.021-5.367a1.242,1.242,0,0,1,.159-.408V54.725a1.134,1.134,0,0,0-.159.4l-1.021,5.367a.621.621,0,0,1-.151.257Z"/>
            </g>
          </g>
        </g>
        <g id="Grupo_182756" data-name="Grupo 182756" opacity="0.15">
          <g id="Grupo_182755" data-name="Grupo 182755">
            <g id="Grupo_182754" data-name="Grupo 182754" clip-path="url(#clip-path-7)">
              <path id="Trazado_235993" data-name="Trazado 235993" d="M119.721,44.548a1.289,1.289,0,0,1,.157.4l1.02,5.367a1.164,1.164,0,0,0,.154.388V60.871a1.137,1.137,0,0,1-.154-.382l-1.02-5.367a1.024,1.024,0,0,0-.157-.366Z"/>
            </g>
          </g>
        </g>
        <g id="Grupo_182759" data-name="Grupo 182759" opacity="0.15">
          <g id="Grupo_182758" data-name="Grupo 182758">
            <g id="Grupo_182757" data-name="Grupo 182757" clip-path="url(#clip-path-8)">
              <path id="Trazado_235994" data-name="Trazado 235994" d="M101.328,46.321a2.048,2.048,0,0,0,1.043-.132l8.146-3.772a2.364,2.364,0,0,1,.613-.164V52.428a2.3,2.3,0,0,0-.613.16l-8.146,3.772a1.873,1.873,0,0,1-.76.146V56.49c-.1,0-.189,0-.283-.009Z"/>
            </g>
          </g>
        </g>
        <path id="Trazado_235995" data-name="Trazado 235995" d="M68.057,44.5v-.012l0,0A.437.437,0,0,0,68,44.293l0,0c0-3.5.009-9.57.007-9.951,0-.007,0-.012,0-.019a.822.822,0,0,0-.172-.477l-3.108-4.333a1.48,1.48,0,0,0-1.28-.6L55.32,30.271a2.508,2.508,0,0,1-1.553-.443c-.506-.351-1.048-.692-1.611-1.016l.009-6.461-.006.01c.008-.259-.244-.507-.645-.6l-8.249-1.972a1.54,1.54,0,0,0-1.327.251l-3.945,4.15a1.872,1.872,0,0,1-1.295.4,43.344,43.344,0,0,0-5.371.009,2.113,2.113,0,0,1-1.449-.63l-3.531-3.713a1.622,1.622,0,0,0-1.378-.507L16.4,21.794a.563.563,0,0,0-.443.565.147.147,0,0,0,0,.031c0,.357-.006,3.422-.006,6.4a20.929,20.929,0,0,0-1.909,1.218,2.2,2.2,0,0,1-1.413.239L4.756,28.927a1.392,1.392,0,0,0-1.25.364L.09,34.052a.352.352,0,0,0-.072.211l0,.035C.019,35.02,0,46.59,0,46.663a.439.439,0,0,0,.066.2c0,3.558-.009,6.108-.014,6.257a.856.856,0,0,0,.176.5l3.108,4.334a1.48,1.48,0,0,0,1.28.6l8.121-1.367a2.539,2.539,0,0,1,1.553.443c.508.355,1.048.692,1.613,1.021L15.9,65.087c-.017.265.24.522.648.62l8.241,1.97a1.541,1.541,0,0,0,1.336-.25l3.944-4.15a1.843,1.843,0,0,1,1.3-.4,44.546,44.546,0,0,0,5.371-.009,2.116,2.116,0,0,1,1.446.625l3.534,3.718a1.635,1.635,0,0,0,1.378.507l8.569-2.049A.548.548,0,0,0,52.1,65.2c.022-.141.012-6.53.012-6.53q1.006-.572,1.912-1.212a2.167,2.167,0,0,1,1.411-.245L63.3,58.538a1.389,1.389,0,0,0,1.248-.369l3.416-4.76a.388.388,0,0,0,.073-.219c0-.226.015-8.251.013-8.686Zm-45.884.252q.561-.4,1.223-.779c5.892-3.4,15.433-3.4,21.324,0,.428.249.832.507,1.2.762a11.5,11.5,0,0,1-1.295.845c-4.184,2.379-10.585,3.22-16.356,1.842a18.265,18.265,0,0,1-4.834-1.852,11.989,11.989,0,0,1-1.26-.818" fill="#27debf"/>
        <g id="Grupo_182762" data-name="Grupo 182762" opacity="0.2">
          <g id="Grupo_182761" data-name="Grupo 182761">
            <g id="Grupo_182760" data-name="Grupo 182760" clip-path="url(#clip-path-9)">
              <path id="Trazado_235996" data-name="Trazado 235996" d="M68.057,44.5v-.012l0,0A.437.437,0,0,0,68,44.293l0,0c0-3.5.009-9.57.007-9.951,0-.007,0-.012,0-.019a.822.822,0,0,0-.172-.477l-3.108-4.333a1.48,1.48,0,0,0-1.28-.6L55.32,30.271a2.508,2.508,0,0,1-1.553-.443c-.506-.351-1.048-.692-1.611-1.016l.009-6.461-.006.01c.008-.259-.244-.507-.645-.6l-8.249-1.972a1.54,1.54,0,0,0-1.327.251l-3.945,4.15a1.872,1.872,0,0,1-1.295.4,43.344,43.344,0,0,0-5.371.009,2.113,2.113,0,0,1-1.449-.63l-3.531-3.713a1.622,1.622,0,0,0-1.378-.507L16.4,21.794a.563.563,0,0,0-.443.565.147.147,0,0,0,0,.031c0,.357-.006,3.422-.006,6.4a20.929,20.929,0,0,0-1.909,1.218,2.2,2.2,0,0,1-1.413.239L4.756,28.927a1.392,1.392,0,0,0-1.25.364L.09,34.052a.352.352,0,0,0-.072.211l0,.035C.019,35.02,0,46.59,0,46.663a.439.439,0,0,0,.066.2c0,3.558-.009,6.108-.014,6.257a.856.856,0,0,0,.176.5l3.108,4.334a1.48,1.48,0,0,0,1.28.6l8.121-1.367a2.539,2.539,0,0,1,1.553.443c.508.355,1.048.692,1.613,1.021L15.9,65.087c-.017.265.24.522.648.62l8.241,1.97a1.541,1.541,0,0,0,1.336-.25l3.944-4.15a1.843,1.843,0,0,1,1.3-.4,44.546,44.546,0,0,0,5.371-.009,2.116,2.116,0,0,1,1.446.625l3.534,3.718a1.635,1.635,0,0,0,1.378.507l8.569-2.049A.548.548,0,0,0,52.1,65.2c.022-.141.012-6.53.012-6.53q1.006-.572,1.912-1.212a2.167,2.167,0,0,1,1.411-.245L63.3,58.538a1.389,1.389,0,0,0,1.248-.369l3.416-4.76a.388.388,0,0,0,.073-.219c0-.226.015-8.251.013-8.686Zm-45.884.252q.561-.4,1.223-.779c5.892-3.4,15.433-3.4,21.324,0,.428.249.832.507,1.2.762a11.5,11.5,0,0,1-1.295.845c-4.184,2.379-10.585,3.22-16.356,1.842a18.265,18.265,0,0,1-4.834-1.852,11.989,11.989,0,0,1-1.26-.818"/>
            </g>
          </g>
        </g>
        <g id="Grupo_182765" data-name="Grupo 182765" opacity="0.15">
          <g id="Grupo_182764" data-name="Grupo 182764">
            <g id="Grupo_182763" data-name="Grupo 182763" clip-path="url(#clip-path-10)">
              <path id="Trazado_235997" data-name="Trazado 235997" d="M8.39,38a8.47,8.47,0,0,0-.011,2.687.867.867,0,0,1-.55.948L.414,43.978a.479.479,0,0,0-.348.472c.006.151,0,2.411,0,2.411A.44.44,0,0,1,0,46.682C.01,42.469.021,35.43.021,34.813V34.3c.012.224.236.443.595.555l7.006,2.222A.96.96,0,0,1,8.39,38"/>
            </g>
          </g>
        </g>
        <g id="Grupo_182768" data-name="Grupo 182768" opacity="0.15">
          <g id="Grupo_182767" data-name="Grupo 182767">
            <g id="Grupo_182766" data-name="Grupo 182766" clip-path="url(#clip-path-11)">
              <path id="Trazado_235998" data-name="Trazado 235998" d="M13.034,48.482v8.705a1.265,1.265,0,0,0-.3.005L4.615,58.555a.965.965,0,0,1-.415-.033V49.834a1.054,1.054,0,0,0,.432.028l8.122-1.369a1.109,1.109,0,0,1,.28-.011"/>
            </g>
          </g>
        </g>
        <g id="Grupo_182771" data-name="Grupo 182771" opacity="0.15">
          <g id="Grupo_182770" data-name="Grupo 182770">
            <g id="Grupo_182769" data-name="Grupo 182769" clip-path="url(#clip-path-12)">
              <path id="Trazado_235999" data-name="Trazado 235999" d="M30.563,54.3V63a1.255,1.255,0,0,0-.5.28l-3.943,4.151a1.218,1.218,0,0,1-.718.286v-8.7a1.167,1.167,0,0,0,.735-.28l3.948-4.156a1.243,1.243,0,0,1,.477-.281"/>
            </g>
          </g>
        </g>
        <g id="Grupo_182774" data-name="Grupo 182774" opacity="0.15">
          <g id="Grupo_182773" data-name="Grupo 182773">
            <g id="Grupo_182772" data-name="Grupo 182772" clip-path="url(#clip-path-13)">
              <path id="Trazado_236000" data-name="Trazado 236000" d="M42.5,58.977V67.67a1.766,1.766,0,0,1-.785-.46L38.18,63.491a2.266,2.266,0,0,0-.931-.544v-8.7a2.269,2.269,0,0,1,.948.55l3.534,3.713a1.8,1.8,0,0,0,.768.466"/>
            </g>
          </g>
        </g>
        <g id="Grupo_182777" data-name="Grupo 182777" opacity="0.15">
          <g id="Grupo_182776" data-name="Grupo 182776">
            <g id="Grupo_182775" data-name="Grupo 182775" clip-path="url(#clip-path-14)">
              <path id="Trazado_236001" data-name="Trazado 236001" d="M54.879,48.5v8.7a1.856,1.856,0,0,0-.858.258,22.435,22.435,0,0,1-1.913,1.212s.013-1.988.011-2.26a.819.819,0,0,0-.089-.353l-2.059-4.078a.741.741,0,0,1,.258-1.033,24,24,0,0,0,3.809-2.181,1.7,1.7,0,0,1,.841-.264"/>
            </g>
          </g>
        </g>
        <g id="Grupo_182780" data-name="Grupo 182780" opacity="0.15">
          <g id="Grupo_182779" data-name="Grupo 182779">
            <g id="Grupo_182778" data-name="Grupo 182778" clip-path="url(#clip-path-15)">
              <path id="Trazado_236002" data-name="Trazado 236002" d="M68.054,44.505c0,.432-.011,8.458-.011,8.688a.434.434,0,0,1-.079.218l-3.416,4.757a.989.989,0,0,1-.583.336V49.817a1.07,1.07,0,0,0,.606-.342l3.41-4.762a.322.322,0,0,0,.073-.208"/>
            </g>
          </g>
        </g>
        <path id="Trazado_236003" data-name="Trazado 236003" d="M15.953,22.36a.137.137,0,0,0,0,.03.8.8,0,0,0,.093.329L18.1,26.788a.738.738,0,0,1-.258,1.034c-.653.305-1.291.63-1.894.972a21.576,21.576,0,0,0-1.909,1.218,2.207,2.207,0,0,1-1.412.24L4.756,28.927a1.388,1.388,0,0,0-1.25.365L.09,34.052a.353.353,0,0,0-.073.211.216.216,0,0,1,0,.035c.014.223.236.44.6.552l7.005,2.223A.962.962,0,0,1,8.389,38a8.451,8.451,0,0,0-.008,2.684.871.871,0,0,1-.55.948L.416,43.98a.472.472,0,0,0-.35.468.9.9,0,0,0,.176.481L3.354,49.26a1.454,1.454,0,0,0,1.28.6l8.122-1.367a2.482,2.482,0,0,1,1.548.446A23.957,23.957,0,0,0,17.6,50.832c.481.237.75.658.591.974l-2.233,4.423c-.157.316.114.661.6.785l8.246,1.967a1.532,1.532,0,0,0,1.33-.247l3.948-4.152a1.872,1.872,0,0,1,1.293-.407,44.52,44.52,0,0,0,5.369,0,2.128,2.128,0,0,1,1.451.623l3.534,3.718a1.651,1.651,0,0,0,1.374.51l8.573-2.053a.6.6,0,0,0,.35-.916l-2.055-4.075a.742.742,0,0,1,.257-1.034,24.043,24.043,0,0,0,3.806-2.185,2.143,2.143,0,0,1,1.41-.244l7.874,1.321a1.381,1.381,0,0,0,1.249-.364l3.412-4.758a.326.326,0,0,0,.072-.211l0,0a.029.029,0,0,0,0-.017A.412.412,0,0,0,68,44.293l0,0a.936.936,0,0,0-.538-.375L60.45,41.7c-.492-.159-.825-.567-.765-.928a8.691,8.691,0,0,0,.008-2.684.859.859,0,0,1,.55-.948l7.418-2.35a.466.466,0,0,0,.34-.451c0-.007,0-.012,0-.019a.812.812,0,0,0-.173-.476l-3.107-4.334a1.481,1.481,0,0,0-1.281-.6l-8.123,1.362a2.513,2.513,0,0,1-1.553-.443c-.506-.35-1.048-.692-1.611-1.015-.533-.305-1.095-.6-1.677-.88-.485-.23-.755-.656-.6-.966l2.236-4.431a.369.369,0,0,0,.04-.174c.008-.26-.244-.508-.645-.6l-8.249-1.972a1.54,1.54,0,0,0-1.327.252l-3.945,4.15a1.867,1.867,0,0,1-1.294.4,43.358,43.358,0,0,0-5.372.01,2.112,2.112,0,0,1-1.449-.631l-3.531-3.713a1.626,1.626,0,0,0-1.378-.507L16.4,21.794a.564.564,0,0,0-.443.566M47.132,35.083c.072.073.144.142.211.218.054.053.1.107.145.158.108.121.208.244.305.37.117.147.22.3.32.448q.094.143.18.288c.028.046.054.092.081.138a5.33,5.33,0,0,1-.413,6.011,9.091,9.091,0,0,1-2.044,2.023,11.348,11.348,0,0,1-1.294.844c-4.185,2.38-10.586,3.22-16.356,1.843a18.265,18.265,0,0,1-4.833-1.853,11.648,11.648,0,0,1-1.261-.818,8.451,8.451,0,0,1-2.572-2.86.115.115,0,0,1-.018-.039c-.031-.055-.058-.112-.085-.169a1.945,1.945,0,0,1-.078-.179,1.229,1.229,0,0,1-.08-.19,5.319,5.319,0,0,1,.768-5.262c3.188-4.441,12.008-6.551,19.7-4.71a15.171,15.171,0,0,1,7.328,3.739" fill="#27debf"/>
      </g>
    </g>
    <g id="Grupo_981153" data-name="Grupo 981153">
      <g id="Grupo_182781-2" data-name="Grupo 182781" clip-path="url(#clip-path-2)">
        <path id="Trazado_235987-2" data-name="Trazado 235987" d="M83.543,27.661l.021,11.148a1.081,1.081,0,0,0,1,1.066l7.621.482,0,10.74h0a.655.655,0,0,0,.373.545l8.035,4.639a2.011,2.011,0,0,0,1.018.207V56.5a1.913,1.913,0,0,0,.761-.144l8.144-3.773a2.992,2.992,0,0,1,1.863-.111,48.338,48.338,0,0,0,6.323,1.5,1.538,1.538,0,0,1,1.177,1.144L120.9,60.49a1.21,1.21,0,0,0,.441.7v0a1.207,1.207,0,0,0,.749.28H133.9a1.171,1.171,0,0,0,.675-.255,1.238,1.238,0,0,0,.152-.137,1.316,1.316,0,0,0,.166-.149v-.122c.065-.11.173-.2.2-.322l1.019-5.367a1.535,1.535,0,0,1,1.177-1.143,48.4,48.4,0,0,0,6.322-1.5,3,3,0,0,1,1.864.111l8.144,3.774a1.909,1.909,0,0,0,.492.082V56.5a2.284,2.284,0,0,0,.286-.006,1.871,1.871,0,0,0,.212,0,1.906,1.906,0,0,0,.769-.2.134.134,0,0,1,.019-.005l8.035-4.639a.789.789,0,0,0,.285-.272.1.1,0,0,1,.016-.015.494.494,0,0,0,.062-.213c0-.012.011-.022.012-.034h0l0-2.558,0-1.9,0-.109v-.01l0-5.6-.318-.544.428-.033,7.371-.468.14-.009c.075-.005.122-.072.192-.092a.683.683,0,0,0,.667-.622c.046-.115.138-.208.14-.337v-.012l0,0V32.832l0-4.188V22.666a1.083,1.083,0,0,0-1-1.066l-7.626-.482.007-10.727-.006.014a.641.641,0,0,0-.371-.572L155.4,5.194a2.168,2.168,0,0,0-1.778-.08l-8.144,3.773A2.986,2.986,0,0,1,143.611,9a48.376,48.376,0,0,0-6.323-1.5,1.539,1.539,0,0,1-1.177-1.144L135.092.985A1.258,1.258,0,0,0,133.9,0H122.089A1.258,1.258,0,0,0,120.9.986l-1.02,5.366A1.539,1.539,0,0,1,118.7,7.5,48.347,48.347,0,0,0,112.382,9a3,3,0,0,1-1.864-.111l-8.144-3.773a2.168,2.168,0,0,0-1.778.079L92.561,9.833a.635.635,0,0,0-.369.584l-.006,0,0,10.7-7.618.483a1.082,1.082,0,0,0-1,1.066v4.784a1.039,1.039,0,0,0-.022.21m30.878,3.792c7.5-4.328,19.65-4.328,27.146,0,.568.327,1.092.662,1.578,1a16.587,16.587,0,0,1-1.576,1.034c-7.5,4.328-19.651,4.328-27.147,0a16.763,16.763,0,0,1-1.569-1.029c.479-.342,1-.678,1.568-1.007" fill="#27debf"/>
        <g id="Grupo_182744-2" data-name="Grupo 182744" opacity="0.2">
          <g id="Grupo_182743-2" data-name="Grupo 182743">
            <g id="Grupo_182742-2" data-name="Grupo 182742" clip-path="url(#clip-path-3)">
              <path id="Trazado_235988-2" data-name="Trazado 235988" d="M83.543,27.661l.021,11.148a1.081,1.081,0,0,0,1,1.066l7.621.482,0,10.74h0a.655.655,0,0,0,.373.545l8.035,4.639a2.011,2.011,0,0,0,1.018.207V56.5a1.913,1.913,0,0,0,.761-.144l8.144-3.773a2.992,2.992,0,0,1,1.863-.111,48.338,48.338,0,0,0,6.323,1.5,1.538,1.538,0,0,1,1.177,1.144L120.9,60.49a1.21,1.21,0,0,0,.441.7v0a1.207,1.207,0,0,0,.749.28H133.9a1.171,1.171,0,0,0,.675-.255,1.238,1.238,0,0,0,.152-.137,1.316,1.316,0,0,0,.166-.149v-.122c.065-.11.173-.2.2-.322l1.019-5.367a1.535,1.535,0,0,1,1.177-1.143,48.4,48.4,0,0,0,6.322-1.5,3,3,0,0,1,1.864.111l8.144,3.774a1.909,1.909,0,0,0,.492.082V56.5a2.284,2.284,0,0,0,.286-.006,1.871,1.871,0,0,0,.212,0,1.906,1.906,0,0,0,.769-.2.134.134,0,0,1,.019-.005l8.035-4.639a.789.789,0,0,0,.285-.272.1.1,0,0,1,.016-.015.494.494,0,0,0,.062-.213c0-.012.011-.022.012-.034h0l0-2.558,0-1.9,0-.109v-.01l0-5.6-.318-.544.428-.033,7.371-.468.14-.009c.075-.005.122-.072.192-.092a.683.683,0,0,0,.667-.622c.046-.115.138-.208.14-.337v-.012l0,0V32.832l0-4.188V22.666a1.083,1.083,0,0,0-1-1.066l-7.626-.482.007-10.727-.006.014a.641.641,0,0,0-.371-.572L155.4,5.194a2.168,2.168,0,0,0-1.778-.08l-8.144,3.773A2.986,2.986,0,0,1,143.611,9a48.376,48.376,0,0,0-6.323-1.5,1.539,1.539,0,0,1-1.177-1.144L135.092.985A1.258,1.258,0,0,0,133.9,0H122.089A1.258,1.258,0,0,0,120.9.986l-1.02,5.366A1.539,1.539,0,0,1,118.7,7.5,48.347,48.347,0,0,0,112.382,9a3,3,0,0,1-1.864-.111l-8.144-3.773a2.168,2.168,0,0,0-1.778.079L92.561,9.833a.635.635,0,0,0-.369.584l-.006,0,0,10.7-7.618.483a1.082,1.082,0,0,0-1,1.066v4.784a1.039,1.039,0,0,0-.022.21m30.878,3.792c7.5-4.328,19.65-4.328,27.146,0,.568.327,1.092.662,1.578,1a16.587,16.587,0,0,1-1.576,1.034c-7.5,4.328-19.651,4.328-27.147,0a16.763,16.763,0,0,1-1.569-1.029c.479-.342,1-.678,1.568-1.007"/>
            </g>
          </g>
        </g>
        <path id="Trazado_235989-2" data-name="Trazado 235989" d="M153.618,5.114l-8.144,3.773A2.986,2.986,0,0,1,143.611,9a48.056,48.056,0,0,0-6.323-1.5,1.542,1.542,0,0,1-1.178-1.144L135.092.985A1.258,1.258,0,0,0,133.9,0H122.089A1.258,1.258,0,0,0,120.9.985l-1.02,5.367A1.539,1.539,0,0,1,118.7,7.5,48.185,48.185,0,0,0,112.382,9a2.982,2.982,0,0,1-1.864-.111l-8.144-3.773a2.168,2.168,0,0,0-1.778.08L92.561,9.833a.6.6,0,0,0-.054,1.087L98.874,15.5a.848.848,0,0,1,.118,1.307,16.029,16.029,0,0,0-2.273,3.153,1.979,1.979,0,0,1-1.447.961L84.566,21.6a1.082,1.082,0,0,0-1,1.066v5.973a1.081,1.081,0,0,0,1,1.066l10.706.677a1.976,1.976,0,0,1,1.447.961A16.035,16.035,0,0,0,98.992,34.5a.848.848,0,0,1-.118,1.307l-6.367,4.582a.6.6,0,0,0,.054,1.087L100.6,46.11a2.164,2.164,0,0,0,1.778.08l8.143-3.773a2.979,2.979,0,0,1,1.863-.111,48.415,48.415,0,0,0,6.323,1.5,1.539,1.539,0,0,1,1.177,1.144L120.9,50.32a1.257,1.257,0,0,0,1.189.984H133.9a1.259,1.259,0,0,0,1.19-.985l1.018-5.368a1.539,1.539,0,0,1,1.177-1.143,48.377,48.377,0,0,0,6.323-1.5,2.986,2.986,0,0,1,1.863.111l8.145,3.773a2.164,2.164,0,0,0,1.778-.08l8.034-4.638a.6.6,0,0,0,.054-1.087L157.117,35.8A.848.848,0,0,1,157,34.5a16.023,16.023,0,0,0,2.273-3.154,1.982,1.982,0,0,1,1.447-.961l10.707-.677a1.082,1.082,0,0,0,1-1.066V22.666a1.082,1.082,0,0,0-1-1.066l-10.707-.678a1.977,1.977,0,0,1-1.446-.96A16.035,16.035,0,0,0,157,16.808a.849.849,0,0,1,.117-1.307l6.368-4.581a.6.6,0,0,0-.055-1.087L155.4,5.194a2.162,2.162,0,0,0-1.777-.08m-12.049,12.7c7.5,4.328,7.5,11.345,0,15.673s-19.651,4.328-27.147,0-7.5-11.345,0-15.673,19.649-4.328,27.146,0" fill="#27debf"/>
        <g id="Grupo_182747-2" data-name="Grupo 182747" opacity="0.15">
          <g id="Grupo_182746-2" data-name="Grupo 182746">
            <g id="Grupo_182745-2" data-name="Grupo 182745" clip-path="url(#clip-path-4)">
              <path id="Trazado_235990-2" data-name="Trazado 235990" d="M163.483,40.382l-3.205-2.306V30.488a1.486,1.486,0,0,1,.443-.108l10.707-.678a1.075,1.075,0,0,0,1-1.064V38.826a1.084,1.084,0,0,1-1,1.047h-.006l-.135.011-6.089.385Z"/>
            </g>
          </g>
        </g>
        <g id="Grupo_182750-2" data-name="Grupo 182750" opacity="0.15">
          <g id="Grupo_182749-2" data-name="Grupo 182749">
            <g id="Grupo_182748-2" data-name="Grupo 182748" clip-path="url(#clip-path-5)">
              <path id="Trazado_235991-2" data-name="Trazado 235991" d="M144.861,42.253a2.359,2.359,0,0,1,.616.164l8.14,3.772a2.084,2.084,0,0,0,1.046.132V56.494a2.441,2.441,0,0,1-.547,0h-.005v-.054a1.724,1.724,0,0,1-.494-.082l-8.146-3.771a2.43,2.43,0,0,0-.61-.14Z"/>
            </g>
          </g>
        </g>
        <g id="Grupo_182753-2" data-name="Grupo 182753" opacity="0.15">
          <g id="Grupo_182752-2" data-name="Grupo 182752">
            <g id="Grupo_182751-2" data-name="Grupo 182751" clip-path="url(#clip-path-6)">
              <path id="Trazado_235992-2" data-name="Trazado 235992" d="M134.938,50.7a1.112,1.112,0,0,0,.151-.383l1.021-5.367a1.242,1.242,0,0,1,.159-.408V54.725a1.134,1.134,0,0,0-.159.4l-1.021,5.367a.621.621,0,0,1-.151.257Z"/>
            </g>
          </g>
        </g>
        <g id="Grupo_182756-2" data-name="Grupo 182756" opacity="0.15">
          <g id="Grupo_182755-2" data-name="Grupo 182755">
            <g id="Grupo_182754-2" data-name="Grupo 182754" clip-path="url(#clip-path-7)">
              <path id="Trazado_235993-2" data-name="Trazado 235993" d="M119.721,44.548a1.289,1.289,0,0,1,.157.4l1.02,5.367a1.164,1.164,0,0,0,.154.388V60.871a1.137,1.137,0,0,1-.154-.382l-1.02-5.367a1.024,1.024,0,0,0-.157-.366Z"/>
            </g>
          </g>
        </g>
        <g id="Grupo_182759-2" data-name="Grupo 182759" opacity="0.15">
          <g id="Grupo_182758-2" data-name="Grupo 182758">
            <g id="Grupo_182757-2" data-name="Grupo 182757" clip-path="url(#clip-path-8)">
              <path id="Trazado_235994-2" data-name="Trazado 235994" d="M101.328,46.321a2.048,2.048,0,0,0,1.043-.132l8.146-3.772a2.364,2.364,0,0,1,.613-.164V52.428a2.3,2.3,0,0,0-.613.16l-8.146,3.772a1.873,1.873,0,0,1-.76.146V56.49c-.1,0-.189,0-.283-.009Z"/>
            </g>
          </g>
        </g>
        <path id="Trazado_235995-2" data-name="Trazado 235995" d="M68.057,44.5v-.012l0,0A.437.437,0,0,0,68,44.293l0,0c0-3.5.009-9.57.007-9.951,0-.007,0-.012,0-.019a.822.822,0,0,0-.172-.477l-3.108-4.333a1.48,1.48,0,0,0-1.28-.6L55.32,30.271a2.508,2.508,0,0,1-1.553-.443c-.506-.351-1.048-.692-1.611-1.016l.009-6.461-.006.01c.008-.259-.244-.507-.645-.6l-8.249-1.972a1.54,1.54,0,0,0-1.327.251l-3.945,4.15a1.872,1.872,0,0,1-1.295.4,43.344,43.344,0,0,0-5.371.009,2.113,2.113,0,0,1-1.449-.63l-3.531-3.713a1.622,1.622,0,0,0-1.378-.507L16.4,21.794a.563.563,0,0,0-.443.565.147.147,0,0,0,0,.031c0,.357-.006,3.422-.006,6.4a20.929,20.929,0,0,0-1.909,1.218,2.2,2.2,0,0,1-1.413.239L4.756,28.927a1.392,1.392,0,0,0-1.25.364L.09,34.052a.352.352,0,0,0-.072.211l0,.035C.019,35.02,0,46.59,0,46.663a.439.439,0,0,0,.066.2c0,3.558-.009,6.108-.014,6.257a.856.856,0,0,0,.176.5l3.108,4.334a1.48,1.48,0,0,0,1.28.6l8.121-1.367a2.539,2.539,0,0,1,1.553.443c.508.355,1.048.692,1.613,1.021L15.9,65.087c-.017.265.24.522.648.62l8.241,1.97a1.541,1.541,0,0,0,1.336-.25l3.944-4.15a1.843,1.843,0,0,1,1.3-.4,44.546,44.546,0,0,0,5.371-.009,2.116,2.116,0,0,1,1.446.625l3.534,3.718a1.635,1.635,0,0,0,1.378.507l8.569-2.049A.548.548,0,0,0,52.1,65.2c.022-.141.012-6.53.012-6.53q1.006-.572,1.912-1.212a2.167,2.167,0,0,1,1.411-.245L63.3,58.538a1.389,1.389,0,0,0,1.248-.369l3.416-4.76a.388.388,0,0,0,.073-.219c0-.226.015-8.251.013-8.686Zm-45.884.252q.561-.4,1.223-.779c5.892-3.4,15.433-3.4,21.324,0,.428.249.832.507,1.2.762a11.5,11.5,0,0,1-1.295.845c-4.184,2.379-10.585,3.22-16.356,1.842a18.265,18.265,0,0,1-4.834-1.852,11.989,11.989,0,0,1-1.26-.818" fill="#27debf"/>
        <g id="Grupo_182762-2" data-name="Grupo 182762" opacity="0.2">
          <g id="Grupo_182761-2" data-name="Grupo 182761">
            <g id="Grupo_182760-2" data-name="Grupo 182760" clip-path="url(#clip-path-9)">
              <path id="Trazado_235996-2" data-name="Trazado 235996" d="M68.057,44.5v-.012l0,0A.437.437,0,0,0,68,44.293l0,0c0-3.5.009-9.57.007-9.951,0-.007,0-.012,0-.019a.822.822,0,0,0-.172-.477l-3.108-4.333a1.48,1.48,0,0,0-1.28-.6L55.32,30.271a2.508,2.508,0,0,1-1.553-.443c-.506-.351-1.048-.692-1.611-1.016l.009-6.461-.006.01c.008-.259-.244-.507-.645-.6l-8.249-1.972a1.54,1.54,0,0,0-1.327.251l-3.945,4.15a1.872,1.872,0,0,1-1.295.4,43.344,43.344,0,0,0-5.371.009,2.113,2.113,0,0,1-1.449-.63l-3.531-3.713a1.622,1.622,0,0,0-1.378-.507L16.4,21.794a.563.563,0,0,0-.443.565.147.147,0,0,0,0,.031c0,.357-.006,3.422-.006,6.4a20.929,20.929,0,0,0-1.909,1.218,2.2,2.2,0,0,1-1.413.239L4.756,28.927a1.392,1.392,0,0,0-1.25.364L.09,34.052a.352.352,0,0,0-.072.211l0,.035C.019,35.02,0,46.59,0,46.663a.439.439,0,0,0,.066.2c0,3.558-.009,6.108-.014,6.257a.856.856,0,0,0,.176.5l3.108,4.334a1.48,1.48,0,0,0,1.28.6l8.121-1.367a2.539,2.539,0,0,1,1.553.443c.508.355,1.048.692,1.613,1.021L15.9,65.087c-.017.265.24.522.648.62l8.241,1.97a1.541,1.541,0,0,0,1.336-.25l3.944-4.15a1.843,1.843,0,0,1,1.3-.4,44.546,44.546,0,0,0,5.371-.009,2.116,2.116,0,0,1,1.446.625l3.534,3.718a1.635,1.635,0,0,0,1.378.507l8.569-2.049A.548.548,0,0,0,52.1,65.2c.022-.141.012-6.53.012-6.53q1.006-.572,1.912-1.212a2.167,2.167,0,0,1,1.411-.245L63.3,58.538a1.389,1.389,0,0,0,1.248-.369l3.416-4.76a.388.388,0,0,0,.073-.219c0-.226.015-8.251.013-8.686Zm-45.884.252q.561-.4,1.223-.779c5.892-3.4,15.433-3.4,21.324,0,.428.249.832.507,1.2.762a11.5,11.5,0,0,1-1.295.845c-4.184,2.379-10.585,3.22-16.356,1.842a18.265,18.265,0,0,1-4.834-1.852,11.989,11.989,0,0,1-1.26-.818"/>
            </g>
          </g>
        </g>
        <g id="Grupo_182765-2" data-name="Grupo 182765" opacity="0.15">
          <g id="Grupo_182764-2" data-name="Grupo 182764">
            <g id="Grupo_182763-2" data-name="Grupo 182763" clip-path="url(#clip-path-10)">
              <path id="Trazado_235997-2" data-name="Trazado 235997" d="M8.39,38a8.47,8.47,0,0,0-.011,2.687.867.867,0,0,1-.55.948L.414,43.978a.479.479,0,0,0-.348.472c.006.151,0,2.411,0,2.411A.44.44,0,0,1,0,46.682C.01,42.469.021,35.43.021,34.813V34.3c.012.224.236.443.595.555l7.006,2.222A.96.96,0,0,1,8.39,38"/>
            </g>
          </g>
        </g>
        <g id="Grupo_182768-2" data-name="Grupo 182768" opacity="0.15">
          <g id="Grupo_182767-2" data-name="Grupo 182767">
            <g id="Grupo_182766-2" data-name="Grupo 182766" clip-path="url(#clip-path-11)">
              <path id="Trazado_235998-2" data-name="Trazado 235998" d="M13.034,48.482v8.705a1.265,1.265,0,0,0-.3.005L4.615,58.555a.965.965,0,0,1-.415-.033V49.834a1.054,1.054,0,0,0,.432.028l8.122-1.369a1.109,1.109,0,0,1,.28-.011"/>
            </g>
          </g>
        </g>
        <g id="Grupo_182771-2" data-name="Grupo 182771" opacity="0.15">
          <g id="Grupo_182770-2" data-name="Grupo 182770">
            <g id="Grupo_182769-2" data-name="Grupo 182769" clip-path="url(#clip-path-12)">
              <path id="Trazado_235999-2" data-name="Trazado 235999" d="M30.563,54.3V63a1.255,1.255,0,0,0-.5.28l-3.943,4.151a1.218,1.218,0,0,1-.718.286v-8.7a1.167,1.167,0,0,0,.735-.28l3.948-4.156a1.243,1.243,0,0,1,.477-.281"/>
            </g>
          </g>
        </g>
        <g id="Grupo_182774-2" data-name="Grupo 182774" opacity="0.15">
          <g id="Grupo_182773-2" data-name="Grupo 182773">
            <g id="Grupo_182772-2" data-name="Grupo 182772" clip-path="url(#clip-path-13)">
              <path id="Trazado_236000-2" data-name="Trazado 236000" d="M42.5,58.977V67.67a1.766,1.766,0,0,1-.785-.46L38.18,63.491a2.266,2.266,0,0,0-.931-.544v-8.7a2.269,2.269,0,0,1,.948.55l3.534,3.713a1.8,1.8,0,0,0,.768.466"/>
            </g>
          </g>
        </g>
        <g id="Grupo_182777-2" data-name="Grupo 182777" opacity="0.15">
          <g id="Grupo_182776-2" data-name="Grupo 182776">
            <g id="Grupo_182775-2" data-name="Grupo 182775" clip-path="url(#clip-path-14)">
              <path id="Trazado_236001-2" data-name="Trazado 236001" d="M54.879,48.5v8.7a1.856,1.856,0,0,0-.858.258,22.435,22.435,0,0,1-1.913,1.212s.013-1.988.011-2.26a.819.819,0,0,0-.089-.353l-2.059-4.078a.741.741,0,0,1,.258-1.033,24,24,0,0,0,3.809-2.181,1.7,1.7,0,0,1,.841-.264"/>
            </g>
          </g>
        </g>
        <g id="Grupo_182780-2" data-name="Grupo 182780" opacity="0.15">
          <g id="Grupo_182779-2" data-name="Grupo 182779">
            <g id="Grupo_182778-2" data-name="Grupo 182778" clip-path="url(#clip-path-15)">
              <path id="Trazado_236002-2" data-name="Trazado 236002" d="M68.054,44.505c0,.432-.011,8.458-.011,8.688a.434.434,0,0,1-.079.218l-3.416,4.757a.989.989,0,0,1-.583.336V49.817a1.07,1.07,0,0,0,.606-.342l3.41-4.762a.322.322,0,0,0,.073-.208"/>
            </g>
          </g>
        </g>
        <path id="Trazado_236003-2" data-name="Trazado 236003" d="M15.953,22.36a.137.137,0,0,0,0,.03.8.8,0,0,0,.093.329L18.1,26.788a.738.738,0,0,1-.258,1.034c-.653.305-1.291.63-1.894.972a21.576,21.576,0,0,0-1.909,1.218,2.207,2.207,0,0,1-1.412.24L4.756,28.927a1.388,1.388,0,0,0-1.25.365L.09,34.052a.353.353,0,0,0-.073.211.216.216,0,0,1,0,.035c.014.223.236.44.6.552l7.005,2.223A.962.962,0,0,1,8.389,38a8.451,8.451,0,0,0-.008,2.684.871.871,0,0,1-.55.948L.416,43.98a.472.472,0,0,0-.35.468.9.9,0,0,0,.176.481L3.354,49.26a1.454,1.454,0,0,0,1.28.6l8.122-1.367a2.482,2.482,0,0,1,1.548.446A23.957,23.957,0,0,0,17.6,50.832c.481.237.75.658.591.974l-2.233,4.423c-.157.316.114.661.6.785l8.246,1.967a1.532,1.532,0,0,0,1.33-.247l3.948-4.152a1.872,1.872,0,0,1,1.293-.407,44.52,44.52,0,0,0,5.369,0,2.128,2.128,0,0,1,1.451.623l3.534,3.718a1.651,1.651,0,0,0,1.374.51l8.573-2.053a.6.6,0,0,0,.35-.916l-2.055-4.075a.742.742,0,0,1,.257-1.034,24.043,24.043,0,0,0,3.806-2.185,2.143,2.143,0,0,1,1.41-.244l7.874,1.321a1.381,1.381,0,0,0,1.249-.364l3.412-4.758a.326.326,0,0,0,.072-.211l0,0a.029.029,0,0,0,0-.017A.412.412,0,0,0,68,44.293l0,0a.936.936,0,0,0-.538-.375L60.45,41.7c-.492-.159-.825-.567-.765-.928a8.691,8.691,0,0,0,.008-2.684.859.859,0,0,1,.55-.948l7.418-2.35a.466.466,0,0,0,.34-.451c0-.007,0-.012,0-.019a.812.812,0,0,0-.173-.476l-3.107-4.334a1.481,1.481,0,0,0-1.281-.6l-8.123,1.362a2.513,2.513,0,0,1-1.553-.443c-.506-.35-1.048-.692-1.611-1.015-.533-.305-1.095-.6-1.677-.88-.485-.23-.755-.656-.6-.966l2.236-4.431a.369.369,0,0,0,.04-.174c.008-.26-.244-.508-.645-.6l-8.249-1.972a1.54,1.54,0,0,0-1.327.252l-3.945,4.15a1.867,1.867,0,0,1-1.294.4,43.358,43.358,0,0,0-5.372.01,2.112,2.112,0,0,1-1.449-.631l-3.531-3.713a1.626,1.626,0,0,0-1.378-.507L16.4,21.794a.564.564,0,0,0-.443.566M47.132,35.083c.072.073.144.142.211.218.054.053.1.107.145.158.108.121.208.244.305.37.117.147.22.3.32.448q.094.143.18.288c.028.046.054.092.081.138a5.33,5.33,0,0,1-.413,6.011,9.091,9.091,0,0,1-2.044,2.023,11.348,11.348,0,0,1-1.294.844c-4.185,2.38-10.586,3.22-16.356,1.843a18.265,18.265,0,0,1-4.833-1.853,11.648,11.648,0,0,1-1.261-.818,8.451,8.451,0,0,1-2.572-2.86.115.115,0,0,1-.018-.039c-.031-.055-.058-.112-.085-.169a1.945,1.945,0,0,1-.078-.179,1.229,1.229,0,0,1-.08-.19,5.319,5.319,0,0,1,.768-5.262c3.188-4.441,12.008-6.551,19.7-4.71a15.171,15.171,0,0,1,7.328,3.739" fill="#27debf"/>
      </g>
    </g>
  </g>
</svg>
