<?xml version="1.0" encoding="utf-8"?>
<!-- Generator: Adobe Illustrator 26.2.1, SVG Export Plug-In . SVG Version: 6.00 Build 0)  -->
<svg version="1.1" id="Layer_1" xmlns="http://www.w3.org/2000/svg" xmlns:xlink="http://www.w3.org/1999/xlink" x="0px" y="0px"
	 viewBox="0 0 1328 639.4" style="enable-background:new 0 0 1328 639.4;" xml:space="preserve">
<style type="text/css">
	.st0{opacity:0.15;fill:url(#Rectángulo_44012_00000154385582388301311110000012576449141688280747_);enable-background:new    ;}
	.st1{opacity:0.711;}
	.st2{fill:#FDFDFD;}
	.st3{opacity:0.23;}
	.st4{fill:none;stroke:#8F9294;stroke-width:2;stroke-miterlimit:10;}
	.st5{fill:none;stroke:#D8D9DA;stroke-width:0.78;stroke-miterlimit:10;}
	.st6{opacity:0.394;}
	.st7{fill:none;stroke:#8F9294;stroke-width:0.388;stroke-miterlimit:10;}
	.st8{opacity:0.367;}
	.st9{clip-path:url(#SVGID_00000154395400351636988290000012807406266749824393_);}
	.st10{fill:none;stroke:#606060;stroke-width:0.655;stroke-miterlimit:10;}
</style>
<g>
	<g id="Grupo_149857" transform="translate(135.991 1076.917)">
		
			<linearGradient id="Rectángulo_44012_00000170252851338976032500000014305523578865373625_" gradientUnits="userSpaceOnUse" x1="-430.2686" y1="-290.3802" x2="-430.2686" y2="-291.5055" gradientTransform="matrix(1327.991 0 0 -568.197 571920.875 -166070.0781)">
			<stop  offset="0" style="stop-color:#FFFFFF"/>
			<stop  offset="0.5363" style="stop-color:#7E7E7E"/>
			<stop  offset="1" style="stop-color:#FFFFFF"/>
		</linearGradient>
		
			<rect id="Rectángulo_44012" x="-136" y="-1076.9" style="opacity:0.15;fill:url(#Rectángulo_44012_00000170252851338976032500000014305523578865373625_);enable-background:new    ;" width="1328" height="639.4"/>
	</g>
	<g id="Grupo_149858" transform="translate(136.731 1129.911)" class="st1">
		<path id="Trazado_174289" class="st2" d="M658.3-839.4c-62.9,0-113.9,51-113.9,113.9s51,113.9,113.9,113.9s113.9-51,113.9-113.9
			c0,0,0,0,0,0C772.2-788.4,721.2-839.4,658.3-839.4z M658.3-634.4c-50.3,0-91.1-40.8-91.1-91.1c0-50.3,40.8-91.1,91.1-91.1
			c50.3,0,91.1,40.8,91.1,91.1C749.4-675.2,708.6-634.4,658.3-634.4C658.3-634.4,658.3-634.4,658.3-634.4L658.3-634.4z"/>
		<g id="Grupo_124665" transform="translate(10 251.642)" class="st3">
			<path id="Trazado_174290" class="st4" d="M60.5-1199.7l-171,171c-5.8,5.8-15.3,5.8-21.1,0c0,0,0,0,0,0l0,0
				c-5.8-5.8-5.8-15.3,0-21.1l171-171c5.8-5.8,15.3-5.8,21.1,0l0,0C66.3-1215,66.3-1205.6,60.5-1199.7
				C60.5-1199.7,60.5-1199.7,60.5-1199.7z"/>
			<path id="Trazado_174291" class="st4" d="M50.1-1126.5L-80.4-996c-4.5,4.5-11.7,4.5-16.1,0c0,0,0,0,0,0l0,0
				c-4.5-4.5-4.5-11.7,0-16.1c0,0,0,0,0,0L34-1142.6c4.5-4.5,11.7-4.5,16.1,0c0,0,0,0,0,0l0,0C54.5-1138.2,54.5-1131,50.1-1126.5
				C50.1-1126.5,50.1-1126.5,50.1-1126.5z"/>
		</g>
		<g id="Grupo_124669" transform="translate(1151.729 414.086)">
			<g id="Grupo_124668">
				<line id="Línea_1655" class="st5" x1="-125" y1="-1225.3" x2="-136" y2="-1214.3"/>
				<line id="Línea_1656" class="st5" x1="-119.7" y1="-1225.3" x2="-130.7" y2="-1214.3"/>
				<line id="Línea_1657" class="st5" x1="-114.4" y1="-1225.3" x2="-125.3" y2="-1214.3"/>
				<line id="Línea_1658" class="st5" x1="-109" y1="-1225.3" x2="-120" y2="-1214.3"/>
				<line id="Línea_1659" class="st5" x1="-103.7" y1="-1225.3" x2="-114.7" y2="-1214.3"/>
				<line id="Línea_1660" class="st5" x1="-98.4" y1="-1225.3" x2="-109.3" y2="-1214.3"/>
				<line id="Línea_1661" class="st5" x1="-93" y1="-1225.3" x2="-104" y2="-1214.3"/>
				<line id="Línea_1662" class="st5" x1="-87.7" y1="-1225.3" x2="-98.7" y2="-1214.3"/>
				<line id="Línea_1663" class="st5" x1="-82.4" y1="-1225.3" x2="-93.3" y2="-1214.3"/>
				<line id="Línea_1664" class="st5" x1="-77" y1="-1225.3" x2="-88" y2="-1214.3"/>
				<line id="Línea_1665" class="st5" x1="-71.7" y1="-1225.3" x2="-82.7" y2="-1214.3"/>
				<line id="Línea_1666" class="st5" x1="-66.4" y1="-1225.3" x2="-77.3" y2="-1214.3"/>
				<line id="Línea_1667" class="st5" x1="-61" y1="-1225.3" x2="-72" y2="-1214.3"/>
			</g>
		</g>
		<g id="Grupo_149859" transform="translate(215.347 232.48)" class="st6">
			<g id="Grupo_124677">
				<g id="Grupo_124673">
					<line id="Línea_1668" class="st7" x1="-131.6" y1="-1225.3" x2="-131.6" y2="-1216.4"/>
					<line id="Línea_1669" class="st7" x1="-136" y1="-1220.8" x2="-127.2" y2="-1220.8"/>
				</g>
				<g id="Grupo_124674" transform="translate(24.072)">
					<line id="Línea_1670" class="st7" x1="-131.6" y1="-1225.3" x2="-131.6" y2="-1216.4"/>
					<line id="Línea_1671" class="st7" x1="-136" y1="-1220.8" x2="-127.2" y2="-1220.8"/>
				</g>
				<g id="Grupo_124675" transform="translate(48.144)">
					<line id="Línea_1672" class="st7" x1="-131.6" y1="-1225.3" x2="-131.6" y2="-1216.4"/>
					<line id="Línea_1673" class="st7" x1="-136" y1="-1220.8" x2="-127.2" y2="-1220.8"/>
				</g>
				<g id="Grupo_124676" transform="translate(72.215)">
					<line id="Línea_1674" class="st7" x1="-131.6" y1="-1225.3" x2="-131.6" y2="-1216.4"/>
					<line id="Línea_1675" class="st7" x1="-136" y1="-1220.8" x2="-127.2" y2="-1220.8"/>
				</g>
			</g>
			<g id="Grupo_124682" transform="translate(0 18.33)">
				<g id="Grupo_124678">
					<line id="Línea_1676" class="st7" x1="-131.6" y1="-1225.3" x2="-131.6" y2="-1216.4"/>
					<line id="Línea_1677" class="st7" x1="-136" y1="-1220.8" x2="-127.2" y2="-1220.8"/>
				</g>
				<g id="Grupo_124679" transform="translate(24.072)">
					<line id="Línea_1678" class="st7" x1="-131.6" y1="-1225.3" x2="-131.6" y2="-1216.4"/>
					<line id="Línea_1679" class="st7" x1="-136" y1="-1220.8" x2="-127.2" y2="-1220.8"/>
				</g>
				<g id="Grupo_124680" transform="translate(48.144)">
					<line id="Línea_1680" class="st7" x1="-131.6" y1="-1225.3" x2="-131.6" y2="-1216.4"/>
					<line id="Línea_1681" class="st7" x1="-136" y1="-1220.8" x2="-127.2" y2="-1220.8"/>
				</g>
				<g id="Grupo_124681" transform="translate(72.215)">
					<line id="Línea_1682" class="st7" x1="-131.6" y1="-1225.3" x2="-131.6" y2="-1216.4"/>
					<line id="Línea_1683" class="st7" x1="-136" y1="-1220.8" x2="-127.2" y2="-1220.8"/>
				</g>
			</g>
			<g id="Grupo_124687" transform="translate(0 36.66)">
				<g id="Grupo_124683">
					<line id="Línea_1684" class="st7" x1="-131.6" y1="-1225.3" x2="-131.6" y2="-1216.4"/>
					<line id="Línea_1685" class="st7" x1="-136" y1="-1220.8" x2="-127.2" y2="-1220.8"/>
				</g>
				<g id="Grupo_124684" transform="translate(24.072)">
					<line id="Línea_1686" class="st7" x1="-131.6" y1="-1225.3" x2="-131.6" y2="-1216.4"/>
					<line id="Línea_1687" class="st7" x1="-136" y1="-1220.8" x2="-127.2" y2="-1220.8"/>
				</g>
				<g id="Grupo_124685" transform="translate(48.144)">
					<line id="Línea_1688" class="st7" x1="-131.6" y1="-1225.3" x2="-131.6" y2="-1216.4"/>
					<line id="Línea_1689" class="st7" x1="-136" y1="-1220.8" x2="-127.2" y2="-1220.8"/>
				</g>
				<g id="Grupo_124686" transform="translate(72.215)">
					<line id="Línea_1690" class="st7" x1="-131.6" y1="-1225.3" x2="-131.6" y2="-1216.4"/>
					<line id="Línea_1691" class="st7" x1="-136" y1="-1220.8" x2="-127.2" y2="-1220.8"/>
				</g>
			</g>
			<g id="Grupo_124692" transform="translate(0 54.99)">
				<g id="Grupo_124688">
					<line id="Línea_1692" class="st7" x1="-131.6" y1="-1225.3" x2="-131.6" y2="-1216.4"/>
					<line id="Línea_1693" class="st7" x1="-136" y1="-1220.8" x2="-127.2" y2="-1220.8"/>
				</g>
				<g id="Grupo_124689" transform="translate(24.072)">
					<line id="Línea_1694" class="st7" x1="-131.6" y1="-1225.3" x2="-131.6" y2="-1216.4"/>
					<line id="Línea_1695" class="st7" x1="-136" y1="-1220.8" x2="-127.2" y2="-1220.8"/>
				</g>
				<g id="Grupo_124690" transform="translate(48.144)">
					<line id="Línea_1696" class="st7" x1="-131.6" y1="-1225.3" x2="-131.6" y2="-1216.4"/>
					<line id="Línea_1697" class="st7" x1="-136" y1="-1220.8" x2="-127.2" y2="-1220.8"/>
				</g>
				<g id="Grupo_124691" transform="translate(72.215)">
					<line id="Línea_1698" class="st7" x1="-131.6" y1="-1225.3" x2="-131.6" y2="-1216.4"/>
					<line id="Línea_1699" class="st7" x1="-136" y1="-1220.8" x2="-127.2" y2="-1220.8"/>
				</g>
			</g>
		</g>
		<path id="Trazado_174309" class="st2" d="M1129-949.8c-11.5,0-20.8,9.3-20.8,20.8c0,11.5,9.3,20.8,20.8,20.8
			c11.5,0,20.8-9.3,20.8-20.8C1149.9-940.5,1140.5-949.8,1129-949.8C1129-949.8,1129-949.8,1129-949.8z M1129-919.2
			c-5.4,0-9.7-4.4-9.7-9.7s4.4-9.7,9.7-9.7c5.4,0,9.7,4.4,9.7,9.7S1134.4-919.2,1129-919.2L1129-919.2z"/>
		<g id="Grupo_124746" transform="translate(854.972 204.026)" class="st8">
			<g>
				<defs>
					<circle id="SVGID_1_" cx="-91.6" cy="-1180.8" r="44.4"/>
				</defs>
				<clipPath id="SVGID_00000119094843524955313090000000264623749743105422_">
					<use xlink:href="#SVGID_1_"  style="overflow:visible;"/>
				</clipPath>
				
					<g id="Grupo_124745" transform="translate(0)" style="clip-path:url(#SVGID_00000119094843524955313090000000264623749743105422_);">
					<path id="Trazado_174310" class="st10" d="M-103-1227.3c-12.3,13-25.5,25.2-37.8,38.3"/>
					<path id="Trazado_174311" class="st10" d="M-97.4-1227.4c-13.7,14.7-29,28.9-43.4,43.4"/>
					<path id="Trazado_174312" class="st10" d="M-92.2-1227.4c-16.2,16.2-32.6,32.6-48.7,48.7"/>
					<path id="Trazado_174313" class="st10" d="M-87-1227.2c-17.7,17.7-35.6,35.6-53.8,53.8"/>
					<path id="Trazado_174314" class="st10" d="M-80.7-1227.3c-19.8,19.3-39.8,38.9-60.1,59"/>
					<path id="Trazado_174315" class="st10" d="M-76.6-1227.2c-20.8,21.4-41.3,41.4-62.5,63.1c-0.5,0.5-1.6,0.5-1.9,1.3"/>
					<path id="Trazado_174316" class="st10" d="M-70.8-1227.3c-12.8,13.6-26.5,25.7-40.2,39.4c-10,10.6-20.1,19.5-29.7,30.1"/>
					<path id="Trazado_174317" class="st10" d="M-67.3-1226.3c-24.3,24.6-49.6,48.4-73.5,73.7"/>
					<path id="Trazado_174318" class="st10" d="M-67.3-1221c-24.2,24.2-49,49-73.4,73.5"/>
					<path id="Trazado_174319" class="st10" d="M-64.7-1218.2c-25.3,25.5-51.1,50.4-76,75.9"/>
					<path id="Trazado_174320" class="st10" d="M-59.4-1218.2c-27.4,27.2-53.8,55.1-81.5,81.4"/>
					<path id="Trazado_174321" class="st10" d="M-54.5-1218l-83.5,83.5"/>
					<path id="Trazado_174322" class="st10" d="M-49.4-1218c-27.9,27.5-55.3,55.5-83.4,83.5"/>
					<path id="Trazado_174323" class="st10" d="M-46.7-1215.7c-26.9,26.7-53.3,54.1-81,81.2"/>
					<path id="Trazado_174324" class="st10" d="M-46.5-1210.7c-25.5,25.4-49.8,51.8-76,76.2"/>
					<path id="Trazado_174325" class="st10" d="M-46.7-1205c-23.7,23.4-47,47.2-70.5,70.5"/>
					<path id="Trazado_174326" class="st10" d="M-46.5-1200.1c-21.8,21.7-43.4,43.9-65.4,65.6"/>
					<path id="Trazado_174327" class="st10" d="M-46.6-1194.8c-20.1,20.1-40.2,40.2-60.2,60.3"/>
					<path id="Trazado_174328" class="st10" d="M-46.5-1189.6c-18.1,18.6-36.6,37.1-55,55"/>
					<path id="Trazado_174329" class="st10" d="M-46.6-1184.3c-16.4,16.4-33.3,33.3-49.7,49.8"/>
					<path id="Trazado_174330" class="st10" d="M-46.7-1178.9c-14.7,14.7-29.5,29.5-44.4,44.4"/>
					<path id="Trazado_174331" class="st10" d="M-46.6-1174c-10.2,10.2-20.5,20.4-30.6,30.7c-2.9,2.9-5.8,5.9-8.7,8.8"/>
					<path id="Trazado_174332" class="st10" d="M-46.6-1168.2c-11.2,11.4-22.8,23-34.1,33.7"/>
				</g>
			</g>
		</g>
		<ellipse id="Elipse_4980" class="st10" cx="999.4" cy="-981.4" rx="4.3" ry="4.3"/>
		<g id="Grupo_124749" transform="translate(1172.136 209.217)">
			<g id="Grupo_124668-2" transform="translate(0 0)">
				<line id="Línea_1655-2" class="st5" x1="-127.4" y1="-1225.3" x2="-136" y2="-1216.6"/>
				<line id="Línea_1656-2" class="st5" x1="-123.2" y1="-1225.3" x2="-131.8" y2="-1216.6"/>
				<line id="Línea_1657-2" class="st5" x1="-119" y1="-1225.3" x2="-127.6" y2="-1216.6"/>
				<line id="Línea_1658-2" class="st5" x1="-114.8" y1="-1225.3" x2="-123.4" y2="-1216.6"/>
				<line id="Línea_1659-2" class="st5" x1="-110.6" y1="-1225.3" x2="-119.2" y2="-1216.6"/>
				<line id="Línea_1660-2" class="st5" x1="-106.4" y1="-1225.3" x2="-115" y2="-1216.6"/>
				<line id="Línea_1661-2" class="st5" x1="-102.2" y1="-1225.3" x2="-110.8" y2="-1216.6"/>
				<line id="Línea_1662-2" class="st5" x1="-98" y1="-1225.3" x2="-106.6" y2="-1216.6"/>
				<line id="Línea_1663-2" class="st5" x1="-93.8" y1="-1225.3" x2="-102.4" y2="-1216.6"/>
				<line id="Línea_1664-2" class="st5" x1="-89.6" y1="-1225.3" x2="-98.2" y2="-1216.6"/>
				<line id="Línea_1665-2" class="st5" x1="-85.4" y1="-1225.3" x2="-94" y2="-1216.6"/>
				<line id="Línea_1666-2" class="st5" x1="-81.2" y1="-1225.3" x2="-89.8" y2="-1216.6"/>
				<line id="Línea_1667-2" class="st5" x1="-77" y1="-1225.3" x2="-85.6" y2="-1216.6"/>
			</g>
		</g>
	</g>
</g>
</svg>
