<svg id="Grupo_982074" data-name="Grupo 982074" xmlns="http://www.w3.org/2000/svg" xmlns:xlink="http://www.w3.org/1999/xlink" width="82.982" height="83.874" viewBox="0 0 82.982 83.874">
  <defs>
    <clipPath id="clip-path">
      <rect id="Rectángulo_58328" data-name="Rectángulo 58328" width="47.785" height="47.77" fill="#12263f"/>
    </clipPath>
  </defs>
  <ellipse id="Elipse_4870" data-name="Elipse 4870" cx="41.491" cy="41.937" rx="41.491" ry="41.937" transform="translate(0 0)" fill="#f4a338"/>
  <g id="Grupo_180441" data-name="Grupo 180441" transform="translate(17.586 18.977)">
    <g id="Grupo_180440" data-name="Grupo 180440" clip-path="url(#clip-path)">
      <path id="Trazado_231951" data-name="Trazado 231951" d="M9.535,0H45.94a2.61,2.61,0,0,1,1.845,2.84c-.035,7.992-.016,15.984-.017,23.977a2.3,2.3,0,0,1-2.464,2.46q-5.416,0-10.833,0H33.9c0,1.374-.022,2.674.013,3.972.011.415-.135.56-.507.629-.442.083-.875.214-1.341.331l.911,1.539-4.153,4.166L27.276,39c-.134.517-.288.991-.373,1.477-.056.32-.209.369-.488.365-.931-.013-1.862-.005-2.792-.005h-.933c.669,2.326.34,4.621.434,6.936H0V42.762a1.752,1.752,0,0,0,.087-.272,11.459,11.459,0,0,1,7.684-9.5c.092-.036.18-.081.31-.14-.132-.106-.218-.176-.3-.245a6.119,6.119,0,0,1-.456-9.325,1.171,1.171,0,0,0,.392-.955q-.013-9.887,0-19.775a3.59,3.59,0,0,1,.072-.808A2.439,2.439,0,0,1,9.535,0m2.812,21.616a6.12,6.12,0,0,1,4.3,2.678.726.726,0,0,0,.693.368q12.638-.013,25.276-.007h.5v-20H12.346ZM44.667,3.087V26.209H17.579l.206,1.515H45.2c.76,0,1.019-.271,1.019-1.06q0-11.99,0-23.98c0-.9-.231-1.129-1.143-1.129H10.4c-.914,0-1.144.226-1.144,1.128q0,9.366,0,18.731v.55a5.6,5.6,0,0,1,1.022-.269c.43-.029.5-.219.5-.608Q10.764,12.4,10.773,3.7V3.087Zm-28.5,24.671a4.612,4.612,0,1,0-4.609,4.593,4.649,4.649,0,0,0,4.609-4.593M32.315,32.5V29.32H29.122a5.328,5.328,0,0,1-2.281,6.016,5.032,5.032,0,0,1-5.8.073,5.342,5.342,0,0,1-2.4-6.093h-1.1a6.436,6.436,0,0,1-2.42,3.49c.03.063.033.084.043.087a11.731,11.731,0,0,1,6.907,6.171.394.394,0,0,0,.275.2c1.071.014,2.142.009,3.208.009.146-.56.269-1.073.418-1.578a.662.662,0,0,1,.246-.368c.439-.257.883-.436,1.353-.009a6.9,6.9,0,0,0,.775.479.377.377,0,0,0,.574-.062q.915-.956,1.871-1.872a.379.379,0,0,0,.077-.573c-.232-.345-.445-.7-.643-1.071a.689.689,0,0,1-.1-.438,1.081,1.081,0,0,1,.956-.974,9.654,9.654,0,0,0,1.224-.307M5.832,35.823a9.306,9.306,0,0,0-2.2,2.108c-1.837,2.358-2.159,5.1-2.032,7.962,0,.1.207.272.327.281.446.034.9-.011,1.346.021.417.03.556-.1.55-.536-.023-1.684-.01-3.368-.01-5.052V40.07H5.435v.62c0,1.668.009,3.336-.007,5,0,.37.092.509.485.5,1.315-.022,2.63-.007,3.945-.01a3.648,3.648,0,0,0,.408-.051L5.832,35.823M19.3,40.054v.591c0,1.684.01,3.368-.007,5.051,0,.375.1.525.489.5a9.332,9.332,0,0,1,1.25,0c.369.023.527-.086.5-.483-.031-.527.011-1.059-.011-1.587a11.06,11.06,0,0,0-.87-4.2,9.973,9.973,0,0,0-3.372-4.109L12.842,46.153c.207.016.33.033.453.033,1.3,0,2.6-.011,3.9.009.38.006.5-.108.5-.492-.018-1.7-.008-3.4-.008-5.1v-.549Zm4.628-10.777c-1.075,0-2.151.011-3.225-.008-.281,0-.442.093-.466.35a8.309,8.309,0,0,0-.106,1.893,3.794,3.794,0,0,0,4.7,3.031,3.856,3.856,0,0,0,2.7-4.927.422.422,0,0,0-.476-.345c-1.043.019-2.086.008-3.129.008m-8.57,5.4c-.634,1.9-1.906,3.023-3.525,3.07a3.9,3.9,0,0,1-4.1-3.068l-.516.25,4.34,10.086L15.9,34.924l-.536-.245m-6.018-.487a2.232,2.232,0,0,0,2.386,2,2.114,2.114,0,0,0,2-2.016,8.957,8.957,0,0,0-4.381.013" fill="#12263f"/>
      <rect id="Rectángulo_58314" data-name="Rectángulo 58314" width="9.176" height="1.48" transform="translate(35.473 32.402)" fill="#12263f"/>
      <rect id="Rectángulo_58315" data-name="Rectángulo 58315" width="9.18" height="1.481" transform="translate(35.468 35.468)" fill="#12263f"/>
      <rect id="Rectángulo_58316" data-name="Rectángulo 58316" width="1.469" height="1.495" transform="translate(37.024 38.56)" fill="#12263f"/>
      <rect id="Rectángulo_58317" data-name="Rectángulo 58317" width="1.495" height="1.472" transform="translate(40.092 38.563)" fill="#12263f"/>
      <rect id="Rectángulo_58318" data-name="Rectángulo 58318" width="1.478" height="1.481" transform="translate(43.172 38.55)" fill="#12263f"/>
      <path id="Trazado_231952" data-name="Trazado 231952" d="M159.366,81.054V73.406h5.352V71.874h-5.351v-3.08h-3.073v3.024H143.97V64.18h12.292V67.2h3.073V64.172h12.323v7.657h-5.337v1.549h5.328v7.676Zm1.567-10.786h9.17V65.723h-9.17Zm0,9.247h9.17V74.968h-9.17Zm-15.41-9.246h9.17V65.722h-9.17Z" transform="translate(-130.076 -57.979)" fill="#12263f"/>
      <rect id="Rectángulo_58319" data-name="Rectángulo 58319" width="10.742" height="1.473" transform="translate(13.887 18.521)" fill="#12263f"/>
      <rect id="Rectángulo_58320" data-name="Rectángulo 58320" width="6.874" height="1.484" transform="translate(17.743 21.598)" fill="#12263f"/>
      <rect id="Rectángulo_58321" data-name="Rectángulo 58321" width="1.482" height="1.491" transform="translate(16.984 15.439)" fill="#12263f"/>
      <rect id="Rectángulo_58322" data-name="Rectángulo 58322" width="1.481" height="1.482" transform="translate(20.059 15.448)" fill="#12263f"/>
      <rect id="Rectángulo_58323" data-name="Rectángulo 58323" width="1.479" height="1.499" transform="translate(23.142 15.433)" fill="#12263f"/>
      <rect id="Rectángulo_58324" data-name="Rectángulo 58324" width="3.056" height="1.499" transform="translate(35.464 9.267)" fill="#12263f"/>
      <rect id="Rectángulo_58325" data-name="Rectángulo 58325" width="1.51" height="1.493" transform="translate(32.385 9.27)" fill="#12263f"/>
      <rect id="Rectángulo_58326" data-name="Rectángulo 58326" width="6.107" height="1.501" transform="translate(32.389 18.52)" fill="#12263f"/>
      <rect id="Rectángulo_58327" data-name="Rectángulo 58327" width="6.909" height="1.498" transform="translate(16.955 9.267)" fill="#12263f"/>
    </g>
  </g>
</svg>
